<?xml version="1.0" encoding="utf-8"?>
<!-- Generator: Adobe Illustrator 19.0.0, SVG Export Plug-In . SVG Version: 6.00 Build 0)  -->
<svg version="1.1" id="Layer_1" xmlns="http://www.w3.org/2000/svg" xmlns:xlink="http://www.w3.org/1999/xlink" x="0px" y="0px"
	 viewBox="-3.5 5.5 14 14" style="enable-background:new -3.5 5.5 14 14;" xml:space="preserve">
<style type="text/css">
	.st0{fill:#A76CAB;}
	.st1{fill:#1F98CE;}
	.st2{fill:#D64C94;}
	.st3{fill:#70C5C8;}
	.st4{fill:#C8D52D;}
	.st5{fill:#F4D408;}
	.st6{fill:#F39021;}
	.st7{fill:#E8403A;}
</style>
<g id="colored">
	<g id="XMLID_1216_">
		<path id="XMLID_1217_" class="st0" d="M4,5.5h0.1C3.3,5.8,2.5,5.9,1.8,6.3C0,7.4-1.1,9.8-0.5,11.8C-0.1,13,0.8,14,2,14.4
			c0.5,0.2,1,0.2,1.5,0.2c-0.9,0.4-2,0.4-2.9-0.1c-1.6-0.8-2.6-2.7-2.3-4.5c0.2-1.7,1.4-3.2,3-3.9C1.3,6,1.5,6,1.7,5.9
			C2.4,5.6,3.2,5.5,4,5.5z"/>
	</g>
	<g id="XMLID_1214_">
		<path id="XMLID_1215_" class="st1" d="M3,6.2c1.7-0.5,3.6-0.1,5.1,1c0.2,0.1,0.3,0.3,0.4,0.4C7.9,7.5,7.4,7.2,6.9,7
			C5.6,6.5,4,6.8,2.8,7.5c-1.3,0.8-2.2,2.2-2.1,3.8c0,1,0.5,2,1.3,2.7c-0.9-0.2-1.5-1-1.9-1.8C-0.4,11-0.3,9.5,0.3,8.4
			C0.9,7.3,1.9,6.6,3,6.2z"/>
	</g>
	<g id="XMLID_1212_">
		<path id="XMLID_1213_" class="st2" d="M-3,12.1c-0.2-1.9,0.6-3.9,2.1-5.1c-0.5,0.7-1,1.3-1.2,2.1c-0.6,2.1,0.3,4.5,2.2,5.6
			c1.1,0.7,2.5,0.7,3.7,0.1c0.4-0.2,0.7-0.5,1.1-0.7C4.6,15,4,15.6,3.2,15.9c-1.4,0.6-3.1,0.4-4.3-0.5C-2.1,14.7-2.8,13.4-3,12.1z"
			/>
	</g>
	<g id="XMLID_1210_">
		<path id="XMLID_1211_" class="st3" d="M1.3,9.9C2,8,4.2,6.8,6.2,7.2c1.6,0.3,2.9,1.4,3.7,2.8c0,0.1,0.1,0.1,0.1,0.2
			c0.4,0.8,0.5,1.7,0.5,2.7v0.3c-0.2-0.7-0.3-1.3-0.6-2c-0.8-1.9-3-3.1-5-2.8c-1.3,0.1-2.4,0.9-3,2c-0.4,0.6-0.4,1.3-0.5,2
			C1,11.6,1,10.7,1.3,9.9z"/>
	</g>
	<g id="XMLID_1208_">
		<path id="XMLID_1209_" class="st4" d="M4,9.1c1.1-0.4,2.4-0.4,3.5,0.2c1.4,0.6,2.3,2,2.5,3.5c0.1,0.9,0.1,1.9-0.3,2.7
			c-0.4,0.9-0.9,1.8-1.7,2.4c0.4-0.7,1-1.3,1.2-2.2c0.7-2.3-0.5-4.9-2.7-5.8c-0.9-0.3-2-0.3-2.9,0.1c-0.5,0.2-0.9,0.6-1.3,0.9
			C2.3,10,3.2,9.4,4,9.1z"/>
	</g>
	<g id="XMLID_1206_">
		<path id="XMLID_1207_" class="st5" d="M3.7,10.4c0.5-0.3,1.2-0.3,1.8-0.2c1.5,0.3,2.8,1.6,3.2,3.1c0.3,1,0.2,2-0.2,3
			c-0.9,2.2-3.4,3.6-5.8,3.3c0.8-0.1,1.6-0.2,2.3-0.6c1.3-0.6,2.1-1.9,2.5-3.2c0.2-1,0.2-2.1-0.3-3c-0.4-0.9-1.1-1.5-1.9-1.9
			C4.8,10.5,4.2,10.5,3.7,10.4z"/>
	</g>
	<g id="XMLID_1204_">
		<path id="XMLID_1205_" class="st6" d="M5.1,11c0.7,0.3,1.3,0.8,1.7,1.4c0.8,1.4,0.7,3.2-0.2,4.5c-0.7,1.1-1.9,1.8-3.2,2
			c-1.9,0.2-4-0.4-5.1-2c0.6,0.4,1.1,0.8,1.7,1c2.2,0.8,5-0.2,6.1-2.4c0.6-1.3,0.5-3-0.5-4.1C5.3,11.4,5.2,11.2,5.1,11z"/>
	</g>
	<g id="XMLID_1202_">
		<path id="XMLID_1203_" class="st7" d="M-3.5,11.8c0.2,0.7,0.3,1.4,0.6,2.1c0.9,2,3.4,3.3,5.6,2.7c1.2-0.3,2.2-1.2,2.7-2.4
			c0.2-0.5,0.2-1,0.3-1.5c0.1,0.4,0.3,0.8,0.3,1.3c0,2.2-2.1,4-4.3,4C0.3,17.9-1,17.2-2,16.3c-0.4-0.5-0.8-1-1-1.6
			c-0.4-0.8-0.5-1.8-0.5-2.7V11.8z"/>
	</g>
</g>
</svg>
