<?xml version="1.0" encoding="utf-8"?>
<!-- Generator: Adobe Illustrator 19.0.0, SVG Export Plug-In . SVG Version: 6.00 Build 0)  -->
<svg version="1.1" id="Layer_1" xmlns="http://www.w3.org/2000/svg" xmlns:xlink="http://www.w3.org/1999/xlink" x="0px" y="0px"
	 viewBox="0 0 34.890667 34.8912125" style="enable-background:new 0 0 34.890667 34.8912125;" xml:space="preserve">
<style type="text/css">
	.st0{opacity:0.5;fill:#FFFFFF;}
	.st1{fill:none;stroke:#231F20;stroke-miterlimit:10;}
</style>
<g>
	<circle class="st0" cx="17.3236961" cy="17.1901531" r="16.0002499"/>
	<g>
		<path class="st1" d="M26.9909134,11.7704515l0.195322,0.3657398c0.4121304,0.7675371,0.6459751,1.6450691,0.6459751,2.5772572
			c0,2.2971201-1.5357952,3.721961-3.1660881,5.1837034c-2.6632347,2.3890705-4.9048634,4.1745987-7.344492,6.2489605
			c-0.7067528-0.6023769-1.3973017-1.1803989-2.0866795-1.7559166l-0.5942831-0.5563049l-1.4236183-1.1325073
			c-1.0329313-0.8708782-2.0949755-1.7823448-3.2341681-2.8042316c-1.6285963-1.4617424-3.1677003-2.8865833-3.1677003-5.1837034
			c0-3.0145025,2.4453969-5.4574394,5.4607472-5.4574394c2.2854986,0,4.2372017,1.4099121,5.045702,3.4055557
			c0.8150902-1.9956436,2.767643-3.4055557,5.053154-3.4055557c1.2081947,0,2.3252163,0.3930683,3.2298126,1.058424
			C25.6045971,10.3144331,26.6159134,11.0673265,26.9909134,11.7704515z"/>
	</g>
</g>
</svg>
