<?xml version="1.0" encoding="utf-8"?>
<!-- Generator: Adobe Illustrator 19.0.0, SVG Export Plug-In . SVG Version: 6.00 Build 0)  -->
<svg version="1.1" id="Layer_1" xmlns="http://www.w3.org/2000/svg" xmlns:xlink="http://www.w3.org/1999/xlink" x="0px" y="0px"
	 viewBox="0 0 34.890667 34.8912125" style="enable-background:new 0 0 34.890667 34.8912125;" xml:space="preserve">
<style type="text/css">
	.st0{opacity:0.5;fill:#FFFFFF;}
	.st1{fill:none;stroke:#231F20;stroke-miterlimit:10;}
	.st2{fill:none;stroke:#F70000;stroke-miterlimit:10;}
</style>
<circle class="st0" cx="17.4453335" cy="17.4456062" r="16.0002499"/>
<g>
	<g>
		<path class="st1" d="M27.0721092,12.1756182l0.2357655,0.2160273c0.4121304,0.7675371,0.6459732,1.6450691,0.6459732,2.5772572
			c0,2.2971191-1.5357952,3.7219601-3.1660881,5.1837025c-2.6632328,2.3890724-4.9048615,4.1745987-7.3444901,6.2489624
			c-0.7067528-0.6023788-1.3973026-1.1804008-2.0866804-1.7559166l-0.5942831-0.5563068"/>
		<path class="st1" d="M25.7262363,10.5698872c-0.9045963-0.6653566-2.0216198-1.058424-3.2298145-1.058424
			c-2.285511,0-4.2380619,1.4099121-5.0531521,3.4055557c-0.8085022-1.9956436-2.7602053-3.4055557-5.0457029-3.4055557
			c-3.0153503,0-5.4607477,2.4429369-5.4607477,5.4574394c0,2.2971191,1.5391035,3.7219601,3.1677008,5.1837025
			c1.1391926,1.0218887,2.2012367,1.9333534,3.2341681,2.8042316"/>
	</g>
	<line class="st2" x1="27.9538479" y1="8.3447971" x2="9.7522297" y2="26.5464153"/>
</g>
</svg>
