<?xml version="1.0" encoding="utf-8"?>
<!-- Generator: Adobe Illustrator 19.1.1, SVG Export Plug-In . SVG Version: 6.00 Build 0)  -->
<svg version="1.1" id="Слой_1" xmlns="http://www.w3.org/2000/svg" xmlns:xlink="http://www.w3.org/1999/xlink" x="0px" y="0px"
	 width="24px" height="24px" viewBox="0 0 24 24" style="enable-background:new 0 0 24 24;" xml:space="preserve">
<style type="text/css">
	.st0{fill:none;stroke:#222222;stroke-width:0.5;stroke-miterlimit:10;}
	.st1{fill:#222222;}
	.st2{fill:none;stroke:#222222;stroke-width:0.5;stroke-linejoin:round;stroke-miterlimit:10;}
</style>
<g>
	<path class="st1" d="M11.3565311,6.5930529c0.158411-0.1522827,0.4507179-0.0773201,0.5190802,0.1310663
		c0.2937212,0.7604694,0.5827284,1.5232964,0.8759775,2.2837658c0.062233,0.1362524,0.0358315,0.3111649-0.0858059,0.4059286
		c-0.0942926,0.086278-0.2286596,0.0759058-0.3465252,0.0716629c-0.532753-0.0231018-1.065506-0.0367746-1.598258-0.0579901
		c-0.1739702,0.3257809-0.4818354,0.5846138-0.8476906,0.6614618c-0.2418604,0.062233-0.4959784,0.0278168-0.7288809-0.0532751
		c-0.4205446,0.3979149-0.8335466,0.8043156-1.2545624,1.2012873c-0.1645408,0.1574688-0.4648623,0.0693045-0.5233235-0.1494541
		c-0.2937212-0.7708416-0.5940433-1.5397968-0.88305-2.3125238C6.3943863,8.5694246,6.5829711,8.3162489,6.8050299,8.3421793
		C7.3472123,8.3586807,7.8893943,8.379425,8.4315767,8.3963976c0.1885843-0.364912,0.5077648-0.6873927,0.9250097-0.7651839
		c0.2725048-0.0645905,0.5483112,0.009429,0.8024292,0.107965C10.5592871,7.3582368,10.9543734,6.9721088,11.3565311,6.5930529z"/>
	<path class="st1" d="M14.0081997,14.088706c0.2757044-0.0518379,0.575985,0.0622063,0.7441721,0.2872248
		c0.1478357,0.1904583,0.20121,0.4527235,0.1278687,0.6838846c-0.0760307,0.266489-0.3091116,0.4796038-0.5809765,0.5322104
		c-0.2230978,0.0503025-0.4642429-0.0153599-0.640111-0.1593561c-0.2388411-0.1919947-0.3402147-0.5375853-0.2399931-0.8278818
		C13.5024853,14.3421392,13.7382555,14.1386251,14.0081997,14.088706z"/>
	<path class="st1" d="M9.5541258,14.1266623c0.3673849-0.1491776,0.8183708,0.0467863,0.9702339,0.4099531
		c0.1173477,0.2649927,0.0667267,0.5936451-0.1257858,0.810317c-0.1721878,0.1978817-0.4502192,0.2949057-0.7079258,0.247736
		c-0.3328705-0.0517712-0.6086006-0.3508949-0.6289253-0.6879835C9.0279751,14.5749645,9.2392788,14.237875,9.5541258,14.1266623z"
		/>
	<path class="st1" d="M9.7183704,17.7589264c0.0900488-0.0556335,0.1876421,0.0032997,0.2701473,0.042902
		c0.777914,0.3964996,1.6736927,0.6199741,2.5463705,0.4785347c0.5332241-0.0782623,1.0490046-0.2602463,1.5237675-0.5148373
		c0.1404953-0.1023064,0.3422813,0.0603466,0.278163,0.2201729c-0.1739702,0.6836205-0.6327028,1.3111382-1.2781353,1.6157036
		c-0.5723562,0.2607193-1.2394753,0.2904205-1.8410616,0.1159801c-0.7944155-0.2291317-1.3832722-0.9391537-1.5836439-1.7260265
		C9.6023903,17.90555,9.6377497,17.8037148,9.7183704,17.7589264z"/>
	<path class="st0" d="M5.9394722,10.4597301c-0.6783037,0.9289036-1.1448517,2.0208616-1.3290849,3.2056398
		c-0.9937892,0.3008709-1.7145541,1.1937838-1.7145541,2.2487221c0,1.3019094,1.0976212,2.3573141,2.451606,2.3573141
		c0.0129519,0,0.0257139-0.0007458,0.0386171-0.0009384c1.2487345,2.3421574,3.7237754,3.9376507,6.573647,3.9376507
		c2.8496418,0,5.3245125-1.5952377,6.5733452-3.9370861c0.0051403,0.0000305,0.0101986,0.0003738,0.0153465,0.0003738
		C19.90238,18.2714062,21,17.2160015,21,15.9140921c0-1.0460348-0.708828-1.9324017-1.6896305-2.2406158
		c-0.4763718-3.0862532-2.8682175-5.5441904-5.9295626-6.1336889"/>
	<path class="st0" d="M4.1956263,5.8716946c0,0,2.9216843-1.9780154,4.1701174,1.4862924"/>
	<path class="st0" d="M9.6224976,6.9458809c0,0-1.7082896-3.5618501,2.0529766-4.9227285"/>
</g>
</svg>
