<?xml version="1.0" encoding="utf-8"?>
<!-- Generator: Adobe Illustrator 19.1.1, SVG Export Plug-In . SVG Version: 6.00 Build 0)  -->
<svg version="1.1" id="Слой_1" xmlns="http://www.w3.org/2000/svg" xmlns:xlink="http://www.w3.org/1999/xlink" x="0px" y="0px"
	 width="24px" height="24px" viewBox="0 0 24 24" style="enable-background:new 0 0 24 24;" xml:space="preserve">
<style type="text/css">
	.st0{fill:none;stroke:#222222;stroke-width:0.5;stroke-miterlimit:10;}
	.st1{fill:#222222;}
	.st2{fill:none;stroke:#222222;stroke-width:0.5;stroke-linejoin:round;stroke-miterlimit:10;}
</style>
<path class="st1" d="M20.6945534,19.721899c-0.6085663-1.1828651-1.5503597-2.1600113-2.5703659-2.9968014
	c-0.5035686-0.4446392-1.129282-0.7425013-1.5674934-1.2610712c0.0192776-0.1307182,0.0567875-0.2678585,0.0032177-0.3942862
	c-0.1607151-0.4403639-0.3535786-0.8689375-0.5175114-1.3071499c-0.062151-0.018219-0.1853561-0.0546436-0.2464352-0.0728559
	c0.0235691-0.2400064-0.0674877-0.5292883,0.1210861-0.7200069c0.5207024-0.5903597,0.9310684-1.2685728,1.2396412-1.9917898
	c0.0482235-0.158576,0.1917782-0.2421446,0.3321419-0.3107176c0.4992924-0.2539291,0.9417934-0.6353588,1.2428722-1.1100035
	c0.4435616-0.7082214,0.0728512-1.8825078-0.8367939-1.955358c0.0246391-1.3125048-0.1510773-2.6914515-0.8796425-3.8153834
	c-0.6053753-0.9546373-1.6146574-1.5996418-2.6968012-1.8846467c-1.2825155-0.333214-2.656086-0.3257067-3.9310942,0.036425
	c-0.9836197,0.2775627-1.9034147,0.9062186-2.501152,1.7411176C7.8849411,3.6790049,7.8601956,3.7146976,7.8585086,3.717104
	c0.0003009,0.0000784,0.0005622,0.0002224,0.0008631,0.000314C7.6532855,4.0547256,7.4764314,4.4079638,7.3340664,4.7762165
	c-0.0003591-0.0004902-0.070013,0.2218604-0.1262689,0.4088583C7.1660314,5.3239064,7.1332831,5.4662352,7.1096253,5.6092696
	C6.8805137,6.9944849,6.9613805,7.2169466,6.9480782,7.597569C6.0555797,7.6639843,5.6570096,8.7943573,6.0727129,9.5090017
	c0.3428664,0.5785761,0.8989468,1.0146437,1.5139484,1.2792902c0.3225021,0.7660713,0.7328434,1.5010786,1.2825022,2.1278639
	c0.2185764,0.1907187,0.1489172,0.4917908,0.1682091,0.7489309c-0.0621386,0.0267859-0.1853561,0.0803576-0.2474947,0.1071434
	c-0.173584,0.5700026-0.5892878,1.0960798-0.5303669,1.7110815c-0.1564245,0.1628532-0.3150082,0.3246403-0.4960737,0.4585695
	c-1.4828596,1.0221519-2.8885789,2.2757225-3.6932259,3.9139481c-0.3921349,0.7660694-0.4746373,1.635006-0.4285731,2.4825077
	c5.8532376,0.0010719,11.7064762,0.0064278,17.5586414-0.0021458C21.2474289,21.4394035,21.1241989,20.5211849,20.6945534,19.721899
	z M16.1270485,15.1768837c-0.6300039,0.7671423-1.3039389,1.496788-1.9585829,2.2435741
	c-0.280715-0.4360676-0.6053619-0.8410721-0.8667984-1.2867851c0.6525116-0.5335789,1.3543053-1.003933,2.018589-1.5235815
	c0.14464-0.1017876,0.2764378-0.2399998,0.4542856-0.2871428C15.8998919,14.6036625,16.0006123,14.8950958,16.1270485,15.1768837z
	 M12.7220316,16.2322426c-0.2046347,0-0.4092951-0.0021458-0.6107121-0.0021458
	c-0.0460768-0.1275005-0.0332203-0.2882156-0.1628599-0.3642826c-0.8260698-0.6310759-1.6725178-1.234293-2.4953709-1.8696518
	c0.0096521-0.111433,0.0289307-0.3321486,0.0396423-0.442502c0.9342995,0.7564306,2.1364441,1.2460766,3.3546495,1.0928621
	c0.9300089-0.0792847,1.771081-0.5357161,2.4996605-1.0960798c-0.036438,0.1746445,0.0846481,0.4339352-0.1049976,0.5517902
	c-0.64715,0.492857-1.3049984,0.9707184-1.9553652,1.4571466C13.0541725,15.7436686,12.7188139,15.8850985,12.7220316,16.2322426z
	 M12.980237,16.6843834c-0.0696325,0.3000069-0.1553526,0.5967884-0.2539158,0.8892956
	c-0.2057199-0.0021458-0.410367-0.0010738-0.6139288,0.0021381c-0.1049986-0.2903557-0.1939354-0.586071-0.2775106-0.8807144
	C12.2152452,16.6876011,12.5977545,16.6865292,12.980237,16.6843834z M8.0238008,4.2836213
	c0.0945225-0.1362176,0.1889524-0.2726316,0.286705-0.4062994c0.7952175-1.0642917,2.193325-1.6384995,3.4793844-1.7301443
	c1.3767881-0.1071432,2.868227,0.1007216,3.9857244,0.9696519c0.7757158,0.5957229,1.2578611,1.4967883,1.4807272,2.4364369
	c-0.3782196-0.4960608-0.7393036-1.0135708-1.2257252-1.4121408c-0.2432175-0.1885734-0.4778681-0.4457197-0.8014297-0.4714332
	c-0.2121553,0.2700033-0.35571,0.5860705-0.5839396,0.8442898c-0.5967817,0.6835747-1.5192842,1.0735774-2.4267845,1.0028596
	c-0.9011965-0.0441155-1.7366838-0.5531902-2.2537756-1.281796C9.9582005,4.2251716,9.949542,4.2119222,9.9402428,4.1976533l0,0
	C9.8384485,4.0251408,9.7102356,3.8078985,9.6159487,3.6332676C9.4080973,3.7189875,9.2045088,3.8175509,9.0223703,3.9482625
	c-0.1735716,0.144654-0.338563,0.3000066-0.50035,0.4564316C8.3645229,4.556829,8.2187958,4.7207613,8.0784321,4.8868389
	C7.9370217,5.052916,7.7934403,5.2168484,7.647727,5.3775635c0.056776-0.2432175,0.1178551-0.4842901,0.1982126-0.7200131
	C7.8459396,4.6575503,7.9206729,4.4526415,8.0238008,4.2836213z M8.6955786,11.9379377
	c-0.3321285-0.4607153-0.5078583-1.0050049-0.7821383-1.4946499C7.330574,10.178647,6.739141,9.8229303,6.4434376,9.2304316
	C6.2730837,8.8489952,6.3727193,8.2993565,6.7712893,8.103282c0.2110691-0.0696459,0.435008,0.0353661,0.648222,0.0675011
	c-0.1296391-0.8367825,0.1542802-1.6585894,0.580708-2.3678641c0.0935411-0.1567912,0.1947994-0.3087168,0.3015499-0.4569936
	c0.1874743-0.2415957,0.4545479-0.5478148,0.6805534-0.7544761c0.1248789-0.1106486,0.2979527-0.2584023,0.4150496-0.3571095
	c0.0653687,0.093214,0.1685886,0.2357101,0.2392931,0.3289242c0.0003538-0.00034,0.0007067-0.0006537,0.0010595-0.0009942
	c0.7241726,0.9933515,1.9918165,1.5592542,3.2160902,1.3842177c1.0746508-0.1178551,2.0164442-0.8089242,2.5714388-1.7185693
	c0.4735785,0.3835549,0.921443,0.8089237,1.2524996,1.324276c0.5003757,0.7703671,0.8871479,1.683217,0.7253609,2.6196609
	c0.1939354-0.0396423,0.3889446-0.0996485,0.5914326-0.0921412c0.4757233,0.1639252,0.5753727,0.8153582,0.3621597,1.2192841
	c-0.3257198,0.535717-0.8603649,0.927865-1.4539433,1.118576c-0.5003624,1.2900095-1.302865,2.5275135-2.5167942,3.2453747
	c-0.9493008,0.5785694-2.1546621,0.7210722-3.2035866,0.3449984C10.1398811,13.6404457,9.2923737,12.8518734,8.6955786,11.9379377z
	 M9.0748701,14.2875891c0.8228655,0.6182184,1.6542988,1.2257195,2.4739475,1.8492937
	c-0.2978611,0.4232178-0.597868,0.8453617-0.878583,1.2803631c-0.6728497-0.7317905-1.3232164-1.4828653-1.9714384-2.2350063
	C8.8284349,14.8865223,8.9495201,14.5854502,9.0748701,14.2875891z M4.0819955,21.8979797
	c-0.0224957-0.7125053,0.1585832-1.4228668,0.5035815-2.0442963c0.5785632-1.0864334,1.4560733-1.9778671,2.3946366-2.7578659
	c0.5335846-0.4575043,1.1603703-0.8003654,1.6468043-1.3157234c0.5732145,0.6921482,1.1817942,1.3553658,1.7710819,2.0346565
	c0.1017809,0.0899963,0.219636,0.2817879,0.381423,0.1821384c0.2667856-0.2764244,0.4414301-0.628931,0.6846476-0.9267864
	c0.0964184,0.3150024,0.2571335,0.6353588,0.1950083,0.9750023c-0.1842966,1.281435-0.3932343,2.5596542-0.5603704,3.8432293
	C8.7598753,21.9086914,6.420929,21.8883343,4.0819955,21.8979797z M11.5466728,21.8969059
	c0.1853552-1.2942924,0.3803635-2.5864391,0.5742865-3.8785877c0.1982126,0,0.3974972,0.0010738,0.5989265,0.0053558
	c0.1746445,1.2932205,0.3760748,2.5821571,0.5710821,3.87216C12.7091742,21.8969059,12.1273804,21.895834,11.5466728,21.8969059z
	 M13.7356024,21.8926239c-0.1746311-1.2889366-0.3803635-2.5746574-0.5657196-3.8625202
	c-0.0599937-0.3364258,0.1017942-0.654644,0.198226-0.9675007c0.237855,0.3117828,0.4232101,0.6664276,0.6975031,0.9492874
	c0.1671371,0.0557175,0.2689314-0.1082153,0.3750019-0.2057133c0.5989275-0.6739292,1.1817932-1.3628654,1.7914324-2.0271492
	c0.5689373,0.6460705,1.3660774,1.0210724,1.9789333,1.6210785c1.2910824,1.1550007,2.5703659,2.6528625,2.5478706,4.4860878
	C18.4177589,21.9076176,16.0766945,21.894762,13.7356024,21.8926239z"/>
</svg>
