<?xml version="1.0" encoding="utf-8"?>
<!-- Generator: Adobe Illustrator 19.1.1, SVG Export Plug-In . SVG Version: 6.00 Build 0)  -->
<svg version="1.1" id="Слой_1" xmlns="http://www.w3.org/2000/svg" xmlns:xlink="http://www.w3.org/1999/xlink" x="0px" y="0px"
	 width="24px" height="24px" viewBox="0 0 24 24" style="enable-background:new 0 0 24 24;" xml:space="preserve">
<style type="text/css">
	.st0{fill:none;stroke:#222222;stroke-width:0.5;stroke-miterlimit:10;}
	.st1{fill:#222222;}
	.st2{fill:none;stroke:#222222;stroke-width:0.5;stroke-linejoin:round;stroke-miterlimit:10;}
</style>
<g>
	<path class="st2" d="M20.9713669,10.5721378c-0.0049267-0.7777796-0.2581234-1.5331964-0.6250286-2.2120504
		c-0.0569706-0.1093845-0.2311764-0.4023757-0.3358269-0.5442939c-0.5867462-0.8209896-1.3046398-1.550633-2.1244926-2.1400347
		c-0.1489601-0.1140876-0.3896484-0.0811119-0.4897137,0.0822525c-0.9661598,1.5005994-2.0085077,2.9538226-3.1357613,4.338058
		c-0.9415226,1.1458254-1.9395227,2.2548828-3.0751114,3.2123241c-0.3775206,0.3085356-0.7603445,0.6185865-1.1844854,0.8596544
		c-1.2773495,0.2001295-2.5520458,0.4377861-3.7971787,0.7914238c-0.7637548,0.2187042-1.5222049,0.4719-2.2302427,0.836154
		c-0.303987,0.1618471-0.6242723,0.3301392-0.8266761,0.6197224c-0.3115683,0.4313431-0.3145988,1.0241547-0.1106775,1.501358
		c0.055717,0.1292534,0.1948223,0.1989937,0.3312764,0.1978588c1.7079334,0.0807343,3.4162459,0.1660175,5.1241794,0.2482662
		l0.2440987,0.0200882c0.9032402,0.0265331,1.8053455,0.0837688,2.7078285,0.1228104
		c0.4032927,0.0140228,0.8062067,0.0587502,1.2098808,0.0447254c1.0889673-0.1387291,2.1529207-0.7702007,2.6490784-1.7731285
		c0.3665266-0.7664089,0.719409-1.5441904,1.1878958-2.2552605c0.3176327-0.4688663,0.6564903-0.9305315,1.0760822-1.3141155
		c0.1925507-0.1645021,0.4025345-0.3377218,0.6610374-0.3763819c0.2008877-0.0265322,0.3434067,0.1516142,0.4230022,0.3123255
		c0.0697441,0.1156054,0.0470028,0.2539539,0.0504131,0.3824453c-0.0015163,1.6685143-0.0007591,3.3366499-0.0003796,5.0051641
		c-0.0049286,0.1603298,0.1239452,0.3123245,0.2831402,0.3327923c0.1633644,0.0253944,0.3290024,0.0049267,0.4935036,0.0041676
		c0.1391068-0.0007553,0.2793484,0.0197105,0.4180756-0.0034103c0.146307-0.0197105,0.2729073-0.1493397,0.2820034-0.2982998
		c0.1296291-1.8959351,0.2596378-3.7930079,0.471899-5.6817417c0.0587502-0.4639387,0.1110573-0.9301519,0.2202187-1.3853731
		C20.9380112,11.1952715,20.978569,10.8840847,20.9713669,10.5721378z"/>
	<path class="st2" d="M13.7066603,10.7566061c0.7787466-0.9662762,2.4076529-2.8626771,3.6896448-4.9985948
		c-0.4510536,1.3868914-0.7887497,3.8552184-2.1980124,5.2644811c-0.9410563,0.9410563-3.8146925,2.6576071-5.0821867,3.0760612
		C11.2100801,13.4323311,12.7051449,11.9992943,13.7066603,10.7566061z"/>
</g>
</svg>
