<?xml version="1.0" encoding="utf-8"?>
<!-- Generator: Adobe Illustrator 19.1.1, SVG Export Plug-In . SVG Version: 6.00 Build 0)  -->
<svg version="1.1" id="Слой_1" xmlns="http://www.w3.org/2000/svg" xmlns:xlink="http://www.w3.org/1999/xlink" x="0px" y="0px"
	 width="24px" height="24px" viewBox="0 0 24 24" style="enable-background:new 0 0 24 24;" xml:space="preserve">
<style type="text/css">
	.st0{fill:none;stroke:#222222;stroke-width:0.5;stroke-miterlimit:10;}
	.st1{fill:#222222;}
	.st2{fill:none;stroke:#222222;stroke-width:0.5;stroke-linejoin:round;stroke-miterlimit:10;}
</style>
<g>
	<path class="st0" d="M20.5913811,8.6076679L8.1800165,21.0190334c-0.5881939,0.5881939-1.5418448,0.5881939-2.1300387,0
		l-2.6413596-2.6413593c-0.5881939-0.5881939-0.5881939-1.5418453,0-2.1300392L15.8199835,3.8362699
		c0.5881948-0.5881939,1.5418444-0.5881939,2.1300383,0l2.6413593,2.6413593
		C21.179575,7.0658231,21.179575,8.019474,20.5913811,8.6076679z"/>
	<line class="st0" x1="4.2464781" y1="15.4097757" x2="6.0357523" y2="17.199049"/>
	<line class="st0" x1="5.9505486" y1="13.7057047" x2="7.7398229" y2="15.4949789"/>
	<line class="st0" x1="7.6546197" y1="12.0016336" x2="9.4438934" y2="13.7909079"/>
	<line class="st0" x1="9.3302889" y1="10.325964" x2="12.3976164" y2="13.3932915"/>
	<line class="st0" x1="11.0059586" y1="8.6502943" x2="12.7952328" y2="10.4395685"/>
	<line class="st0" x1="12.7100296" y1="6.9462237" x2="14.4993038" y2="8.7354984"/>
	<line class="st0" x1="14.3856993" y1="5.2705541" x2="17.4530258" y2="8.337882"/>
</g>
</svg>
