<?xml version="1.0" encoding="utf-8"?>
<!-- Generator: Adobe Illustrator 19.1.1, SVG Export Plug-In . SVG Version: 6.00 Build 0)  -->
<svg version="1.1" id="Слой_1" xmlns="http://www.w3.org/2000/svg" xmlns:xlink="http://www.w3.org/1999/xlink" x="0px" y="0px"
	 width="24px" height="24px" viewBox="0 0 24 24" style="enable-background:new 0 0 24 24;" xml:space="preserve">
<style type="text/css">
	.st0{fill:none;stroke:#222222;stroke-width:0.5;stroke-miterlimit:10;}
	.st1{fill:#222222;}
	.st2{fill:none;stroke:#222222;stroke-width:0.5;stroke-linejoin:round;stroke-miterlimit:10;}
</style>
<g>
	<path class="st1" d="M9.7533417,2.0621705c1.5218811-0.6089556,3.3141832-0.535759,4.7649002,0.2399225
		c1.3358393,0.6953685,2.3514442,1.9366622,2.8536549,3.3487482c0.5154266,1.4242854,0.5449085,2.9939475,0.2246723,4.4649968
		c-0.3304024,1.6204939-0.6618195,3.2531862-0.7146835,4.911294c-0.0152493,0.9037762,0.0416813,1.874649,0.5611744,2.649313
		c0.2480545,0.3883495,0.6475868,0.6343708,1.0410194,0.8559952c-0.2500896,0.1179276-0.5052605,0.2236557-0.7665329,0.3100681
		c0.5072937,0.6089573,0.9657898,1.2900925,1.1101494,2.0840721c0.087431,0.466629,0.060997,0.9444408,0.0589638,1.4171696
		c-4.6571379-0.0010166-9.3142767-0.0030499-13.9703979,0c-0.0101662-0.623188-0.0386314-1.2646751,0.178925-1.8604145
		c0.1921415-0.6201401,0.5896401-1.1416664,0.9901886-1.6408272c-0.2622881-0.087429-0.5174599-0.1931572-0.7665319-0.3100681
		c0.4818783-0.257206,0.945457-0.5977726,1.189446-1.1040497c0.4808617-0.9566402,0.4493465-2.0698395,0.375133-3.1098423
		c-0.1189446-1.5086651-0.4300303-2.9929314-0.7299337-4.4741478C5.8434191,8.2228909,5.9654136,6.4844699,6.6902642,4.9849548
		C7.3083692,3.6816471,8.4063196,2.5979297,9.7533417,2.0621705z M7.9203749,3.8900542
		c-1.036953,1.1782632-1.5320473,2.7682576-1.4995155,4.3247037C6.4066267,9.2151127,6.6729813,10.1839523,6.85394,11.1599073
		c0.2541552,1.3449898,0.4767947,2.7031946,0.501194,4.0746155c-0.0101662,0.8305788-0.0864129,1.6967402-0.487978,2.4409056
		c-0.1585927,0.3121033-0.4117312,0.5571079-0.6313214,0.8254967c0.139277-0.0172825,0.2866869-0.0406647,0.3883491-0.148428
		c0.6303048-0.5672741,1.341939-1.0308514,2.017992-1.5401783c0.8092299-0.5215263,1.2616262-1.4456348,1.3998861-2.3768597
		c-1.0196705-0.7411165-1.6774235-1.8746481-2.087122-3.0468121c-0.487978-0.2775373-0.9312243-0.6547031-1.202662-1.1538639
		C6.4767737,9.7020741,6.5215049,8.951808,6.9901671,8.5390596c0.173842-0.1677418,0.4279971-0.1575756,0.6526704-0.169775
		c0.3110857-1.0857511,1.0430527-1.978344,1.787219-2.8007898c0.4117308,1.3602381,1.7099552,2.2995958,3.0956097,2.4541216
		c0.1748581-1.0013709,0.7014675-1.938695,1.52493-2.5466342c0.243989,1.1447148,0.9037762,2.3331442,2.0678062,2.7347093
		c0.0060997,0.283637,0.0010166,0.5784569,0.1240273,0.8417616c0.0548992-0.2399225,0.1016636-0.4818773,0.1453781-0.7238331
		c0.5337257,0.1382599,0.8590431,0.6770687,0.8295612,1.2128277c-0.0020332,0.7644987-0.5876064,1.3744707-1.2057114,1.7445211
		c-0.1951914,0.0864124-0.2328062,0.3060026-0.3100691,0.4828949c-0.4015656,1.0379696-1.0420361,2.0078249-1.9458122,2.6737118
		c0.1494436,0.8183794,0.4849281,1.6662407,1.1670809,2.1847172c0.718751,0.5743904,1.5086651,1.0572853,2.1948833,1.6743736
		c0.1189442,0.1199627,0.2724552,0.1901093,0.4432468,0.2053585c-0.2846546-0.3497181-0.6038723-0.6852036-0.7624664-1.1172657
		c-0.3954639-0.9983215-0.3883476-2.1033888-0.2968521-3.1576242c0.121994-1.5869446,0.4686623-3.1454239,0.766531-4.7059364
		c0.3304024-1.9549613-0.074213-4.1152797-1.4141188-5.6280107c-1.0115376-1.168097-2.5527334-1.8726151-4.1030798-1.808568
		C10.2921505,2.1048687,8.8678656,2.7849877,7.9203749,3.8900542z M12.910965,8.4739962
		C11.5639429,8.442481,10.192522,7.8030267,9.4707212,6.6349297c-0.060997-0.0813293-0.169776-0.3334513-0.2755041-0.1474099
		c-0.562191,0.7380667-1.1884298,1.555429-1.1701307,2.5303683C7.904109,9.0839682,7.7790647,9.1449661,7.6560535,9.2059631
		c-0.0630307-0.1463938-0.1250443-0.29177-0.1850247-0.4371471C7.3073525,8.8460798,7.1335106,8.9477415,7.0826797,9.1348
		c-0.3019366,0.8285456,0.4564624,1.6265926,1.1914787,1.8817644c0.4330807,1.2616262,1.1081171,2.5415516,2.2914629,3.2440357
		c0.8204126,0.5022106,1.9092131,0.4869614,2.7204771-0.0284653c1.1518307-0.7116346,1.8167-1.9691935,2.2416477-3.2145538
		c0.4849281-0.1504602,0.8631115-0.5255928,1.1253986-0.9464741c0.1911259-0.3019361,0.1535091-0.6770687,0.0325317-0.9962883
		c-0.0813293,0.2643213-0.1545258,0.5316925-0.2460213,0.7939806c-0.5459261-0.2195892-0.7380667-0.8143129-0.7472162-1.3561716
		c-0.9180088-0.4330797-1.5371304-1.3094068-1.8675318-2.2457147C13.2718649,6.8667192,12.9750118,7.6678162,12.910965,8.4739962z
		 M10.4476938,14.7007971c-0.196208,0.8153296-0.5418587,1.6489592-1.2087622,2.1898012
		c-0.4066486,0.3365002-0.8366785,0.6425037-1.2758589,0.9352894c1.2961912,1.3439732,2.6289806,2.6554146,3.956687,3.9688873
		c1.3033075-1.3175392,2.6177979-2.6238976,3.9292383-3.9343204c-0.5123768-0.4086819-1.0837173-0.7472172-1.5483131-1.2138462
		c-0.4961109-0.5398254-0.7756815-1.241293-0.9485064-1.943778C12.4504356,15.1714926,11.3474026,15.1694593,10.4476938,14.7007971z
		 M6.0416603,19.6080246c-0.4950943,0.6597862-0.7634821,1.4873161-0.7065516,2.3138275
		c2.0301914-0.0040665,4.0603828-0.0010166,6.0905733-0.0010166c-1.2768745-1.2697582-2.5435839-2.5496845-3.8224926-3.8163929
		C7.0318484,18.5476894,6.4737239,19.023468,6.0416603,19.6080246z M12.4199371,21.9208355
		c2.0169754,0,4.0329342-0.0050831,6.048893,0.0020332c0.0121994-0.5072937-0.0386314-1.023737-0.2429733-1.4923992
		c-0.3985157-0.970871-1.2016449-1.6926727-2.0169754-2.3168774C14.9462395,19.3833504,13.6602144,20.6297283,12.4199371,21.9208355
		z"/>
</g>
</svg>
