<?xml version="1.0" encoding="utf-8"?>
<!-- Generator: Adobe Illustrator 19.1.1, SVG Export Plug-In . SVG Version: 6.00 Build 0)  -->
<svg version="1.1" xmlns="http://www.w3.org/2000/svg" xmlns:xlink="http://www.w3.org/1999/xlink" x="0px" y="0px" width="37px"
	 height="37px" viewBox="0 0 37 37" style="enable-background:new 0 0 37 37;" xml:space="preserve">
<style type="text/css">
	.st0{fill:#BE2B25;}
	.st1{fill-rule:evenodd;clip-rule:evenodd;fill:#FCC200;}
	.st2{fill-rule:evenodd;clip-rule:evenodd;fill:#A7D4E9;}
	.st3{fill-rule:evenodd;clip-rule:evenodd;fill:#184E9B;}
	.st4{fill-rule:evenodd;clip-rule:evenodd;fill:#575756;}
	.st5{fill:#211F1F;}
	.st6{fill:#FFE512;}
	.st7{fill:#FF0014;}
	.st8{fill:#ED1A2E;}
	.st9{fill-rule:evenodd;clip-rule:evenodd;fill:#FFFFFF;}
	.st10{fill-rule:evenodd;clip-rule:evenodd;fill:#1D1D1B;}
	.st11{fill-rule:evenodd;clip-rule:evenodd;fill:#62B12F;}
	.st12{fill:#FF9900;}
	.st13{fill-rule:evenodd;clip-rule:evenodd;fill:#003671;}
	.st14{fill:#005098;}
	.st15{fill:#F6A500;}
	.st16{fill:#12100B;}
	.st17{fill:#B8182B;}
	.st18{fill:#AE1F31;}
	.st19{fill:#88BF52;}
	.st20{fill:#FEFEFE;}
	.st21{opacity:0.35;}
	.st22{fill:none;}
	.st23{fill:#2A408A;}
	.st24{fill:#F8AC18;}
	.st25{fill:#37A2B8;}
	.st26{fill:#EF3E36;}
	.st27{fill:#073986;}
	.st28{fill:#FF590D;}
	.st29{fill:#005DA7;}
	.st30{fill:#3D1061;}
	.st31{fill:#FFFFFF;}
	.st32{fill:#FFAA1C;}
	.st33{fill:#CEBFAA;}
	.st34{fill:#FE0000;}
	.st35{fill:#2051A8;}
	.st36{fill:#526BAA;}
	.st37{fill:#034F90;}
	.st38{fill:#144C9B;}
	.st39{fill:#F39722;}
	.st40{fill:#147D41;}
	.st41{fill-rule:evenodd;clip-rule:evenodd;fill:#F9B41D;}
	.st42{fill-rule:evenodd;clip-rule:evenodd;fill:#E30520;}
	.st43{fill:#EFA55A;}
	.st44{fill:#737373;}
	.st45{fill:#84ACDD;}
	.st46{fill:#94CE84;}
	.st47{fill:#A583B5;}
	.st48{fill:#FFDE63;}
	.st49{fill:#FF6D00;}
	.st50{fill:#0038A5;}
	.st51{fill:#222222;}
	.st52{display:none;}
</style>
<g id="Слой_1">
	<g>
		<g>
			<path class="st22" d="M17.0568199,3.4907596c2.8604221-0.2978973,5.8079853,0.2208898,8.3745632,1.5279901
				c2.8229313,1.4124789,5.1777382,3.7368884,6.6307468,6.5395551c1.4327431,2.7337646,1.9778748,5.9194422,1.5492668,8.9764357
				c-0.442791,3.2961216-2.0346165,6.4210033-4.427927,8.7292004c-2.3659534,2.3193436-5.5171795,3.8230152-8.8122883,4.187788
				c-2.7003269,0.3151207-5.4847555-0.1165237-7.9591265-1.2432671c-2.8786602-1.3000069-5.3277006-3.5261288-6.8931813-6.2690144
				c-1.382081-2.3953362-2.0731218-5.1807785-1.9748359-7.9449406c0.0952461-3.5230913,1.5026588-6.9864006,3.874691-9.5904684
				C9.8809414,5.6540613,13.3827543,3.8626246,17.0568199,3.4907596z M16.0344448,4.952888
				c-3.0569935,0.5785694-5.9052563,2.2291636-7.9054232,4.614368c3.2606583,0.0050669,6.5223293,0,9.7829866,0.0030403
				c0.8501225,0.0111456,1.7478676,0.0992985,2.4804516,0.571476c0.5137215,0.322216,0.8653202,0.8744402,0.9625931,1.4722614
				c0.1560421,0.9666462-0.1793461,1.9839554-0.8328972,2.7053938c-0.4812965,0.5704632-1.1419392,0.9291553-1.7904224,1.271636
				c0.3830109,0.1955585,0.7873001,0.3809843,1.078104,0.7102919c0.3890896,0.3921318,0.5684376,0.9484081,0.5755291,1.4935398
				c0,1.3425655-0.6555767,2.6597977-1.7124023,3.4845886c-1.1490326,0.9220619-2.653717,1.2685966-4.1016607,1.2858219
				c-2.2646275,0.0081062-4.5302677,0.0020256-6.7959085,0.0020256c0.8197246-3.1076565,1.6718726-6.2072067,2.4926105-9.3148623
				c1.2361717-0.0222921,2.4713316-0.0020266,3.7075033-0.0101328c-0.5846481,2.2058582-1.1844959,4.4066505-1.7721844,6.611496
				c0.6890135-0.0020275,1.3780279,0.0050659,2.0670424-0.0010128c0.5653963-0.0060806,1.1551113-0.1053791,1.626276-0.4367142
				c0.5096684-0.34552,0.7943935-1.0112286,0.658617-1.6151295c-0.1134853-0.4134083-0.5653973-0.575531-0.9494219-0.6261921
				c-0.5917416-0.0709286-1.1905756-0.0283718-1.7853565-0.0405312c0.2391281-0.9048367,0.4833231-1.8086624,0.7265043-2.7124863
				c0.7498093-0.0303974,1.5310307,0.0932198,2.2544937-0.1570549c0.4914303-0.1550283,0.861269-0.6120062,0.9159851-1.1237011
				c0.0486355-0.244195-0.0374908-0.5268927-0.2654743-0.6505098c-0.3445072-0.2016382-0.7619686-0.1864395-1.1480179-0.2036648
				c-3.3244944-0.0131721-6.6500006,0.0101328-9.9755068-0.0121593c-1.819808,3.4886408-1.96977,7.7737017-0.4762306,11.4062243
				c6.1839018,0.0050659,12.3678045-0.0020275,18.5517044,0.0030384c0.3445072-0.0050659,0.70928-0.0263443,1.0122433-0.2087307
				c0.3698387-0.2158222,0.5380383-0.7194118,0.359705-1.1115417c-0.1175365-0.2573662-0.3252544-0.4569778-0.5198002-0.6565895
				c-0.8916645-0.8653202-1.7498932-1.7640781-2.6466236-2.6253471c-0.5674248-0.5603294-1.1419411-1.1946278-1.2969685-2.0042191
				c-0.2482471-1.6009455,0.6535511-3.294096,2.1025066-4.0135078c0.8612671-0.4519119,1.8451385-0.6130199,2.8097591-0.6180859
				c1.6110764-0.0070934,3.2231674,0.0040531,4.8342438-0.0050669c-1.3648548-2.796586-3.7034512-5.1017442-6.5213146-6.4220166
				C21.9113312,4.7725286,18.8867607,4.4037032,16.0344448,4.952888z M25.8569489,15.5120296
				c-0.3931427,0.202651-0.5724888,0.7305584-0.3880768,1.1318073c0.1195641,0.2604065,0.3333626,0.461031,0.5360126,0.6576023
				c0.589716,0.5562782,1.1581516,1.1358604,1.7448273,1.6961918c0.607954,0.5431042,1.2685966,1.0477066,1.7427998,1.7194958
				c0.3556538,0.5035877,0.5451317,1.1226864,0.5177746,1.7397594c-0.0658607,1.1429539-0.5907288,2.2767868-1.5026588,2.9880924
				c-1.0993824,0.8582287-2.5361805,1.1358604-3.9030628,1.1399136c-5.7056446,0.0060787-11.4112892-0.0050659-17.115921,0.0050659
				c2.1197319,2.9252701,5.4330788,4.9568481,9.0078468,5.4958992c3.0711784,0.4904175,6.3054924-0.0942307,9.002779-1.6465397
				c2.8756218-1.6384354,5.1361961-4.3377495,6.2041683-7.4747887c0.8491096-2.4348545,0.967659-5.1057987,0.3911171-7.6166468
				c-1.7529335-0.0020266-3.505867,0.0010128-5.2588005-0.0020266
				C26.505434,15.3529482,26.1538334,15.3468685,25.8569489,15.5120296z"/>
		</g>
		<g>
			<path class="st23" d="M16.9169922,2.6011207c0.4995346-0.1033521,3.064085-0.1003122,3.8280811,0.058769
				c3.4288578,0.4438062,6.694582,2.045764,9.1446362,4.4856844c2.2311897,2.1886334,3.7956581,5.0480418,4.4218483,8.1101017
				c0.7062416,3.4015007,0.2664871,7.0330105-1.2604904,10.1558647c-2.0467758,4.2637825-6.0744705,7.5143089-10.6827583,8.5873451
				c-0.9940033,0.2583809-1.9496365,0.4088516-3.0336895,0.4711647c-1.0016708,0.000843-1.3902664-0.047245-2.0325909-0.092205
				c-3.5048523-0.2745934-6.8941946-1.7711716-9.476984-4.1543503c-2.8746076-2.6182537-4.7481179-6.3196793-5.1017447-10.1963959
				c-0.1425834-1.7261066-0.095315-1.9151802-0.0334373-2.9384441c0.209744-2.0011797,0.7396767-3.9780426,1.6607268-5.7725191
				c1.6293154-3.2403927,4.3975315-5.8890443,7.7058125-7.3765044C13.591485,3.2333925,15.2441053,2.8128912,16.9169922,2.6011207z
				 M17.0568199,3.4907596c-3.6740656,0.371865-7.1758785,2.1633017-9.6380911,4.9132786
				c-2.3720322,2.6040678-3.7794449,6.0673771-3.874691,9.5904684c-0.0982859,2.7641621,0.5927548,5.5496044,1.9748359,7.9449406
				c1.5654807,2.7428856,4.0145211,4.9690075,6.8931813,6.2690144c2.474371,1.1267433,5.2587996,1.5583878,7.9591265,1.2432671
				c3.2951088-0.3647728,6.4463348-1.8684444,8.8122883-4.187788c2.3933105-2.308197,3.985136-5.4330788,4.427927-8.7292004
				c0.4286079-3.0569935-0.1165237-6.242671-1.5492668-8.9764357c-1.4530087-2.8026667-3.8078156-5.1270761-6.6307468-6.5395551
				C22.8648052,3.7116494,19.9172421,3.1928623,17.0568199,3.4907596z"/>
		</g>
		<path class="st23" d="M16.0344448,4.952888c2.8523159-0.5491848,5.8768864-0.1803594,8.5032463,1.0659456
			c2.8178635,1.3202724,5.1564598,3.6254306,6.5213146,6.4220166c-1.6110764,0.00912-3.2231674-0.0020266-4.8342438,0.0050669
			c-0.9646206,0.0050659-1.9484921,0.1661739-2.8097591,0.6180859c-1.4489555,0.7194118-2.3507538,2.4125624-2.1025066,4.0135078
			c0.1550274,0.8095913,0.7295437,1.4438896,1.2969685,2.0042191c0.8967304,0.861269,1.7549591,1.7600269,2.6466236,2.6253471
			c0.1945457,0.1996117,0.4022636,0.3992233,0.5198002,0.6565895c0.1783333,0.3921299,0.0101337,0.8957195-0.359705,1.1115417
			c-0.3029633,0.1823864-0.6677361,0.2036648-1.0122433,0.2087307c-6.1839008-0.0050659-12.3678036,0.0020275-18.5517044-0.0030384
			c-1.4935393-3.6325226-1.3435774-7.9175835,0.4762306-11.4062243c3.3255062,0.0222921,6.6510124-0.0010128,9.9755068,0.0121593
			c0.3860493,0.0172253,0.8035107,0.0020266,1.1480179,0.2036648c0.2279835,0.1236172,0.3141098,0.4063148,0.2654743,0.6505098
			c-0.0547161,0.5116949-0.4245548,0.9686728-0.9159851,1.1237011c-0.7234631,0.2502747-1.5046844,0.1266575-2.2544937,0.1570549
			c-0.2431812,0.9038239-0.4873762,1.8076496-0.7265043,2.7124863c0.5947809,0.0121593,1.193615-0.0303974,1.7853565,0.0405312
			c0.3840246,0.0506611,0.8359365,0.2127838,0.9494219,0.6261921c0.1357765,0.6039009-0.1489487,1.2696095-0.658617,1.6151295
			c-0.4711647,0.3313351-1.0608797,0.4306335-1.626276,0.4367142c-0.6890144,0.0060787-1.3780289-0.0010147-2.0670424,0.0010128
			c0.5876884-2.2048454,1.1875362-4.4056377,1.7721844-6.611496c-1.2361717,0.0081062-2.4713316-0.0121593-3.7075033,0.0101328
			c-0.8207378,3.1076555-1.6728859,6.2072058-2.4926105,9.3148623c2.2656407,0,4.531281,0.0060806,6.7959085-0.0020256
			c1.4479437-0.0172253,2.9526281-0.36376,4.1016607-1.2858219c1.0568256-0.824791,1.7124023-2.1420231,1.7124023-3.4845886
			c-0.0070915-0.5451317-0.1864395-1.101408-0.5755291-1.4935398c-0.2908039-0.3293076-0.6950932-0.5147333-1.078104-0.7102919
			c0.6484833-0.3424807,1.3091259-0.7011728,1.7904224-1.271636c0.6535511-0.7214384,0.9889393-1.7387476,0.8328972-2.7053938
			c-0.0972729-0.5978212-0.4488716-1.1500454-0.9625931-1.4722614c-0.732584-0.4721775-1.6303291-0.5603304-2.4804516-0.571476
			C14.651351,9.567256,11.3896799,9.5723228,8.1290216,9.567256C10.1291885,7.1820517,12.9774513,5.5314574,16.0344448,4.952888z"/>
		<path class="st23" d="M25.8569489,15.5120296c0.2968845-0.1651611,0.6484852-0.1590815,0.9788055-0.1661739
			c1.7529335,0.0030394,3.505867,0,5.2588005,0.0020266c0.5765419,2.510848,0.4579926,5.1817923-0.3911171,7.6166468
			c-1.0679722,3.1370392-3.3285465,5.8363533-6.2041683,7.4747887c-2.6972866,1.552309-5.9316006,2.1369572-9.002779,1.6465397
			c-3.5747681-0.5390511-6.8881149-2.5706291-9.0078468-5.4958992c5.7046318-0.0101318,11.4102764,0.0010128,17.115921-0.0050659
			c1.3668823-0.0040531,2.8036804-0.2816849,3.9030628-1.1399136c0.9119301-0.7113056,1.4367981-1.8451385,1.5026588-2.9880924
			c0.0273571-0.6170731-0.1621208-1.2361717-0.5177746-1.7397594c-0.4742031-0.6717892-1.1348457-1.1763916-1.7427998-1.7194958
			c-0.5866756-0.5603313-1.1551113-1.1399136-1.7448273-1.6961918c-0.2026501-0.1965714-0.4164486-0.3971958-0.5360126-0.6576023
			C25.2844601,16.242588,25.4638062,15.7146807,25.8569489,15.5120296z"/>
	</g>
</g>
<g id="Слой_2" class="st52">
</g>
</svg>
