<?xml version="1.0" encoding="utf-8"?>
<!-- Generator: Adobe Illustrator 19.1.1, SVG Export Plug-In . SVG Version: 6.00 Build 0)  -->
<svg version="1.1" xmlns="http://www.w3.org/2000/svg" xmlns:xlink="http://www.w3.org/1999/xlink" x="0px" y="0px" width="37px"
	 height="37px" viewBox="0 0 37 37" style="enable-background:new 0 0 37 37;" xml:space="preserve">
<style type="text/css">
	.st0{fill:#BE2B25;}
	.st1{fill-rule:evenodd;clip-rule:evenodd;fill:#FCC200;}
	.st2{fill-rule:evenodd;clip-rule:evenodd;fill:#A7D4E9;}
	.st3{fill-rule:evenodd;clip-rule:evenodd;fill:#184E9B;}
	.st4{fill-rule:evenodd;clip-rule:evenodd;fill:#575756;}
	.st5{fill:#211F1F;}
	.st6{fill:#FFE512;}
	.st7{fill:#FF0014;}
	.st8{fill:#ED1A2E;}
	.st9{fill-rule:evenodd;clip-rule:evenodd;fill:#FFFFFF;}
	.st10{fill-rule:evenodd;clip-rule:evenodd;fill:#1D1D1B;}
	.st11{fill-rule:evenodd;clip-rule:evenodd;fill:#62B12F;}
	.st12{fill:#FF9900;}
	.st13{fill-rule:evenodd;clip-rule:evenodd;fill:#003671;}
	.st14{fill:#005098;}
	.st15{fill:#F6A500;}
	.st16{fill:#12100B;}
	.st17{fill:#B8182B;}
	.st18{fill:#AE1F31;}
	.st19{fill:#88BF52;}
	.st20{fill:#FEFEFE;}
	.st21{opacity:0.35;}
	.st22{fill:none;}
	.st23{fill:#2A408A;}
	.st24{fill:#F8AC18;}
	.st25{fill:#37A2B8;}
	.st26{fill:#EF3E36;}
	.st27{fill:#073986;}
	.st28{fill:#FF590D;}
	.st29{fill:#005DA7;}
	.st30{fill:#3D1061;}
	.st31{fill:#FFFFFF;}
	.st32{fill:#FFAA1C;}
	.st33{fill:#CEBFAA;}
	.st34{fill:#FE0000;}
	.st35{fill:#2051A8;}
	.st36{fill:#526BAA;}
	.st37{fill:#034F90;}
	.st38{fill:#144C9B;}
	.st39{fill:#F39722;}
	.st40{fill:#147D41;}
	.st41{fill-rule:evenodd;clip-rule:evenodd;fill:#F9B41D;}
	.st42{fill-rule:evenodd;clip-rule:evenodd;fill:#E30520;}
	.st43{fill:#EFA55A;}
	.st44{fill:#737373;}
	.st45{fill:#84ACDD;}
	.st46{fill:#94CE84;}
	.st47{fill:#A583B5;}
	.st48{fill:#FFDE63;}
	.st49{fill:#FF6D00;}
	.st50{fill:#0038A5;}
	.st51{fill:#222222;}
	.st52{display:none;}
</style>
<g id="Слой_1">
	<g>
		<circle class="st19" cx="18.5071316" cy="18.5" r="16"/>
		<path class="st20" d="M6.7052097,9.3149757c11.1890736,2.8268585,22.0130501,1.7800303,24.3779469,1.6783142
			c-2.4073029,1.1097059-3.3820591,1.2191801-6.8743095,2.9158602c2.8904305-0.0169525,5.7808628-0.1695261,8.6797714-0.0847626
			C17.4638138,18.0022945,9.290493,29.056366,8.4428587,30.0141926c0.4407701-2.0004158,1.0002079-3.9754028,1.5342178-5.9588661
			c-1.0934477,1.305357-2.1868954,2.6191883-3.2972956,3.916069c0.1525741-0.9239216,0.3221006-1.8478432,0.5170565-2.7717628
			c0.3051481-1.5342178,0.6357255-3.07691,1.0680189-4.5941753c0.5170565-1.5765991,1.1443052-3.1192932,1.7630777-4.6704617
			C7.5344782,13.201376,6.7052097,9.3149757,6.7052097,9.3149757z"/>
		<path class="st21" d="M24.208847,13.9091501c0,0-8.0101395,2.9172735-14.2317705,10.1461763l-0.5393143,1.9903812
			c0,0,5.9372292-8.0514984,17.8747368-12.2204447L24.208847,13.9091501z"/>
	</g>
</g>
<g id="Слой_2" class="st52">
</g>
</svg>
