<?xml version="1.0" encoding="utf-8"?>
<!-- Generator: Adobe Illustrator 19.1.1, SVG Export Plug-In . SVG Version: 6.00 Build 0)  -->
<svg version="1.1" xmlns="http://www.w3.org/2000/svg" xmlns:xlink="http://www.w3.org/1999/xlink" x="0px" y="0px" width="37px"
	 height="37px" viewBox="0 0 37 37" style="enable-background:new 0 0 37 37;" xml:space="preserve">
<style type="text/css">
	.st0{fill:#BE2B25;}
	.st1{fill-rule:evenodd;clip-rule:evenodd;fill:#FCC200;}
	.st2{fill-rule:evenodd;clip-rule:evenodd;fill:#A7D4E9;}
	.st3{fill-rule:evenodd;clip-rule:evenodd;fill:#184E9B;}
	.st4{fill-rule:evenodd;clip-rule:evenodd;fill:#575756;}
	.st5{fill:#211F1F;}
	.st6{fill:#FFE512;}
	.st7{fill:#FF0014;}
	.st8{fill:#ED1A2E;}
	.st9{fill-rule:evenodd;clip-rule:evenodd;fill:#FFFFFF;}
	.st10{fill-rule:evenodd;clip-rule:evenodd;fill:#1D1D1B;}
	.st11{fill-rule:evenodd;clip-rule:evenodd;fill:#62B12F;}
	.st12{fill:#FF9900;}
	.st13{fill-rule:evenodd;clip-rule:evenodd;fill:#003671;}
	.st14{fill:#005098;}
	.st15{fill:#F6A500;}
	.st16{fill:#12100B;}
	.st17{fill:#B8182B;}
	.st18{fill:#AE1F31;}
	.st19{fill:#88BF52;}
	.st20{fill:#FEFEFE;}
	.st21{opacity:0.35;}
	.st22{fill:none;}
	.st23{fill:#2A408A;}
	.st24{fill:#F8AC18;}
	.st25{fill:#37A2B8;}
	.st26{fill:#EF3E36;}
	.st27{fill:#073986;}
	.st28{fill:#FF590D;}
	.st29{fill:#005DA7;}
	.st30{fill:#3D1061;}
	.st31{fill:#FFFFFF;}
	.st32{fill:#FFAA1C;}
	.st33{fill:#CEBFAA;}
	.st34{fill:#FE0000;}
	.st35{fill:#2051A8;}
	.st36{fill:#526BAA;}
	.st37{fill:#034F90;}
	.st38{fill:#144C9B;}
	.st39{fill:#F39722;}
	.st40{fill:#147D41;}
	.st41{fill-rule:evenodd;clip-rule:evenodd;fill:#F9B41D;}
	.st42{fill-rule:evenodd;clip-rule:evenodd;fill:#E30520;}
	.st43{fill:#EFA55A;}
	.st44{fill:#737373;}
	.st45{fill:#84ACDD;}
	.st46{fill:#94CE84;}
	.st47{fill:#A583B5;}
	.st48{fill:#FFDE63;}
	.st49{fill:#FF6D00;}
	.st50{fill:#0038A5;}
	.st51{fill:#222222;}
	.st52{display:none;}
</style>
<g id="Слой_1">
	<g>
		<path class="st24" d="M18.5000057,4.4781375c2.5598927,4.4342179,5.1209908,8.8672333,7.6790771,13.3026543
			c-0.4634647,0.7993279-0.6882439,1.1933613-1.1511078,1.9926891l-8.914402-11.1614819
			C17.0856476,6.9248662,17.5273304,6.164669,18.5000057,4.4781375z"/>
		<path class="st24" d="M12.7490664,14.4401627c0.8787785-1.5240173,1.3907557-2.4099503,2.2707376-3.9333658
			c3.0715103,3.5470133,6.1436234,7.0934248,9.2145309,10.6410418c-0.3611412,0.6253757-0.532093,0.9226036-0.8932362,1.5473785
			L12.7490664,14.4401627z"/>
		<path class="st24" d="M9.5678577,19.9494019c0.86975-1.5065632,1.2051868-2.0886803,2.0749359-3.5946426l11.0055275,7.540163
			c-0.376791,0.6518612-0.5578938,0.970211-0.9358883,1.6214695L9.5678577,19.9494019z"/>
		<path class="st24" d="M19.850872,32.1819763L27.1732082,19.5c2.4402065,4.2277069,4.8815594,8.4542675,7.321764,12.6819763
			c-1.2607536-0.0028648-2.5215073,0.0062981-3.7816887-0.0040092c-0.0807304-0.073288-0.1185188-0.1837883-0.176918-0.2742519
			c-1.0998688-1.9077358-2.2020264-3.8137531-3.3024673-5.721489c-1.1559772,1.9999161-2.3090916,4.0009785-3.4656429,6.0003223
			C22.4622707,32.1814003,21.1568565,32.1825485,19.850872,32.1819763z"/>
		<path class="st24" d="M5.988853,26.1478443c0.8775744-1.519804,1.4959369-2.5935841,2.3747153-4.1127872l12.6114626,4.7592316
			c-0.3918381,0.6771412-0.7824745,1.3548832-1.1737099,2.0326252L5.988853,26.1478443z"/>
		<path class="st24" d="M5.0116792,27.8400784l14.0884247,2.1712227c-0.4700871,0.8155785-0.7656212,1.356245-1.2369099,2.1712208
			c-5.1191845-0.0005989-10.238369,0-15.3581543-0.0005989C3.4759083,30.4996033,4.0402079,29.5223961,5.0116792,27.8400784z"/>
	</g>
</g>
<g id="Слой_2" class="st52">
</g>
</svg>
