<?xml version="1.0" encoding="utf-8"?>
<!-- Generator: Adobe Illustrator 19.1.1, SVG Export Plug-In . SVG Version: 6.00 Build 0)  -->
<svg version="1.1" xmlns="http://www.w3.org/2000/svg" xmlns:xlink="http://www.w3.org/1999/xlink" x="0px" y="0px" width="37px"
	 height="37px" viewBox="0 0 37 37" style="enable-background:new 0 0 37 37;" xml:space="preserve">
<style type="text/css">
	.st0{fill:#BE2B25;}
	.st1{fill-rule:evenodd;clip-rule:evenodd;fill:#FCC200;}
	.st2{fill-rule:evenodd;clip-rule:evenodd;fill:#A7D4E9;}
	.st3{fill-rule:evenodd;clip-rule:evenodd;fill:#184E9B;}
	.st4{fill-rule:evenodd;clip-rule:evenodd;fill:#575756;}
	.st5{fill:#211F1F;}
	.st6{fill:#FFE512;}
	.st7{fill:#FF0014;}
	.st8{fill:#ED1A2E;}
	.st9{fill-rule:evenodd;clip-rule:evenodd;fill:#FFFFFF;}
	.st10{fill-rule:evenodd;clip-rule:evenodd;fill:#1D1D1B;}
	.st11{fill-rule:evenodd;clip-rule:evenodd;fill:#62B12F;}
	.st12{fill:#FF9900;}
	.st13{fill-rule:evenodd;clip-rule:evenodd;fill:#003671;}
	.st14{fill:#005098;}
	.st15{fill:#F6A500;}
	.st16{fill:#12100B;}
	.st17{fill:#B8182B;}
	.st18{fill:#AE1F31;}
	.st19{fill:#88BF52;}
	.st20{fill:#FEFEFE;}
	.st21{opacity:0.35;}
	.st22{fill:none;}
	.st23{fill:#2A408A;}
	.st24{fill:#F8AC18;}
	.st25{fill:#37A2B8;}
	.st26{fill:#EF3E36;}
	.st27{fill:#073986;}
	.st28{fill:#FF590D;}
	.st29{fill:#005DA7;}
	.st30{fill:#3D1061;}
	.st31{fill:#FFFFFF;}
	.st32{fill:#FFAA1C;}
	.st33{fill:#CEBFAA;}
	.st34{fill:#FE0000;}
	.st35{fill:#2051A8;}
	.st36{fill:#526BAA;}
	.st37{fill:#034F90;}
	.st38{fill:#144C9B;}
	.st39{fill:#F39722;}
	.st40{fill:#147D41;}
	.st41{fill-rule:evenodd;clip-rule:evenodd;fill:#F9B41D;}
	.st42{fill-rule:evenodd;clip-rule:evenodd;fill:#E30520;}
	.st43{fill:#EFA55A;}
	.st44{fill:#737373;}
	.st45{fill:#84ACDD;}
	.st46{fill:#94CE84;}
	.st47{fill:#A583B5;}
	.st48{fill:#FFDE63;}
	.st49{fill:#FF6D00;}
	.st50{fill:#0038A5;}
	.st51{fill:#222222;}
	.st52{display:none;}
</style>
<g id="Слой_1">
	<g>
		<path class="st26" d="M3.7907708,12.75278c4.115098-4.3841467,9.1671581-7.8891773,14.7304106-10.1767626
			c4.0135326,1.6882799,7.7882843,3.9590499,11.1110344,6.7780066c1.739399,1.4770765,3.3812695,3.0785885,4.8462391,4.8280773
			c-0.201786,2.7685099-0.6874199,5.5195322-1.4286499,8.19522c-1.0533237,3.7256508-2.6360035,7.2972698-4.6303253,10.613966
			c-6.4800358,1.5241623-13.3199234,1.5490494-19.7965965-0.0026894c-2.2183061-3.66646-3.8924608-7.6618309-4.9397326-11.8179607
			c-0.5797997-2.290947-0.9995155-4.6303253-1.1616173-6.9885359C2.9129996,13.6803255,3.3609655,13.22227,3.7907708,12.75278z
			 M18.3315029,3.9542184C12.787756,6.3756557,7.7807612,10.0246277,3.7860625,14.5675125
			c0.5676925,6.1067314,2.4813006,12.0957527,5.6264791,17.3650684c0.1614285-0.2690468,0.3847389-0.4923573,0.576436-0.7378654
			c2.8317366-3.4821606,5.677598-6.9522152,8.5026093-10.439085c-4.2556772-1.8523998-8.5180788-3.6893291-12.7670288-5.5565262
			c4.2583671,0.7331572,8.5570908,1.3512974,12.886755,1.3748379c4.2563477-0.041029,8.4810848-0.65446,12.6701698-1.366766
			c-1.0667763,0.4923582-2.1537323,0.9396515-3.2285824,1.4151955c-3.1720829,1.3782005-6.3441658,2.756403-9.5155754,4.1346035
			c3.0106525,3.7175789,6.0535927,7.4102707,9.0608826,11.1305408c-3.0341949-2.0427513-6.054266-4.1076984-9.080389-6.1625576
			c-2.272789,1.5376129-4.5395231,3.0846424-6.8109655,4.6249447c-0.7230682,0.4809246-1.4252844,0.9948082-2.1638231,1.4508457
			c-0.0121069,0.0477562-0.0235415,0.0961838-0.0343037,0.1452847c2.6629086,0.5576057,5.370882,0.918129,8.0936546,0.9712677
			c3.1983147,0.0773506,6.4053745-0.2327271,9.5370998-0.8865166c0.1661377-0.0410309,0.3450546-0.0538101,0.5011024-0.1284714
			c0.0995483-0.1345234,0.1762276-0.2845192,0.2603054-0.4284592c1.4528618-2.5378017,2.6487827-5.2242508,3.5507679-8.0062141
			c0.9255257-2.8747845,1.5127258-5.854496,1.803299-8.8590975C29.240078,10.0185738,24.1866722,6.350769,18.5958424,3.9205873
			C18.5084019,3.8647599,18.4149075,3.926641,18.3315029,3.9542184z"/>
		<g>
			<path class="st26" d="M17.7477245,9.1619949c1.0148411-0.015645,2.0303936-0.0113783,3.0452347,0.0163574
				c0.0064011,0.1806374,0.0206242,0.3634081-0.0120888,0.543335c-0.1401005,0.0248909-0.2830467,0.0206242-0.4245701,0.0241795
				c0.0142231,0.9472799-0.0291576,1.8938494-0.0163555,2.8418407c0.1401005-0.0014229,0.2809124-0.0014229,0.4217243-0.0021334
				c0.0049782,0.5205774,0.0056896,1.0411549-0.0007114,1.5617323c-0.2688236,0.0049782-0.5383568,0.0056887-0.8078899-0.0035563
				c-0.0128021-0.3278503-0.0042686-0.6564112,0.017067-0.9835501c-0.58885-0.0362692-1.1784115-0.0206242-1.7672596-0.0206242
				c0.0028439,0.3306952,0.0056877,0.6613894-0.0064011,0.9920845c-0.2467766-0.0007114-0.4942646,0.0128012-0.7410412-0.0064011
				c-0.1137867-0.0483589-0.0533371-0.1870375-0.0647163-0.278779c0.0263138-0.4252806,0.0085335-0.8512716,0.0163574-1.2765522
				c0.0995636-0.0120897,0.1991272-0.0227575,0.2994022-0.0341358c0.425993-0.8718967,0.5006657-1.8547354,0.4629726-2.8098383
				c-0.1408119-0.0021334-0.2809124-0.0049782-0.4210129-0.0092449C17.7434578,9.5318041,17.7427464,9.3469,17.7477245,9.1619949z
				 M18.9161797,9.7984934c-0.022047,0.9088774-0.0014229,1.8618469-0.410347,2.6988955
				c0.3328285,0,0.6649456,0,0.9977741-0.0007114c-0.0099564-0.9010544,0.0305805-1.8013964,0.017067-2.7031622
				C19.3187027,9.7949381,19.1174412,9.79636,18.9161797,9.7984934z"/>
		</g>
		<path class="st26" d="M12.4217625,10.1540794c0.1059647-0.2951365,0.3982563-0.4928417,0.6941032-0.5625362
			c0.1699705,0.1180544,0.2446432,0.3314056,0.3555861,0.5006638c-0.1173429,0.0874748-0.2560215,0.1536131-0.3477631,0.2716675
			c-0.078229,0.3477631,0.1088095,0.7097492-0.0092449,1.053956c-0.0419588,0.1358337-0.1543245,0.2289972-0.2545996,0.3228722
			c0.1671257,0.0284462,0.3470516,0.0568933,0.4743519,0.1806374c0.2880239,0.2602882,0.3477621,0.6770353,0.5973835,0.9657707
			c0.1322775,0.0753841,0.2965584,0.0241795,0.441637,0.0412474c-0.0085335,0.2211742-0.0106668,0.4423485-0.0341358,0.6628122
			c-0.3058033,0.0896072-0.6898365,0.1500568-0.9415913-0.0952969c-0.294425-0.3506079-0.402523-0.8171358-0.6756124-1.1805449
			c-0.1543245-0.1735258-0.3932772-0.0732508-0.5817385-0.0256023c0.1038313,0.3747873,0.2112179,0.7495747,0.3129158,1.1250734
			c0.1272993-0.0291576,0.2538881-0.0597382,0.3811874-0.0903187c0.0568943,0.1792154,0.1016979,0.3619862,0.1386786,0.5461798
			c-0.5155993,0.1436558-1.0269308,0.3058033-1.5489311,0.4238577c-0.0540485-0.1770821-0.1031199-0.3562965-0.1507683-0.5348005
			c0.1244555-0.0405369,0.24891-0.0789404,0.3733654-0.1187658c-0.108098-0.3776321-0.2119293-0.7559748-0.3186054-1.1336069
			c-0.1671247,0.0689831-0.3925657,0.0974302-0.4686613,0.2880239c-0.0661392,0.4665289,0.0896072,0.938035,0.0192013,1.4045639
			c-0.0810738,0.3434954-0.441637,0.4793291-0.7410402,0.574626c-0.1408119-0.1763706-0.2666893-0.3626976-0.3861656-0.5540028
			c0.1265879-0.093874,0.3093596-0.1443672,0.372653-0.3015366c0.0256023-0.3292723-0.0689831-0.6578331-0.031291-0.9863939
			c0.0213346-0.2133512,0.1678362-0.3769207,0.3214493-0.5113325c-0.1514797-0.0440922-0.3221607-0.0718279-0.4281254-0.2005501
			c-0.1998386-0.225441-0.2652664-0.5333786-0.4395037-0.7758884c-0.1102314-0.1593018-0.3292723-0.0853405-0.4914198-0.1102314
			c-0.0056887-0.2076616-0.0035553-0.4160347,0.0184908-0.6229858c0.3228722-0.0739622,0.7161493-0.0839186,0.9622145,0.1749477
			c0.2389536,0.2809134,0.3150492,0.6621008,0.5383568,0.9529696c0.1401014,0.1742373,0.3811884,0.1280117,0.5639591,0.061161
			c-0.0426702-0.3328285-0.1742373-0.6464548-0.24891-0.9728823c-0.1294336,0.0263138-0.2581549,0.05476-0.3868771,0.0810738
			c-0.0618725-0.1813488-0.1009865-0.3683872-0.1258774-0.5582695c0.4693727-0.1251659,0.9344788-0.2666893,1.404563-0.3890104
			c0.1251669-0.0753841,0.1685476,0.0654278,0.1891718,0.1557465c0.0362701,0.1201878,0.0640059,0.2439318,0.0917416,0.3669643
			c-0.1223221,0.0348473-0.2446432,0.0689831-0.3669643,0.1031199c0.0874739,0.3314056,0.1792145,0.6613894,0.2759342,0.9899502
			c0.1664143-0.0725393,0.403945-0.1109428,0.4558601-0.3164711C12.4999914,10.9605474,12.3243322,10.5523348,12.4217625,10.1540794
			z"/>
		<path class="st26" d="M24.8942852,10.3546295c0.0540485-0.1486349,0.0568943-0.3740759,0.2524662-0.4060783
			c0.4466152-0.1038313,0.9323444-0.0177794,1.3348675,0.1969938c0.3989677,0.2033949,0.6485882,0.6293869,0.7019272,1.0660458
			c0.0718269,0.5241337-0.061161,1.0475559-0.2140636,1.5453758c-0.1401005,0.4259911-0.3520298,0.869051-0.7559738,1.1023149
			c-0.6144524,0.3619862-1.4180756,0.2183294-1.9863014-0.1671247c-0.092453-0.0817852-0.2560234-0.170682-0.208374-0.3171825
			c0.0682716-0.3008261,0.1635685-0.5945396,0.248909-0.891098c0.2190418,0.0469379,0.4302597,0.1187658,0.6414776,0.1934385
			c-0.0561829,0.2012615-0.1116543,0.4032345-0.1678371,0.604496c0.2453537,0.1294327,0.5376453,0.2432203,0.8093128,0.1194763
			c0.3776321-0.1671247,0.526268-0.5902719,0.6364994-0.9565248c-0.325716-0.08463-0.6507225-0.1728153-0.9735947-0.2688227
			c0.0419598-0.201973,0.0931644-0.4032345,0.1621475-0.5980949c0.3342514,0.0739613,0.6620998,0.1721029,0.9935074,0.2588663
			c0.0533371-0.3420734,0.1223202-0.7381964-0.0995655-1.0368881c-0.1635685-0.2247305-0.4537258-0.2745123-0.7104588-0.3086481
			c-0.0625839,0.2026834-0.0860519,0.4245691-0.1955719,0.6080513c-0.200552-0.0334253-0.3996792-0.0867634-0.5881405-0.1635695
			C24.7541847,10.7379513,24.8544598,10.5466461,24.8942852,10.3546295z"/>
		<path class="st26" d="M15.6241674,12.3658218c0.3655415-0.1806374,0.8697615,0.1415234,0.8050451,0.5596924
			c-0.0192013,0.4558601-0.6500101,0.6834354-0.9714594,0.3719425
			C15.1355925,13.0549469,15.2451134,12.4895658,15.6241674,12.3658218z"/>
		<path class="st26" d="M22.2458839,12.3928461c0.4139004-0.1436558,0.8854065,0.2922916,0.7325058,0.7147274
			c-0.1308556,0.4309702-0.7659321,0.5113325-1.0255089,0.1564579
			C21.6968594,12.9731627,21.8760738,12.4767647,22.2458839,12.3928461z"/>
	</g>
</g>
<g id="Слой_2" class="st52">
</g>
</svg>
