<?xml version="1.0" encoding="utf-8"?>
<!-- Generator: Adobe Illustrator 19.1.1, SVG Export Plug-In . SVG Version: 6.00 Build 0)  -->
<svg version="1.1" xmlns="http://www.w3.org/2000/svg" xmlns:xlink="http://www.w3.org/1999/xlink" x="0px" y="0px" width="37px"
	 height="37px" viewBox="0 0 37 37" style="enable-background:new 0 0 37 37;" xml:space="preserve">
<style type="text/css">
	.st0{fill:#BE2B25;}
	.st1{fill-rule:evenodd;clip-rule:evenodd;fill:#FCC200;}
	.st2{fill-rule:evenodd;clip-rule:evenodd;fill:#A7D4E9;}
	.st3{fill-rule:evenodd;clip-rule:evenodd;fill:#184E9B;}
	.st4{fill-rule:evenodd;clip-rule:evenodd;fill:#575756;}
	.st5{fill:#211F1F;}
	.st6{fill:#FFE512;}
	.st7{fill:#FF0014;}
	.st8{fill:#ED1A2E;}
	.st9{fill-rule:evenodd;clip-rule:evenodd;fill:#FFFFFF;}
	.st10{fill-rule:evenodd;clip-rule:evenodd;fill:#1D1D1B;}
	.st11{fill-rule:evenodd;clip-rule:evenodd;fill:#62B12F;}
	.st12{fill:#FF9900;}
	.st13{fill-rule:evenodd;clip-rule:evenodd;fill:#003671;}
	.st14{fill:#005098;}
	.st15{fill:#F6A500;}
	.st16{fill:#12100B;}
	.st17{fill:#B8182B;}
	.st18{fill:#AE1F31;}
	.st19{fill:#88BF52;}
	.st20{fill:#FEFEFE;}
	.st21{opacity:0.35;}
	.st22{fill:none;}
	.st23{fill:#2A408A;}
	.st24{fill:#F8AC18;}
	.st25{fill:#37A2B8;}
	.st26{fill:#EF3E36;}
	.st27{fill:#073986;}
	.st28{fill:#FF590D;}
	.st29{fill:#005DA7;}
	.st30{fill:#3D1061;}
	.st31{fill:#FFFFFF;}
	.st32{fill:#FFAA1C;}
	.st33{fill:#CEBFAA;}
	.st34{fill:#FE0000;}
	.st35{fill:#2051A8;}
	.st36{fill:#526BAA;}
	.st37{fill:#034F90;}
	.st38{fill:#144C9B;}
	.st39{fill:#F39722;}
	.st40{fill:#147D41;}
	.st41{fill-rule:evenodd;clip-rule:evenodd;fill:#F9B41D;}
	.st42{fill-rule:evenodd;clip-rule:evenodd;fill:#E30520;}
	.st43{fill:#EFA55A;}
	.st44{fill:#737373;}
	.st45{fill:#84ACDD;}
	.st46{fill:#94CE84;}
	.st47{fill:#A583B5;}
	.st48{fill:#FFDE63;}
	.st49{fill:#FF6D00;}
	.st50{fill:#0038A5;}
	.st51{fill:#222222;}
	.st52{display:none;}
</style>
<g id="Слой_1">
	<g>
		<path class="st30" d="M12.9029722,12.6085548H7.3845286c0,0-2.1779547,0.0128937-2.7869487,2.3433361
			s-1.9749086,7.6181183-1.9749086,7.6181183s-0.629689,1.816021,1.6661966,1.816021s25.3827095,0.0053349,25.3827095,0.0053349
			s2.159586,0.0466709,2.7437592-2.1540604c0.5841751-2.2007313,1.9401093-7.3193789,1.9401093-7.3193789
			s0.8612328-2.309371-2.4482327-2.2736492C28.4982281,12.6810732,12.9029722,12.6085548,12.9029722,12.6085548z"/>
		<polygon class="st31" points="8.1071844,18.25 7.6666665,19.9569664 5.7036176,19.9569664 6.1666665,18.25 		"/>
		<polygon class="st31" points="8.0919666,15.9238119 7.7765245,17.0954552 9.669178,17.0954552 8.4299402,21.7820263 
			9.7818365,21.7820263 11.3815794,15.9238119 		"/>
		<polygon class="st32" points="14.2205601,15.9238119 10.6830997,18.8529186 12.8236017,21.7820263 13.9727125,21.7820263 
			11.854743,18.8529186 15.4147348,15.9238119 		"/>
		<circle class="st31" cx="10.8858843" cy="14.5043211" r="0.9688585"/>
		<path class="st31" d="M22.512188,15.9238119l-0.3379745,1.3744268h-4.6189766c0,0-0.3943043-0.1126575-0.5745564,0.6308842
			l-0.5520229,2.0729084c0,0-0.1605377,0.4055672,0.4478149,0.4055672s4.4443569,0,4.4443569,0l-0.329525,1.3744278h-4.4938354
			c-0.2966251,0-0.5917215-0.062151-0.8567343-0.1953964c-0.3875809-0.1948738-0.7902288-0.5716171-0.6400175-1.2804222
			c0.2703791-1.2758522,0.6759472-2.7375889,0.6759472-2.7375889s0.4393673-1.6448069,2.2475262-1.6448069
			C19.7323513,15.9238119,22.512188,15.9238119,22.512188,15.9238119z"/>
		<polygon class="st31" points="23.7514248,15.9238119 23.3909187,17.3207703 26.083334,17.3207703 25.1875,15.9238119 		"/>
		<polygon class="st31" points="22.5685158,20.3963337 22.2080097,21.7820263 23.3909187,21.7820263 24.875,20.3963337 		"/>
		<polygon class="st32" points="23.1768684,18.1657047 28.0662251,18.1657047 26.477747,15.9238119 28.4041996,15.9238119 
			30.4433079,18.8529186 26.7368603,21.7820263 24.8329411,21.7820263 27.6493912,19.517601 22.7938328,19.517601 		"/>
	</g>
</g>
<g id="Слой_2" class="st52">
</g>
</svg>
