<?xml version="1.0" encoding="utf-8"?>
<!-- Generator: Adobe Illustrator 19.1.1, SVG Export Plug-In . SVG Version: 6.00 Build 0)  -->
<svg version="1.1" xmlns="http://www.w3.org/2000/svg" xmlns:xlink="http://www.w3.org/1999/xlink" x="0px" y="0px" width="37px"
	 height="37px" viewBox="0 0 37 37" style="enable-background:new 0 0 37 37;" xml:space="preserve">
<style type="text/css">
	.st0{fill:#BE2B25;}
	.st1{fill-rule:evenodd;clip-rule:evenodd;fill:#FCC200;}
	.st2{fill-rule:evenodd;clip-rule:evenodd;fill:#A7D4E9;}
	.st3{fill-rule:evenodd;clip-rule:evenodd;fill:#184E9B;}
	.st4{fill-rule:evenodd;clip-rule:evenodd;fill:#575756;}
	.st5{fill:#211F1F;}
	.st6{fill:#FFE512;}
	.st7{fill:#FF0014;}
	.st8{fill:#ED1A2E;}
	.st9{fill-rule:evenodd;clip-rule:evenodd;fill:#FFFFFF;}
	.st10{fill-rule:evenodd;clip-rule:evenodd;fill:#1D1D1B;}
	.st11{fill-rule:evenodd;clip-rule:evenodd;fill:#62B12F;}
	.st12{fill:#FF9900;}
	.st13{fill-rule:evenodd;clip-rule:evenodd;fill:#003671;}
	.st14{fill:#005098;}
	.st15{fill:#F6A500;}
	.st16{fill:#12100B;}
	.st17{fill:#B8182B;}
	.st18{fill:#AE1F31;}
	.st19{fill:#88BF52;}
	.st20{fill:#FEFEFE;}
	.st21{opacity:0.35;}
	.st22{fill:none;}
	.st23{fill:#2A408A;}
	.st24{fill:#F8AC18;}
	.st25{fill:#37A2B8;}
	.st26{fill:#EF3E36;}
	.st27{fill:#073986;}
	.st28{fill:#FF590D;}
	.st29{fill:#005DA7;}
	.st30{fill:#3D1061;}
	.st31{fill:#FFFFFF;}
	.st32{fill:#FFAA1C;}
	.st33{fill:#CEBFAA;}
	.st34{fill:#FE0000;}
	.st35{fill:#2051A8;}
	.st36{fill:#526BAA;}
	.st37{fill:#034F90;}
	.st38{fill:#144C9B;}
	.st39{fill:#F39722;}
	.st40{fill:#147D41;}
	.st41{fill-rule:evenodd;clip-rule:evenodd;fill:#F9B41D;}
	.st42{fill-rule:evenodd;clip-rule:evenodd;fill:#E30520;}
	.st43{fill:#EFA55A;}
	.st44{fill:#737373;}
	.st45{fill:#84ACDD;}
	.st46{fill:#94CE84;}
	.st47{fill:#A583B5;}
	.st48{fill:#FFDE63;}
	.st49{fill:#FF6D00;}
	.st50{fill:#0038A5;}
	.st51{fill:#222222;}
	.st52{display:none;}
</style>
<g id="Слой_1">
	<g>
		<path class="st29" d="M15.9524927,8.682909c0.4740591-0.0173111,0.9494486-0.025301,1.4235067-0.0266323
			c-0.003994,1.5886278-0.0266323,3.178587-0.0213051,4.7672148c0.9188194-1.3982048,1.3702412-3.0440931,1.6219177-4.683322
			c0.4740582,0.0466061,0.4780521,0.0279636,0.9494476,0.0998716c-0.0346222,3.7778177-0.005785,7.2779741-0.0510597,11.0557928
			c-0.5020218-0.5672722-0.5042267-0.839571-0.9396687-1.4561138c-0.0439434-1.5153885,0.021307-3.0347719,0.0013313-4.5514917
			c-0.8988457,0.7004347-1.6432247,1.5859642-2.1758728,2.5926733c-0.2849674-0.1797695-0.5712681-0.3582077-0.8562355-0.5366449
			C15.9338503,13.5233631,15.9338503,11.1038027,15.9524927,8.682909z"/>
		<path class="st29" d="M13.0482206,9.0277996c0.7590256-0.1358252,0.6044197-0.1213207,1.5233784-0.245019
			c-0.3062735,0.8122911-0.0639181,1.5047359-0.8122911,1.9654779c-0.6977711,0.4620733-1.5273733,0.6351843-2.3356686,0.79498
			c0.9827385,0.1291676,1.9708033,0.4620733,2.7098551,1.1438646c0.8549032,0.7563629,0.8247185,1.6467438,0.8087387,2.7839508
			c-0.7110872-0.363533-0.9405699-0.4402914-1.6902742-0.7186012c-0.0825605-0.5339813-0.2143908-1.1025848-0.6231995-1.4874249
			c-0.3688602-0.3901653-0.9068365-0.5246592-1.4195118-0.5925722c-0.0053263,0.4887056-0.0066586,0.9787436-0.0079899,1.4674501
			c-2.0094213-0.4247885-4.1813002-0.460742-6.0948443,0.367528c-0.9028411,0.3875027-1.7391012,0.9667587-2.3077049,1.7777185
			c0.7710106-2.3077049,2.6379476-4.0721073,4.7059603-5.2572527c1.1691661-0.6738024,2.4288831-1.1798191,3.7205586-1.5646591
			c-0.0013323,0.3808451-0.0039949,0.7616892-0.0039949,1.1425343c0.4687319-0.0772343,0.9774122-0.1704483,1.3262978-0.5233288
			C12.8498087,9.8107948,12.9430227,9.4033184,13.0482206,9.0277996z"/>
		<path class="st29" d="M21.0326405,9.0091572c3.6233482,0.7350569,7.0283661,1.8454027,9.1363277,5.0359745
			c-0.2809715,0.143815-0.6034927,0.3607426-0.8764744,0.5165424c-1.1798191-1.3795633-2.4553032-1.8812284-4.2396812-2.200819
			c-0.0119839,0.9188213,0.0444927,1.3458595-0.0167618,2.2646799C24.6791763,14.2979555,24.3155956,14.1370296,24,13.770833
			c-0.1344948,0.6271954-0.4568748,1.741147-0.229166,2.375001c0.1784363,0.5646076,0.7773476,1.2349339,1.2460785,1.5625134
			c0.0013313,1.1305485-0.0067101,1.8326263-0.0186958,2.9618435c-0.511343,0.2024078-1.0426617,0.3462219-1.5872955,0.4207935
			c-0.0053272-2.9482155,0.0492706-5.8964319,0.0479374-8.8446484c-0.8362598,0.0479383-1.6592026,0.215723-2.4541836,0.4753895
			C21.0153294,11.4833155,21.0060081,10.2462358,21.0326405,9.0091572z"/>
		<g>
			<path class="st29" d="M33.1357727,14.4088936c0.5060158-0.1318312,0.8642235-0.5246601,1.1718292-0.9201527
				c0.0639191,0.2836361,0.1331635,0.5672722,0.1797714,0.8562346v0.1957493
				c-0.2476845,1.4341593-1.7098083,2.1026354-2.8843002,2.6699057c0.2330341,1.7151337-0.1571312,3.5048351-1.1052475,4.9549751
				c-1.014698,1.5939541-2.5633774,2.768446-4.214592,3.6419926c-3.0227871,1.6192551-6.4903355,2.3196888-9.9046211,2.1798687
				c-2.3702908-0.0679131-4.7499037-0.4793854-6.9390936-1.4088593c-2.2504454-0.9228153-4.387702-2.3316746-5.7539487-4.383707
				c-0.584583-0.8695507-0.9654276-1.8669376-1.1571815-2.8962822v-0.2596664
				c0.1331625-0.8229446,0.4341097-1.6352348,0.978744-2.2770786c0.9294736-1.137207,2.3583066-1.7550802,3.788471-1.9534922
				c2.1266041-0.2889624,4.2825041,0.1997433,6.2466497,1.0067081c1.2876806,0.5406389,2.5673714,1.1691656,3.6166916,2.109292
				c0.7869892,0.6897812,1.4141846,1.5340309,2.0214062,2.3796139c0.6485004,0.9041729,1.7590752,1.3129807,2.8123894,1.5140553
				c1.7737236,0.3062744,3.7551804,0.0332909,5.1760235-1.1425323c0.8389244-0.6831245,1.3262978-1.7018166,1.5207157-2.7511368
				c-1.378231-0.1824322-2.8909569-0.3502159-3.9855518-1.2930069c-0.536644-0.4527512-0.6325207-1.1864767-0.5552883-1.8442993
				c0.3821774,0.3076048,0.748373,0.7297297,1.2796917,0.7350569c1.356926,0.0306273,2.789753-0.4341097,4.0787659,0.1864271
				C30.3793106,14.5833368,31.92799,14.8363447,33.1357727,14.4088936z M7.081212,20.7354412
				c-0.3861709,0.1065292-0.7430463,0.5646076-0.4700632,0.946785c0.4740582,0.6218681,1.7351065,0.5925713,2.0187426-0.194418
				C8.683156,20.7287827,7.6484842,20.5050697,7.081212,20.7354412z"/>
		</g>
	</g>
</g>
<g id="Слой_2" class="st52">
</g>
</svg>
