<?xml version="1.0" encoding="utf-8"?>
<!-- Generator: Adobe Illustrator 19.1.1, SVG Export Plug-In . SVG Version: 6.00 Build 0)  -->
<svg version="1.1" xmlns="http://www.w3.org/2000/svg" xmlns:xlink="http://www.w3.org/1999/xlink" x="0px" y="0px" width="37px"
	 height="37px" viewBox="0 0 37 37" style="enable-background:new 0 0 37 37;" xml:space="preserve">
<style type="text/css">
	.st0{fill:#BE2B25;}
	.st1{fill-rule:evenodd;clip-rule:evenodd;fill:#FCC200;}
	.st2{fill-rule:evenodd;clip-rule:evenodd;fill:#A7D4E9;}
	.st3{fill-rule:evenodd;clip-rule:evenodd;fill:#184E9B;}
	.st4{fill-rule:evenodd;clip-rule:evenodd;fill:#575756;}
	.st5{fill:#211F1F;}
	.st6{fill:#FFE512;}
	.st7{fill:#FF0014;}
	.st8{fill:#ED1A2E;}
	.st9{fill-rule:evenodd;clip-rule:evenodd;fill:#FFFFFF;}
	.st10{fill-rule:evenodd;clip-rule:evenodd;fill:#1D1D1B;}
	.st11{fill-rule:evenodd;clip-rule:evenodd;fill:#62B12F;}
	.st12{fill:#FF9900;}
	.st13{fill-rule:evenodd;clip-rule:evenodd;fill:#003671;}
	.st14{fill:#005098;}
	.st15{fill:#F6A500;}
	.st16{fill:#12100B;}
	.st17{fill:#B8182B;}
	.st18{fill:#AE1F31;}
	.st19{fill:#88BF52;}
	.st20{fill:#FEFEFE;}
	.st21{opacity:0.35;}
	.st22{fill:none;}
	.st23{fill:#2A408A;}
	.st24{fill:#F8AC18;}
	.st25{fill:#37A2B8;}
	.st26{fill:#EF3E36;}
	.st27{fill:#073986;}
	.st28{fill:#FF590D;}
	.st29{fill:#005DA7;}
	.st30{fill:#3D1061;}
	.st31{fill:#FFFFFF;}
	.st32{fill:#FFAA1C;}
	.st33{fill:#CEBFAA;}
	.st34{fill:#FE0000;}
	.st35{fill:#2051A8;}
	.st36{fill:#526BAA;}
	.st37{fill:#034F90;}
	.st38{fill:#144C9B;}
	.st39{fill:#F39722;}
	.st40{fill:#147D41;}
	.st41{fill-rule:evenodd;clip-rule:evenodd;fill:#F9B41D;}
	.st42{fill-rule:evenodd;clip-rule:evenodd;fill:#E30520;}
	.st43{fill:#EFA55A;}
	.st44{fill:#737373;}
	.st45{fill:#84ACDD;}
	.st46{fill:#94CE84;}
	.st47{fill:#A583B5;}
	.st48{fill:#FFDE63;}
	.st49{fill:#FF6D00;}
	.st50{fill:#0038A5;}
	.st51{fill:#222222;}
	.st52{display:none;}
</style>
<g id="Слой_1">
	<g>
		<g>
			<path class="st36" d="M26.008194,4.7785077c0.2908897-0.1725464,0.6135616-0.3425393,0.9620609-0.3204031
				c0.1969528,0.0048246,0.3819866,0.1339507,0.4614487,0.3127408c0.0456924,0.1325316-0.0051079,0.2710233-0.0283794,0.4024196
				c0.0925179-0.0300817,0.166872-0.0970573,0.259388-0.127707c0.4736519-0.1768036,0.9495754-0.3595672,1.4501877-0.4449887
				c0.2014942-0.0297985,0.4191628-0.0530696,0.6115761,0.0303659c0.1489906,0.0632858,0.238102,0.2443461,0.1847496,0.3995814
				c-0.0760574,0.3016729-0.3879471,0.4600301-0.48699,0.7497835c0.06357,0.0434208,0.1410446,0.0539212,0.2171021,0.0485291
				c0.4381771-0.0246902,0.8661385-0.1492758,1.3065872-0.1455865c0.1946812,0.0051084,0.4086628,0.039731,0.5511265,0.1847496
				c0.1194782,0.1291265,0.178791,0.3212547,0.1243019,0.4923825c-0.0323524,0.1319642-0.1282749,0.2318597-0.2014923,0.341404
				c-0.0210018,0.027812-0.0156097,0.0647054,0.0099316,0.0876927c0.0868416,0.0984764,0.1983719,0.1816278,0.3292007,0.2094398
				c0.1978054,0.0681105,0.4132061,0.1714115,0.5102634,0.3683643c0.0590286,0.1180582-0.0210037,0.239522-0.1146545,0.3090515
				c0.0587463,0.2474685,0.2525787,0.4353404,0.313591,0.6819568c0.0417175,0.1541004,0.0059624,0.3178492-0.0610123,0.4594622
				c-0.1234512,0.2698879-0.1680069,0.5761023-0.1211815,0.869545c0.0442734,0.227602-0.0451241,0.4651384-0.199791,0.6322927
				c-0.1611958,0.1756687-0.3800011,0.2789688-0.5746822,0.4112167c-0.0959225,0.0593138-0.2014942,0.1396275-0.2094402,0.2625093
				c-0.007946,0.1552353,0.0996113,0.2775507,0.1742496,0.4029875c0.015892,0.2562666,0.0053921,0.5329657-0.1345196,0.7582979
				c-0.0536366,0.1013145-0.1441669,0.1807766-0.1856003,0.2877665c-0.0175953,0.2298737,0.1603432,0.4466915,0.0817318,0.6777
				c-0.0493793,0.157506-0.2417927,0.1787901-0.3206863,0.3116055c-0.1756687,0.2406578-0.1325321,0.5562363-0.2318592,0.8252726
				c-0.0394478,0.1260052-0.1237354,0.2295895-0.189291,0.3422556c-0.0862732,0.2097235-0.0720844,0.4574757-0.2083054,0.6473341
				c-0.0493793,0.075489-0.160059,0.087409-0.1909924,0.1770878c-0.157505,0.3169975-0.4282455,0.5542488-0.6782684,0.7966089
				c-0.179924,0.1606274-0.3550262,0.326931-0.5383568,0.4833012c-0.7844067,0.5894394-1.5628529,1.2030029-2.4497089,1.6335182
				c-0.6345634,0.3118896-1.3324127,0.5011787-2.0393429,0.5284233c-0.0425682-0.0323524-0.0783272-0.0718002-0.1157875-0.1089764
				c-0.0017033,0.0459747-0.0025539,0.0919495-0.0031223,0.1382084c-0.8312321-0.0031223-1.6630325-0.025259-2.493412,0.0170269
				c-0.1569386,0.0099335-0.315012,0.0153255-0.4693966,0.0462589c-0.046257,0.0051079-0.0664063,0.05023-0.0905304,0.0834351
				c-0.2080193-0.0076618-0.3887959,0.1203289-0.4980564,0.2891865c-0.2522945,0.3658104-0.3675137,0.8136368-0.390501,1.2538013
				c-0.0122032,0.223629,0.0204334,0.4554882,0.1427479,0.6473331c0.1722622,0.5213299,0.3575802,1.0401039,0.5973854,1.5347576
				c0.0417194,0.0865574,0.0905304,0.1697083,0.1444511,0.2494545c0.0681114,0.0201492,0.1311131,0.0590286,0.1651688,0.1240177
				c0.1518307,0.2610912,0.2261829,0.5599251,0.3808517,0.8195972c0.0434208,0.1183414,0.085989,0.2417927,0.0845699,0.3694992
				c0.0002842,0.0632858-0.0326366,0.1316814-0.096489,0.1523972c-0.0823002,0.0232716-0.1583576-0.0275269-0.2244816-0.0695286
				c-0.248888-0.1753845-0.4492455-0.4197311-0.7284985-0.5508442c-0.3354454-0.2151165-0.7313366-0.3053627-1.1178646-0.3777294
				c0.8508148,0.2398052,1.6241531,0.7284985,2.2334576,1.3656158c0.606184,0.6371174,0.9793739,1.4754448,1.0999851,2.3430023
				c0.1225986,0.8888435,0.070097,1.8168488-0.2486038,2.6617031c-0.3774452,1.0023594-1.1581612,1.8395519-2.1196556,2.3072453
				c-0.7128906,0.3487816-1.5089321,0.5000458-2.2984467,0.5218964c-0.2364006-0.0136223-0.4730854,0.0119209-0.7092018-0.0093651
				c-0.4994774-0.030365-0.997818-0.1115303-1.4740257-0.2676163c-0.546586-0.1785088-1.0926056-0.4654236-1.4189692-0.9561024
				c-0.1453018-0.1858864-0.227602-0.4151917-0.2406569-0.6501732c-0.0235548-0.3099022,0.0868406-0.6413746,0.3399849-0.833786
				c0.3530397-0.2971325,0.9018974-0.2968483,1.2688427-0.0241222c0.2054672,0.1433163,0.3405533,0.3805676,0.3555946,0.6308727
				c0.0278111,0.2358341-0.0746384,0.4569092-0.1140862,0.6845112c-0.0255413,0.1898594,0.0973415,0.3621216,0.2480354,0.4640026
				c0.3011055,0.2091579,0.6731606,0.2920246,1.034996,0.3073483c0.516222,0.0298004,1.0506058-0.0595951,1.5024052-0.320118
				c0.3777294-0.2145481,0.6811066-0.542614,0.90275-0.9132481c0.5079899-0.8533688,0.6268997-1.8761616,0.6084538-2.8518448
				c-0.3161469,0.2205067-0.653862,0.4174595-1.0222263,0.5363693c-0.3099022,0.099329-0.6524429,0.0769081-0.9512768-0.0499477
				c-0.3669453-0.1523972-0.7313366-0.3104706-1.0991344-0.460598c-0.0831509-0.0300808-0.1631813-0.0771904-0.2531433-0.0808811
				c-0.4271107,0.0255413-0.8403149,0.1929798-1.1919346,0.4322186c-0.1194782-0.1404781-0.2679014-0.260807-0.3695002-0.4134884
				c0.3323221-0.3360119,0.7069311-0.6354141,1.1255274-0.8576241c0.3953247-0.2003593,0.864151-0.308485,1.2994919-0.1816292
				c0.4637184,0.1339512,0.8928146,0.3615551,1.3468857,0.5230331c0.1492748,0.0434208,0.3076324,0.0312176,0.4608822,0.0201492
				c0.2207909-0.0244064,0.4464073-0.0615826,0.6461983-0.1637497c-0.0025539-0.8292446-0.213129-1.6908436-0.7273636-2.3574753
				c-0.3053627-0.4063931-0.7384319-0.7222557-1.2310982-0.8564892c-0.5105457-0.1384926-1.0650787-0.1214638-1.5631371,0.0593128
				c-0.4517994,0.1671543-0.8491116,0.4682598-1.1513519,0.841732c-0.3039436,0.3774452-0.4935179,0.8352051-0.5979538,1.3054523
				c-0.2043314,0.0014191-0.4083796,0.0008507-0.6124268,0.0005665c0.0394468-0.9657497,0.0828676-1.9315014,0.1211796-2.8972511
				c0.1870203-0.0028381,0.3740406,0.0053921,0.5610609-0.0051079c-0.1140852-0.1044369-0.2772675-0.0735035-0.4177446-0.0706654
				c-0.0840034-0.0002842-0.1671553,0.0456905-0.1992235,0.125721c-0.0925169,0.205183-0.0300827,0.4361916-0.071516,0.6513062
				c-0.0215683,0.1277084,0.0028381,0.2937279-0.1189098,0.3774471c-0.1072741,0.0516491-0.2307243,0.0374603-0.3459444,0.0493793
				c-0.6788349,0.023838-1.3542652-0.0774746-2.0328159-0.0763397c-0.1237345,0.3028069-0.1183424,0.6354141-0.1225986,0.956953
				c0.0014181,1.8262138-0.0019875,3.6521435,0.0017023,5.4783573c0.0130548,0.2891846,0.0167437,0.6073189,0.1887226,0.8539352
				c0.1955347,0.21171,0.5034504,0.2545624,0.7747574,0.2920246c0.1492758,0.0187302,0.299119,0.031786,0.4489622,0.0454082
				c-0.0005674,0.1728287,0.0019865,0.3453751-0.0019865,0.5182076c-0.5749664-0.0195847-1.1507845-0.0141907-1.7260342-0.0309334
				c-0.4063931-0.0207176-0.8136377-0.0082321-1.2205982-0.0110703c-0.6669149,0.030365-1.3346825,0.0192986-2.0015984,0.0417175
				c-0.0059595-0.1722641-0.0014191-0.3448105-0.0034056-0.5170708c0.3615541-0.0417194,0.7460947-0.0417194,1.0727415-0.2227802
				c0.1711273-0.0896778,0.2449141-0.2823734,0.2823744-0.4605961c0.0783272-0.3632565,0.0581779-0.7375813,0.0610161-1.1065121
				c-0.0017033-1.6394787,0.0034056-3.2789555-0.0025539-4.9181499c-0.0797462,0.070097-0.1342344,0.1609116-0.1821957,0.2542801
				c-0.1663036,0.1745338-0.2894697,0.3839741-0.4052582,0.594265c-0.1311131,0.2327099-0.2437792,0.4781914-0.3121729,0.7370129
				c-0.0184469,0.0925159-0.0434208,0.1955338,0.0005674,0.2849293c0.055624,0.0306492,0.1220312,0.0190125,0.1830473,0.0235538
				c0.0533533,0.3357277,0.1118145,0.6706047,0.1648836,1.0063343c0.0544891,0.3791485,0.062151,0.7846889-0.1072741,1.1380119
				c-0.124301,0.2625103-0.3249435,0.4838696-0.5539656,0.6598206c-0.2880507,0.1583576-0.5988045,0.2823753-0.9228973,0.3414059
				c-0.2650638-0.0028381-0.5675879-0.119194-0.669754-0.3848248c-0.1152201-0.3050785-0.0686779-0.63797-0.0797458-0.9563866
				c0.0102162-0.1308289-0.0896788-0.2361164-0.089395-0.3660946c-0.0266767-0.4086628,0.1041522-0.8034191,0.1881552-1.1984615
				c0.0351906-0.1762352,0.1001792-0.3521881,0.0899625-0.533247c-0.0584612-0.2205086-0.0956383-0.4523678-0.0542045-0.6794033
				c0.0488124-0.3169975,0.2281704-0.6010761,0.4614491-0.8161907c0.123734-0.1220322,0.2818069-0.2049007,0.3930545-0.3402691
				c0.2764149-0.3082008,0.5965347-0.5820618,0.8204479-0.9336834c-0.7086334-0.0005665-1.4172668-0.0008507-2.1258998,0.0002842
				c-0.0493803,0.1024494-0.1069903,0.2114277-0.0879765,0.3294849c0.0468264,0.2721596-0.038312,0.5437489-0.1359372,0.7946224
				c-0.1328154,0.3306198-0.3198357,0.6382542-0.5463033,0.9126816c0.0002837,1.5205688-0.0002837,3.0411358,0.0002837,4.5617027
				c0.0048246,0.2806721,0.0119195,0.5721302,0.1251531,0.8337879c0.0686784,0.165451,0.236968,0.2554131,0.3990145,0.3076324
				c0.2871995,0.0936508,0.592278,0.1055717,0.8908291,0.1359386c0.0002837,0.1722603,0.0002837,0.3448067,0,0.5173531
				c-0.5778046-0.0175934-1.1558928-0.0136223-1.7336969-0.0300789c-0.4072442-0.0210037-0.81534-0.0079498-1.222868-0.0110703
				c-0.6618073,0.0300827-1.3244662,0.0204353-1.9865572,0.0402985c-0.0028381-0.1722641-0.0036893-0.3448105,0.0011351-0.5167885
				c0.3184168-0.0346222,0.6464825-0.0445557,0.947304-0.1646004c0.1342344-0.0527859,0.2644958-0.1390591,0.3240926-0.27528
				c0.1180582-0.2616577,0.1260045-0.5559521,0.1313965-0.8380432c0.0008514-1.6457214,0.000284-3.2911587,0.000284-4.9368782
				c-0.0053921-0.3541756,0.0181627-0.7106209-0.0320687-1.062809c-0.0329201-0.2136955-0.0987604-0.4594612-0.3064976-0.5673027
				c-0.3232412-0.1739674-0.7009709-0.2003593-1.0599701-0.2321434c-0.0070949-0.1722641-0.003973-0.3445263-0.004257-0.5167904
				c0.4869905,0.0116367,0.9742646,0.0045414,1.4609711,0.027813c-0.0127709-0.2398052-0.0309336-0.4918156,0.0683944-0.717432
				c0.1186256-0.2687511,0.3229575-0.4878407,0.5360866-0.6850777c0.189858-0.1702766,0.3839731-0.3354435,0.5766692-0.5025997
				c0.1969528-0.1804924,0.4032712-0.3595657,0.5411949-0.5917091c0.0729351-0.1319637,0.1870203-0.2349815,0.2585363-0.3677979
				c0.1631813-0.2579689,0.2940102-0.5457344,0.5272889-0.7500668c0.1325316-0.1197605,0.3101869-0.1918449,0.4898281-0.1833305
				c0.1330996-0.0005684,0.2588201,0.051651,0.3913522,0.0584602c0.775609,0.0561924,1.5568933,0.1382084,2.3339205,0.0567589
				c0.2020617-0.0297966,0.4202995-0.0595951,0.5843325-0.1915607c0.1041517-0.0851383,0.0215683-0.2210751,0.0360413-0.3300514
				c0.0490961-0.452652,0.3226738-0.8391781,0.4117851-1.2813301c0.0292311-0.1549511,0.0187302-0.3326054-0.0910978-0.4554882
				c-0.0837193-0.0797462-0.0692453-0.2026291-0.0930843-0.3064976c-0.1353703-0.7211208-0.4285288-1.3991041-0.6192389-2.105751
				c-0.0499477-0.1779385-0.0743532-0.362689-0.1387749-0.5366545c-0.0791788-0.219656-0.1725464-0.4393129-0.3192682-0.6229277
				c-0.071516-0.0845699-0.1663027-0.1728306-0.28578-0.1640329c-0.1342344,0.0068111-0.2029133,0.1515465-0.3317556,0.1736822
				c-0.5658846,0.1620464-1.1610007,0.0879765-1.7359672,0.0263929c-0.5099773-0.0519342-1.0267663-0.1291265-1.5384464-0.0527859
				c-0.2795372,0.0400152-0.5491414,0.1470051-0.7750411,0.317565c-0.3377151,0.0031223-0.6788354,0.0638542-1.0145633,0.0045414
				c-0.1841824-0.0349073-0.3632562-0.1214638-0.4852877-0.2667665c-0.0939357-0.103301-0.1339507-0.2412252-0.2199402-0.3499174
				c-0.2392383-0.3195524-0.3524721-0.7418375-0.2576849-1.134325c0.1021657-0.4583263,0.4222853-0.8340702,0.783555-1.1184311
				c0.2979836-0.2295895,0.6393876-0.4027042,1.0015087-0.5048695c0.1861687-0.07407,0.3604183-0.1753845,0.546587-0.2497387
				c0.5173564-0.2358332,1.0860791-0.4441376,1.453876-0.90133c0.0578942-0.078043,0.1600599-0.0942192,0.2466168-0.1225986
				C7.0507617,9.5397177,7.272121,9.525528,7.4492083,9.4043484c0.0862732-0.055624,0.1265721-0.1714115,0.2375355-0.1873035
				C7.569253,9.050457,7.6362286,8.8330717,7.6836219,8.6528625C7.712853,8.2944307,7.736124,7.9263496,7.8712096,7.5892024
				C7.9319415,7.442481,8.0409184,7.2824216,8.2134657,7.267664c0.1722622-0.0048242,0.3084831,0.1225991,0.4140549,0.2440629
				c0.1157875,0.1177745,0.103301,0.3362956,0.2738609,0.4038386C9.0796041,7.941391,9.2061768,7.7770743,9.3072071,7.6547589
				c0.2171021-0.0349064,0.4412994-0.0848541,0.6601048-0.0351906c0.0720835,0.0133386,0.1274233,0.06357,0.1779385,0.113234
				c0.247468-0.0019865,0.4929504-0.0598807,0.7157278-0.1674385c0.3499184-0.1677222,0.6601048-0.4058251,1.003212-0.5857506
				c0.066124-0.025825,0.1396265-0.0173116,0.209156-0.0190144c0.3294849,0.0119195,0.6629429,0.0451236,0.9765348,0.1521139
				c0.1047201,0.0400147,0.2185211,0.0823002,0.2900372,0.173398c0.0808811,0.1453023,0.0970573,0.315011,0.1472893,0.4716654
				c0.3235245,0.0891113,0.6618071,0.1708441,0.9362364,0.3734732c0.0896788,0.0630016,0.1359367,0.165451,0.2094393,0.2437782
				c0.1319647,0.1356535,0.2562656,0.2900381,0.4415836,0.3538914c0.2321434,0.149559,0.4972067-0.0082302,0.7449589-0.0110683
				c0.1586409-0.0164595,0.2962799,0.0678272,0.4325027,0.1342344c0.1768036,0.0652733,0.3405514,0.165452,0.4745026,0.2982674
				c0.3677959,0.3561621,0.536087,0.865572,0.9024639,1.222868c0.1572227,0.157506,0.3578644,0.2715912,0.5752506,0.3218222
				c0.2224941,0.0306501,0.4211502,0.2358332,0.4086628,0.4671249c0.0059605,0.1569386-0.0706635,0.3462286,0.051651,0.4762068
				c0.1333828,0.0547714,0.2874832,0.0922327,0.3734722,0.2205076c0.2559834,0.3592825,0.1291275,0.8743687,0.4339218,1.2100973
				c0.0823002,0.1123819,0.2389545,0.1313963,0.3161469,0.2460489c0.0783272-0.007946,0.160059-0.0139055,0.2298717-0.0539207
				c0.0698147-0.0363255,0.0964909-0.1155043,0.1316814-0.1804924c0.2451973-0.4796124,0.4004326-0.9989548,0.5264378-1.5208521
				c0.1691399-0.7089167,0.2914562-1.4289026,0.490963-2.1307249c0.207737-0.7480803,0.5358028-1.4856606,1.0877819-2.0447345
				c0.1912766-0.1980882,0.3992977-0.4248395,0.6876335-0.4608812c0.1736813-0.0190144,0.3246593,0.0800295,0.4640026,0.1688571
				c0.0346222,0.0246902,0.0868397,0.0368934,0.1078415-0.0116353c0.2925911-0.4021363,0.6461983-0.7546082,1.0003738-1.1019721
				C24.9763203,5.5368052,25.4627419,5.1148038,26.008194,4.7785077z M25.9267445,4.9814205
				c-0.588871,0.3896489-1.1102009,0.8703957-1.6057053,1.3707247c-0.2599545,0.2627931-0.5199108,0.5304108-0.7253761,0.8388944
				c-0.037178,0.0550561-0.1120987,0.0990443-0.1756687,0.0590296c-0.1433163-0.076057-0.2749977-0.2026291-0.4492455-0.1898584
				c-0.2344151,0.0201492-0.4109344,0.1966691-0.5687237,0.3538909c-0.5096931,0.4949369-0.8320847,1.1496496-1.041523,1.8208218
				c-0.4086647,1.2742348-0.4759235,2.6531897-1.074728,3.8658409c-0.0502319,0.0976248-0.0987606,0.2040472-0.1949673,0.2650633
				c-0.1174908,0.0726509-0.2644958,0.0945034-0.3981628,0.059597c-0.0845699-0.1206131-0.2364006-0.1637497-0.3283482-0.2769833
				c-0.1918449-0.2068853-0.2278881-0.49891-0.2772675-0.7645407c-0.0292301-0.1600599-0.0613003-0.3294849-0.1680069-0.4583273
				c-0.0783253-0.0910978-0.1963844-0.1311131-0.3110371-0.1521139c-0.0536366-0.066124-0.1169224-0.1308289-0.1356544-0.2168179
				c-0.0314999-0.1410456,0.0204334-0.2835102,0.0073795-0.4254074c-0.011919-0.1453028-0.1282749-0.2786856-0.2732944-0.3013887
				c-0.28578-0.0607319-0.5511265-0.2153997-0.7415524-0.436759c-0.3167133-0.3555937-0.4920998-0.8156233-0.829813-1.1541901
				c-0.1143703-0.109828-0.2503071-0.1978045-0.3987312-0.2539949c-0.1132336-0.0402994-0.2122784-0.1208963-0.3351603-0.1313972
				c-0.2247648-0.0266762-0.4370432,0.0928011-0.6615238,0.0712328c-0.1174908-0.0102167-0.2159672-0.0788946-0.3204031-0.1260052
				c-0.1410456-0.0686779-0.2420759-0.1924114-0.3499184-0.3019562c-0.0993271-0.0919495-0.1498432-0.2287378-0.2701712-0.2988348
				c-0.2588205-0.1643171-0.5621958-0.237536-0.8547878-0.3175654c-0.031785-0.0087976-0.0635691-0.023839-0.0726509-0.0581779
				c-0.0559072-0.1447349-0.0630026-0.3045111-0.1302614-0.4449887c-0.0224199-0.0502315-0.0749216-0.0752053-0.1208963-0.099328
				c-0.1555185-0.0732188-0.3257952-0.1078415-0.4940853-0.1365047c-0.2304401-0.035758-0.4654217-0.0610161-0.6984167-0.0420017
				c-0.3848248,0.179358-0.7111874,0.4674087-1.1065121,0.628036c-0.2423601,0.1041522-0.508275,0.1498432-0.771636,0.1345181
				c-0.0207167-0.0471096-0.0428524-0.0990438-0.099328-0.1095443C9.7641153,7.6964769,9.5634727,7.7413163,9.3778715,7.7816148
				c-0.1333828,0.1245856-0.2766991,0.3033757-0.483017,0.2661986C8.7069826,8.0109205,8.6303587,7.8136835,8.5701942,7.6550426
				C8.4839211,7.5395389,8.3749437,7.3962226,8.215168,7.4016147C8.0840549,7.4211965,8.0230398,7.5540123,7.979619,7.6635566
				c-0.1115308,0.311038-0.1427484,0.6439281-0.1617627,0.9717107c-0.0034051,0.0885429-0.0510826,0.1674385-0.0584612,0.255414
				C7.7435026,9.030592,7.7679086,9.1773129,7.7236371,9.3129663c-0.0652728,0.07549-0.1362214,0.1478567-0.215116,0.2094402
				C7.2746749,9.6818991,6.9712992,9.6623173,6.7232633,9.786335c-0.1186256,0.1268559-0.2327108,0.260807-0.3754592,0.3615532
				c-0.444705,0.3175659-0.96348,0.5020313-1.4541597,0.7330399c-0.1086931,0.0550556-0.2173862,0.1123819-0.3360119,0.1430321
				c-0.1878719,0.0525017-0.365243,0.1365051-0.536087,0.2295895c-0.4231365,0.2420759-0.8119342,0.5851831-1.0057654,1.0420914
				c-0.1345184,0.3138762-0.1353698,0.681673,0.0079463,0.9929943c0.0649889,0.1776552,0.2111425,0.3079166,0.2837939,0.4815989
				c0.0783269,0.1634645,0.2327108,0.2798204,0.4058251,0.3274975c0.3385661,0.0981932,0.6918895,0.019866,1.0364153,0.015893
				c0.3181329-0.2349815,0.7157283-0.3343096,1.1062288-0.3473635c0.8238535-0.0360422,1.6349363,0.1963854,2.459074,0.1458693
				c0.1856012-0.0178785,0.374608-0.039731,0.5499926-0.1061382c0.0984764-0.0771923,0.2043314-0.1697092,0.33885-0.1623306
				c0.1736822,0.0073786,0.3008213,0.1453028,0.4018517,0.2721586c0.2043324,0.295146,0.3311882,0.6399555,0.3990145,0.991292
				c0.1989393,0.8354893,0.5814934,1.6221657,0.6964302,2.4783726c0.0604486,0.0737858,0.1200447,0.153532,0.1435995,0.2477512
				c0.0150414,0.0922337-0.018446,0.185318-0.0019865,0.2775517c0.0261097,0.097908-0.0133381,0.1946812-0.0402985,0.287199
				c-0.1095448,0.334877-0.2917404,0.6467667-0.353323,0.9966831c-0.0334883,0.1260052,0.0556231,0.2579689-0.0096493,0.3782978
				c-0.0990438,0.1768036-0.3047943,0.2463341-0.4915314,0.287199c-0.4966393,0.1015987-1.007184,0.0786114-1.5109186,0.06357
				c-0.3879461-0.0215683-0.7753248-0.0553398-1.1627035-0.0851383c-0.0953546-0.0110683-0.1861687-0.0479603-0.2826586-0.0516491
				c-0.1932635-0.0048256-0.3819866,0.0845699-0.5085588,0.2293053c-0.2503061,0.2732925-0.3782973,0.6334267-0.6192384,0.9140987
				c-0.1614785,0.2730103-0.3831215,0.505722-0.6240625,0.7097683c-0.3632565,0.3357296-0.7968936,0.6181049-1.0403886,1.0622406
				c-0.1558027,0.2747135-0.1217475,0.6047649-0.0797462,0.9044514c0.0116358,0.1140862,0.0601645,0.2188053,0.0925169,0.3274994
				c0.1041522,0.6033459,0.2596717,1.199028,0.4640031,1.7765484c0.0797462,0.2006435,0.1450186,0.4197311,0.3042269,0.5743999
				c0.0584617,0.0655556,0.1115313,0.1421814,0.1980882,0.1739655c0.1521134,0.0723667,0.323525,0.0008507,0.4526515-0.0865574
				c0.3076324-0.215683,0.5207615-0.5363693,0.698133-0.861599c0.1200447-0.2383862,0.2278862-0.4881248,0.2670498-0.7537556
				c0.0303659-0.1609116-0.0553398-0.3246613,0.0102167-0.4813137c0.0417175-0.1651688,0.1847501-0.3059311,0.1583571-0.4847202
				c-0.0422854-0.1055717-0.1489921-0.1665878-0.2556982-0.1901417c-0.2287383-0.066124-0.4699631-0.2156849-0.5233164-0.464571
				c-0.0510826-0.2738609,0.099328-0.5329647,0.2616582-0.7407017c0.1657357-0.2233467,0.3890815-0.3913517,0.5902915-0.5795078
				c0.2934427-0.1963863,0.6649289-0.213129,1.0071845-0.203764c0.6050487,0.0332031,1.2035699,0.1790733,1.7600894,0.4180279
				c0.4671249,0.1208973,0.9348173,0.2426434,1.3920097,0.398447c0.1418962,0.0482445,0.2900372,0.0942192,0.4041224,0.1963844
				c-0.141613,0.0465431-0.2931595,0.043705-0.4390297,0.0686798C10.71,22.7281876,10.4608288,22.797718,10.2352133,22.9171944
				c-0.1396265,0.0752068-0.2622261,0.1768036-0.3924875,0.2667675C9.7524796,23.23703,9.6585436,23.292654,9.5966768,23.3797798
				c-0.1404781,0.1943989-0.2071695,0.431366-0.34935,0.62463c-0.0490971,0.0644207-0.1248693,0.1021652-0.1728306,0.1677227
				c-0.2738619,0.4177437-0.6581182,0.7435398-0.9884548,1.1136055c-0.19525,0.1521149-0.4018517,0.303093-0.5301266,0.5204792
				c-0.1847501,0.2820911-0.2335625,0.6419411-0.1470056,0.9666023c0.0280957,0.0928001,0.045691,0.1904259,0.0266767,0.2877655
				c-0.0769081,0.4739361-0.2520089,0.9308453-0.2801046,1.4127274c-0.0053921,0.1319637-0.0025539,0.2772655,0.0851383,0.3848248
				c0.0320687,0.2968483-0.0156088,0.5979538,0.0366096,0.8930988c0.0195818,0.0990448,0.0587454,0.1958179,0.1186256,0.2775497
				c0.1092606,0.1319656,0.2877669,0.181345,0.4517999,0.1961021c0.305079-0.0499477,0.5934129-0.1739655,0.8672738-0.3135929
				c0.3130255-0.238102,0.5681562-0.5814934,0.6209412-0.9796562c0.0780439-0.5366535-0.0922327-1.0639439-0.156086-1.5926514
				c-0.0513668-0.011919-0.1115313-0.0110683-0.1498432-0.0525017c-0.1118155-0.0947876-0.0769081-0.2599545-0.0587454-0.386528
				c0.1013145-0.4092293,0.3081999-0.7835541,0.5355186-1.1351738c0.0695295-0.1166401,0.1728306-0.2080212,0.2406578-0.3255119
				c0.1103954-0.1873055,0.2849283-0.3243771,0.4543533-0.4557743c0.2173862-0.1631813,0.4438543-0.3138752,0.6748619-0.4569073
				c0.0610161-0.0374603,0.1225996-0.0752048,0.1907101-0.0984764c0.3232412-0.1103954,0.6649284-0.1572227,1.0054817-0.1640339
				c0.7673788-0.0229874,1.5307837,0.1132336,2.2981625,0.0729351c0.0610161-0.003973,0.1240187-0.0019855,0.1827641-0.0212841
				c0.066124-0.0729351,0.0499468-0.1779385,0.0649881-0.267334c0.027812-0.161478,0.0122032-0.3255119,0.0175953-0.4881248
				c-0.0604477,0.1748161-0.0187302,0.3660946-0.075489,0.5411949c-0.015892,0.0703812-0.1035852,0.0641365-0.1592083,0.0746384
				c-0.4166098,0.026392-0.833787-0.0082302-1.2489767-0.0394478c-0.4154749,0.0068111-0.831233,0.0190144-1.2458553,0.0459747
				c-0.5079908,0.0434208-1.0395374,0.1433163-1.4521732,0.4625835c-0.0868416,0.0604477-0.1492758,0.1506939-0.2386713,0.2074528
				c-0.3615532,0.1424656-0.6041965,0.4668407-0.8247051,0.7710686c-0.1677217,0.2574005-0.3442421,0.5250187-0.397027,0.8332195
				c-0.0454073,0.1697083-0.1566544,0.3263626-0.1413298,0.5088425c0.0085135,0.093935,0.0068111,0.1881542,0.0053921,0.2823734
				c0.1348019,0.0771923,0.1770878,0.2349815,0.2278862,0.3709202c0.1010313,0.3130245,0.1640329,0.6382523,0.1929798,0.9660339
				c0.0062437,0.1424637,0.0246906,0.2957134-0.0408659,0.4285278c-0.0882597,0.2236309-0.2182379,0.434206-0.4029875,0.5908604
				c-0.3289165,0.2900372-0.7668114,0.4132023-1.1927857,0.4699612c-0.0595965,0.0158939-0.0930843-0.0451221-0.119761-0.0862732
				c-0.0766244-0.1458702-0.1103959-0.309618-0.1447349-0.4693947c-0.0703807-0.3819866-0.1030173-0.7719193-0.0896788-1.1604328
				c0.007946-0.1648846,0.0204329-0.3360119,0.0959225-0.4858551c0.2012095-0.4225693,0.2451978-0.9277229,0.0774755-1.368454
				c-0.0681105-0.1941147,0.0042567-0.4052582,0.1172071-0.5664539c0.2815232-0.3978786,0.7313366-0.6322918,1.0313072-1.0125751
				c0.062151-0.1194782,0.2080202-0.1464386,0.2877665-0.2505913c0.3121738-0.3584309,0.4736519-0.8190289,0.7685137-1.1899471
				c0.1515465-0.1592083,0.3005381-0.3263626,0.48841-0.4444218c0.3249435-0.2074528,0.7131739-0.28578,1.0926065-0.3161469
				c0.191844,0.0048256,0.389081,0.0051098,0.5732632-0.0584602c0.3592834-0.117775,0.7063627-0.271307,1.0687675-0.3808517
				c0.1506948-0.0414333,0.3039436-0.0848541,0.4617329-0.0848541c0.1129503-0.0042572,0.1963854,0.0916653,0.3073492,0.1015987
				c0.2074528,0.0354729,0.4185963,0.1033001,0.6305895,0.0649872c-0.0153246-0.030365-0.0309334-0.0604477-0.0465422-0.0902462
				c-0.1665869-0.0280952-0.3340254-0.0510826-0.4994764-0.0848541c-0.3161469-0.0570431-0.6527262-0.1308289-0.9657507-0.019865
				c-0.1949673,0.0845699-0.3987312,0.1461544-0.6005087,0.2122784c-0.2724419,0.0763397-0.5604925,0.1563702-0.8437185,0.089962
				c-0.1001797-0.0073795-0.165452-0.0913811-0.2119942-0.1714115c-0.9518452-0.2840786-1.8929052-0.6124268-2.8666019-0.8167591
				c-0.2477522-0.0451221-0.5000453-0.0962067-0.7529058-0.0737858c-0.1123824,0.0022697-0.193831,0.0882587-0.2934427,0.1268559
				c-0.2497387,0.104435-0.4881253,0.2369671-0.7063632,0.3975945c-0.2718744,0.2063179-0.510829,0.4813156-0.5979533,0.8181782
				c-0.0431371,0.177372-0.0544887,0.3683643-0.0068111,0.5460186c0.199223,0.2233467,0.522748,0.2755642,0.7429724,0.4736538
				c0.0315008,0.0295143,0.0644212,0.0825825,0.0346227,0.1243c-0.035758,0.0652733-0.1330991,0.0814495-0.1461539,0.1600609
				c-0.0735025,0.3712025,0.0343394,0.763689-0.0956383,1.1260929c-0.0380282,0.1203289-0.1333833,0.205183-0.2171025,0.2937279
				c-0.1299777,0.2474689-0.3101869,0.4648533-0.5057206,0.6632252c-0.1129498,0.1055717-0.2278867,0.2199421-0.3774457,0.271307
				c-0.0686784,0.0229874-0.1623302,0.0201511-0.2014937-0.0513649c-0.095355-0.1526814-0.2097239-0.2940121-0.2823749-0.4597473
				c-0.2554145-0.5621948-0.3621211-1.176609-0.4492459-1.7833614c-0.0150409-0.1257191-0.0780435-0.2375355-0.1115308-0.3578625
				c-0.0831518-0.284647-0.1279912-0.5857506-0.0842872-0.8808975c0.0107841-0.0513668,0.0161762-0.1086922,0.0553398-0.1470051
				c0.4177446-0.4245548,0.8505306-0.8346367,1.2603288-1.2668552c0.3260794-0.342823,0.6118598-0.7219715,0.8655715-1.1204185
				c0.0445557-0.0848541,0.075489-0.1856022,0.1651678-0.2346973c0.2224946-0.1433163,0.4991937-0.1359367,0.7534728-0.1418972
				c0.1120987,0.0048237,0.2293057-0.0136223,0.3368635,0.0269604c0.2014937,0.0709476,0.4174609,0.0840034,0.6291709,0.0905304
				c0.4174614,0.0068111,0.8335028-0.031786,1.2486935-0.0689621c0.1345186-0.0150414,0.2676172,0.0244064,0.3933382,0.0681114
				c0.3822708,0.1472874,0.7074986,0.4134865,0.9756832,0.7188492c0.0996122,0.105854,0.1501274,0.2446308,0.2327108,0.3624039
				c0.0766249,0.1095448,0.1487083,0.2358341,0.2766991,0.2920246c-0.0332031-0.2227783-0.1109629-0.4356232-0.175952-0.6501713
				c-0.0825834-0.2477531-0.1677217-0.4966393-0.2894697-0.7282162c-0.0454073-0.0919495-0.1447344-0.1407604-0.1884394-0.2335625
				c-0.1220312-0.2244797-0.1646004-0.4861374-0.1478567-0.7389984c0.0255423-0.3782978,0.169425-0.7341747,0.3306208-1.0727406
				c0.1714115,0.309618,0.2809553,0.6479015,0.4197311,0.9722767c0.0153246,0.0425701,0.0561905,0.0658417,0.0891113,0.0939369
				c0.0354738,0.0420017,0.0752048,0.0805969,0.1265717,0.1033001c-0.0042572-0.075489-0.0133381-0.1509781-0.0374613-0.2227783
				c-0.0876923-0.2653465-0.1980877-0.5218964-0.3059292-0.7795811c-0.0488129-0.1305447-0.1594925-0.2241974-0.2122784-0.3527565
				c-0.2202234-0.4901123-0.2386703-1.049469-0.4955034-1.5253925c-0.113802-0.4449883-0.1958179-0.8984909-0.3215389-1.340642
				c-0.1067066-0.3856754-0.2284536-0.7775946-0.4574757-1.1104851c-0.12714-0.1887236-0.3246603-0.33885-0.5539656-0.3677969
				c-0.3138762,0.0297985-0.5874538,0.2556982-0.9109783,0.2284536c-0.1311131-0.0210009-0.263361-0.0051079-0.3950415-0.0028372
				c-0.4455562,0.0059595-0.8899775-0.0334883-1.3349662-0.0536375c-0.5823455-0.0224199-1.1910834-0.015892-1.7302918,0.2335625
				c-0.1592083,0.082016-0.3309035,0.1461535-0.5111127,0.157505c-0.283226,0.0255423-0.568723-0.0928001-0.7648244-0.2954292
				C3.2598426,13.497508,3.1324193,13.1047373,3.13696,12.7241697c0.0034053-0.1382084,0.0062435-0.283227,0.0735025-0.4080963
				c0.1404779-0.2889013,0.2554145-0.6112919,0.5125318-0.8204479c0.1586409-0.1342344,0.3604183-0.1978045,0.5596414-0.2437792
				c0.3734732-0.1992226,0.7900825-0.3028078,1.1635551-0.5023146c0.4112172-0.1140852,0.7687979-0.3643913,1.0721736-0.6584024
				c0.089395-0.0803137,0.1654515-0.179925,0.2758474-0.2332783c0.1961017-0.1013145,0.4160419-0.1367884,0.6260495-0.1986561
				C7.547401,9.6237211,7.664608,9.5453939,7.7335696,9.4310246C7.8408437,9.259613,7.8760343,9.0564175,7.9285359,8.8642883
				C7.9679837,8.5055733,7.922009,8.1389112,7.9997683,7.7841692c0.023839-0.0945034,0.070097-0.2222109,0.1850338-0.2284541
				c0.1067066,0.0102162,0.2080212,0.075489,0.2588196,0.1705599c0.119194,0.1929798,0.2576857,0.3987308,0.4730844,0.4912477
				c0.0990448,0.0439873,0.1943989-0.0164604,0.2576857-0.089963C9.1519718,8.3954611,9.1159296,8.6647816,9.1400518,8.9341021
				c-0.2301559,0.0062437-0.4739351,0.0087976-0.684227,0.1132336C8.3984985,9.0660658,8.3547945,9.1551771,8.4302835,9.1812868
				C8.6394396,9.2735195,8.8747053,9.2227201,9.0935097,9.20399C9.134944,9.1915026,9.1644583,9.2309504,9.1846075,9.2598972
				c0.1183424,0.1909933,0.1260052,0.4322186,0.2565498,0.616684c0.027812,0.0462589,0.0942202,0.0454073,0.12714,0.0053921
				c0.1069899-0.1240177,0.207737-0.2548466,0.2846451-0.4001493C9.882741,9.4398222,9.9043093,9.3612118,9.9710007,9.3907261
				c0.2006426,0.0828676,0.4035549,0.175952,0.5687227,0.3201199c0.2017775,0.1597757,0.4344893,0.2715902,0.6555643,0.4001493
				c1.1652575,0.8363409,2.2720537,1.77882,3.1467066,2.9233608c0.2270355,0.2185211,0.3856764,0.5065718,0.6544285,0.6808214
				c0.1663036,0.1521139,0.3527565,0.3138762,0.416894,0.5377893c0.0346222,0.0973415-0.0479612,0.1668711-0.105855,0.2304411
				c0.1634645,0.0320683,0.3028078-0.0783272,0.4546375-0.113802c0.1387749,0.0232716,0.2644949,0.0928011,0.3956079,0.1413298
				c0.3802853,0.1680059,0.7617035,0.3337421,1.1357441,0.5150862c0.2474689,0.1206121,0.5014629,0.2290211,0.7381477,0.3697834
				c-0.0865574,0.0584612-0.1838989,0.0996113-0.2860641,0.1211796c-0.2880516,0.0615835-0.5834808,0.0712328-0.8760719,0.0970573
				c-0.1492748,0.0153255-0.3059292,0.0232716-0.4390297,0.1004639c0.1305466,0.1118145,0.3178501,0.1671543,0.3978786,0.330904
				c0.0652733,0.1251526,0.0022717,0.2610893-0.0485287,0.3785801c0.1989403-0.0655556,0.3780136-0.1762352,0.5639-0.2710228
				c0.2732925-0.1396275,0.5352345-0.3008213,0.8096638-0.4378939c0.164032-0.0519342,0.317564-0.1313972,0.4622993-0.2239132
				c0.4307995-0.2775507,0.8374767-0.5928459,1.2132187-0.9413452c0.1532497-0.1532478,0.3252277-0.3036594,0.4041233-0.5113964
				c0.2409401-0.1470051,0.3527565-0.4220009,0.4693947-0.6657801c0.2389545-0.5650339,0.4166107-1.1550417,0.5511284-1.7532787
				c0.1838989-0.4966393,0.104435-1.042943,0.2503052-1.5483799c0.0207176-0.0698128,0.0547733-0.1348019,0.0956402-0.1952496
				c0.056757-0.0805979,0.0675411-0.181345,0.1007462-0.2721586c0.1594925-0.4693956,0.3555927-0.9268713,0.5863171-1.3659
				c0.095356-0.173398,0.1969547-0.3462286,0.3326073-0.4918151c0.0553398-0.0630021,0.129694-0.1041522,0.2066021-0.1359372
				c-0.0133381,0.5758181-0.4855709,1.0559969-0.4055424,1.6445856c0.0919495-0.0019865,0.1796417-0.0374603,0.2463341-0.1010303
				c0.1816273-0.1651678,0.303091-0.3825541,0.4302311-0.5897236c0.1685734-0.2730103,0.3169975-0.56248,0.5270061-0.8068266
				c0.0760555-0.0998955,0.2029114-0.1345181,0.2883339-0.2227778c0.4966393-0.4966397,1.0054817-0.9810758,1.5327702-1.4450788
				c0.342823-0.271307,0.6305904-0.6101565,1.0040646-0.8425841c0.0945034-0.0610156,0.2063179-0.0967736,0.3198357-0.0791783
				c-0.0105019,0.1983719-0.1418972,0.3581481-0.2642136,0.5031667c-0.3553085,0.4007168-0.7753239,0.7384315-1.1303501,1.1394324
				c-0.0916653,0.1103959-0.1887226,0.2210755-0.2454815,0.3541746c-0.0309334,0.133667-0.0618668,0.2806726-0.0164604,0.4140553
				c0.0462589,0.0930843,0.1611938,0.0289469,0.223629-0.0122032c0.4086628-0.2951455,0.7055111-0.7273636,1.1456757-0.9816427
				c0.3712025-0.3277822,0.7687988-0.6300225,1.2064095-0.8641524c0.1299763-0.0712323,0.2698879-0.1223154,0.3992977-0.1955342
				c0.2545624-0.1356535,0.5037327-0.2925916,0.7858238-0.3655267c0.0803146-0.0241222,0.1646023-0.0164599,0.2426453,0.0130548
				c-0.0638542,0.1325316-0.1776562,0.2298727-0.2795372,0.3323226c-0.3734722,0.3479314-0.7687988,0.6728754-1.1837044,0.9700074
				c-0.1858845,0.1047201-0.3093357,0.2843614-0.4302311,0.4540701c-0.0737877,0.1143689-0.1515465,0.2364006-0.1611958,0.3754597
				c-0.0105,0.0630021,0.0471096,0.1166391,0.1089764,0.1112471c0.1521149-0.0034056,0.2982674-0.066124,0.4288139-0.1404781
				c0.0862732-0.0857058,0.1807766-0.1631813,0.291172-0.2165346c0.3047943-0.1558027,0.628603-0.2707396,0.9521275-0.3805676
				c0.4475441-0.1410456,0.8984928-0.2789693,1.3633461-0.351337c0.2142658-0.0442719,0.4333534-0.1010303,0.653862-0.0732188
				c0.07407,0.009933,0.1739655,0.0468259,0.1688576,0.1379237c-0.1064224,0.1075583-0.2463341,0.1725469-0.3805676,0.2378197
				c-0.5854683,0.2664824-1.2146378,0.4359074-1.7745647,0.7574458c-0.2040462,0.1251531-0.4435692,0.2889023-0.4535027,0.5536819
				c0.3104706-0.0147572,0.6104412-0.1038685,0.9126816-0.169425c0.4523678-0.099328,0.9004784-0.2210755,1.3573875-0.2988348
				c0.1697083-0.0601645,0.3621197-0.1413298,0.5383568-0.0559077c0.0743542,0.0280957,0.0993271,0.1274238,0.0456905,0.1867366
				c-0.0922337,0.1135173-0.2386703,0.1617627-0.3740406,0.2003584c-0.0840034,0.0263929-0.1819115,0.0232711-0.2505894,0.0851383
				c-0.1129513,0.0930843-0.2434959,0.1609106-0.3780136,0.2168188c-0.3448105,0.13764-0.7063637,0.2372513-1.0347137,0.41292
				c-0.215683,0.1143684-0.3973103,0.3067808-0.4478264,0.5516949c0.1311131,0.0161762,0.2574005-0.0303659,0.3797169-0.071516
				c0.26478-0.0925169,0.5287075-0.1890068,0.7866764-0.2988348c0.1603432-0.0581779,0.3280659-0.0928001,0.4946518-0.1277075
				c0.2945786-0.0564747,0.5928459-0.1052876,0.8939514-0.1015978c0.0936527,0.0051079,0.2085896,0.0062437,0.2644958,0.0959225
				c-0.0981922,0.0862732-0.21171,0.1529646-0.3328896,0.2009258c-0.3476486,0.1370726-0.7083492,0.2423601-1.0474834,0.4007168
				c-0.1714115,0.0837193-0.3448105,0.1924124-0.4310837,0.3700676c-0.0388794,0.0241222-0.109827,0.0326357-0.1072731,0.0916653
				c0.018446,0.0970573,0.1155033,0.1543837,0.2048988,0.1768036c0.1430321,0.0394478,0.2815228-0.038312,0.424839-0.0377445
				c0.3873787-0.0218525,0.7781639-0.0746374,1.1658249-0.0300827c0.051651,0.0073795,0.1674385,0.0394478,0.1095448,0.1095448
				c-0.1172066,0.1240177-0.2823753,0.1850338-0.432785,0.2579689c-0.2894707,0.1191931-0.5738316,0.2591038-0.8213005,0.4529352
				c-0.096489,0.0797462-0.2046146,0.1668701-0.2352638,0.2940102c-0.0241222,0.0984764,0.059597,0.1756687,0.1387749,0.2162514
				c0.1299782,0.0488119,0.2863483,0.0445557,0.3922024,0.1464376c0.0647049,0.0681105,0.0388794,0.1787901-0.0232697,0.239522
				c-0.2023468,0.2136965-0.4625854,0.3723373-0.630024,0.6183863c-0.0774746,0.1095448-0.1052876,0.2681856-0.0153236,0.3788652
				c0.1390591,0.1804934,0.2162495,0.4174604,0.1725464,0.644496c-0.0553398,0.3073492-0.2707405,0.5528307-0.3638248,0.8459892
				c-0.0255413,0.6779842-0.3555927,1.2980738-0.7330379,1.8452282c-0.5392094,0.7551756-1.2140713,1.4164152-1.987978,1.9289465
				c-0.1453018,0.1807766-0.3314705,0.3226738-0.5372219,0.4282455c0.1736832-0.07407,0.3300533-0.1816273,0.4935188-0.2747116
				c0.4302311-0.248888,0.8227177-0.5556698,1.2276917-0.8423004c0.2690372-0.2134132,0.5570869-0.4044075,0.805975-0.6422253
				c0.2696037-0.2400913,0.5420456-0.4798965,0.7733383-0.7582979c0.0913811-0.1106796,0.1722622-0.2352657,0.2009258-0.3782978
				c0.0570431-0.0181627,0.1251526-0.0280952,0.1620464-0.0811644c0.1484241-0.2193727,0.0928001-0.5190592,0.2627926-0.7276478
				c0.1501274-0.2000751,0.1765213-0.4557734,0.2102928-0.6952953c0.0283794-0.1770878,0.104435-0.3499174,0.2332783-0.4770575
				c0.071516-0.0720835,0.1943989-0.0984764,0.2233448-0.2074537c0.0601654-0.2378187-0.1637478-0.4628677-0.0666904-0.6981325
				c0.0641365-0.1109638,0.1572208-0.2034807,0.2128448-0.3204031c0.1004639-0.1830473,0.0913811-0.3973122,0.0962067-0.5993729
				c-0.1211796-0.1691418-0.2690372-0.401001-0.1436005-0.6070356c0.2046165-0.2891855,0.5948315-0.3587151,0.8110828-0.6371174
				c0.1055717-0.1350851,0.1722641-0.313592,0.1345177-0.4855709c-0.0343399-0.2639284-0.0187302-0.5377893,0.0700989-0.790082
				c0.0485268-0.1515465,0.14814-0.2942944,0.12714-0.4603138c-0.0374603-0.3141603-0.3422585-0.5358033-0.3292007-0.8638687
				c0.0530701-0.0374608,0.1435966-0.0692458,0.1345177-0.1495595c-0.023838-0.1305451-0.156086-0.1921287-0.2582531-0.2545633
				c-0.0953541-0.0590291-0.2071705-0.0774755-0.311039-0.1129498c-0.1120968-0.0729351-0.2284527-0.1540999-0.2996864-0.2693205
				c-0.0632858-0.0993276,0.031786-0.19525,0.0876942-0.2718744c0.1010303-0.1231666,0.1819115-0.3005376,0.1050034-0.4557729
				c-0.0638542-0.1714115-0.252861-0.2480359-0.4225693-0.2613745c-0.468544-0.0405822-0.9243164,0.107842-1.3888874,0.1362214
				c-0.0964909,0.0036893-0.1969528-0.0019865-0.2849293-0.0451236c-0.0692463-0.0380282-0.103302-0.123734-0.075489-0.1986556
				c0.0882587-0.2903214,0.4132042-0.4376101,0.4781933-0.7392831c0.0317841-0.1120987-0.062151-0.2182374-0.1663036-0.2443466
				c-0.1995068-0.053637-0.4092312-0.0192981-0.6081715,0.0192981c-0.5673027,0.1208963-1.1065121,0.3408365-1.645153,0.55056
				c-0.0442715-0.024406-0.1260033-0.0300817-0.1086922-0.1001792c0.0167427-0.1495595,0.1265717-0.3300524,0.0048237-0.4614487
				c-0.0990429-0.1345186-0.2769833-0.1768036-0.435339-0.1543841C26.496603,4.6272459,26.2048626,4.8071709,25.9267445,4.9814205z
				 M26.2820549,8.7405548c-0.0070953,0.007946-0.0207157,0.0241222-0.0275269,0.0320683
				c-0.1197624,0.0400152-0.248888,0.0414343-0.3709202,0.0726509c0.1208973,0.0258255,0.2437801,0.0445557,0.3663788,0.0627193
				c0.0681095,0.0953541,0.0689621,0.2171021,0.1024494,0.3260784c0.0343399-0.1095438,0.026392-0.2426434,0.1143684-0.3277817
				c0.1333828-0.015892,0.2661991-0.0366096,0.3987312-0.0601645c-0.1430321-0.0420017-0.3073483-0.0201492-0.4381771-0.0928001
				C26.388195,8.6233473,26.3779774,8.4865589,26.35499,8.3534594C26.3226376,8.4808826,26.3138409,8.6131306,26.2820549,8.7405548z
				 M7.7846527,10.2503376c0.0953546-0.0178785,0.1901417-0.0471096,0.2883348-0.0411501
				c0.1152201,0.0062437,0.2230616,0.0593138,0.3127403,0.129694c0.145587,0.1308289,0.3575802,0.1963854,0.5502768,0.1526814
				c0.1963854-0.0647049,0.3607016-0.1952505,0.5264378-0.3141594c-0.2060347,0.0207167-0.4151907,0.0246897-0.6209412-0.0011358
				c-0.1464376-0.0175953-0.2857809-0.0717993-0.4330692-0.085989C8.191329,10.0613317,7.9515233,10.097373,7.7846527,10.2503376z
				 M8.1121511,10.3641396c-0.0312176,0.1373558-0.0292311,0.2843609-0.083436,0.4154739
				C7.90413,10.8250208,7.7681928,10.825304,7.6404853,10.8604946c0.1231666,0.0201492,0.2463331,0.0411501,0.3697839,0.0593128
				c0.070097,0.0925169,0.0692453,0.2142649,0.1007462,0.3215389c0.0377445-0.1064224,0.0354748-0.2298727,0.1103964-0.3201199
				c0.1333828-0.0187302,0.2667656-0.0368929,0.3990135-0.0638533c-0.1328154-0.0309334-0.2704554-0.0349064-0.4015675-0.0703812
				c-0.0076628-0.0073786-0.0229874-0.0218515-0.0306501-0.0292301C8.1493282,10.6297703,8.1425171,10.494401,8.1121511,10.3641396z
				 M4.6606493,12.2420034c-0.0048246,0.0587454-0.0502315,0.1152201-0.1101117,0.1237345
				c-0.1830473,0.0337715-0.3677969,0.0556231-0.5497088,0.0950708c0.1932635,0.0493803,0.3924866,0.0692453,0.5880208,0.105855
				c0.0292306,0.0400152,0.0689621,0.0757732,0.0783272,0.1268559c0.0326362,0.1350861,0.0567589,0.2721586,0.0930843,0.4063931
				c0.0354743-0.1330996,0.0587454-0.2687531,0.0928006-0.4021358c0.0107841-0.0573263,0.0564752-0.1047201,0.1069903-0.129694
				c0.2139807-0.0428534,0.4322181-0.0607319,0.6456308-0.1075583c-0.2083044-0.0354738-0.4180284-0.0615826-0.626049-0.0973406
				c-0.045691-0.0053921-0.0757732-0.0445557-0.111815-0.0689621c-0.0337715-0.2105751-0.0692458-0.4205828-0.1055713-0.6305904
				C4.7188272,11.8546247,4.696691,12.0495911,4.6606493,12.2420034z M27.5165596,12.4420786
				c-0.0871258,0.0391636-0.1081257,0.1657352-0.0403004,0.2324266c0.0723686,0.0857058,0.2332802,0.0459747,0.252861-0.0664072
				C27.764595,12.4911747,27.6212788,12.3779411,27.5165596,12.4420786z M11.7231445,13.2083216
				c-0.0036898,0.0488129-0.0402985,0.083436-0.067543,0.1206131c-0.2026291,0.0317841-0.4058256,0.0610151-0.6064672,0.1033001
				c0.1807766,0.0363264,0.3641071,0.0601645,0.5457354,0.0930853c0.0547724,0.0031214,0.0857058,0.0533524,0.1243019,0.0857058
				c0.0326357,0.1506939,0.0612993,0.3022404,0.1052876,0.4500971c0.0332041-0.1282749,0.0570421-0.2585363,0.0885439-0.3870955
				c0.0093651-0.0581779,0.0573263-0.0959225,0.0925159-0.1390591c0.2216434-0.0329199,0.4432869-0.0655565,0.6637945-0.1030169
				c-0.2063179-0.0408669-0.4157581-0.0632858-0.6226444-0.0996113c-0.0652723-0.0082302-0.121747-0.0644217-0.1260042-0.1305456
				c-0.0337715-0.1887226-0.0610151-0.378581-0.0964899-0.5667362
				C11.7807541,12.8243484,11.7583351,13.0173283,11.7231445,13.2083216z M29.363205,12.8399572
				c-0.0925159,0.0510826-0.0950699,0.1958179-0.0059586,0.251442c0.089962,0.0644207,0.2287369-0.003974,0.2324276-0.1143694
				C29.6007404,12.862093,29.4596958,12.7758198,29.363205,12.8399572z M13.4965725,13.3851252
				c-0.105855,0.0400152-0.1197615,0.2066021-0.0195818,0.2610903c0.0834351,0.059597,0.2119942,0.0011358,0.2261839-0.0993271
				C13.7287159,13.436492,13.5981703,13.3309212,13.4965725,13.3851252z M22.4088364,13.4387627
				c-0.1081257,0.039731-0.121748,0.2085886-0.0201492,0.263361c0.0922318,0.0652723,0.2318592-0.0147581,0.2273178-0.1260052
				C22.6202621,13.4736691,22.5013523,13.394207,22.4088364,13.4387627z M14.4958105,14.2680082
				c-0.1055708,0.0380287-0.1240177,0.199791-0.0283794,0.259388c0.0851383,0.0683937,0.2270355,0.0031214,0.232995-0.1052876
				C14.7183056,14.313983,14.5945711,14.2243042,14.4958105,14.2680082z M14.0184698,15.8623619
				c-0.0181627,0.0187311-0.0366096,0.0377455-0.0544891,0.0567589c-0.1685734,0.0280962-0.3371468,0.0539207-0.5051527,0.0842876
				c0.1668711,0.0314999,0.3345928,0.0578938,0.5023155,0.0837193c0.1132336,0.1172066,0.0945034,0.2965641,0.1444511,0.4421501
				c0.0584612-0.1453018,0.0312166-0.3331738,0.1603432-0.4415836c0.3868113-0.0255413,0.7741899-0.0471096,1.1595821-0.0871239
				c-0.3859596-0.0292311-0.7727709-0.0505152-1.1581631-0.0862732c-0.0885439-0.0269613-0.0749216-0.1356535-0.0814486-0.2083054
				c-0.0292311-0.361269-0.039732-0.7245255-0.0854225-1.0840921
				C14.0826073,15.0356703,14.0437269,15.4485912,14.0184698,15.8623619z M22.3605919,15.1051998
				c-0.0550575,0.5031672-0.0718002,1.0097389-0.1169243,1.51404c-0.0218525,0.0187321-0.0434208,0.0374622-0.0644207,0.0567589
				c-0.3045101,0.0337715-0.6090221,0.0652733-0.9132481,0.1001797c0.3042259,0.0459747,0.6118584,0.0695305,0.9175053,0.1064224
				c0.026392,0.0383129,0.0689621,0.0712337,0.071516,0.121748c0.0366096,0.2778339,0.0576096,0.5579395,0.1013145,0.8349228
				c0.0363255-0.2764168,0.06357-0.5536823,0.0973415-0.8300972c0.0031204-0.0542049,0.0547714-0.0854225,0.0840015-0.125721
				c0.4747887-0.0388794,0.951561-0.0578938,1.4249306-0.1115322c-0.4745045-0.0215683-0.9478722-0.0686779-1.4220924-0.096489
				c-0.0258255-0.0232716-0.0516491-0.0462589-0.0769081-0.0692463
				C22.4289856,16.1058578,22.3881187,15.605813,22.3605919,15.1051998z M14.7231293,15.2067986
				c-0.1115303,0.0329199-0.1308289,0.2034798-0.0326357,0.2627935c0.0865574,0.0632858,0.2239132,0.0002832,0.231576-0.1069908
				C14.9376783,15.2578812,14.8216066,15.1662159,14.7231293,15.2067986z M28.545311,15.2672462
				c-0.0959225,0.0434208-0.1138,0.1875877-0.0278111,0.2503061c0.0825844,0.0746384,0.2321434,0.013339,0.239521-0.0970573
				C28.7780228,15.3075457,28.6454906,15.215312,28.545311,15.2672462z M24.6698227,18.6441097
				c-0.5619125,0.0681114-1.1297836,0.1069908-1.6959534,0.0746384c-0.2451973-0.0351906-0.4929504-0.0258255-0.739851-0.0292301
				c-0.3450928,0.0002823-0.6944427,0.0147572-1.0293198,0.104435c-0.2849293,0.0771923-0.565033,0.2352657-0.7171478,0.4969234
				c-0.0499477,0.0766239-0.0649891,0.1768036-0.1407604,0.2346973c-0.1529655,0.1277084-0.193264,0.3365803-0.2207928,0.5238838
				c-0.0459747,0.435339,0.0031223,0.8769226,0.1027336,1.3017635c0.0638542,0.250021,0.1379242,0.5060043,0.2942944,0.7157269
				c0.0584621,0.0811653,0.0874081,0.1782227,0.1302624,0.2679024c0.25144,0.538641,0.5755329,1.042942,0.7852573,1.6008816
				c-0.1634655-0.1135178-0.318985-0.2477531-0.5128155-0.3062134c-0.0865574-0.0201511-0.1322479-0.107275-0.2145481-0.1362228
				c-0.2630768-0.1095428-0.5431824-0.1708431-0.8207321-0.2318592c-0.3226738-0.0652714-0.6479015-0.1305447-0.9782372-0.1370716
				c-0.6524429-0.0326366-1.3185081-0.0865574-1.9604492,0.0683937c-0.3643913,0.0828686-0.7029572,0.2463341-1.0225096,0.4364758
				c-0.1549511-0.1722641-0.1594915-0.4273949-0.315011-0.5973873c-0.1067066-0.1177731-0.2769833-0.0876923-0.4183121-0.085989
				c-0.119194,0.0059605-0.2585363-0.0218525-0.3553104,0.066124c-0.0996113,0.0896797-0.133667,0.2267513-0.153532,0.3544579
				c0.0479612-0.1166382,0.1453028-0.2244797,0.2803879-0.2253323c0.1864529-0.0099316,0.4063931-0.0479603,0.5568037,0.091383
				c0.123167,0.0981922,0.1566544,0.2596703,0.2415085,0.3845406c0.169425,0.1214638,0.365243,0.0065269,0.5306959-0.0598812
				c0.5088425-0.1634655,1.0290356-0.3099022,1.5639877-0.3538914c0.5670204-0.034338,1.1343231,0.0343399,1.6939659,0.1220322
				c0.3357277,0.059597,0.6725903,0.1299782,0.9904404,0.2571163c0.1438828,0.0553398,0.2704544,0.1447353,0.4086628,0.2119942
				c0.129694,0.07407,0.2352657,0.1819134,0.3536072,0.2721596c0.1356544,0.1067066,0.2517262,0.25144,0.4217186,0.3039436
				c-0.0099335-0.1643181-0.0584621-0.3272152-0.1461544-0.4668427c-0.1234512-0.2412243-0.1978054-0.5048695-0.3306198-0.7415524
				c-0.0053921,0.0156078-0.0164604,0.0471096-0.0218525,0.0627174c-0.1390591-0.1348019-0.2307243-0.3073483-0.3144436-0.4798946
				c-0.2213593-0.4756393-0.4035549-0.9683056-0.5647507-1.4672146c-0.0970573-0.1569386-0.1475716-0.337431-0.152113-0.5218964
				c-0.0164604-0.4608822,0.0939369-0.9263039,0.3087673-1.334116c0.1274242-0.227602,0.316431-0.4580441,0.5880222-0.5045853
				c0.1898575-0.0825844,0.3950405-0.1135178,0.6005077-0.125721c0.7832699-0.0525017,1.5690956-0.0383129,2.3535023-0.0283794
				c0.4282455-0.026392,0.859045-0.0578938,1.2776413-0.1597748c0.3919182-0.099329,0.7730541-0.2426453,1.1337547-0.4245567
				C25.8960953,18.4358063,25.2819653,18.5615253,24.6698227,18.6441097z M9.1917028,20.5710716
				c-0.1047201,0.030365-0.1365051,0.1816273-0.0519342,0.2511559c0.0831518,0.083437,0.2420759,0.021286,0.2483196-0.0962048
				C9.4019938,20.6215858,9.2890444,20.5341778,9.1917028,20.5710716z M5.8960042,21.4718323
				C5.805758,21.52178,5.8023524,21.6642456,5.8894768,21.7195854c0.089395,0.0669746,0.2318597-0.0017033,0.2338462-0.1135178
				C6.1352425,21.4911308,5.9905076,21.4034386,5.8960042,21.4718323z M6.849268,21.974432
				c-0.1311126,0.1435986-0.2959971,0.25144-0.4208665,0.4015675c-0.1577892,0.1836147-0.3113217,0.3987312-0.3215384,0.6496048
				c-0.0053921,0.1810608,0.1365051,0.3252277,0.2923079,0.3941898c0.1038685,0.0559063,0.2244811,0.0456905,0.3382821,0.0454063
				c0.8843021-0.0011349,1.7683196,0.0005684,2.6523376-0.0008507c0.0439882-0.0681114,0.0845709-0.1387749,0.1370726-0.2006416
				c0.103301-0.1299782,0.2664824-0.1850338,0.3893652-0.2923088c0.3045111-0.2366848,0.6782675-0.3609848,1.0571327-0.4115009
				c-0.4563408-0.1563702-0.9226141-0.2820911-1.3905907-0.3973122c-0.600791-0.2593861-1.2515306-0.41292-1.9068108-0.424839
				C7.3896117,21.7437077,7.0717626,21.774641,6.849268,21.974432z M13.3316879,22.3388233
				c-0.0300817,0.0681095-0.0420008,0.1504097-0.0973406,0.2040482c-0.123167,0.0332031-0.2517252,0.0402985-0.3754597,0.0712318
				c0.1225986,0.0261097,0.2494545,0.0323524,0.3700676,0.0672588c0.0797453,0.0854225,0.0658398,0.2165356,0.1035843,0.3218231
				c0.0224199-0.0905304,0.0425692-0.181345,0.062151-0.2721596c0.0187302-0.0190144,0.0377445-0.0377445,0.0567589-0.0561905
				c0.3819866-0.0173111,0.763689-0.0425701,1.1456757-0.0604477c-0.3862438-0.0326366-0.7750406-0.037178-1.160717-0.0712337
				C13.376811,22.4915047,13.3643246,22.407217,13.3316879,22.3388233z M10.8045034,23.7174931
				c-0.1223154,0.0366096-0.251441,0.0439892-0.3760271,0.0695305c0.1211805,0.0286636,0.2443466,0.0468254,0.3677969,0.0644207
				c0.0658407,0.0942192,0.0695295,0.213129,0.0987606,0.3209705c0.0417175-0.1010303,0.0286627-0.2298717,0.1089764-0.3104706
				c0.1325321-0.0454063,0.2803888-0.0275269,0.408947-0.0854206c-0.1228819-0.0034065-0.2440624-0.0249748-0.3649588-0.0459747
				c-0.0337715-0.0056763-0.0763407-0.0153255-0.0805969-0.0567589c-0.0326366-0.1220322-0.0411501-0.248888-0.0698137-0.3714867
				C10.85956,23.4379559,10.8737488,23.5937595,10.8045034,23.7174931z M15.4834137,23.3701305
				c0.0698128,0.2522926,0.1322479,0.506855,0.1986551,0.7605667c0.2642126-0.1969528,0.5460196-0.3706341,0.8462744-0.5077076
				c-0.1438847,0.0360432-0.2806721,0.0933685-0.4177456,0.1489925c-0.1427479,0.0647049-0.3155785,0.0255413-0.4404478-0.0598812
				C15.5938091,23.6065311,15.5557814,23.4785385,15.4834137,23.3701305z"/>
		</g>
		<g>
			<path class="st36" d="M11.9149895,7.2370143c0.209156-0.0959225,0.4540701-0.0760565,0.6606722,0.0161762
				c0.1316795,0.0681105,0.2957125,0.0323524,0.4180279,0.1237345c0.2142649,0.1498427,0.1946831,0.4620161,0.3936224,0.6251979
				c0.1084089,0.0956383,0.2622252,0.0888271,0.3876619,0.149559c0.2060347,0.089963,0.4495296,0.1279917,0.6067514,0.3019571
				c0.1648846,0.1688576,0.3431072,0.3297682,0.5514116,0.4438534c0.2361164,0.1285591,0.5062885,0.1804934,0.7727709,0.1898584
				c0.0888281,0.0062437,0.165452-0.0513668,0.2531443-0.0570431c0.1748171-0.0110674,0.3337412,0.0862732,0.460597,0.197237
				C16.657753,9.4386873,16.8314342,9.7091427,17.015049,9.96626c0.1924133,0.2653475,0.3541756,0.5684395,0.6337128,0.7548923
				c0.1875877,0.1518297,0.4449883,0.1478567,0.6513062,0.2605228c0.1086941,0.0581779,0.1458702,0.2054663,0.0925179,0.3133078
				c-0.0479622,0.1086931-0.095356,0.2420769-0.0224209,0.3510532c0.1367893,0.1824799,0.4069614,0.2074537,0.5261536,0.4083796
				c0.0752068,0.1285591-0.0053921,0.2738609,0.0082302,0.4106503c0.0255413,0.3050785,0.185318,0.5880203,0.4007168,0.8005819
				c0.1651688,0.1600599,0.3933392,0.2883348,0.6308746,0.2457657c0.0473938-0.0085135,0.1478558-0.0192976,0.1169224,0.0618668
				c-0.0737858,0.2031965-0.2582512,0.3343096-0.383688,0.5031672c-0.2020626,0.2676172-0.4268265,0.5184917-0.6788368,0.739851
				c-0.1592083,0.1345177-0.3286324,0.2647791-0.5270042,0.3345928c-0.2057514-0.1328154-0.4140549-0.2670507-0.6473331-0.3465128
				c0.3922024-0.1648836,0.8184605-0.2457657,1.1927853-0.4537859c0.1149368-0.0655565,0.2505894-0.1282749,0.3064976-0.2571173
				c-0.2406578-0.0692463-0.4679775,0.0664072-0.6935921,0.1282749c-0.7250938,0.2188044-1.5492325,0.2281694-2.2277832-0.1418972
				c-0.1895733-0.0530701-0.3828373-0.1225996-0.5213289-0.2698879c0.2874823-0.129694,0.6019258-0.1802092,0.9075727-0.2503061
				c0.089962-0.0195818,0.1711273-0.0644217,0.2539959-0.1030178c0.5025978-0.2417917,1.0287533-0.4412994,1.4970131-0.7489319
				c0.0292301-0.0207167,0.0567589-0.043704,0.0834351-0.067543c-0.3059292-0.0005674-0.5460205,0.2312918-0.8405972,0.2795372
				c-0.2162514,0.0425692-0.4313679,0.1084089-0.6532936,0.1072741c0.0340538-0.0130548,0.0686779-0.0258255,0.1035843-0.0377445
				c0.0823002-0.1308289,0.20121-0.231576,0.316431-0.3326063c0.2043304-0.1739655,0.4154739-0.3399849,0.622076-0.5111132
				c0.0525017-0.0425692,0.1015968-0.0902462,0.1348019-0.1501265c-0.1120987,0.0300817-0.2105751,0.0970573-0.3257961,0.1160717
				c-0.096489,0.0173111-0.1887226,0.0533533-0.2710228,0.1064224c-0.27528,0.1742496-0.5031662,0.4112177-0.7693653,0.5979538
				c-0.1106796,0.0842867-0.2423592,0.1305447-0.3717709,0.1765194c-0.3419704,0.1504107-0.7012539,0.2923079-1.0804024,0.2945786
				c-0.213129,0.003973-0.4268265-0.0468264-0.6138468-0.14956c-0.1013145-0.0567579-0.1716948-0.1526804-0.2451973-0.2398052
				c-0.079463-0.1081257-0.1819124-0.1961021-0.2664824-0.2996864c-0.2965651-0.3555937-0.5295601-0.7679462-0.8831673-1.0730247
				c-0.1566544-0.1163559-0.2965641-0.2522926-0.4390287-0.3851089c-0.097909-0.0945024-0.20121-0.1856003-0.2781181-0.2985506
				c0.4322176-0.1206121,0.8791933-0.1844664,1.3071547-0.3206873c0.1174908-0.0420017,0.2400894-0.0766239,0.3436747-0.14814
				c0.0499477-0.0351906,0.0763407-0.0928011,0.1208963-0.1333838c0.2627926-0.1722622,0.5454512-0.325511,0.7687969-0.5499926
				c-0.227602-0.050231-0.436758,0.0746384-0.6311569,0.1739655c-0.645915,0.35077-1.3704414,0.5715618-2.1080217,0.5846157
				c-0.1103954,0.0025539-0.2176695,0.0309334-0.3272142,0.0380287c0.0178795-0.0496645,0.0442724-0.0962067,0.08599-0.1294098
				c0.1864519-0.1597767,0.3933382-0.292592,0.596818-0.4290972c0.0970583-0.0664072,0.2122784-0.0970573,0.3252277-0.124301
				c0.5653181-0.1254377,1.1581631-0.0385962,1.7189398-0.1909933c0.1759529-0.0411501,0.3206873-0.1600599,0.4977751-0.1983719
				c0.1183414-0.0428534,0.2565498-0.0627184,0.3479309-0.1558037c-0.0360413-0.0070944-0.0723677-0.011919-0.1086931-0.0167437
				c-0.3084841,0.2153997-0.704092,0.2134132-1.0650787,0.2046156c-0.4733677-0.0133381-0.9441814-0.082016-1.4184017-0.0800295
				c-0.1475725,0.0048237-0.3053617,0.0051079-0.4344883,0.0868406c-0.3107538,0.1782227-0.5772371,0.4214334-0.8423004,0.6598206
				c0.3621216-0.2676172,0.7455263-0.5258703,1.1873941-0.6385365c0.2366838-0.0573263,0.4926662-0.0607319,0.7219715,0.0280962
				c0.2642117,0.1021652,0.5463028,0.0116358,0.8164749-0.0065279c-0.1322479,0.0368938-0.2596712,0.1010313-0.3995819,0.1013145
				c-0.4475431-0.0056753-0.8987751,0.0465422-1.326169,0.1821957c-0.295145,0.1007471-0.6013594,0.2679014-0.7307692,0.5681553
				c-0.3053617-0.141613-0.5851831-0.3326063-0.8621655-0.5224638c-0.1166401-0.0698137-0.251442-0.1248693-0.3328905-0.239522
				c-0.0391636-0.0658407,0.0297985-0.1186266,0.0848541-0.1410456c0.2173862-0.0891113,0.4537868-0.1200457,0.672308-0.2066021
				c0.0805979-0.0292311,0.1506948-0.0891113,0.2386703-0.0956392c0.2704563-0.023838,0.5414791-0.042285,0.8102322-0.0808811
				c0.070097-0.0099325,0.13764-0.0320683,0.2034798-0.0578938c-0.085989-0.0559072-0.1901417-0.0641375-0.289753-0.070097
				c-0.4461241-0.0224199-0.8919649,0.0195818-1.3375216,0.0349064c0.1186266-0.1092606,0.2718754-0.1668711,0.4174614-0.2304401
				c0.4220018-0.1731148,0.8553543-0.3192682,1.2963705-0.4361916C12.9846087,8.2441988,12.8509417,8.2447662,12.724369,8.22859
				c-0.4438534-0.0011349-0.8928156,0.059597-1.3068705,0.2253323c-0.4012852,0.1586409-0.7574463,0.4166098-1.0585518,0.7228231
				c-0.124301,0.0019865-0.2406569-0.0655565-0.2976999-0.1762362C9.8821735,8.6505919,9.954257,8.2260361,9.7624121,7.8803754
				c0.2278872,0.0451231,0.4586115,0.0837188,0.6916056,0.0811648c0.083436-0.0019865,0.1680059-0.0147572,0.244915-0.0488124
				c0.1033001-0.0471101,0.2193718-0.0550561,0.3240919-0.0996118C11.3547802,7.6768951,11.5906124,7.3857222,11.9149895,7.2370143z
				 M12.1633091,7.3022871c-0.0970583,0.0420012-0.1123829,0.1867361-0.0283794,0.2497387
				c0.0854216,0.0757728,0.2406569,0.0102162,0.240941-0.1055717C12.3909111,7.3377614,12.2592306,7.2495012,12.1633091,7.3022871z
				 M13.6966467,8.6168203c-0.0837183,0.0454073-0.0962057,0.1728306-0.0252571,0.2352648
				c0.0774755,0.0766249,0.2261839,0.0334883,0.247468-0.0746374C13.9540482,8.6565514,13.8005161,8.5433178,13.6966467,8.6168203z
				 M16.4270287,10.4926977c-0.4083805,0.2582531-0.8184624,0.514802-1.2089624,0.799448
				c0.1211796-0.0479612,0.2486038-0.0808811,0.3655262-0.1390591c0.2312927-0.165452,0.4498129-0.3618374,0.7177153-0.4659901
				c-0.0527859,0.1367893-0.1816273,0.2134132-0.2942944,0.2954292c-0.3499184,0.2474689-0.6830921,0.5204782-1.0557137,0.7338915
				c-0.1421804,0.0769081-0.2974157,0.169425-0.4651375,0.1441669c-0.1015987-0.0195818-0.1098289-0.1382074-0.1254377-0.219656
				c-0.0496635,0.0065269-0.0993271,0.0139055-0.14814,0.0235548c0.0391636,0.1475725,0.1665869,0.2415085,0.2698879,0.3442421
				c0.2940102-0.1155043,0.5661688-0.2775507,0.8380432-0.436759c0.3933382-0.240941,0.7829866-0.4938011,1.1309195-0.7983122
				c0.1512623-0.1396265,0.3158627-0.2900372,0.3660927-0.4983425
				C16.6779022,10.3295164,16.5538845,10.4146547,16.4270287,10.4926977z M16.874855,12.2425709
				c-0.0868416,0.0471106-0.1038685,0.1830473-0.0221367,0.2437792c0.084856,0.0794621,0.2432117,0.0133381,0.2426453-0.1044359
				C17.1089859,12.2686806,16.9707775,12.1835423,16.874855,12.2425709z M18.5801735,13.0462751
				c-0.0990448,0.0499477-0.0990448,0.2102919,0.0014172,0.2591038c0.0823002,0.0493803,0.2029133-0.0036888,0.2173862-0.0998955
				C18.8316135,13.0868578,18.6837578,12.9778814,18.5801735,13.0462751z"/>
		</g>
		<g>
			<path class="st36" d="M9.5583649,7.8789563C9.6554222,7.8704424,9.6994104,7.977149,9.7269382,8.0523539
				c0.1086931,0.3249445,0.117774,0.672308,0.1231661,1.0120096C9.8441448,9.1798677,9.8597536,9.311264,9.7805748,9.4069023
				C9.6840849,9.5377312,9.5958252,9.6779261,9.4720907,9.7857676c-0.0769081-0.346796-0.2114258-0.6805382-0.2565489-1.0341454
				C9.1704178,8.4252596,9.3140182,8.0932207,9.5583649,7.8789563z M9.4692535,7.9882169
				C9.3636818,8.1125183,9.340127,8.2819433,9.3188429,8.4380302C9.2901793,8.7079182,9.304369,8.9820633,9.356019,9.2482615
				c0.0312176,0.13764,0.0678272,0.2897539,0.1878719,0.3782978c0.0561914-0.0510836,0.1084089-0.1098289,0.1308289-0.1841822
				c0.0666914-0.1949663,0.0672598-0.4046907,0.0681105-0.6084547C9.7334652,8.5251551,9.7110453,8.2090082,9.6000824,7.917552
				C9.5538235,7.9348636,9.501606,7.9476342,9.4692535,7.9882169z"/>
		</g>
		<path class="st36" d="M9.3846827,8.2447662c0.0286636-0.0788946,0.1112471-0.1081247,0.1858854-0.1251526
			c0.0332031,0.3246603,0.1211796,0.6436443,0.1194773,0.971426C9.689477,9.2264099,9.6602468,9.3674555,9.561202,9.4664993
			C9.4885511,9.2224369,9.431509,8.9732656,9.3792906,8.7240944C9.3546009,8.5668726,9.3279238,8.3977318,9.3846827,8.2447662z"/>
		<path class="st36" d="M31.9386349,23.3599129c0.3294849-0.0888271,0.681673-0.1163559,1.0171185-0.0445557
			c0.2571182,0.059597,0.5062866,0.2023449,0.6476173,0.4307995c0.1322479,0.2151165,0.1651688,0.4824505,0.120327,0.7282162
			c-0.0525017,0.2852116-0.2786827,0.5199089-0.5511284,0.6090202c-0.2122765,0.0683956-0.4466896,0.0743542-0.6601028,0.0073795
			c-0.2491722-0.0845699-0.4691124-0.236969-0.7137413-0.3303356c-0.2205086-0.0102177-0.4183121,0.1404781-0.5244522,0.3246593
			c-0.2798195,0.4642868-0.4469738,0.9844818-0.6933079,1.4655113c-0.1824799,0.3547421-0.3851089,0.7143097-0.7012539,0.9677372
			c-0.0865574,0.07407-0.1963863,0.115221-0.2786865,0.1949673c0.4347725,0.1109638,0.8434353,0.3181324,1.1854076,0.6087379
			c0.431366,0.3578644,0.7685127,0.8125019,1.0784168,1.2753696c0.1904259,0.2869148,0.3680801,0.5820618,0.5377884,0.8817482
			c0.1333847,0.2256145,0.2429276,0.4657059,0.3981628,0.6782665c0.1007462,0.1427479,0.2261848,0.2764149,0.3890839,0.3473644
			c0.1396255,0.0624332,0.3099022,0.0771923,0.4478264,0.0017014c0.1470032-0.0769081,0.2344131-0.2244797,0.3263626-0.3561611
			c0.1674385,0.0783272,0.3365784,0.1529655,0.5062866,0.226469c-0.1535301,0.484436-0.5074234,0.9115448-0.9739799,1.1221199
			c-0.4202995,0.2009277-0.9007607,0.2108574-1.355114,0.1589241c-0.4943714-0.0678253-0.9969692-0.2636452-1.3281574-0.6507378
			c-0.3510532-0.4041233-0.5721283-0.8999119-0.7687969-1.3925781c-0.1265736-0.3161449-0.2511578-0.6331444-0.3777294-0.9492893
			c-0.125721-0.3167152-0.2494564-0.63797-0.4350567-0.9254532c-0.1464386-0.2290211-0.3496342-0.4319344-0.6093063-0.5261536
			c-0.3232403-0.1274223-0.6757126-0.0908146-1.0148468-0.0973415c-0.0051079,0.809948-0.0005665,1.6201801-0.0022697,2.4301281
			c0.0014191,0.3249435-0.0073795,0.6601048,0.1007462,0.9711418c0.0445557,0.1373558,0.1472893,0.2503071,0.279253,0.3090515
			c0.3226738,0.1518307,0.6867828,0.1575069,1.0352802,0.1941166c0.0011349,0.1725464,0.0002842,0.3450928,0.0005684,0.5176392
			c-0.3045101-0.0059586-0.6087379-0.0173111-0.9132481-0.0141907c-0.7852592-0.0116348-1.5708008-0.0488129-2.3557739-0.0147552
			c-0.5619125,0.015892-1.1241074,0.0110664-1.6857357,0.0292282c0-0.1728287-0.0005684-0.3453751,0.0002842-0.5179214
			c0.3609848-0.0377464,0.7424049-0.0431385,1.0704708-0.2173862c0.1421795-0.0712337,0.2278862-0.2162514,0.2679005-0.3652439
			c0.0933685-0.3365803,0.07407-0.6899033,0.0769081-1.0355644c0-1.7214928,0.0002842-3.4432697,0-5.1647644
			c-0.0051079-0.2784023-0.0110683-0.5678711-0.1237335-0.8272591c-0.0576115-0.1444511-0.1926956-0.2364006-0.3317547-0.2923088
			c-0.3050785-0.120327-0.6356983-0.1489906-0.9595089-0.1768036c-0.0017014-0.1714115,0.0008526-0.342823-0.0019855-0.5139503
			c0.6033459,0.007946,1.2069759,0.0124874,1.8103218,0.035759c0.5264378,0.0008507,1.0528755,0.0087967,1.5793133-0.0070953
			c0.5218964-0.0227032,1.0443611-0.0167446,1.5665417-0.0306492c-0.0028381,0.1725464,0.0070953,0.3456612-0.0076618,0.5179234
			c-0.3609867,0.0329208-0.7407036,0.0527859-1.0670662,0.2259007c-0.1552353,0.0769081-0.238102,0.2398052-0.2761307,0.4015675
			c-0.0868416,0.3575802-0.0601654,0.7284985-0.0649891,1.093174c0.0014191,0.5911427-0.0025539,1.1825695,0.0022697,1.7739964
			c0.3459454-0.0127716,0.6972828,0.0283794,1.0392532-0.041151c0.3011055-0.0655556,0.5936966-0.2199402,0.7767448-0.4739361
			c0.26478-0.3553085,0.4427185-0.7656746,0.6155491-1.171217c0.234129-0.5868855,0.4762058-1.1834202,0.8701115-1.6843166
			C31.1689854,23.733387,31.5279846,23.4720116,31.9386349,23.3599129z"/>
	</g>
</g>
<g id="Слой_2" class="st52">
</g>
</svg>
