<?xml version="1.0" encoding="utf-8"?>
<!-- Generator: Adobe Illustrator 19.1.1, SVG Export Plug-In . SVG Version: 6.00 Build 0)  -->
<svg version="1.1" xmlns="http://www.w3.org/2000/svg" xmlns:xlink="http://www.w3.org/1999/xlink" x="0px" y="0px" width="37px"
	 height="37px" viewBox="0 0 37 37" style="enable-background:new 0 0 37 37;" xml:space="preserve">
<style type="text/css">
	.st0{fill:#BE2B25;}
	.st1{fill-rule:evenodd;clip-rule:evenodd;fill:#FCC200;}
	.st2{fill-rule:evenodd;clip-rule:evenodd;fill:#A7D4E9;}
	.st3{fill-rule:evenodd;clip-rule:evenodd;fill:#184E9B;}
	.st4{fill-rule:evenodd;clip-rule:evenodd;fill:#575756;}
	.st5{fill:#211F1F;}
	.st6{fill:#FFE512;}
	.st7{fill:#FF0014;}
	.st8{fill:#ED1A2E;}
	.st9{fill-rule:evenodd;clip-rule:evenodd;fill:#FFFFFF;}
	.st10{fill-rule:evenodd;clip-rule:evenodd;fill:#1D1D1B;}
	.st11{fill-rule:evenodd;clip-rule:evenodd;fill:#62B12F;}
	.st12{fill:#FF9900;}
	.st13{fill-rule:evenodd;clip-rule:evenodd;fill:#003671;}
	.st14{fill:#005098;}
	.st15{fill:#F6A500;}
	.st16{fill:#12100B;}
	.st17{fill:#B8182B;}
	.st18{fill:#AE1F31;}
	.st19{fill:#88BF52;}
	.st20{fill:#FEFEFE;}
	.st21{opacity:0.35;}
	.st22{fill:none;}
	.st23{fill:#2A408A;}
	.st24{fill:#F8AC18;}
	.st25{fill:#37A2B8;}
	.st26{fill:#EF3E36;}
	.st27{fill:#073986;}
	.st28{fill:#FF590D;}
	.st29{fill:#005DA7;}
	.st30{fill:#3D1061;}
	.st31{fill:#FFFFFF;}
	.st32{fill:#FFAA1C;}
	.st33{fill:#CEBFAA;}
	.st34{fill:#FE0000;}
	.st35{fill:#2051A8;}
	.st36{fill:#526BAA;}
	.st37{fill:#034F90;}
	.st38{fill:#144C9B;}
	.st39{fill:#F39722;}
	.st40{fill:#147D41;}
	.st41{fill-rule:evenodd;clip-rule:evenodd;fill:#F9B41D;}
	.st42{fill-rule:evenodd;clip-rule:evenodd;fill:#E30520;}
	.st43{fill:#EFA55A;}
	.st44{fill:#737373;}
	.st45{fill:#84ACDD;}
	.st46{fill:#94CE84;}
	.st47{fill:#A583B5;}
	.st48{fill:#FFDE63;}
	.st49{fill:#FF6D00;}
	.st50{fill:#0038A5;}
	.st51{fill:#222222;}
	.st52{display:none;}
</style>
<g id="Слой_1">
	<path class="st25" d="M24.7866249,25.9594574c1.443325-0.1083488,2.58144-1.3110065,2.58144-2.7820568V6.6087914
		c0-1.5423841-1.2503471-2.7927322-2.7927227-2.7927322h-2.8979015c0.000206-0.0063944,0.0018978-0.0123675,0.0018978-0.0188131
		V3.0967381c0-0.3194947-0.2590065-0.5785027-0.5785103-0.5785027h-5.2732925c-0.3195038,0-0.5785112,0.2590079-0.5785112,0.5785027
		V3.797246c0,0.0064456,0.0016928,0.0124187,0.0018997,0.0188131h-2.8082457c-1.5423756,0-2.7927237,1.2503481-2.7927237,2.7927322
		v16.5686092c0,1.4564495,1.1152792,2.6511307,2.5381937,2.7798748L8.619235,34.4825478h1.1828051l0.7480602-1.7770195h15.873661
		l0.7480602,1.7770195h1.182806L24.7866249,25.9594574z M24.1890507,27.3969994H12.784811l0.600667-1.4268665h10.2029066
		L24.1890507,27.3969994z M23.9979725,22.3869095c-0.7216835,0-1.3067188-0.5850353-1.3067188-1.3067112
		c0-0.7216835,0.5850353-1.3067169,1.3067188-1.3067169c0.7216759,0,1.3067112,0.5850334,1.3067112,1.3067169
		C25.3046837,21.8018742,24.7196484,22.3869095,23.9979725,22.3869095z M16.477663,3.7862625
		c0-0.3073168,0.2491245-0.5564411,0.5564327-0.5564411h2.949192c0.3073082,0,0.5564327,0.2491243,0.5564327,0.5564411v1.1789808
		c0,0.3073163-0.2491245,0.5564408-0.5564327,0.5564408h-2.949192c-0.3073082,0-0.5564327-0.2491245-0.5564327-0.5564408V3.7862625z
		 M10.5793037,7.8188152h15.8608131v5.3493614c0,0-6.1014442,1.8268223-15.8608131,0V7.8188152z M11.7186737,21.0801983
		c0-0.7216835,0.5850344-1.3067169,1.3067102-1.3067169c0.7216845,0,1.3067179,0.5850334,1.3067179,1.3067169
		c0,0.7216759-0.5850334,1.3067112-1.3067179,1.3067112C12.3037081,22.3869095,11.7186737,21.8018742,11.7186737,21.0801983z
		 M12.4161129,28.2728405h12.1416359l0.5706482,1.3555698H11.8454657L12.4161129,28.2728405z M10.9187975,31.8296967
		l0.557971-1.3254547h14.0203247l0.55797,1.3254547H10.9187975z"/>
</g>
<g id="Слой_2" class="st52">
</g>
</svg>
