<?xml version="1.0" encoding="utf-8"?>
<!-- Generator: Adobe Illustrator 19.1.1, SVG Export Plug-In . SVG Version: 6.00 Build 0)  -->
<svg version="1.1" xmlns="http://www.w3.org/2000/svg" xmlns:xlink="http://www.w3.org/1999/xlink" x="0px" y="0px" width="37px"
	 height="37px" viewBox="0 0 37 37" style="enable-background:new 0 0 37 37;" xml:space="preserve">
<style type="text/css">
	.st0{fill:#BE2B25;}
	.st1{fill-rule:evenodd;clip-rule:evenodd;fill:#FCC200;}
	.st2{fill-rule:evenodd;clip-rule:evenodd;fill:#A7D4E9;}
	.st3{fill-rule:evenodd;clip-rule:evenodd;fill:#184E9B;}
	.st4{fill-rule:evenodd;clip-rule:evenodd;fill:#575756;}
	.st5{fill:#211F1F;}
	.st6{fill:#FFE512;}
	.st7{fill:#FF0014;}
	.st8{fill:#ED1A2E;}
	.st9{fill-rule:evenodd;clip-rule:evenodd;fill:#FFFFFF;}
	.st10{fill-rule:evenodd;clip-rule:evenodd;fill:#1D1D1B;}
	.st11{fill-rule:evenodd;clip-rule:evenodd;fill:#62B12F;}
	.st12{fill:#FF9900;}
	.st13{fill-rule:evenodd;clip-rule:evenodd;fill:#003671;}
	.st14{fill:#005098;}
	.st15{fill:#F6A500;}
	.st16{fill:#12100B;}
	.st17{fill:#B8182B;}
	.st18{fill:#AE1F31;}
	.st19{fill:#88BF52;}
	.st20{fill:#FEFEFE;}
	.st21{opacity:0.35;}
	.st22{fill:none;}
	.st23{fill:#2A408A;}
	.st24{fill:#F8AC18;}
	.st25{fill:#37A2B8;}
	.st26{fill:#EF3E36;}
	.st27{fill:#073986;}
	.st28{fill:#FF590D;}
	.st29{fill:#005DA7;}
	.st30{fill:#3D1061;}
	.st31{fill:#FFFFFF;}
	.st32{fill:#FFAA1C;}
	.st33{fill:#CEBFAA;}
	.st34{fill:#FE0000;}
	.st35{fill:#2051A8;}
	.st36{fill:#526BAA;}
	.st37{fill:#034F90;}
	.st38{fill:#144C9B;}
	.st39{fill:#F39722;}
	.st40{fill:#147D41;}
	.st41{fill-rule:evenodd;clip-rule:evenodd;fill:#F9B41D;}
	.st42{fill-rule:evenodd;clip-rule:evenodd;fill:#E30520;}
	.st43{fill:#EFA55A;}
	.st44{fill:#737373;}
	.st45{fill:#84ACDD;}
	.st46{fill:#94CE84;}
	.st47{fill:#A583B5;}
	.st48{fill:#FFDE63;}
	.st49{fill:#FF6D00;}
	.st50{fill:#0038A5;}
	.st51{fill:#222222;}
	.st52{display:none;}
</style>
<g id="Слой_1">
	<g>
		<g>
			<path class="st35" d="M2.505039,2.508863H34.5v31.9085827H2.505039C2.505039,23.7812519,2.505039,13.1450567,2.505039,2.508863z
				 M4.4318018,4.3963041C4.4337354,13.7735596,4.432446,23.1501694,4.432446,32.5274239
				c9.3927269,0.0025787,18.7854538,0.0006447,28.1781807,0.0012894c0-9.3778992,0-18.756443,0-28.1343422
				C23.2172546,4.3956594,13.8245277,4.3917918,4.4318018,4.3963041z"/>
		</g>
		<path class="st35" d="M18.4045372,7.4749985c0.0451241-0.0006442,0.1353703-0.0019336,0.1804924-0.0025783
			c-0.0006428,0.0599494-0.0032215,0.1798482-0.0038662,0.2404423c0.072197,0.0012894,0.1450386,0.0019341,0.2191696,0.0032234
			c0.0045128,0.056726,0.0096684,0.1140971,0.0154705,0.1708236c-0.0754204,0.0006447-0.1508408,0.0012894-0.2249794,0.0012894
			c-0.0096607,0.1147413-0.0199757,0.2288389-0.0309334,0.3429365c-0.1837158-0.0219173-0.1495514-0.2024097-0.1643772-0.3377795
			c-0.0779991-0.0025787-0.1553535-0.0058017-0.232708-0.0083804c0.0032234-0.0554371,0.0064468-0.1108742,0.0103149-0.1663113
			c0.0779972-0.0032229,0.156641-0.0070906,0.2352848-0.010314C18.4077606,7.6503348,18.4058266,7.533659,18.4045372,7.4749985z"/>
		<path class="st35" d="M17.8998013,8.2556305c0.1063633,0.1005611,0.2036991,0.2140131,0.2455997,0.358408
			c0.1121635,0.3500271,0.1785603,0.7135916,0.2269058,1.0771561c-0.0477028,0.0032234-0.1431046,0.0096693-0.1908073,0.0128927
			c-0.0167599-0.1360149-0.0341721-0.2726736-0.0360985-0.4093323c-0.0315857-0.0135374-0.094759-0.0406113-0.1257-0.0547924
			c0.010313,0.1611538,0.0238514,0.3223085,0.0341644,0.4834633c-0.1063614,0.0290079-0.21208,0.0599489-0.3165073,0.0921803
			c-0.1263523-0.3732338-0.3326225-0.727129-0.3829021-1.1222801c0.0122471-0.2004757,0.2649364-0.1882277,0.4086876-0.232707
			c0.1443939,0.2397985,0.2198143,0.5150499,0.2269039,0.7948141c0.0367432-0.0418997,0.0734863-0.0838003,0.1102314-0.1263447
			C18.0448418,8.8351421,17.974577,8.545064,17.8998013,8.2556305z"/>
		<path class="st35" d="M18.4838257,8.2549858c0.1740475-0.0354538,0.3661423,0.1327915,0.3145733,0.3139296
			c-0.0573711,0.273962-0.1850052,0.5260077-0.2804089,0.7877226c-0.0973377-0.2907228-0.2088566-0.5756435-0.2913666-0.8708782
			C18.2988205,8.3980913,18.3503895,8.2588539,18.4838257,8.2549858z"/>
		<path class="st35" d="M18.9144306,8.5863199c0.0406113-0.1315022,0.1302052-0.2378645,0.230772-0.3281107
			c-0.1192532,0.4763727-0.2185249,0.9572573-0.2881432,1.4432993c-0.0612392-0.0025787-0.1211891-0.0058012-0.1811371-0.0083799
			C18.7461853,9.3224735,18.7893753,8.9434385,18.9144306,8.5863199z"/>
		<path class="st35" d="M7.711617,8.3484554c1.1783614,1.0326786,2.062777,2.3509216,2.7853942,3.7304039
			c0.0941133,0.1663113,0.0593042,0.3635645,0.0670395,0.5459909c-0.3416471-0.442852-0.694253-0.8766804-1.0371895-1.3188877
			c-0.2997475-0.3803244-0.6239901-0.7516241-1.032033-1.0191412c0.1759806,0.4512329,0.4054642,0.887639,0.7297068,1.2499142
			c0.4177122,0.4454308,0.8721676,0.854763,1.3401604,1.244112c0.1514854,0.3571186,0.3036156,0.7193937,0.5730658,1.0094719
			c-1.0262318-0.4003077-1.8642349-1.1538658-2.5733147-1.9776878c-0.4383402-0.5305204-0.8612094-1.1216345-0.9617696-1.8197556
			C7.5401487,9.4443064,7.5846272,8.8854227,7.711617,8.3484554z"/>
		<path class="st35" d="M28.0151443,9.758235c0.4125557-0.4924879,0.8199539-1.001091,1.330492-1.3975315
			c0.1663113,0.8180199,0.2378635,1.7191954-0.1817818,2.4766216c-0.5002251,0.8786144-1.2060814,1.6328173-2.0054073,2.247138
			c-0.3758125,0.29459-0.7980366,0.5221405-1.2408886,0.6987658c0.2604256-0.2874994,0.4235134-0.6355934,0.5569496-0.9946451
			c0.6349487-0.5595284,1.3395157-1.0848923,1.7675419-1.8332939c0.1315022-0.2133684,0.2217484-0.4480085,0.3132839-0.6807156
			c-0.2881432,0.2095003-0.5537262,0.4499426-0.780632,0.7251949c-0.4447861,0.5369663-0.8612099,1.09585-1.3034172,1.6347504
			c0.0070915-0.1985426-0.0148258-0.411911,0.1005611-0.5866022C26.9927807,11.2492361,27.4710865,10.4782734,28.0151443,9.758235z"
			/>
		<path class="st35" d="M18.9769573,9.7343845c0.0464134-0.434473,0.1024952-0.8792591,0.2991028-1.2750549
			c0.1547089,0.0277195,0.3042603,0.0805779,0.4434986,0.1559982c-0.0631733,0.4125547-0.2526913,0.7877226-0.4003086,1.1732044
			C19.2045078,9.7711277,19.0897655,9.7524338,18.9769573,9.7343845z"/>
		<path class="st35" d="M13.634366,9.5190821c0.1437492-0.3590527,0.6040068-0.6471968,0.9862652-0.4892654
			C14.3112144,9.2251358,14.0282269,9.5293961,13.634366,9.5190821z"/>
		<path class="st35" d="M15.7010107,8.9763136c0.0631723,0.0025787,0.127634,0.0058012,0.1920958,0.0090246
			c0.0006447,0.084445,0.0012894,0.16889,0.0025787,0.253335c0.0554371,0,0.1663113,0,0.2211037,0
			c0,0.0373878,0,0.1121635,0,0.1495514c-0.0541477-0.0006447-0.1624441-0.0025787-0.2165918-0.0032234
			c-0.0038671,0.1024942-0.0077353,0.2043438-0.010314,0.306838c-0.0470572,0.0012894-0.1418152,0.0045128-0.189517,0.0058022
			c-0.0006447-0.096693-0.0012894-0.1940308-0.0006447-0.2907228c-0.0818663-0.012248-0.1624441-0.0232067-0.2423763-0.0341654
			c0.0012894-0.0322304,0.0032234-0.0973368,0.0045118-0.1302128c0.0779991-0.0019331,0.1559982-0.0038671,0.2352858-0.0058012
			C15.6977873,9.1497154,15.6990767,9.0626926,15.7010107,8.9763136z"/>
		<path class="st35" d="M21.1699486,8.9724455c0.0638161,0.0064468,0.1282787,0.012248,0.1940289,0.0186939
			c0,0.0825119,0.0012894,0.1656675,0.0032234,0.2481785c0.0541477,0,0.1624432-0.0006447,0.2172356-0.0012894
			c0,0.0380325,0,0.1134529,0,0.1508408c-0.0489902-0.0012894-0.1476173-0.0045128-0.1972523-0.0058022
			c-0.030941,0.1289234-0.0625286,0.2584925-0.0934696,0.3880606c0.0477028,0.0199823,0.1418152,0.0605936,0.1888733,0.0812216
			c-0.0522137,0.189518-0.127634,0.3706551-0.210146,0.5485697c-0.1121635-0.1682453-0.1991863-0.3519611-0.2507553-0.5472803
			c0.0464115-0.0193386,0.1385918-0.0573711,0.1850052-0.0767097c-0.0283642-0.1302128-0.0477028-0.2623596-0.072197-0.3925724
			c-0.0683308,0.0006447-0.1360149,0.0012894-0.2030544,0.0019341c0-0.0367432,0.0006428-0.1089401,0.0006428-0.1456833
			c0.0767097-0.0012894,0.1534195-0.0025787,0.2314186-0.0038681C21.1647911,9.1484261,21.1667252,9.0607586,21.1699486,8.9724455z"
			/>
		<path class="st35" d="M22.4295311,9.0304613c0.2933006-0.1392374,0.5930481,0.0354538,0.8167305,0.222393
			c0.0896015,0.0631723,0.1250572,0.1701794,0.1676006,0.2668724C23.0193558,9.5306845,22.7395916,9.2238464,22.4295311,9.0304613z"
			/>
		<path class="st35" d="M14.3215284,9.8587952c0.1424608-0.232707,0.2688055-0.4744387,0.3854809-0.7213268
			c0.0850897,0.0921803,0.1933861,0.1920958,0.189518,0.3281097c-0.0354538,0.3113508-0.2559128,0.5550165-0.3538952,0.84445
			c-0.0502806,0.1418161,0.032876,0.2771854,0.0747757,0.4093323c-0.1366587-0.0773544-0.3177967-0.1237669-0.3919277-0.2752523
			C14.1771336,10.2449217,14.2100096,10.0309086,14.3215284,9.8587952z"/>
		<path class="st35" d="M22.1626587,9.537776c-0.0483456-0.1708241,0.1031399-0.2984581,0.1753368-0.4364061
			c0.1218319,0.4054642,0.4628353,0.7187481,0.5253639,1.1429071c0.0360985,0.2597809-0.2307739,0.3841925-0.4183578,0.4828186
			c0.0277195-0.136014,0.1366596-0.2829876,0.0676861-0.4248028C22.4076138,10.0418673,22.2213192,9.8168955,22.1626587,9.537776z"
			/>
		<path class="st35" d="M23.5157127,9.4082079c0.1108742,0.0554371,0.2217484,0.1108742,0.3332672,0.1669559
			c-0.0393219,0.2198143-0.117321,0.4280262-0.210146,0.6304359c-0.1269894,0.2584915-0.030941,0.5485697-0.0657501,0.821888
			c-0.0161152,0.1553526-0.0979824,0.2920113-0.1598663,0.432538c-0.041256-0.2804089-0.1501961-0.5453463-0.1862946-0.8257551
			C23.1953373,10.201087,23.4879932,9.8349447,23.5157127,9.4082079z"/>
		<path class="st35" d="M13.2160091,9.5545359c0.1076508-0.0464125,0.2153015-0.0928249,0.3235979-0.1392374
			c0.0148258,0.4267368,0.3248873,0.7877226,0.2907228,1.2196169c-0.0380325,0.2804089-0.1392374,0.547925-0.2004766,0.8238211
			c-0.063817-0.146328-0.1385927-0.2920113-0.1624432-0.4518766c-0.030942-0.2791195,0.0586596-0.5769329-0.0715532-0.8405819
			C13.3056107,9.9722481,13.232769,9.7698383,13.2160091,9.5545359z"/>
		<path class="st35" d="M15.5566158,9.8401012c0.1553535-0.0702629,0.3177967-0.072197,0.4737949-0.0032225
			c-0.0573721,0.1959639-0.1373043,0.3841915-0.2275505,0.5679083
			C15.6977873,10.2275171,15.6094751,10.0399332,15.5566158,9.8401012z"/>
		<path class="st35" d="M17.8211594,9.9297037c0.4705696-0.1411715,1.030098-0.1817827,1.474884,0.0593042
			c-0.2153015,0.1063623-0.4570332,0.1147423-0.6897411,0.1437502c0.1302128,0.1198988,0.0857353,0.327466-0.0941143,0.358407
			c-0.1811371-0.0277185-0.1102295-0.2559128-0.1082954-0.3803244c-0.1940289-0.0154705-0.3990173,0.0006447-0.5795116-0.084445
			C17.8237362,10.0019007,17.8218021,9.9541988,17.8211594,9.9297037z"/>
		<path class="st35" d="M15.0409222,9.9612894c0.148262-0.0902462,0.3094158-0.0509243,0.4589672,0.0135374
			c0.063817,0.2056332,0.1179657,0.4144888,0.1643782,0.6246347c-0.0496359,0.0161152-0.1501961,0.0483456-0.199832,0.0644617
			C15.2981243,10.4453974,15.1537294,10.2107563,15.0409222,9.9612894z"/>
		<path class="st35" d="M16.0948715,10.0128593c0.1012058-0.1198988,0.3319778-0.1843615,0.4312496-0.0277185
			c-0.0760651,0.2346401-0.2294846,0.4318933-0.3590527,0.6375265c-0.0773544-0.0038671-0.1540623-0.0077353-0.230773-0.0109587
			C15.9704609,10.4086542,15.984642,10.1927071,16.0948715,10.0128593z"/>
		<path class="st35" d="M20.5021248,9.9580669c0.1315022-0.0541487,0.2913666-0.1005611,0.4080429,0.0135365
			c0.1514854,0.1669559,0.1501961,0.4144897,0.2140121,0.6214113c-0.0470562,0.0193386-0.1405258,0.0573711-0.1869392,0.0767097
			C20.7606163,10.4531326,20.6142883,10.213335,20.5021248,9.9580669z"/>
		<path class="st35" d="M21.5631657,10.0025454c0.103138-0.1057177,0.2926559-0.1605101,0.4125538-0.0477018
			c-0.0335197,0.2494669-0.20821,0.4576788-0.3526058,0.654932c-0.0612373,0.0032225-0.1830711,0.0090246-0.2443104,0.0122471
			C21.4303741,10.4138117,21.4503574,10.1894846,21.5631657,10.0025454z"/>
		<g>
			<path class="st35" d="M17.0308571,10.8830929c0.2275505-0.4106216,0.6794262-0.6781378,1.1545105-0.6265678
				C18.0029411,10.7148476,17.4975605,10.9185467,17.0308571,10.8830929z M17.4124699,10.7032452
				c0.2140141-0.0283632,0.3854828-0.1624441,0.5311661-0.3139296
				C17.7380028,10.4383068,17.5504189,10.5420904,17.4124699,10.7032452z"/>
		</g>
		<g>
			<path class="st35" d="M18.8686619,10.254591c0.4789524-0.0502806,0.916647,0.2256155,1.1603127,0.6246347
				C19.5616264,10.9230595,19.0446358,10.7174263,18.8686619,10.254591z M19.0923443,10.3848038
				c0.1521301,0.148262,0.327467,0.2836313,0.5434132,0.3210192C19.4939423,10.5401564,19.3024902,10.4344387,19.0923443,10.3848038
				z"/>
		</g>
		<path class="st35" d="M29.7988014,11.0268431c0.3332691-0.2443104,0.6697578-0.4970007,1.0655537-0.6310806
			c0.0290089,0.535677,0.0109596,1.0964947-0.243021,1.5825367c-0.2552681,0.4963551-0.7103691,0.8457384-1.1499977,1.1706257
			c-0.8328457,0.591114-1.773344,1.0526609-2.7802372,1.2486248c0.065752-0.1495514,0.1489067-0.3055487,0.3100624-0.3693666
			c0.9939995-0.4763718,1.97962-1.0558834,2.6603374-1.9448118c-0.4750843,0.1534195-0.875391,0.4596128-1.2724838,0.7503357
			c-0.4718533,0.3635645-0.9443569,0.7245502-1.4123497,1.0919819c0.0541477-0.1766253,0.1147423-0.3513165,0.1682453-0.5285864
			c0.5092487-0.4344721,1.0139828-0.8766804,1.4884224-1.3498297
			C28.9988308,11.6817741,29.3888245,11.3414164,29.7988014,11.0268431z"/>
		<path class="st35" d="M6.1870961,10.3951178c0.3874149,0.1308575,0.716815,0.3777456,1.0442805,0.6149654
			c0.8463831,0.6291466,1.5374136,1.4368525,2.3502769,2.1059656c0.1031389,0.0896025,0.2159472,0.1714687,0.3042593,0.2778311
			c0.0928249,0.158576,0.1302128,0.3416471,0.181138,0.516983c-0.4911995-0.3622751-0.9669266-0.7451782-1.4536133-1.1126099
			c-0.3764572-0.2713842-0.7542028-0.5575953-1.2002788-0.706502c0.6652455,0.9282503,1.7088819,1.4742413,2.7048163,1.9751091
			c0.1282787,0.0721979,0.1875839,0.2165918,0.2694502,0.3326235c-1.0417023-0.189518-2.0092735-0.6787825-2.8653259-1.2905254
			c-0.4222245-0.3216639-0.8586311-0.6658897-1.1035857-1.1480646C6.1825838,11.4767857,6.1580882,10.9237041,6.1870961,10.3951178z
			"/>
		<path class="st35" d="M12.8318167,10.8495731c0.1418161-0.1759806,0.2984581-0.3435812,0.4982891-0.4538107
			c0.0032234,0.1353693,0.0058022,0.272028,0.0090246,0.4080429C13.1683073,10.7876892,12.9968386,10.80445,12.8318167,10.8495731z"
			/>
		<path class="st35" d="M23.7168331,10.8173418c-0.0012894-0.1418152-0.0019341-0.2836313,0.0012894-0.4248028
			c0.2024097,0.1063614,0.3590527,0.2726736,0.4866867,0.4602566C24.0455875,10.80445,23.8805656,10.7767315,23.7168331,10.8173418z
			"/>
		<path class="st35" d="M15.3026361,10.794136c0.3255329-0.0838003,0.6729813-0.0915356,0.9946451,0.0141811
			C15.9839973,10.9243488,15.6030283,10.9623814,15.3026361,10.794136z"/>
		<path class="st35" d="M20.7876892,10.8450603c0.1321468-0.1282787,0.3268223-0.1102295,0.4976463-0.115386
			c0.1501942,0.0058012,0.3229523-0.0038681,0.4364052,0.1173201
			C21.4136143,10.9172583,21.0945282,10.9159689,20.7876892,10.8450603z"/>
		<path class="st35" d="M14.8572054,10.9900999c0.0812225-0.0012894,0.1637335-0.0019341,0.2462444-0.0025787
			c0.0315857,0.199832,0.0754204,0.3970842,0.1140976,0.5956268C15.0460787,11.4207039,14.8984613,11.2273188,14.8572054,10.9900999
			z"/>
		<g>
			<path class="st35" d="M15.2085228,10.9520674c0.2623587,0.0457678,0.5234289,0.1179647,0.7928791,0.1128082
				c0.5859585-0.0012894,1.1757832-0.0161161,1.7527161-0.1340809c-0.084444,0.0850897-0.16889,0.16889-0.2572021,0.2494669
				c0.0702629,0.0348101,0.1398811,0.0702639,0.2114353,0.1063623c-0.0831566,0.0773544-0.16889,0.1521301-0.2546253,0.2256165
				c0.1779156,0.1798477,0.4061089,0.304904,0.6594448,0.3390684c-0.0109596,0.0219173-0.0328751,0.0670404-0.0438347,0.0896025
				c-0.3725891,0.1076508-0.7941685,0.0032225-1.0197849-0.325532c0.0019341,0.0908909,0.0038681,0.1817818,0.0058022,0.2733173
				c-0.0928249-0.0418997-0.1843605-0.084445-0.2746086-0.1295681c0.0290089,0.0876684,0.0560818,0.1753359,0.0857353,0.263649
				c-0.0934696-0.0322313-0.1843605-0.063817-0.2758961-0.096693c0.0051556,0.0547924,0.0161152,0.1637335,0.0212708,0.2185259
				c-0.2275486-0.0902472-0.4480095-0.1985426-0.6459064-0.3429365c-0.0045118,0.0567255-0.0128918,0.1695337-0.0174046,0.2256155
				c-0.1676006-0.0760641-0.3468046-0.1508398-0.46348-0.3003912
				C15.2994137,11.5115957,15.2497778,11.2234516,15.2085228,10.9520674z M15.6126976,11.3253012
				c0.0522146,0.0934696,0.105073,0.1862946,0.1624441,0.2771854c0.1592207-0.2314177,0.4409189-0.2501116,0.6936083-0.2887888
				C16.1831837,11.3124084,15.8976192,11.3207884,15.6126976,11.3253012z"/>
		</g>
		<g>
			<path class="st35" d="M19.3063583,10.9288607c0.5659733,0.1218328,1.1467743,0.1321468,1.7237072,0.1366596
				c0.2752514,0.0051565,0.5447025-0.0612392,0.8115749-0.1224775c-0.0419006,0.2784748-0.0896034,0.578867-0.2868557,0.7948132
				c-0.115387,0.1385937-0.284277,0.2127247-0.442852,0.2887888c-0.0077362-0.0547924-0.0232067-0.1650219-0.0309429-0.220459
				c-0.1933842,0.136014-0.4048195,0.2423763-0.6220551,0.3326225c0.0038681-0.051569,0.0116024-0.1547079,0.0154705-0.2069216
				c-0.0960484,0.029007-0.1966076,0.0573702-0.2913666,0.0857334c0.0315857-0.0941143,0.0638161-0.187583,0.0986252-0.2810526
				c-0.0889568,0.0541477-0.1830711,0.1057167-0.272028,0.156642c0.0038681-0.0689745,0.0109577-0.2082119,0.0148258-0.2771854
				c-0.2642937,0.3235979-0.760004,0.5053797-1.1287251,0.2449541c0.265583-0.0360985,0.5028019-0.1663113,0.7103691-0.3319778
				c-0.0870247-0.0799332-0.1727581-0.1598654-0.2572041-0.2417316c0.063818-0.0348091,0.127636-0.0696192,0.1927414-0.1037836
				C19.4623547,11.09904,19.3824234,11.0152397,19.3063583,10.9288607z M20.6013947,11.3149872
				c0.2526913,0.0348091,0.5234299,0.074131,0.6942539,0.2862101c0.0419006-0.0921803,0.0831547-0.1837158,0.1237659-0.2765408
				C21.1467419,11.3207884,20.8740692,11.3124084,20.6013947,11.3149872z"/>
		</g>
		<path class="st35" d="M21.9563808,10.9823647c0.0747757,0.0019331,0.1508408,0.0045118,0.2269058,0.0070906
			c-0.0154705,0.2443104-0.177269,0.4318933-0.3616295,0.5737095
			C21.8687134,11.3704243,21.9157715,11.1770391,21.9563808,10.9823647z"/>
		<g>
			<path class="st35" d="M13.9889059,11.3916969c0.1102295-0.2095013,0.3861256-0.2230377,0.5917587-0.181138
				c0.1321468,0.1250563,0.2275505,0.2971687,0.4035311,0.3712997c0.2127237,0.0979824,0.4131994,0.2204599,0.5943375,0.3700104
				c-0.1327915,0.0573711-0.2668724,0.1095858-0.4022417,0.158576c-0.1676006-0.074131-0.3397131-0.1721125-0.5298758-0.1553526
				c-0.1669559,0.0148268-0.317152,0.0986271-0.4686375,0.1630888
				C13.9656992,11.9460678,13.8760977,11.645031,13.9889059,11.3916969z M14.474947,11.6256924
				c-0.0038671,0.0767097-0.0045118,0.1534195-0.0012894,0.2301292c0.115387-0.0283632,0.1946754-0.1076517,0.2294846-0.2204599
				C14.6270771,11.6282711,14.551012,11.6250486,14.474947,11.6256924z"/>
		</g>
		<g>
			<path class="st35" d="M22.4243736,11.2492361c0.2082119-0.1269894,0.5898266-0.0573711,0.6639576,0.2114344
				c0.0754204,0.2249718-0.0161152,0.496356-0.2017651,0.6413946c-0.1521301-0.0354538-0.2913685-0.1095848-0.4434986-0.1418152
				c-0.2030544-0.0341654-0.3906384,0.0709076-0.5704861,0.1476173c-0.1340809-0.0444794-0.2668724-0.0896025-0.3996639-0.1360149
				C21.7462368,11.6663036,22.2129402,11.6173124,22.4243736,11.2492361z M22.41535,11.6360064
				c-0.012249,0.0612392-0.0219173,0.1231222-0.0290089,0.1850061c0.0683308-0.0032234,0.1373043-0.0064468,0.2069225-0.0096693
				c0.0012894-0.0657511,0.0025787-0.1315022,0.0051575-0.1972532C22.5358925,11.6186018,22.4752998,11.6256924,22.41535,11.6360064
				z"/>
		</g>
		<path class="st35" d="M10.7477674,11.9351091c0.527297,0.1798487,0.9881983,0.5975609,1.1545105,1.1371059
			c0.1804857,0.4989347,0.2507563,1.042347,0.549859,1.4929352c-0.6007843-0.306838-1.1686926-0.7251949-1.5270996-1.3072853
			C10.6833057,12.8633595,10.6936188,12.3786068,10.7477674,11.9351091z"/>
		<path class="st35" d="M17.1107903,11.9834557c0.2920113,0.1450386,0.5472794,0.391283,0.6330147,0.7142363
			c0.0676842,0.2230377-0.0109596,0.4505882-0.0747757,0.6646013
			C17.5929642,12.8588467,17.2339115,12.4701424,17.1107903,11.9834557z"/>
		<path class="st35" d="M19.4191666,12.4411345c0.1224766-0.2056332,0.3203754-0.3474493,0.5260067-0.4602575
			c-0.1398811,0.4911995-0.4821739,0.8953743-0.5866013,1.4001102
			C19.3024902,13.0735044,19.2244911,12.7176752,19.4191666,12.4411345z"/>
		<path class="st35" d="M25.1349926,13.1102476c0.1553516-0.5550156,0.6259232-0.9862652,1.1616001-1.1744938
			c0.0960484,0.4609022,0.063818,0.9765959-0.2056332,1.3762589c-0.3629189,0.5530825-0.9108448,0.9527454-1.4909992,1.254427
			C24.8823013,14.1242313,24.9815731,13.6040249,25.1349926,13.1102476z"/>
		<path class="st35" d="M14.960989,12.499795c0.1082964-0.2610703,0.3854818-0.4041758,0.6542873-0.4396296
			c0.1231222,0.0999155,0.2230377,0.2243271,0.3364906,0.3358459c-0.1772699,0.0483465-0.3629198,0.0812216-0.5234299,0.1740465
			c-0.1656666,0.096693-0.2649384,0.2668715-0.3693657,0.4202909C14.9945097,12.8369293,14.9055519,12.6693287,14.960989,12.499795z
			"/>
		<path class="st35" d="M16.7253075,12.2735338c0.0032234-0.0464125,0.0090256-0.1398821,0.0116043-0.1862946
			c0.0547924,0.0154705,0.1643772,0.0464125,0.2191696,0.0612383c0.1205425,0.2597809,0.2604256,0.5098934,0.4215794,0.7464676
			c-0.0315857,0.0625277-0.0651054,0.1244116-0.0999146,0.1850052c-0.1050739-0.0883121-0.1630898-0.2153025-0.2455997-0.3216639
			c-0.1437492-0.2036991-0.3442268-0.3571186-0.5414791-0.5053806
			C16.5493279,12.2580633,16.666647,12.2683764,16.7253075,12.2735338z"/>
		<path class="st35" d="M17.5600891,12.0711241c0.1708221,0.0335197,0.3712997,0.0328751,0.5040894,0.1650219
			c0.1721134,0.1534185,0.2604256,0.3732338,0.3216648,0.5898256C17.9810238,12.7627983,17.7264004,12.41535,17.5600891,12.0711241z
			"/>
		<path class="st35" d="M18.969223,12.2471046c0.1308575-0.1424608,0.3410034-0.137948,0.5163383-0.1785593
			c-0.1617985,0.3461599-0.4157791,0.7052116-0.8257561,0.7548475C18.7326488,12.6184044,18.808712,12.4024572,18.969223,12.2471046
			z"/>
		<path class="st35" d="M20.1024609,12.1458998c0.0760651-0.0186939,0.1534195-0.0367432,0.2307739-0.0547924
			c-0.0012894,0.0457678-0.0032234,0.1385927-0.0045128,0.1843605c0.0605946-0.0051575,0.1817818-0.0154715,0.2423763-0.0212727
			c-0.3455162,0.2082119-0.6046524,0.5253639-0.7973919,0.8747463c-0.022562-0.1005602-0.1166763-0.2127237-0.0451241-0.3119946
			C19.8581505,12.5958424,19.9935207,12.3779621,20.1024609,12.1458998z"/>
		<path class="st35" d="M20.2513676,13.0103321c0.0012894-0.5350332,0.527298-0.7961035,0.9765968-0.906333
			C20.9598026,12.4662743,20.5498257,12.6777096,20.2513676,13.0103321z"/>
		<path class="st35" d="M21.0996838,12.4011679c0.108942-0.1140976,0.2146587-0.2320623,0.3184414-0.3526058
			c0.2597809,0.0573711,0.5343895,0.1656666,0.6626682,0.4170675c0.0709076,0.1875839-0.0232067,0.3822584-0.0850906,0.558239
			c-0.0876675-0.1476173-0.1643772-0.3126392-0.3107052-0.4112654
			C21.5141735,12.4869022,21.300806,12.4488697,21.0996838,12.4011679z"/>
		<path class="st35" d="M15.8228436,12.1065779c0.2855644,0.0902462,0.5988503,0.1824265,0.7993259,0.4202909
			c0.1218319,0.1289234,0.1418152,0.3126392,0.1856499,0.4763727
			C16.4984035,12.6815767,16.0903587,12.4694977,15.8228436,12.1065779z"/>
		<path class="st35" d="M15.8827925,12.6190491c0.072197-0.0070906,0.1443949-0.0148268,0.2172365-0.0212727
			c0.2823429,0.1927404,0.5131149,0.4467201,0.7471123,0.6936092c-0.0419006,0.2378635-0.1108742,0.4718599-0.1282787,0.7142363
			c-0.1701794-0.2907228-0.2649384-0.6130314-0.3687229-0.9301834c-0.0554371-0.2043438-0.2494659-0.3055487-0.4235134-0.3932171
			C15.9156685,12.6661062,15.8937511,12.6345196,15.8827925,12.6190491z"/>
		<path class="st35" d="M20.9417534,12.6003551c0.0883121,0.0070906,0.1779137,0.0141811,0.2681618,0.020628
			c-0.1946754,0.1192541-0.4383411,0.220459-0.5118275,0.4570341c-0.1057167,0.3171511-0.2030544,0.6381712-0.3519611,0.939208
			c-0.0360985-0.2462444-0.0921803-0.4886208-0.1527748-0.7297077
			C20.4383068,13.0535212,20.6613445,12.7950296,20.9417534,12.6003551z"/>
		<path class="st35" d="M12.5075741,14.386591c-0.2933016-0.4596128-0.3590527-1.0300989-0.3100615-1.5631981
			c0.3326225,0.5885363,0.7845001,1.106164,1.3427391,1.4910011c0.3177967,0.2397976,0.7535582,0.5015125,0.7348642,0.9566126
			c-0.0960484,0.5389004-0.5021572,0.9952898-0.4892654,1.5599756c0.0438347,0.1611538,0.1966085,0.2578468,0.3461599,0.3100605
			c0.4441414,0.1508408,0.9372749,0.1353703,1.3769035-0.0251408c0.096693,0.2526913,0.2913675,0.4602585,0.3609867,0.7219734
			c-0.1289244,0.0831547-0.2868557,0.0651054-0.4312496,0.0734863c0.0315857,0.2359295,0.0135365,0.473793-0.0709085,0.6968307
			c-0.2552681-0.0799313-0.4570332-0.2539787-0.6459064-0.4344711c-0.1611547,0.1527729-0.327466,0.3042583-0.5395451,0.3816128
			c-0.1476173-0.2043438-0.2191706-0.4499435-0.2127237-0.7013435c-0.1862946,0.29459-0.4905548,0.5453472-0.8528299,0.5563049
			c-0.2165918-0.3326225-0.127634-0.7670956,0.0960484-1.0713558c-0.3055487,0.160511-0.6671791,0.2249718-0.9985132,0.108942
			c0.072197-0.2991028,0.2584915-0.5485706,0.4886208-0.7464676c-0.3712997-0.053503-0.7219725-0.2481785-0.8921518-0.5936928
			c0.2610703-0.1862955,0.5782223-0.2694511,0.897953-0.2475338c-0.3661432-0.1727581-0.6459074-0.5040913-0.6968317-0.9134235
			c0.3964396-0.1237669,0.8025494-0.0128927,1.1551552,0.1811371C12.9807234,14.8513603,12.6990252,14.6579752,12.5075741,14.386591
			z"/>
		<path class="st35" d="M23.2797813,14.4877958c0.6297932-0.4396296,1.2267094-0.9714394,1.5561085-1.6798735
			c0.0599499,0.5260077,0.0064468,1.0881147-0.2720299,1.549016c-0.199831,0.2823429-0.4905529,0.4866867-0.6826496,0.7767649
			c0.348093-0.2024097,0.7574253-0.3107061,1.1532211-0.1850052c-0.0431881,0.4067535-0.3319778,0.7297068-0.685873,0.9095554
			c0.2958794-0.0096693,0.6065845,0.041256,0.8483162,0.2249718c-0.0586586,0.3816128-0.5002232,0.547924-0.8367138,0.6207676
			c0.2191715,0.2120781,0.4293098,0.4557438,0.4596138,0.7735405c-0.3268223,0.0593052-0.6646023,0.0270748-0.9630604-0.1231213
			c0.0915375,0.1766243,0.1933861,0.3571167,0.203701,0.5608177c0.0141811,0.1798477-0.0612392,0.348093-0.1198997,0.5137596
			c-0.360342-0.0541477-0.6736259-0.2662277-0.8721676-0.5685539c0.0161152,0.2526913-0.0464134,0.5034466-0.2153034,0.6968327
			c-0.2088547-0.0973377-0.3957939-0.2359295-0.5369663-0.4183559c-0.1489067,0.2320614-0.3803234,0.3938599-0.6459064,0.4621906
			c-0.0593052-0.2256165-0.0921803-0.4589691-0.04319-0.6897411c-0.1585751-0.0141811-0.3551846,0.0302963-0.4667034-0.1134529
			c0.1321468-0.222393,0.2726746-0.440918,0.368721-0.6826515c0.484108,0.16889,1.035902,0.1869392,1.5084057-0.0264282
			c0.1315022-0.0580158,0.2385101-0.1862946,0.2262611-0.3358459c-0.0302963-0.5060253-0.3538952-0.9276047-0.4712143-1.4097795
			C22.7183208,14.9770613,23.0013065,14.6766691,23.2797813,14.4877958z"/>
		<path class="st35" d="M18.135088,13.3397312c-0.0360985-0.2507563,0.2114334-0.3854809,0.3848362-0.5053797
			c0.177269,0.1160307,0.4338284,0.2597809,0.4003067,0.5086031c-0.0876675,0.263649-0.2642918,0.484108-0.4015961,0.7226162
			C18.4032478,13.8173933,18.2098637,13.6053143,18.135088,13.3397312z"/>
		<path class="st35" d="M17.1301289,14.6611986c-0.1050739-0.4679928-0.1888733-1.0636196,0.220459-1.4142923
			c0.1340809,0.2481785,0.2397976,0.5369673,0.1534195,0.8199539
			C17.4169827,14.2860308,17.2603416,14.4671679,17.1301289,14.6611986z"/>
		<path class="st35" d="M18.8138695,14.0533237c0.0760651-0.2752523,0.2056332-0.5318098,0.3422928-0.7819214
			c0.1037827,0.3938608,0.29459,0.7638721,0.3493824,1.169981c0.0341644,0.2107897-0.0244961,0.4499435-0.2011204,0.5833788
			C19.1097488,14.7256603,18.7178211,14.4562101,18.8138695,14.0533237z"/>
		<path class="st35" d="M17.8959332,13.2958975c0.1695347,0.3113508,0.3835487,0.6478415,0.3468056,1.0159178
			c-0.0857353,0.2462444-0.2913666,0.4280262-0.4357624,0.6407499c-0.0431881,0.0883131-0.1527748,0.0502806-0.1695347-0.0335197
			c-0.0734863-0.1263456-0.1269894-0.2720289-0.1037827-0.4202909
			C17.5813599,14.0791082,17.7657204,13.6936264,17.8959332,13.2958975z"/>
		<path class="st35" d="M19.6847477,13.2565756c0.4512329,0.3242435,0.3352013,0.9437208,0.2468891,1.4123583
			c-0.1495514-0.2082119-0.323597-0.4080429-0.4028854-0.654932C19.453331,13.7490635,19.5906353,13.4950848,19.6847477,13.2565756z
			"/>
		<path class="st35" d="M5.1402364,13.3855c0.8141527-0.0264301,1.628305,0.1082954,2.410871,0.3261757
			c1.1055193,0.3229542,2.1923447,0.7077904,3.2578983,1.1448421c-0.1663113,0.053503-0.3306885,0.113452-0.4911985,0.1830711
			c-0.8612099-0.3094168-1.7346668-0.6613779-2.6590486-0.7039232c0.7799878,0.4808855,1.6966338,0.6742706,2.5862069,0.8412266
			c0.1024942,0.243021,0.2688055,0.4518776,0.4789505,0.6110983c-1.2537813-0.4776621-2.6119976-0.6001396-3.8657727-1.0778017
			C6.1838727,14.4330034,5.5128188,14.0352745,5.1402364,13.3855z"/>
		<path class="st35" d="M27.9139404,14.2247915c1.285368-0.4557447,2.6184368-0.8902168,3.9992085-0.8392916
			c-0.4525223,0.7664499-1.2892361,1.1938314-2.1072559,1.4626369c-1.1293697,0.360342-2.319334,0.5092487-3.4319458,0.9224482
			c0.1817837-0.1676006,0.3339119-0.3661423,0.4370518-0.5924034c0.8947296-0.1663113,1.8062191-0.3732338,2.5984535-0.8418713
			c-0.9250259,0.0251408-1.7894592,0.399663-2.6545353,0.6884518c-0.1817818-0.0393209-0.3513165-0.1186094-0.5260086-0.1779137
			C26.7961731,14.6547518,27.3395844,14.3975496,27.9139404,14.2247915z"/>
		<path class="st35" d="M10.1192646,13.5460091c0.7870789,0.1966085,1.4845552,0.6336594,2.1098347,1.13904
			c0.0051565,0.0186939,0.0148258,0.0560818,0.0199823,0.0747757c-0.3551836,0.1340809-0.7574253,0.2584915-1.1261473,0.0941143
			C10.5949926,14.6173639,10.3081379,14.0642824,10.1192646,13.5460091z"/>
		<path class="st35" d="M24.7669163,14.7495108c0.6226997-0.5575943,1.3640099-0.9952898,2.1755848-1.2060795
			c-0.2082119,0.5163383-0.4886208,1.0784454-1.0255871,1.3150196
			C25.5372334,15.0234737,25.1311245,14.8810129,24.7669163,14.7495108z"/>
		<path class="st35" d="M18.2201767,14.8204184c0.0625286-0.1888723,0.2004757-0.3390684,0.2997475-0.5092478
			c0.1134529,0.2036991,0.3474483,0.3816137,0.296524,0.6407499c-0.0232067,0.189518-0.1850052,0.317152-0.2997475,0.4551001
			C18.3839092,15.2342634,18.2053509,15.0557041,18.2201767,14.8204184z"/>
		<path class="st35" d="M16.9141808,14.3620958c0.0605946,0.3609858,0.0012894,0.8231764-0.346159,1.0210743
			c-0.234642,0.1340809-0.4853973-0.0212727-0.6517086-0.1882286c0.2133675-0.0812216,0.4499435-0.1282787,0.6259232-0.284276
			C16.7137051,14.765626,16.8084641,14.5561256,16.9141808,14.3620958z"/>
		<path class="st35" d="M20.3983402,15.3322449c-0.2713833-0.2339954-0.3165073-0.6252785-0.2823429-0.9624138
			c0.1405277,0.220459,0.2681618,0.4628353,0.4905548,0.6136761c0.1450386,0.1115189,0.3313332,0.1321468,0.5047359,0.1708241
			C20.992033,15.4212027,20.6258907,15.5243416,20.3983402,15.3322449z"/>
		<path class="st35" d="M16.1258144,15.8350468c0.5434113-0.1695337,0.8489609-0.7026329,1.1487083-1.147419
			c-0.1089401,0.6923189-0.4338284,1.3975315-1.033968,1.7933273c-0.2810526,0.1862946-0.6562204,0-0.7954578-0.2765427
			c-0.1315022-0.2301273-0.0747757-0.5060244-0.0380325-0.7535572c0.0277185-0.0090246,0.084445-0.0264292,0.1121635-0.0354538
			C15.6352596,15.6435957,15.8234882,15.9291611,16.1258144,15.8350468z"/>
		<path class="st35" d="M20.5440235,16.2733879c-0.4402733-0.4164238-0.6594429-1.0056047-0.7845001-1.5851154
			c0.2642937,0.3654976,0.5111828,0.7606487,0.88764,1.0242977c0.154707,0.1102295,0.3603401,0.1714678,0.54599,0.1082954
			c0.1875839-0.0812216,0.2385101-0.3081274,0.3951511-0.4241581c0.2423763,0.3829021,0.0928249,0.9798183-0.3545399,1.1306591
			C20.9707603,16.6298618,20.720005,16.4519463,20.5440235,16.2733879z"/>
		<path class="st35" d="M17.4105377,14.8055925c0.3332672,0.5820904-0.074131,1.1931877-0.3203754,1.7191954
			c-0.1005611-0.1224766-0.1824265-0.2584915-0.2539806-0.3990173
			C17.1307735,15.7364206,17.3022404,15.2774525,17.4105377,14.8055925z"/>
		<path class="st35" d="M19.5055447,15.3438482c0.0012894-0.1527739-0.0090237-0.3874149,0.1559982-0.4583235
			c0.094759,0.4486542,0.2797642,0.8715239,0.5537262,1.2408905c-0.0773544,0.1392365-0.1579323,0.2765408-0.2449551,0.4093323
			C19.778862,16.1560669,19.5629158,15.7705851,19.5055447,15.3438482z"/>
		<path class="st35" d="M18.9950066,15.0196056c0.2159481,0.2746077,0.5279427,0.5517931,0.5079594,0.9314728
			c-0.08251,0.2810535-0.33778,0.4686375-0.5724201,0.623991c0.0818672-0.1908073,0.1856499-0.3829041,0.1811371-0.5962725
			c-0.020628-0.1850052-0.1334362-0.3416471-0.179203-0.5195618C18.9028263,15.3096838,18.9595528,15.1627111,18.9950066,15.0196056
			z"/>
		<path class="st35" d="M25.1523972,15.0988941c0.4931259,0.0870228,1.0249424-0.243021,1.4806862,0.051569
			c-0.0296516,0.2365751-0.228838,0.4106216-0.4235134,0.5247192c-0.4473648,0.2082109-0.9707947,0.2655821-1.4349194,0.074131
			C24.9499874,15.5649519,25.0827789,15.3444929,25.1523972,15.0988941z"/>
		<path class="st35" d="M10.3912868,15.1382151c0.2223997-0.0825109,0.4621973-0.1540632,0.7007065-0.0979815
			c0.2617149,0.063817,0.5305204,0.0760651,0.7986813,0.053503c0.0767097,0.2455997,0.2191696,0.4609022,0.3829031,0.6568661
			c-0.4692822,0.1908064-0.9972239,0.1308565-1.4465227-0.0818672
			C10.6175547,15.5572166,10.4705811,15.358675,10.3912868,15.1382151z"/>
		<path class="st35" d="M17.5658894,15.7899237c0.0644627-0.2978134,0.2739639-0.5537262,0.5111828-0.7380867
			c0.0161152,0.137948,0.0502796,0.2778301,0.0315857,0.4183569c-0.0464115,0.1920958-0.1779137,0.3654976-0.1579304,0.5711308
			c0.0038662,0.1908073,0.0941143,0.3629208,0.1598644,0.5382557
			C17.8656368,16.3791046,17.4930477,16.1586456,17.5658894,15.7899237z"/>
		<path class="st35" d="M5.2072768,15.3348236c0.4035306-0.1218328,0.8296232-0.1082954,1.2466908-0.1128082
			c1.3627224-0.0264292,2.7306008,0.2069225,4.013391,0.663312c-0.074131,0.0767097-0.1772699,0.1456842-0.2868557,0.1044283
			c-0.842515-0.2230377-1.7262859-0.3235979-2.5926523-0.1953192c0.8122187,0.2397985,1.6637583,0.3042593,2.5056295,0.3538942
			c-0.0960484,0.1005611-0.1862946,0.2372208-0.3422918,0.2269058c-0.7129478,0.012249-1.4310522,0.0612392-2.1388421-0.0464115
			c-0.6916752-0.096693-1.3453178-0.3674326-1.9570599-0.6948986C5.4979997,15.5469027,5.333622,15.4656811,5.2072768,15.3348236z"
			/>
		<path class="st35" d="M26.5628204,15.8904848c1.3014832-0.4615469,2.6880569-0.6987658,4.0707626-0.6684694
			c0.4170666-0.0045118,0.8373585,0.012248,1.2454014,0.1102295c-0.8289795,0.5608177-1.7901039,0.9579029-2.7944183,1.0384789
			c-0.6510639,0.0651073-1.3034172-0.0025768-1.9538441-0.0232048c-0.0580082-0.0683308-0.11409-0.1360149-0.1708164-0.2043438
			c0.8476715-0.0315876,1.6985683-0.1263466,2.5204563-0.3442268c-0.8708801-0.1366587-1.761097-0.0315857-2.6094131,0.1888733
			C26.7529831,16.0348797,26.654356,15.9510784,26.5628204,15.8904848z"/>
		<path class="st35" d="M18.1054344,15.9813757c0.012249-0.2049885,0.1489067-0.3700113,0.2617149-0.5305204
			c0.0360985,0.0328751,0.1082954,0.0992708,0.1443939,0.1321468c0.063818-0.0419006,0.1282806-0.0838003,0.1940308-0.1250563
			c0.1018429,0.1830711,0.2597809,0.3648539,0.2281952,0.5898256c-0.0199833,0.2694492-0.1908073,0.5028019-0.4183578,0.640749
			C18.2897949,16.5215645,18.1112366,16.2701645,18.1054344,15.9813757z"/>
		<path class="st35" d="M10.0116138,16.4371204c0.2133684-0.2778301,0.5389004-0.4731493,0.8934402-0.4853973
			c0.2520456-0.020628,0.4950666,0.0580158,0.7322855,0.1327915c0.1012049,0.1611538,0.2088566,0.3184414,0.3242426,0.4705715
			c-0.4048195,0.1959629-0.8689518,0.3003902-1.3143759,0.2011204
			C10.4125662,16.7027035,10.2075777,16.5705566,10.0116138,16.4371204z"/>
		<path class="st35" d="M25.4050865,16.0890274c0.327467-0.115387,0.6910305-0.201766,1.0313892-0.0838013
			c0.2468891,0.0644627,0.4383392,0.2423763,0.5969162,0.434473c-0.5408344,0.4557438-1.3472519,0.4486542-1.9409447,0.1012039
			C25.2065449,16.3977985,25.3109722,16.2469578,25.4050865,16.0890274z"/>
		<path class="st35" d="M16.7111263,16.2901478c0.0883121,0.1295681,0.1856499,0.2572021,0.2423763,0.4054642
			c0.0670395,0.4209347-0.0818672,0.8438053-0.3493824,1.1674023c-0.0818672-0.1753349-0.1708241-0.348093-0.2320633-0.5318089
			c-0.0612373-0.2249718-0.0373878-0.4602566-0.0315857-0.6897411
			C16.4700394,16.5305901,16.5925159,16.4126244,16.7111263,16.2901478z"/>
		<path class="st35" d="M17.1249714,17.202282c-0.0754204-0.3577633,0.146328-0.6832943,0.3403587-0.9624157
			c0.3003902,0.2056332,0.568552,0.5453472,0.4802399,0.9321175c-0.1192551,0.2082119-0.273962,0.3977299-0.3545399,0.6285038
			C17.4002228,17.6341763,17.22682,17.4356327,17.1249714,17.202282z"/>
		<path class="st35" d="M19.1065197,16.9457245c0.0032291-0.3126411,0.2430267-0.5517941,0.4963627-0.6994114
			c0.1514854,0.2604256,0.3313332,0.5253639,0.3564739,0.8341351c-0.0586605,0.3010368-0.315218,0.5073147-0.4763737,0.7554932
			C19.3914471,17.5207233,19.0504456,17.2976856,19.1065197,16.9457245z"/>
		<path class="st35" d="M20.3248539,16.2811222c0.127634,0.1263447,0.2584915,0.2494678,0.3970852,0.3648548
			c0.0786438,0.4299603-0.0825119,0.8399372-0.2720299,1.2163925c-0.2797642-0.3268204-0.4344711-0.7658043-0.3416462-1.1938324
			C20.170145,16.5338135,20.2513676,16.4094009,20.3248539,16.2811222z"/>
		<path class="st35" d="M7.4254069,16.7329998c0.7909455-0.1224766,1.5954289-0.0915356,2.3908877-0.1753368
			c0.1218328-0.030941,0.2082109,0.0728436,0.3003912,0.1321468c-0.7148809,0.0779991-1.4516792,0.0908909-2.1285276,0.3616314
			c0.7380877,0.0960484,1.487133-0.0257854,2.2052374-0.197897c0.1991873-0.0509262,0.3977289,0.0277176,0.5904703,0.072197
			c-0.1353703,0.1192532-0.2623596,0.2700939-0.4505882,0.3003922c-0.8064165,0.1843605-1.6308832,0.2829857-2.455349,0.3410015
			c-0.7413106,0.0096703-1.4987369,0.0631733-2.2213531-0.1424599C6.20579,17.1068783,6.8001275,16.8535442,7.4254069,16.7329998z"
			/>
		<path class="st35" d="M26.9379883,16.6949673c0.0605946-0.051569,0.1224766-0.1024933,0.1850052-0.1527748
			c0.7168159,0.0889568,1.4407215,0.0760651,2.1588249,0.1437511c0.7535591,0.0709076,1.4626389,0.3738766,2.119503,0.7348633
			c-0.7329292,0.21208-1.5019588,0.1559982-2.2548733,0.1456833c-0.8779678-0.0676842-1.759161-0.1663113-2.6126347-0.3925724
			c-0.08638-0.0850887-0.1734028-0.1695347-0.2623596-0.2507553c0.1830711-0.0380325,0.3693657-0.1147423,0.5595284-0.0747757
			c0.7258396,0.1714687,1.4813309,0.3003922,2.2271538,0.2030544C28.38451,16.7826347,27.6502914,16.7620068,26.9379883,16.6949673z
			"/>
		<path class="st35" d="M15.5572605,16.6885204c0.2082119,0.0489922,0.4228697,0.0580158,0.6355934,0.0386772
			c0.0373878,0.3165073,0.0219173,0.6749153-0.2559137,0.8837719C15.762249,17.3260479,15.6184998,17.0198555,15.5572605,16.6885204
			z"/>
		<path class="st35" d="M20.8598862,16.728487c0.2069225,0.0174046,0.4157791,0.0070915,0.6194782-0.0380325
			c-0.0509243,0.3352013-0.1933861,0.6459084-0.3758125,0.928894c-0.0812206-0.1063614-0.1830711-0.2043438-0.2236824-0.3345566
			C20.845705,17.1010761,20.8611755,16.9134922,20.8598862,16.728487z"/>
		<path class="st35" d="M10.9108553,17.0211449c0.4486542-0.2294846,0.9695053-0.2475338,1.4626379-0.2127247
			c-0.136014,0.2385082-0.2610703,0.4982891-0.4905539,0.661377c-0.4132004,0.2913685-0.9759521,0.4067554-1.4497461,0.1946754
			C10.511837,17.404047,10.660099,17.1474895,10.9108553,17.0211449z"/>
		<path class="st35" d="M18.0970554,17.2693214c-0.065752-0.263649,0.2017651-0.4241581,0.4151325-0.4873314
			c0.2236824,0.04319,0.4970016,0.2204609,0.432539,0.4853973c-0.0954037,0.2578468-0.2920113,0.4621925-0.4260921,0.6994114
			C18.3897114,17.7270012,18.209219,17.5174999,18.0970554,17.2693214z"/>
		<path class="st35" d="M26.6227703,17.6631832c-0.729063,0.3184414-1.6830978-0.0863781-1.9241848-0.8560524
			c0.4944229-0.0322304,1.021719-0.0116024,1.466507,0.2288399C26.4055347,17.1642494,26.5351028,17.4169388,26.6227703,17.6631832z
			"/>
		<path class="st35" d="M8.9138298,17.6522255c0.5034456-0.0728416,1.0004463-0.1959648,1.5090494-0.2281952
			c-0.1830711,0.1366596-0.409977,0.1811371-0.6227007,0.2488232c-0.5028019,0.1637325-0.9920664,0.3771-1.4316959,0.6723347
			c0.7084351-0.0257835,1.3852835-0.273962,2.0292568-0.5537262c0.1398821,0.0502796,0.2810535,0.096693,0.422225,0.1431065
			c-1.0365458,0.3087711-1.9660845,0.8940849-3.0039191,1.1970539c-0.3951507,0.127634-0.8141522,0.1308575-1.2241292,0.1024952
			C7.0270329,18.3458328,7.9623733,17.8075771,8.9138298,17.6522255z"/>
		<path class="st35" d="M26.625349,17.4382114c0.2874985-0.0199833,0.5672626,0.0618839,0.8502502,0.1031399
			c0.5904694,0.0941143,1.2002792,0.1721115,1.7333775,0.4647694c0.5369663,0.2565575,0.9856205,0.6916752,1.2473354,1.2279968
			c-0.6020737,0.0689735-1.2041454-0.0528584-1.7598057-0.2829876c-0.8296242-0.3229542-1.6134796-0.7625828-2.4701767-1.0165615
			c0.1418171-0.0451241,0.2829876-0.0921822,0.4235134-0.1431065c0.6471977,0.2784748,1.3259792,0.5285873,2.0376377,0.5550156
			c-0.5144043-0.3435802-1.0932713-0.5782223-1.68503-0.7503338C26.8709488,17.5574665,26.7446022,17.5039635,26.625349,17.4382114z
			"/>
		<path class="st35" d="M16.0104275,17.696703c0.0831547-0.0767097,0.1669559-0.1527748,0.2520447-0.2281933
			c0.0902462,0.1850052,0.1817818,0.3712997,0.2455997,0.568552C16.3191986,17.9609966,16.1554661,17.8378754,16.0104275,17.696703z
			"/>
		<path class="st35" d="M16.5905838,18.1202183c0.1708221-0.2024117,0.2997456-0.4351177,0.46348-0.6420403
			c0.1553516,0.2133694,0.3416462,0.4132004,0.4505882,0.6562214c0.0560799,0.3532505-0.1766262,0.6600876-0.3248882,0.9598351
			C16.8832397,18.8434792,16.689209,18.4928074,16.5905838,18.1202183z"/>
		<path class="st35" d="M20.794136,17.4672203c0.08251,0.0818653,0.1643772,0.1643772,0.2449551,0.2488213
			c-0.1456833,0.1160316-0.2952347,0.2275505-0.4557457,0.3210201C20.5910816,17.8282051,20.697443,17.6457787,20.794136,17.4672203
			z"/>
		<path class="st35" d="M11.2086687,18.1073246c0.2372198-0.2507553,0.560173-0.3906384,0.863143-0.5440578
			c0.2829876,0.0631733,0.5717764,0.084446,0.8624992,0.065752c-0.1985426,0.4570332-0.7123032,0.7090797-1.1918983,0.7251949
			C11.5303335,18.3761311,11.3627329,18.2291584,11.2086687,18.1073246z"/>
		<path class="st35" d="M17.6941681,18.4360809c-0.0193386-0.3306904,0.0702648-0.6839409,0.3074837-0.9250278
			c0.1295681,0.2114353,0.2991028,0.4009533,0.4015961,0.6285038c0.063818,0.3577614-0.1070061,0.7006989-0.2507553,1.0178509
			C17.9417019,18.9640217,17.7322006,18.7313156,17.6941681,18.4360809z"/>
		<path class="st35" d="M19.0549564,17.498806c0.2178822,0.2565575,0.3177967,0.5982056,0.3049049,0.9314728
			c-0.04319,0.2991028-0.2533417,0.5298748-0.465414,0.7277737c-0.1353703-0.3107071-0.2894344-0.6388168-0.2546234-0.9869099
			C18.7313595,17.9216747,18.9215202,17.7257118,19.0549564,17.498806z"/>
		<path class="st35" d="M19.5326195,18.2381821c0.0399647-0.3132839,0.3158627-0.5182724,0.4744377-0.7741852
			c0.1269894,0.2262611,0.2926559,0.4273815,0.4235134,0.6510639c-0.0154705,0.391283-0.2978134,0.7129478-0.5524368,0.9881992
			C19.739542,18.8260746,19.5571136,18.5559788,19.5326195,18.2381821z"/>
		<path class="st35" d="M24.116497,17.6290188c0.2868538,0.0161152,0.5743542,0.0019341,0.8541183-0.065752
			c0.2359295,0.1037846,0.4621906,0.2339973,0.6845837,0.3654995c0.0670395,0.0457668,0.1817818,0.1340809,0.1166763,0.2262611
			c-0.1340809,0.1592197-0.3551846,0.222393-0.5575943,0.1946735C24.7649822,18.3045788,24.3073025,18.0538216,24.116497,17.6290188
			z"/>
		<path class="st35" d="M15.5985165,18.0912094c0.136014-0.0528584,0.2675161-0.1179657,0.4067535-0.1650219
			c0.1862946,0.0683289,0.3932171,0.2172356,0.3642082,0.4441414c0.0580158,0.4241581-0.2069206,0.7825661-0.3725882,1.1487083
			c-0.107007,0.2236824-0.1946745,0.4563904-0.3016815,0.6800728c-0.2984581-0.4789505-0.2256155-1.1055202-0.6052961-1.5457935
			c0.1166763,0.0348091,0.2339964,0.0676842,0.3526058,0.1005611
			C15.5353432,18.5443764,15.5972271,18.3219833,15.5985165,18.0912094z"/>
		<path class="st35" d="M20.6967983,18.2349586c0.0277195-0.177269,0.2262611-0.2301273,0.3513165-0.3261757
			c0.1250572,0.0709076,0.2572021,0.127634,0.3925724,0.179203c0.0135365,0.2301292,0.074131,0.4544563,0.1624432,0.6671791
			c0.1250572-0.0354538,0.2507572-0.072197,0.3751678-0.1121635c-0.3867702,0.4370518-0.3306885,1.064909-0.6136761,1.5535297
			c-0.179203-0.3577633-0.323597-0.7316418-0.5105362-1.085537C20.7090454,18.8454132,20.6162205,18.5353508,20.6967983,18.2349586z
			"/>
		<path class="st35" d="M9.3141375,18.7042408c0.6065845-0.2468891,1.2015667-0.535677,1.833293-0.7142353
			c-0.1721134,0.1882267-0.4299603,0.2449532-0.6497755,0.3558273c-0.5240736,0.234642-1.0242977,0.5691986-1.3279123,1.0694218
			c0.6974764-0.2236824,1.2918139-0.6742706,1.8700361-1.1093864c0.0560818-0.0380325,0.1192541-0.0625286,0.1875839-0.0734863
			c-0.051569,0.1514835-0.189518,0.2430191-0.3036146,0.3442249c-0.5427685,0.4647694-1.0681324,0.949522-1.6102552,1.4149361
			c-0.4376955,0.366787-1.0081825,0.4982891-1.5657773,0.5260086C7.9804225,19.7298279,8.5360832,19.0110798,9.3141375,18.7042408z"
			/>
		<path class="st35" d="M25.8911285,17.9964504c0.21208,0.0309429,0.409977,0.115387,0.6078758,0.1946754
			c0.4673462,0.1875839,0.935339,0.3764572,1.3949528,0.5833778c0.6903858,0.329401,1.1706257,0.9920673,1.4039764,1.7069492
			c-0.6272125,0.0509243-1.252491-0.189518-1.7108154-0.6149654c-0.591114-0.5427685-1.2118816-1.0533066-1.792038-1.6070328
			c0.2404423-0.0296516,0.3835487,0.2024097,0.5685539,0.3139286c0.4750824,0.3268223,0.9559689,0.6723366,1.5148525,0.8399372
			c-0.2694511-0.4235134-0.6716919-0.7471123-1.1190567-0.9675713
			C26.4725742,18.2903957,26.1463985,18.205307,25.8911285,17.9964504z"/>
		<path class="st35" d="M12.0434484,18.5314827c0.2230377-0.2127228,0.508604-0.3532505,0.8044834-0.4351158
			c0.0496283,0.1424599,0.1037836,0.2829876,0.1637325,0.422224c-0.1547079,0.1766262-0.3074827,0.3700104-0.5266523,0.4692822
			c-0.1746912,0.0896015-0.3771009,0.0805779-0.5679083,0.0889568
			C11.9016333,18.8879566,11.8932533,18.6726551,12.0434484,18.5314827z"/>
		<path class="st35" d="M24.2060986,18.0976563c0.304903,0.08251,0.6007824,0.2314167,0.8205986,0.4609013
			c0.1405258,0.1334362,0.0973358,0.3390694,0.1063614,0.5118275c-0.1830711-0.0006447-0.3745232,0.0077343-0.5434132-0.0728436
			c-0.2301292-0.0947571-0.391283-0.2913666-0.5466366-0.4757271
			C24.1003799,18.3819313,24.1551723,18.2407608,24.2060986,18.0976563z"/>
		<path class="st35" d="M12.9923267,18.711977c0.1933851-0.2378635,0.5260077-0.2391529,0.7793427-0.3822594
			c0.0051565,0.1875839,0.0444784,0.3951511-0.0663958,0.5621071c-0.2578468,0.4228687-0.7542028,0.6910305-1.2512035,0.654932
			C12.5275564,19.2115555,12.7538176,18.9466171,12.9923267,18.711977z"/>
		<path class="st35" d="M22.3212357,18.353569c0.1985416,0.1830711,0.1489067,0.4757271,0.1559982,0.7187481
			c-0.0012894,0.4989357-0.1630898,1.0210762-0.5408344,1.3633671c-0.1482697,0.1366596-0.3551846,0.1611557-0.5459919,0.1843605
			c0.1811371-0.4415627,0.3158627-0.8998852,0.4376945-1.3601437C21.9119034,18.9195442,22.1162472,18.6307545,22.3212357,18.353569
			z"/>
		<path class="st35" d="M23.387434,18.9595089c-0.1289234-0.1856499-0.139883-0.4170666-0.0876694-0.6304359
			c0.1869392,0.0973377,0.3841934,0.1740475,0.591116,0.2185268c0.2836304,0.2874985,0.6252785,0.5795097,0.692318,1.001091
			C24.1184292,19.5744743,23.6517258,19.3404789,23.387434,18.9595089z"/>
		<path class="st35" d="M11.2724857,18.5334167c0.1669559-0.1521282,0.4112663-0.030941,0.6130314-0.0483456
			c-0.0451231,0.1024933-0.0760641,0.2262611-0.1882277,0.2758961c-0.6059408,0.3590527-1.2679634,0.7471123-1.5767355,1.4123573
			c0.6349487-0.3068371,1.1480646-0.8057709,1.6405525-1.2995491c0.0116034,0.0902462,0.0232058,0.1798477,0.0354538,0.2700958
			c-0.2784748,0.2958794-0.5517931,0.597559-0.7877226,0.9295387c-0.2868557,0.3751678-0.5440578,0.7980366-0.9611254,1.044281
			c-0.2584915,0.1650219-0.5595284,0.2488213-0.8624992,0.2771854c0.0573711-0.496357,0.2256165-0.9836864,0.5253639-1.3859291
			C10.1418266,19.4307251,10.7084455,18.9749813,11.2724857,18.5334167z"/>
		<path class="st35" d="M14.6380358,18.4238319l0.0831556-0.0483456c0.5917587,0.6052952,0.5904694,1.5129185,0.9437208,2.2445583
			c-0.5427685,0.0167599-0.8889284-0.4892635-1.0126953-0.9598351
			C14.5664835,19.2553902,14.528451,18.8286533,14.6380358,18.4238319z"/>
		<path class="st35" d="M25.1517525,18.4876499c0.1727581-0.0096703,0.346159-0.0219173,0.5195618-0.0393219
			c0.6594448,0.529232,1.3562756,1.05266,1.8133106,1.7784996c0.2153015,0.3538952,0.3216629,0.7606506,0.3829021,1.1674042
			c-0.5749989-0.0348091-1.1087418-0.3506718-1.443943-0.813509c-0.3693676-0.5002232-0.7387333-1.001091-1.1777172-1.4426537
			c0.0122471-0.0883121,0.0251408-0.1772709,0.0386772-0.2649384c0.4989338,0.4950676,1.0165615,1.0023804,1.6618252,1.3034172
			c-0.3313351-0.6413937-0.9540348-1.0513706-1.5638428-1.3968868
			C25.2600479,18.7242241,25.2084789,18.5991688,25.1517525,18.4876499z"/>
		<path class="st35" d="M14.1313658,20.1997547c-0.4351168-0.4267368-0.5060244-1.1480637-0.156642-1.6489334
			c0.1231222,0.096693,0.2675161,0.1469746,0.4215803,0.0960484c0.0799322,0.3268223,0.156642,0.6736259,0.063817,1.0062485
			C14.4046841,19.8632641,14.2628679,20.0334435,14.1313658,20.1997547z"/>
		<path class="st35" d="M22.6422558,18.6662083c0.1514854,0.0058022,0.3016796-0.0064449,0.4235134-0.1089401
			c0.1991863,0.2765408,0.2978134,0.6317253,0.2178802,0.9688606c-0.0470562,0.2552681-0.2036991,0.4679928-0.3513165,0.6742706
			C22.4933491,19.8194294,22.4798107,19.183836,22.6422558,18.6662083z"/>
		<path class="st35" d="M16.6460209,18.7570992c0.2243271,0.2359314,0.430603,0.5505047,0.3661423,0.8915062
			c-0.0496349,0.2069225-0.1708241,0.3867722-0.263649,0.5762901c-0.1495514-0.2127247-0.3390694-0.4286709-0.3429356-0.7026348
			C16.3836613,19.2457199,16.5216084,18.9936752,16.6460209,18.7570992z"/>
		<path class="st35" d="M20.0276852,19.4642448c0.0090256-0.2894325,0.220459-0.5060234,0.38097-0.7264843
			c0.1173191,0.2688065,0.2791195,0.5505047,0.2256145,0.854763c-0.0315857,0.2455997-0.1985416,0.4389858-0.3261757,0.6407509
			C20.1894779,19.9896088,20.0038338,19.7498112,20.0276852,19.4642448z"/>
		<path class="st35" d="M17.5639553,18.8157597c0.1804943,0.1166763,0.2681618,0.33778,0.3545399,0.527298
			c0.1366596,0.348093-0.1269894,0.6678238-0.2952347,0.9501667c-0.2816982-0.1959648-0.5118256-0.5447025-0.422224-0.9005318
			C17.271944,19.1741676,17.4234295,18.9936752,17.5639553,18.8157597z"/>
		<path class="st35" d="M19.4430161,18.8157597c0.2243271,0.1534195,0.3803253,0.4299603,0.4177132,0.7013454
			c0.0438347,0.3326225-0.222393,0.5801544-0.4280262,0.8006153c-0.1205444-0.234642-0.3107052-0.4505882-0.3248882-0.7245522
			C19.0807419,19.2940674,19.2779942,19.0433102,19.4430161,18.8157597z"/>
		<path class="st35" d="M18.5173454,18.93437c0.1534195,0.2642937,0.4151344,0.5189171,0.3577633,0.8515396
			c-0.04319,0.2314186-0.1985416,0.4273815-0.360342,0.5917587c-0.1785583-0.2198143-0.3841915-0.4789505-0.348093-0.780632
			C18.2304916,19.352726,18.4006691,19.154829,18.5173454,18.93437z"/>
		<path class="st35" d="M12.029912,19.2341175c0.1450386-0.0238514,0.2907228-0.0464134,0.4370508-0.065752
			c-0.453166,0.5833797-1.1454859,1.0778008-1.2299376,1.8674583c0.4931393-0.3358459,0.823184-0.8502502,1.1184187-1.3575649
			c0.1269894,0.0019341,0.2539797,0.0032234,0.3816137,0.0051575c-0.3042593,0.42029-0.5292311,0.8889275-0.8044834,1.326622
			c-0.2881441,0.4544563-0.780632,0.7206841-1.2692518,0.908268C10.61691,20.8514633,11.3163204,19.9509315,12.029912,19.2341175z"
			/>
		<path class="st35" d="M24.5896454,19.1702995c0.1443939,0.0199833,0.2900791,0.0406113,0.4351177,0.065752
			c0.7090797,0.7200375,1.4026871,1.612833,1.3762589,2.677742c-0.4821739-0.158577-0.9437199-0.4312496-1.244112-0.8483181
			c-0.296524-0.4525204-0.5202065-0.9514561-0.8489628-1.3839931c0.1237679,0.0006447,0.2488232-0.0077362,0.3732338,0.0070896
			c0.3364906,0.4834633,0.6278572,1.0384808,1.1474209,1.3543434c-0.0631733-0.455101-0.3358459-0.8399372-0.623991-1.18223
			C25.0080032,19.6221771,24.7585354,19.4313698,24.5896454,19.1702995z"/>
		<path class="st35" d="M13.3907003,19.416544c0.0728416-0.0522137,0.146328-0.1044273,0.220459-0.1566429
			c-0.0083799,0.4712162-0.0573711,0.9398537-0.1250553,1.4059124c-0.0509253,0.2771854-0.0896025,0.5653305-0.2249718,0.8180199
			c-0.1766253,0.3081264-0.4512329,0.558239-0.7748308,0.7052116c-0.3229532-0.6542873-0.0792885-1.4039783,0.2320623-2.0124969
			c0.1392374-0.2339954,0.2320623-0.5176277,0.4770174-0.6665344c-0.1315022,0.5878906-0.422225,1.1641788-0.3216648,1.781723
			C13.2276115,20.7334976,13.2875614,20.0540714,13.3907003,19.416544z"/>
		<path class="st35" d="M23.4467373,19.2450752c0.0715542,0.0715523,0.1656685,0.1269894,0.2204609,0.2153034
			c0.127634,0.6168976,0.1315022,1.3092175,0.5305195,1.8294239c0.0883121-0.6168995-0.2288399-1.180294-0.3261833-1.7726974
			c0.242384,0.1611538,0.3371429,0.449297,0.4757347,0.6916733c0.3139286,0.6052971,0.5363216,1.3466072,0.2211037,1.9983158
			c-0.2294827-0.1392365-0.465414-0.2836323-0.6278572-0.5021572c-0.2694511-0.3197308-0.3255329-0.7503357-0.3951511-1.147419
			C23.4963741,20.1217556,23.4293327,19.6853504,23.4467373,19.2450752z"/>
		<path class="st35" d="M23.080595,20.409256c-0.0483456-0.2049885,0.1250553-0.3532505,0.2256165-0.5092487
			c0.0367432,0.4544563,0.0335197,0.9114895,0.0270748,1.3672352c-0.0045128,0.3487377-0.0986271,0.6987648-0.306839,0.9817524
			c-0.1959629-0.2952347-0.2423763-0.6517086-0.3126392-0.9914227c-0.0670414-0.4138451-0.115387-0.8315563-0.1134529-1.2518482
			c0.0734863,0.0954037,0.1501961,0.1908073,0.2256165,0.286211c-0.0212727,0.3416481,0.0116024,0.6865177,0.1115189,1.0146275
			c0.0264282,0.0025787,0.0799332,0.0077362,0.1063614,0.0103149C23.1179829,21.0197086,23.1282978,20.7115803,23.080595,20.409256z
			"/>
		<path class="st35" d="M13.7381487,19.9489975c0.0838003,0.0857353,0.1598654,0.1785603,0.2404432,0.2681618
			c-0.020628,0.3654976-0.0889578,0.7522697,0.0425444,1.1055202c0.0186939-0.0019341,0.0567265-0.0045128,0.0754204-0.0064468
			c0.1501961-0.3223095,0.136014-0.6852283,0.1289234-1.0320339c0.0773544-0.0921803,0.1547089-0.1856499,0.2320623-0.2791195
			c-0.0502796,0.7580719-0.0921803,1.5445042-0.4054642,2.2477837c-0.0954037-0.1211891-0.2004766-0.2417316-0.2365751-0.3957958
			C13.6388779,21.2369442,13.7142982,20.5839462,13.7381487,19.9489975z"/>
		<path class="st35" d="M14.6167631,19.978651c0.3268213,0.399662,0.2423763,0.9566116,0.5060253,1.3878613
			c0.0335197-0.2526894,0.0154705-0.5073147-0.0045128-0.7593594c0.0838003,0.0386772,0.1669559,0.0792885,0.2507563,0.1218319
			c0.0193386,0.181139,0.0341654,0.3629208,0.0541487,0.5440578c-0.0174055,0.2720299-0.0438347,0.5472813-0.158576,0.7986813
			C14.7650251,21.4967251,14.6921835,20.703846,14.6167631,19.978651z"/>
		<path class="st35" d="M16.7446461,20.6864414c-0.0090237-0.2810535,0.2011223-0.4970016,0.3661442-0.7007008
			c0.1198978,0.2107906,0.272028,0.4396305,0.2211037,0.6942539c-0.0696182,0.2391529-0.2256165,0.4402733-0.3545399,0.6497746
			C16.8877525,21.1202679,16.7768784,20.9139919,16.7446461,20.6864414z"/>
		<path class="st35" d="M19.7144012,20.6903095c-0.0586605-0.2591381,0.1082954-0.4892654,0.2185249-0.7090797
			c0.1695347,0.2030544,0.3783913,0.4209347,0.368721,0.7052116c-0.0270729,0.2281952-0.146328,0.4312496-0.2339954,0.640749
			C19.9419518,21.1196232,19.7949791,20.9210815,19.7144012,20.6903095z"/>
		<path class="st35" d="M18.7506981,20.6851521c0.0077343-0.2552681,0.1598644-0.4705715,0.3326225-0.6452637
			c0.1972523,0.306839,0.5234299,0.6297932,0.4183559,1.0268764c-0.0593052,0.2307739-0.1811371,0.4383411-0.2752514,0.6562214
			C18.9937191,21.4225941,18.7268467,21.0867481,18.7506981,20.6851521z"/>
		<path class="st35" d="M17.5259228,20.8269672c0.0728416-0.3010368,0.2662277-0.5543709,0.4621925-0.7870789
			c0.1315002,0.1740475,0.2855644,0.3526077,0.3068371,0.5795116c0.0567265,0.4248047-0.2262611,0.7890129-0.4725056,1.1042309
			C17.7057724,21.4335537,17.5040073,21.1518555,17.5259228,20.8269672z"/>
		<path class="st35" d="M21.9131927,21.3697357c0.3010368-0.4209347,0.1830711-0.9959335,0.5195618-1.4007549
			c-0.0954037,0.7103691-0.1115189,1.5425701-0.6536427,2.0795383c-0.1856499-0.4254494-0.1734028-0.9095573-0.0734863-1.3549881
			c0.0786438-0.0238495,0.1572876-0.0489902,0.2372189-0.074131C21.8964329,20.8662891,21.8816051,21.1196232,21.9131927,21.3697357
			z"/>
		<path class="st35" d="M18.1486244,21.7868042c0.0264301-0.3158627,0.2056332-0.5878925,0.3706551-0.8483181
			c0.1785583,0.2488232,0.3642082,0.5227852,0.3680763,0.8412266c0.0193386,0.4505882-0.1798477,0.867012-0.3712997,1.2621613
			C18.3587704,22.6364098,18.1460457,22.2328796,18.1486244,21.7868042z"/>
		<path class="st35" d="M16.8813057,21.7165394c0.0928249-0.2320614,0.2771854-0.4086876,0.4248028-0.6052952
			c0.0896015,0.2488232,0.2733173,0.4963551,0.2082119,0.7735405c-0.053503,0.1431065-0.1682453,0.2578487-0.2933006,0.3422928
			C17.0160313,22.1593933,16.8871078,21.9234619,16.8813057,21.7165394z"/>
		<path class="st35" d="M19.5158596,21.7158947c0.0451221-0.2114334,0.1437492-0.4054642,0.220459-0.6059399
			c0.1676006,0.2494678,0.5575943,0.5060253,0.3732338,0.8457394c-0.0786438,0.1128082-0.21208,0.3654976-0.3629208,0.2133675
			C19.6144848,22.0588322,19.5003872,21.8950996,19.5158596,21.7158947z"/>
		<path class="st35" d="M15.7358198,22.5319824c0.2617149-0.3468056,0.6168985-0.6007843,0.9862661-0.821888
			c0.0386753,0.1392365,0.0805759,0.2778301,0.1269894,0.4157772
			C16.5048485,22.3257046,16.1232357,22.4488258,15.7358198,22.5319824z"/>
		<path class="st35" d="M20.3280773,21.7062263c0.3629189,0.2243271,0.7193928,0.4737949,0.9740181,0.8231773
			c-0.3861275-0.0825119-0.7625828-0.2095013-1.1074543-0.4028873
			C20.2423439,21.9872799,20.2881107,21.8473969,20.3280773,21.7062263z"/>
		<path class="st35" d="M17.0198994,22.5532551c0.3848362-0.1656685,0.6897392-0.4621925,0.9482327-0.7851448
			c-0.0457687,0.5163383-0.2546253,1.073288-0.7380886,1.326622c-0.1875839,0.1031399-0.4177113,0.0399666-0.560173-0.1089401
			C16.606699,22.7640438,16.84972,22.6286736,17.0198994,22.5532551z"/>
		<path class="st35" d="M19.094923,21.7648869c0.2526913,0.3371353,0.5679092,0.6368828,0.9624138,0.7999706
			c0.1843624,0.0625286,0.3003922,0.220459,0.3848381,0.3880596c-0.160511,0.1031399-0.3455219,0.2623596-0.5479259,0.16889
			C19.3572826,22.9110165,19.1265087,22.3024979,19.094923,21.7648869z"/>
		<path class="st35" d="M11.2002888,22.2605972c0.1070061-0.179203,0.3545399-0.146328,0.5092478-0.0528584
			c0.3925724,0.2243271,0.7490463,0.5556602,0.9050436,0.9901333c-0.0302973,0.0631733-0.0599489,0.127634-0.0889568,0.191452
			c-0.0335207,0.0283623-0.1005611,0.084444-0.1340809,0.1121635c-0.4389849-0.0277195-0.7812767-0.3442268-1.0507269-0.6626682
			C11.2209167,22.6815338,11.0642748,22.4526939,11.2002888,22.2605972z"/>
		<path class="st35" d="M25.4495659,22.1555252c0.1669559-0.0663967,0.3738785-0.0064468,0.4396286,0.1708241
			c0.0651073,0.2468872-0.1327915,0.4518757-0.2804089,0.6233444c-0.2339954,0.2352867-0.4989338,0.4957123-0.8431587,0.5369663
			c-0.2507572,0.0373878-0.3854828-0.2874985-0.2546253-0.4763718
			C24.7295284,22.6447906,25.0627956,22.3353729,25.4495659,22.1555252z"/>
		<path class="st35" d="M16.8619671,22.2599525c0.0812225-0.0380325,0.1617985,0.0090256,0.2352848,0.0425453
			c-0.0522137,0.1224766-0.2036991,0.1424599-0.302969,0.2127247c-0.1798496,0.08251-0.2307739,0.2907219-0.3442268,0.4364052
			c-0.1508408,0.0315857-0.3055477,0.0128918-0.4570341,0.0064468
			C16.2237949,22.6647739,16.5080719,22.3946781,16.8619671,22.2599525z"/>
		<path class="st35" d="M19.9110088,22.3411751c0.0979824-0.0425453,0.2011223-0.139883,0.3113518-0.0689735
			c0.3313332,0.1469727,0.6214104,0.3874149,0.8251095,0.6878071c-0.1392365,0.0045109-0.2778301,0.0193386-0.4151325-0.0006447
			c-0.1495514-0.1134529-0.1837177-0.3300457-0.3468056-0.4306049
			C20.1656342,22.4559174,20.0354214,22.4037037,19.9110088,22.3411751z"/>
		<path class="st35" d="M18.9943638,22.2850933c0.1102295,0.1966076,0.220459,0.4144897,0.1850052,0.6478405
			c-0.0547924,0.3648548-0.3435822,0.6626682-0.3261776,1.0449257c-0.0438347,0.2958794,0.241087,0.4628353,0.4357624,0.6246338
			c-0.317152,0.0528603-0.5769329-0.1450386-0.7696743-0.3706551c-0.1830711,0.2275505-0.4357624,0.4190025-0.7458229,0.3771019
			c0.1559982-0.1495514,0.3751678-0.2713833,0.4209347-0.4995785c0.0838013-0.5124722-0.4170666-0.9134235-0.3010349-1.4291172
			c0.030941-0.1024952,0.0380325-0.3197308,0.1824265-0.3055496c0.1437492,0.3693657,0.2630043,0.7490463,0.4415627,1.1042309
			C18.7339382,23.1056919,18.8531914,22.6899128,18.9943638,22.2850933z"/>
		<path class="st35" d="M11.0069036,22.5455189c0.2565575,0.5221405,0.7335749,0.999157,1.3272676,1.0913372
			c-0.6272125,0.1031399-0.875391,0.7529144-1.0120497,1.2937489c0.2249718-0.286211,0.5060253-0.5653305,0.8831263-0.6214123
			c0.6143208-0.1521301,1.2563601,0.2829876,1.4284735,0.875391c-0.0760717,0.1534195-0.1508408,0.3081284-0.2230377,0.46348
			c0.0335131-0.4131985-0.1804934-0.8508949-0.5743551-1.0120487c-0.4383402-0.2133694-1.0165625-0.0238514-1.2428226,0.4073982
			c-0.230773,0.389349-0.137948,0.9559669,0.2449541,1.2138157c0.2172365,0.1186085,0.4763727,0.1063614,0.7161713,0.1385918
			c0.0025778,0.063818,0.0051565,0.1289234,0.0077353,0.1940308c-0.3242426,0.0509243-0.6517086,0.0116024-0.9778852,0.0109577
			c-0.1082964-0.3564739-0.4144897-0.5872459-0.6033621-0.8947296c-0.2404432-0.3803234-0.4280272-0.8193092-0.3874159-1.2782764
			C10.584034,23.7683582,11.0520267,23.2075405,11.0069036,22.5455189z"/>
		<path class="st35" d="M14.6090279,23.2152767c0.3526058-0.4828186,0.9972239-0.4879761,1.5251656-0.6304359
			c-0.2591362,0.379034-0.673625,0.5975609-1.0919828,0.7535572C14.8945932,23.309391,14.7521334,23.2591114,14.6090279,23.2152767z
			"/>
		<path class="st35" d="M26.0587292,22.5538979c-0.0612373,0.570488,0.3029709,1.0539513,0.3693657,1.6050987
			c0.1179657,0.5285873-0.0502796,1.0797348-0.3435802,1.5212994c-0.1882286,0.3177967-0.5098934,0.5492134-0.6130314,0.9160004
			c-0.3300457-0.0225601-0.6826515,0.1044292-0.9940014-0.0367432c0.0012894-0.0373878,0.0045128-0.1121635,0.0058022-0.1489067
			c0.2700939-0.0799313,0.5988503-0.0128918,0.8199539-0.2185249c0.4280262-0.4035301,0.3384247-1.1977005-0.1714687-1.4935799
			c-0.4183578-0.273962-1.0410576-0.1585751-1.3150196,0.265583c-0.1508408,0.2049885-0.1701794,0.4667034-0.1824284,0.7129478
			c-0.0605927-0.1792049-0.1850052-0.3435822-0.1940289-0.5350323c0.127634-0.4538116,0.5563049-0.790947,1.0178509-0.8566971
			c0.5111828-0.0599499,1.0075378,0.228838,1.2621613,0.6665344c-0.0915356-0.3629208-0.1972523-0.7425995-0.4544544-1.0262318
			c-0.1476173-0.1611557-0.360342-0.234642-0.5646858-0.2920113C25.3129063,23.5678825,25.7641392,23.0554123,26.0587292,22.5538979
			z"/>
		<path class="st35" d="M20.9449768,22.6170712c0.5343876,0.0838013,1.1416168,0.1476173,1.5135632,0.5904694
			c-0.158577,0.0489922-0.3165073,0.0979824-0.4737949,0.1476173C21.6108665,23.1482372,21.1867085,22.994173,20.9449768,22.6170712
			z"/>
		<path class="st35" d="M16.3443394,23.1069813c0.1418152-0.0676861,0.2823429,0.0090237,0.397728,0.0908909
			c-0.2114334,0.0734863-0.492487,0.1082954-0.5917587,0.3416481c-0.0760651,0.1237659-0.0232067,0.2642918,0.0103149,0.3925705
			c0.1398811,0.0019341,0.2804089,0.0025787,0.4215794,0.0045128c-0.1192551,0.1315022-0.2481785,0.3113518-0.4512329,0.2713852
			c-0.3036146-0.0083809-0.3758116-0.3887043-0.261714-0.6130314
			C15.9820642,23.3964138,16.1470852,23.2236576,16.3443394,23.1069813z"/>
		<path class="st35" d="M16.9496346,23.8914814c0.3281116-0.2082119,0.4847527-0.5859585,0.790947-0.8193092
			c0.0599499,0.1914501,0.1643772,0.368721,0.2088566,0.5646839c-0.1824284,0.7148819-0.6871624,1.4781094-1.4852009,1.5535297
			c0.1295681-0.4931335,0.6588001-0.6588001,0.9566135-1.0230083c0.1714687-0.1798477,0.2436657-0.4273815,0.2391529-0.6716919
			c-0.3223095,0.2610703-0.5137596,0.6517086-0.8605652,0.885704c-0.1431046,0.0992718-0.3158627,0.1353703-0.4847527,0.1624451
			C16.4307175,24.246666,16.6917877,24.0584373,16.9496346,23.8914814z"/>
		<path class="st35" d="M20.2913342,23.1998062c0.0902462-0.0438347,0.1753349-0.1205444,0.2823429-0.1160316
			c0.1508408-0.0122471,0.2572021,0.1102295,0.3596954,0.2017651c0.1540642,0.1514854,0.3177967,0.3358459,0.3100624,0.5672646
			c0.0012894,0.1804924-0.1495514,0.3706551-0.3416481,0.3558292c-0.1927414,0.0360985-0.3055477-0.1469727-0.4293156-0.25527
			c0.1559982-0.0148258,0.315218-0.029007,0.4679928-0.0709076c-0.0128918-0.1469727,0.0174046-0.3190861-0.0992718-0.4318943
			C20.7064686,23.2855396,20.4814968,23.257822,20.2913342,23.1998062z"/>
		<path class="st35" d="M20.9462662,23.0708828c0.3306885-0.0116043,0.6214104,0.1527748,0.8934402,0.3203754
			c-0.1534195,0.0573692-0.2952347,0.1579304-0.4602585,0.1740456
			C21.226675,23.4073734,21.0996838,23.2275238,20.9462662,23.0708828z"/>
		<path class="st35" d="M15.2104559,23.3899689c0.2668724-0.1850052,0.5717764-0.3255329,0.9037542-0.3223095
			c-0.1637325,0.1624432-0.3100605,0.3397141-0.4518766,0.5208511C15.510848,23.5240479,15.360652,23.455719,15.2104559,23.3899689z
			"/>
		<path class="st35" d="M19.1103935,23.6342773c0.0373878-0.1920948,0.1334362-0.3680763,0.1927414-0.5543709
			c0.3119946,0.1946754,0.4396286,0.5717773,0.7471123,0.7728977c0.2694492,0.1869392,0.5659733,0.3725891,0.6890965,0.6955414
			c-0.158577-0.0341644-0.3229542-0.059948-0.4615459-0.1489067c-0.3745232-0.2230377-0.5517941-0.6523533-0.9024658-0.9037533
			c-0.0012894,0.3700104,0.2165909,0.696188,0.5047359,0.9127789c0.2746067,0.2159462,0.6168995,0.4073982,0.6955433,0.7793427
			C19.7891769,25.1078739,19.2715416,24.3498039,19.1103935,23.6342773z"/>
		<path class="st35" d="M14.4865503,23.3377533c0.3945065,0.0992718,0.8122187,0.1856499,1.1512871,0.42416
			c0.1308575,0.0767097,0.0818672,0.230772,0.0522146,0.3493824c-0.0767097-0.0992718-0.1340809-0.2178802-0.2378645-0.2926559
			c-0.1082954-0.0264301-0.2217484-0.0051575-0.3300438-0.0032234c-0.0251398-0.0618839-0.0496359-0.1231232-0.074131-0.1837158
			c-0.2236824-0.0077362-0.4473648-0.0038681-0.6697578-0.0154724
			C14.4117746,23.5227585,14.4485178,23.4299335,14.4865503,23.3377533z"/>
		<path class="st35" d="M21.4432659,23.7425747c0.3268204-0.2211037,0.7232609-0.3010368,1.0990734-0.4028873
			c0.0502796,0.0779991,0.1012058,0.1566429,0.1521301,0.2359314c-0.2217484,0.0850887-0.4628353,0.0238495-0.6903858,0.0709076
			c-0.0296516,0.0567265-0.0573711,0.1134529-0.0818672,0.1721134c-0.1115189-0.0070915-0.222393-0.0116043-0.3332672-0.0148277
			c-0.0870228,0.1024952-0.1695347,0.2082119-0.2578468,0.3094177
			C21.3201447,23.9752808,21.2924252,23.8115482,21.4432659,23.7425747z"/>
		<path class="st35" d="M14.5162029,23.8205719c0.1411715-0.0302963,0.2836313-0.0547924,0.4280262-0.074131
			c0.0058012,0.1160316,0.010314,0.2314186,0.0161152,0.3474503c0.1347256-0.065752,0.2713842-0.1295681,0.4086876-0.1908073
			c0.0670404,0.0850887,0.1353703,0.1714687,0.1946745,0.263649c-0.5859575,0.1211872-1.0603962,0.5363216-1.3730354,1.0313892
			c-0.2926569,0.451231-0.5189171,0.9482327-0.642684,1.47295c-0.3100615-0.0116024-0.5943375-0.1315022-0.8554077-0.2894325
			c-0.2920122-0.1746922-0.6704025-0.0786438-0.9462996-0.2797642c0.1798487-0.2688065,0.5550165-0.4048195,0.8534746-0.2552681
			c0.1830711,0.0960484,0.358407,0.2140121,0.5646849,0.2578468c0.127634-0.1108742,0.253335-0.2301292,0.3248873-0.3867702
			C13.8090572,25.0737095,14.0765734,24.3962173,14.5162029,23.8205719z"/>
		<path class="st35" d="M22.089817,24.0964699c0.0012894-0.117321,0.0058022-0.232708,0.0103149-0.3487396
			c0.1392365,0.0186939,0.2791195,0.0399666,0.4183559,0.0663967c0.4009533,0.5015125,0.6510639,1.097784,0.9282494,1.6714935
			c0.094759,0.2281952,0.2217503,0.4454308,0.4086895,0.6110973c0.3364887-0.0148258,0.568552-0.3500271,0.914711-0.3094158
			c0.1998329,0.008379,0.3590527,0.1405258,0.5176296,0.2468891c-0.0154724,0.0380325-0.0457687,0.1128082-0.0612392,0.1501961
			c-0.3287544,0.061882-0.6813622,0.0663948-0.9727287,0.2514c-0.2217484,0.148262-0.4828186,0.210146-0.7445335,0.2378635
			c-0.1811371-0.6903858-0.4963551-1.3569202-0.9714394-1.8938866c-0.2797642-0.3177967-0.6639557-0.5195618-1.0707092-0.6207676
			c0.0670395-0.0747757,0.1108742-0.1869392,0.2107887-0.2249718C21.8300362,23.9295139,21.9557381,24.0371647,22.089817,24.0964699
			z"/>
		<path class="st35" d="M16.9502792,26.35392c0.5698433-0.566618,1.2099476-1.0926266,1.5702896-1.8300686
			c0.2211037,0.3771,0.465414,0.7458229,0.780632,1.0520153c0.2707405,0.2604256,0.5453472,0.5163403,0.8128624,0.7799873
			c-0.4028854-0.0657501-0.7432442-0.2933006-1.0881138-0.4918423c-0.1746922,0.0386772-0.3358459,0.136013-0.5176277,0.136013
			c-0.1746922-0.0161152-0.3358459-0.0908909-0.5002251-0.1469727C17.6935234,26.0883389,17.3370514,26.273344,16.9502792,26.35392z
			"/>
		<path class="st35" d="M17.786993,24.7069225c0.1089401,0,0.2178822,0.0006447,0.327467,0.0019341
			c-0.4679928,0.6865177-1.0268764,1.3498287-1.7843018,1.7256413c-0.0335217-0.053503-0.1012135-0.1598644-0.1347256-0.2133675
			C16.8406944,25.8543415,17.3763714,25.321888,17.786993,24.7069225z"/>
		<path class="st35" d="M18.9414978,24.7075672c0.104435,0,0.2101517,0,0.3165131,0.0006447
			c0.4151344,0.6220551,0.9604816,1.1538658,1.6134796,1.5238762c-0.0760651,0.0541477-0.1392384,0.2385082-0.2559147,0.1514854
			C19.9135876,25.9935799,19.3733978,25.3741016,18.9414978,24.7075672z"/>
		<path class="st35" d="M14.8262568,24.8384247c0.2681684,0.1018486,0.5343952,0.2088566,0.8064241,0.3010368
			c-0.0696182,0.0754204-0.1431055,0.148262-0.2133684,0.2230377c0.5208511,0.768383,1.0842466,1.5071163,1.6063871,2.2742119
			c-0.0683289,0.0928249-0.1373024,0.1850052-0.2056332,0.2771854c-0.5640392-0.7812767-1.1255026-1.5651321-1.67665-2.3554344
			c-0.1018496,0.0605946-0.201766,0.1231232-0.3010368,0.1869392
			C14.8333549,25.4430752,14.8301315,25.1407509,14.8262568,24.8384247z"/>
		<path class="st35" d="M21.4368191,25.1310806c0.2642937-0.0876675,0.5234299-0.1901627,0.7832108-0.2913666
			c-0.0025787,0.3036137-0.0058002,0.6078739-0.0116024,0.9121342c-0.0960484-0.0683308-0.1908073-0.1366596-0.284277-0.2062778
			c-0.7651615,1.0707092-1.5283947,2.1427097-2.2941952,3.2121296c-0.1630878,0.2294846-0.3197289,0.4641247-0.5028019,0.6787834
			c-0.4131985-0.7471123-0.8334904-1.4910011-1.2518463-2.2355347c-0.3190861,0.486042-0.6439743,0.9682159-0.9604816,1.4555473
			c0.0812225,0.0586605,0.1630878,0.117321,0.241087,0.1817818c-0.2475319,0.1592216-0.5389004,0.2288399-0.8057728,0.3500271
			c-0.0038662-0.2978134-0.0032215-0.5949821,0.0012894-0.8921509c0.094759,0.0567265,0.1888733,0.1134529,0.2849216,0.1708241
			c0.4228687-0.6407509,0.8347797-1.2885914,1.2763443-1.9158039c0.4125538,0.7587147,0.8334904,1.5129185,1.2518463,2.2684097
			c0.834137-1.1532211,1.6624699-2.310955,2.4785557-3.4764233c-0.0689735-0.0438347-0.1366577-0.0883141-0.2036991-0.1334362
			C21.4387531,25.1897411,21.4374638,25.1504192,21.4368191,25.1310806z"/>
		<path class="st35" d="M18.1299305,26.0690002c0.2539787,0.0915356,0.5234299,0.0857334,0.778698,0.0025787
			c-0.1076508,0.2024097-0.2275505,0.399662-0.3919277,0.5614605
			C18.3684387,26.4583492,18.2466068,26.2649632,18.1299305,26.0690002z"/>
		<path class="st35" d="M14.8610735,26.6846104c0.253335-0.0489922,0.4924879-0.1553535,0.7490454-0.1901627
			c0.0663958,0.0593052,0.1211882,0.1295681,0.1824274,0.1966076c-0.7309971,0.2372208-1.4922905,0.4273815-2.2658319,0.4080429
			c-0.010314-0.0883121-0.0193386-0.1759796-0.0264292-0.2636471C13.9579639,26.8367405,14.413064,26.7722778,14.8610735,26.6846104
			z"/>
		<path class="st35" d="M21.4207039,26.4989605c0.1082954,0,0.21208,0.0341644,0.3165073,0.0631714
			c0.5820904,0.1837158,1.1938324,0.2565594,1.802351,0.2791195c-0.0051556,0.08638-0.0148258,0.1734028-0.0212708,0.2610703
			c-0.7670956,0.0109596-1.521944-0.1714687-2.2477837-0.4048195C21.3182106,26.629818,21.3652668,26.5608425,21.4207039,26.4989605
			z"/>
		<path class="st35" d="M12.6970911,26.6001644c0.2746077-0.0541477,0.560173,0.074131,0.7329311,0.2887897
			c-0.2011213,0.1089401-0.4280262,0.0425434-0.6201229-0.0502815
			C12.7357683,26.7909718,12.6236048,26.6987915,12.6970911,26.6001644z"/>
		<path class="st35" d="M18.6037235,27.5200348c0.1785603-0.3268223,0.3545399-0.654932,0.5466366-0.9740181
			c0.2281952,0.3661423,0.4834633,0.7155266,0.7071457,1.085537c-0.0689735,0.0902462-0.1366577,0.1811371-0.2036991,0.2726727
			c-0.1611538-0.2030544-0.284277-0.432539-0.4454308-0.6349487c-0.0180492,0.0038681-0.0547924,0.0116043-0.0734863,0.0154705
			c-0.1231213,0.1843624-0.2172356,0.3867722-0.3403587,0.570488
			C18.7300701,27.7437172,18.6662521,27.6321983,18.6037235,27.5200348z"/>
		<path class="st35" d="M23.7393951,26.7561626c0.1682453-0.1353703,0.3925724-0.1547089,0.5988503-0.1856499
			c0.0058002,0.0696182,0.0128918,0.1392365,0.0219154,0.2095013c-0.1991863,0.0934696-0.409977,0.1927395-0.6362362,0.1759796
			C23.6723537,26.8979778,23.6601067,26.7961292,23.7393951,26.7561626z"/>
		<path class="st35" d="M11.5709438,26.8057976c0.3268213-0.1089401,0.6762047-0.1211872,1.0165625-0.0792885
			c-0.1888733,0.2926579-0.5266523,0.4383411-0.8515406,0.5214958
			C11.6631241,27.1074791,11.6063976,26.9592171,11.5709438,26.8057976z"/>
		<path class="st35" d="M24.485218,26.7149067c0.3274651-0.020628,0.6620216-0.0193386,0.9772396,0.0831566
			c0.0006447,0.1676006-0.0683289,0.3184414-0.1630878,0.4531651C24.9944649,27.148735,24.6199417,27.0365715,24.485218,26.7149067z
			"/>
		<path class="st35" d="M12.5075741,26.9817791c0.1095848-0.0689754,0.241087-0.0696201,0.3661423-0.0560818
			c0.0393219,0.2198143-0.1637325,0.379034-0.2933006,0.5298748c-0.1295681,0.1618004-0.3352013,0.0560818-0.496356,0.0154705
			C12.0595646,27.2119064,12.3174114,27.0887852,12.5075741,26.9817791z"/>
		<path class="st35" d="M24.1274548,26.9772663c0.2623596-0.1443939,0.5156937,0.0496349,0.7206821,0.2036991
			c0.0992718,0.0599499,0.0934696,0.1856499,0.1257,0.2849216c-0.1140957,0.0328751-0.2269039,0.0792885-0.346159,0.084444
			C24.3820782,27.4491272,24.2570229,27.1919231,24.1274548,26.9772663z"/>
		<path class="st35" d="M12.6474562,27.5561333c0.1721125-0.2604256,0.3906384-0.622057,0.7612934-0.5285873
			C13.4313107,27.4252758,12.9762106,27.5832062,12.6474562,27.5561333z"/>
		<path class="st35" d="M23.6517258,27.1629162c-0.0496349-0.1669559,0.1927414-0.1766243,0.2952366-0.1160316
			c0.197897,0.1205444,0.3293991,0.3197308,0.4499416,0.5124722C24.1139183,27.5632248,23.7323036,27.4774895,23.6517258,27.1629162
			z"/>
		<path class="st35" d="M17.2339115,28.4830933c0.0148258-0.1269894,0.1121635-0.2236824,0.1708241-0.3319778
			c0.1630878,0.2146568,0.2881432,0.4628353,0.4866867,0.6497746c0.1321468-0.2107906,0.241087-0.4351177,0.3693657-0.6484852
			c0.0580158,0.1115189,0.127634,0.2198143,0.1676006,0.3410034c-0.1315022,0.3345566-0.3538952,0.6272125-0.5092487,0.9514561
			C17.6844997,29.1289997,17.4421234,28.8170052,17.2339115,28.4830933z"/>
		<path class="st35" d="M20.0122147,28.4721355c0.0670395-0.1005611,0.1360149-0.1998329,0.2075672-0.2971687
			c0.0696182,0.0992699,0.1398811,0.199831,0.2107887,0.2997475c0.0870247-0.063818,0.1759815-0.1263466,0.2642937-0.189518
			c0.012249,0.3010368,0.0135365,0.6020718,0.0064468,0.9037533c-0.2765408-0.1115189-0.5517941-0.2230377-0.8283348-0.3313332
			c0.0831566-0.0683289,0.16889-0.1347256,0.2546253-0.2011204C20.0889244,28.5946121,20.0502472,28.5333729,20.0122147,28.4721355z
			"/>
	</g>
</g>
<g id="Слой_2" class="st52">
</g>
</svg>
