<?xml version="1.0" encoding="utf-8"?>
<!-- Generator: Adobe Illustrator 19.1.1, SVG Export Plug-In . SVG Version: 6.00 Build 0)  -->
<svg version="1.1" xmlns="http://www.w3.org/2000/svg" xmlns:xlink="http://www.w3.org/1999/xlink" x="0px" y="0px" width="37px"
	 height="37px" viewBox="0 0 37 37" style="enable-background:new 0 0 37 37;" xml:space="preserve">
<style type="text/css">
	.st0{fill:#BE2B25;}
	.st1{fill-rule:evenodd;clip-rule:evenodd;fill:#FCC200;}
	.st2{fill-rule:evenodd;clip-rule:evenodd;fill:#A7D4E9;}
	.st3{fill-rule:evenodd;clip-rule:evenodd;fill:#184E9B;}
	.st4{fill-rule:evenodd;clip-rule:evenodd;fill:#575756;}
	.st5{fill:#211F1F;}
	.st6{fill:#FFE512;}
	.st7{fill:#FF0014;}
	.st8{fill:#ED1A2E;}
	.st9{fill-rule:evenodd;clip-rule:evenodd;fill:#FFFFFF;}
	.st10{fill-rule:evenodd;clip-rule:evenodd;fill:#1D1D1B;}
	.st11{fill-rule:evenodd;clip-rule:evenodd;fill:#62B12F;}
	.st12{fill:#FF9900;}
	.st13{fill-rule:evenodd;clip-rule:evenodd;fill:#003671;}
	.st14{fill:#005098;}
	.st15{fill:#F6A500;}
	.st16{fill:#12100B;}
	.st17{fill:#B8182B;}
	.st18{fill:#AE1F31;}
	.st19{fill:#88BF52;}
	.st20{fill:#FEFEFE;}
	.st21{opacity:0.35;}
	.st22{fill:none;}
	.st23{fill:#2A408A;}
	.st24{fill:#F8AC18;}
	.st25{fill:#37A2B8;}
	.st26{fill:#EF3E36;}
	.st27{fill:#073986;}
	.st28{fill:#FF590D;}
	.st29{fill:#005DA7;}
	.st30{fill:#3D1061;}
	.st31{fill:#FFFFFF;}
	.st32{fill:#FFAA1C;}
	.st33{fill:#CEBFAA;}
	.st34{fill:#FE0000;}
	.st35{fill:#2051A8;}
	.st36{fill:#526BAA;}
	.st37{fill:#034F90;}
	.st38{fill:#144C9B;}
	.st39{fill:#F39722;}
	.st40{fill:#147D41;}
	.st41{fill-rule:evenodd;clip-rule:evenodd;fill:#F9B41D;}
	.st42{fill-rule:evenodd;clip-rule:evenodd;fill:#E30520;}
	.st43{fill:#EFA55A;}
	.st44{fill:#737373;}
	.st45{fill:#84ACDD;}
	.st46{fill:#94CE84;}
	.st47{fill:#A583B5;}
	.st48{fill:#FFDE63;}
	.st49{fill:#FF6D00;}
	.st50{fill:#0038A5;}
	.st51{fill:#222222;}
	.st52{display:none;}
</style>
<g id="Слой_1">
	<path class="st0" d="M18.4857502,7.6570716l-2.836606,8.5138645h5.7159967l-2.8442574-8.5138645H18.4857502L18.4857502,7.6570716z
		 M8.5468178,30.3272247c-0.1747084,0-0.3185596,0.1443729-0.3185596,0.324194v3.6211834
		c0,0.1802864,0.1438513,0.3247147,0.3185596,0.3247147h19.909956c0.1752148,0,0.3149815-0.1444283,0.3149815-0.3247147v-3.6211834
		c0-0.179821-0.1397667-0.324194-0.3149815-0.324194H8.5468178L8.5468178,30.3272247z M18.5028038,2.5973179
		c2.1788425,0,2.8623371,1.5595024,3.4360695,3.122843c0.2421665,0.6588058,5.9026585,16.1579018,6.0704708,16.6231232
		c0.047842,0.1281147,0.0168076,0.3414936-0.1828365,0.418642c-0.2004108,0.076683-3.1416912,1.2190514-3.3038979,1.2809277
		c-0.1632614,0.0621262-0.3453312-0.0300465-0.4056873-0.1904583c-0.0605755-0.1607113-1.2783527-3.5392094-1.4179001-3.9181252
		c-0.4056606,0-7.9796228,0-8.3847761,0c-0.1370106,0.3789158-1.3690157,3.7632523-1.4255476,3.9181252
		c-0.0562849,0.1540775-0.2330217,0.2587242-0.4046593,0.1904583c-0.1718988-0.0690327-3.1266546-1.2129097-3.3003349-1.2809277
		c-0.1711302-0.0646744-0.248292-0.2561474-0.1876621-0.418642c0.2088003-0.5823708,5.7804098-15.8291016,6.0674009-16.6231232
		C15.6134892,4.181303,16.3244953,2.5973179,18.5028038,2.5973179L18.5028038,2.5973179z"/>
</g>
<g id="Слой_2" class="st52">
</g>
</svg>
