<?xml version="1.0" encoding="utf-8"?>
<!-- Generator: Adobe Illustrator 19.1.1, SVG Export Plug-In . SVG Version: 6.00 Build 0)  -->
<svg version="1.1" xmlns="http://www.w3.org/2000/svg" xmlns:xlink="http://www.w3.org/1999/xlink" x="0px" y="0px" width="37px"
	 height="37px" viewBox="0 0 37 37" style="enable-background:new 0 0 37 37;" xml:space="preserve">
<style type="text/css">
	.st0{fill:#BE2B25;}
	.st1{fill-rule:evenodd;clip-rule:evenodd;fill:#FCC200;}
	.st2{fill-rule:evenodd;clip-rule:evenodd;fill:#A7D4E9;}
	.st3{fill-rule:evenodd;clip-rule:evenodd;fill:#184E9B;}
	.st4{fill-rule:evenodd;clip-rule:evenodd;fill:#575756;}
	.st5{fill:#211F1F;}
	.st6{fill:#FFE512;}
	.st7{fill:#FF0014;}
	.st8{fill:#ED1A2E;}
	.st9{fill-rule:evenodd;clip-rule:evenodd;fill:#FFFFFF;}
	.st10{fill-rule:evenodd;clip-rule:evenodd;fill:#1D1D1B;}
	.st11{fill-rule:evenodd;clip-rule:evenodd;fill:#62B12F;}
	.st12{fill:#FF9900;}
	.st13{fill-rule:evenodd;clip-rule:evenodd;fill:#003671;}
	.st14{fill:#005098;}
	.st15{fill:#F6A500;}
	.st16{fill:#12100B;}
	.st17{fill:#B8182B;}
	.st18{fill:#AE1F31;}
	.st19{fill:#88BF52;}
	.st20{fill:#FEFEFE;}
	.st21{opacity:0.35;}
	.st22{fill:none;}
	.st23{fill:#2A408A;}
	.st24{fill:#F8AC18;}
	.st25{fill:#37A2B8;}
	.st26{fill:#EF3E36;}
	.st27{fill:#073986;}
	.st28{fill:#FF590D;}
	.st29{fill:#005DA7;}
	.st30{fill:#3D1061;}
	.st31{fill:#FFFFFF;}
	.st32{fill:#FFAA1C;}
	.st33{fill:#CEBFAA;}
	.st34{fill:#FE0000;}
	.st35{fill:#2051A8;}
	.st36{fill:#526BAA;}
	.st37{fill:#034F90;}
	.st38{fill:#144C9B;}
	.st39{fill:#F39722;}
	.st40{fill:#147D41;}
	.st41{fill-rule:evenodd;clip-rule:evenodd;fill:#F9B41D;}
	.st42{fill-rule:evenodd;clip-rule:evenodd;fill:#E30520;}
	.st43{fill:#EFA55A;}
	.st44{fill:#737373;}
	.st45{fill:#84ACDD;}
	.st46{fill:#94CE84;}
	.st47{fill:#A583B5;}
	.st48{fill:#FFDE63;}
	.st49{fill:#FF6D00;}
	.st50{fill:#0038A5;}
	.st51{fill:#222222;}
	.st52{display:none;}
</style>
<g id="Слой_1">
	<path class="st1" d="M33.5035591,9.2287054c2.1215897,1.4896107,0.4965591,4.062583-1.5347443,3.3403549
		c0.9930763,5.5973864-1.0833797,10.9239264-4.4688702,14.2191477c-3.8369102,3.7466221-9.7954102,5.5522308-15.7539206,4.4688702
		c0.0902786,0.0903072,0.1354132,0.225729,0.2708359,0.315979c0.5416813,0.7222462-0.0902691,1.2639561-0.8125172,0.4965572
		c-0.4062672-0.3611336-0.7222471-0.7674026-1.0833712-1.1736317c-0.361124-0.1354237-0.7222376-0.2257309-1.0833521-0.3611526
		c0.5416708,0.8576698,1.1736307,1.7604733,1.8958788,2.6632786c0.7673817,0.9028053,0.2257004,1.7153435-0.7673826,0.6771126
		c-1.2639189-1.3542061-2.3021464-2.7084122-3.1146727-4.1077538c-1.1736407-0.5416908-2.3472905-1.2187843-3.5209217-2.0313206
		c-2.0764546-1.5347462-0.4514022-4.0626221,1.5798988-3.3403549c-1.0382271-5.5974045,1.0382276-10.9690809,4.4237356-14.2191668
		c3.8369112-3.7466226,9.7954111-5.5973859,15.7990465-4.4688702c-0.0902882-0.1354227-0.1805382-0.2256918-0.2708454-0.361114
		c-0.5868244-0.6771135,0.0451527-1.2639384,0.8125362-0.4965563c0.3611145,0.4062681,0.7222481,0.8125358,1.0382271,1.2187848
		c0.3611145,0.0902877,0.7222481,0.2257104,1.0833626,0.3159986C27.454792,5.5271978,26.8679657,4.6695275,26.100584,3.766742
		c-0.7222481-0.9479394-0.2256908-1.7604942,0.7673817-0.6771324c1.3090744,1.309073,2.3472824,2.7084336,3.1598377,4.1077561
		C31.2014332,7.7390757,32.3750839,8.4161501,33.5035591,9.2287054L33.5035591,9.2287054z M30.1632252,11.3051414
		c-0.2708454-0.2257109-0.5868244-0.4062681-0.9028053-0.5868254c0.1353855,0.4062681,0.2256927,0.8576698,0.3159809,1.3090725
		c0.1354218,0.0902691,0.315979,0.1805573,0.4514027,0.31598c0.1805553,0.1354227,0.3611126,0.2708454,0.4514008,0.4514027
		C30.4340324,12.2982149,30.2986279,11.8016777,30.1632252,11.3051414L30.1632252,11.3051414z M27.6805019,9.8155308
		c-6.8161507-3.1598363-13.7226095-0.2708454-16.7470036,2.2118578c-2.3021469,1.8958597-4.5140052,5.3716745-4.5591588,9.7954111
		c0.2257109-0.1805763,0.5868249-0.2708263,0.9479585-0.2708263c0.3159795-3.2952385,1.8507442-6.4099216,4.1980247-8.6217794
		c3.746623-3.4758158,10.8787727-4.7848692,16.5212936-1.8507633C27.9513474,10.6731625,27.8159256,10.2217598,27.6805019,9.8155308
		L27.6805019,9.8155308z M6.5548964,24.1700802c0.0902882,0.4514027,0.1805763,0.9930935,0.315999,1.4444771
		c0.31598,0.225729,0.6319499,0.4514027,0.9027858,0.6319599c-0.1354036-0.4514027-0.2256918-0.8576317-0.2708359-1.3090343
		c-0.1805472-0.0902882-0.3159699-0.2257309-0.4514022-0.316C6.8708954,24.4860611,6.6903191,24.3506565,6.5548964,24.1700802
		L6.5548964,24.1700802z M9.3987341,27.1493206c6.7710161,3.1598377,13.6774759,0.2257309,16.7018509-2.2570114
		c2.302166-1.8958778,4.5591774-5.32654,4.5591774-9.7954111c-0.225729,0.1805573-0.5868244,0.31598-0.9479389,0.2708454
		c-0.2708454,3.2952394-1.8056278,6.4550562-4.1980629,8.6669149c-3.7466221,3.4306622-10.8336391,4.7397156-16.4761391,1.8507633
		C9.1278887,26.2916889,9.2633114,26.6979198,9.3987341,27.1493206L9.3987341,27.1493206z M8.676486,22.0484924
		c0.0902786,0.0902882,0.1805668,0.1354218,0.2708454,0.2257099c5.5522413,4.6945629,12.9552279,2.1215897,15.6185083,0.1354218
		c1.9861469-1.5347824,3.6112003-4.2431774,3.8369102-7.5383978c-0.0902882-0.0451736-0.2257099-0.1354227-0.315979-0.2257299
		c-5.5070992-4.6494093-12.9552479-2.076436-15.5733547-0.09025C10.5272493,16.044857,8.9021969,18.7983875,8.676486,22.0484924
		L8.676486,22.0484924z"/>
</g>
<g id="Слой_2" class="st52">
</g>
</svg>
