<?xml version="1.0" encoding="utf-8"?>
<!-- Generator: Adobe Illustrator 19.1.1, SVG Export Plug-In . SVG Version: 6.00 Build 0)  -->
<svg version="1.1" xmlns="http://www.w3.org/2000/svg" xmlns:xlink="http://www.w3.org/1999/xlink" x="0px" y="0px" width="37px"
	 height="37px" viewBox="0 0 37 37" style="enable-background:new 0 0 37 37;" xml:space="preserve">
<style type="text/css">
	.st0{fill:#BE2B25;}
	.st1{fill-rule:evenodd;clip-rule:evenodd;fill:#FCC200;}
	.st2{fill-rule:evenodd;clip-rule:evenodd;fill:#A7D4E9;}
	.st3{fill-rule:evenodd;clip-rule:evenodd;fill:#184E9B;}
	.st4{fill-rule:evenodd;clip-rule:evenodd;fill:#575756;}
	.st5{fill:#211F1F;}
	.st6{fill:#FFE512;}
	.st7{fill:#FF0014;}
	.st8{fill:#ED1A2E;}
	.st9{fill-rule:evenodd;clip-rule:evenodd;fill:#FFFFFF;}
	.st10{fill-rule:evenodd;clip-rule:evenodd;fill:#1D1D1B;}
	.st11{fill-rule:evenodd;clip-rule:evenodd;fill:#62B12F;}
	.st12{fill:#FF9900;}
	.st13{fill-rule:evenodd;clip-rule:evenodd;fill:#003671;}
	.st14{fill:#005098;}
	.st15{fill:#F6A500;}
	.st16{fill:#12100B;}
	.st17{fill:#B8182B;}
	.st18{fill:#AE1F31;}
	.st19{fill:#88BF52;}
	.st20{fill:#FEFEFE;}
	.st21{opacity:0.35;}
	.st22{fill:none;}
	.st23{fill:#2A408A;}
	.st24{fill:#F8AC18;}
	.st25{fill:#37A2B8;}
	.st26{fill:#EF3E36;}
	.st27{fill:#073986;}
	.st28{fill:#FF590D;}
	.st29{fill:#005DA7;}
	.st30{fill:#3D1061;}
	.st31{fill:#FFFFFF;}
	.st32{fill:#FFAA1C;}
	.st33{fill:#CEBFAA;}
	.st34{fill:#FE0000;}
	.st35{fill:#2051A8;}
	.st36{fill:#526BAA;}
	.st37{fill:#034F90;}
	.st38{fill:#144C9B;}
	.st39{fill:#F39722;}
	.st40{fill:#147D41;}
	.st41{fill-rule:evenodd;clip-rule:evenodd;fill:#F9B41D;}
	.st42{fill-rule:evenodd;clip-rule:evenodd;fill:#E30520;}
	.st43{fill:#EFA55A;}
	.st44{fill:#737373;}
	.st45{fill:#84ACDD;}
	.st46{fill:#94CE84;}
	.st47{fill:#A583B5;}
	.st48{fill:#FFDE63;}
	.st49{fill:#FF6D00;}
	.st50{fill:#0038A5;}
	.st51{fill:#222222;}
	.st52{display:none;}
</style>
<g id="Слой_1">
	<g>
		<path class="st5" d="M3.7503819,25.9630527c-0.0054452,0.4421234,0.048377,0.8821316,0.0957053,1.3173599
			c0.0034959,0.0887394,0.0310977,0.2091351,0.0517945,0.2959957c0,0.062685,0.0612252,0.2106743,0.0681212,0.2817154
			c0.0157497,0.075016,0.0641356,0.1707306,0.0937648,0.2422523l0.034987,0.0606384l0.0019579,0.0177956l0.0241842,0.0572319
			v0.0034866l0.0296383,0.0349865h0.004868l0.0193248,0.0676327h0.0122538l0.0331168,0.0508232v0.01721h0.0069046
			l0.0295591,0.0331249l0.0469174,0.0591812l0.0034175,0.0014591h0.0034876l0.0384831,0.0522747h0.006896l0.0349956,0.0331249
			v0.0138111h0.0153394l0.0370145,0.0473194H4.451478v0.0103912l0.0419006,0.0379944h0.0034871l0.0557714,0.0364628
			l0.0556927,0.038475l0.0034871,0.0103931h0.0103836l0.0537524,0.0365238l0.0488663,0.0211964h0.0172181l0.0577207,0.0434303
			h0.0103917c0.1095152,0.067543,0.2264242,0.1218548,0.3552637,0.135664
			c0.0591798,0.0419712,0.2397351,0.0626774,0.3097968,0.0992107c0.1617985-0.0089417,0.1322565,0.0503349,0.290638,0.0349865
			l0.0014596,0.0083561c0.2387652,0.0143776,0.4819965,0.0177784,0.7208314,0l0.0710406-0.0083561h0.0611291l0.0557714-0.0177765
			c0.0434389,0.0020275,0.0764856-0.0187664,0.1218648-0.01721c0.1199069-0.0242023,0.2955065-0.1165066,0.4055982-0.1288395
			v-0.0103226l0.0798769-0.0281696l0.0069046-0.0152607L7.361846,28.916441l0.0069833-0.013792h0.0083642
			c0.0769577-0.0557804,0.2230153-0.128849,0.2856827-0.186079v-0.0142994l0.0522838-0.0310898v-0.010313l0.05724-0.0434208
			h0.0103045l0.021265-0.0350742H7.81777l0.0345063-0.0502663h0.0089326l0.0315871-0.0296192v-0.017786h0.0048685
			c0.0488753-0.0641365,0.083941-0.1302204,0.1238837-0.1983242l0.006896-0.0118618h0.0014687l0.0280819-0.0384731v-0.01721
			l0.027689-0.0578175l0.0138006-0.0364456h0.0054455c-0.0054455-0.0799637,0.0487881-0.0661545,0.0384741-0.1811142
			l0.010314-0.0138111c0-0.0833626,0.0331249-0.1218548,0.0262203-0.2071857l0.0034084-0.0676231
			c0.0069046-0.2525578-0.0088453-0.4090061-0.0468388-0.6596146c-0.0612164-0.3937473-0.1742187-0.7731152-0.2437119-1.1697731
			c-0.0769663-0.5516548-0.0647125-1.0060329-0.0108814-1.5595589c0.0439196-0.3009434,0.0734615-0.6039219,0.1396337-0.9048748
			c0.0364466-0.1499386,0.0729809-0.2994823,0.1218557-0.4474907l0.0172968-0.0660839
			c0.022646-0.0937653,0.0867815-0.2333984,0.1010723-0.3187122l0.0138884-0.0104084
			c-0.0138884,1.1574574,0.0033998,2.1930408,0.2244654,3.3347225h0.0034094l0.0089321,0.0474072v0.0103207l0.0187473,0.0676155
			l0.0261507,0.0453873v0.0138016c0.0088453,0.0957127,0.0522757,0.1307011,0.0749302,0.2141609h0.0103922v0.0192451
			l0.0138006,0.0280914l0.0103922,0.0069046l0.0142813,0.0365257h0.0118608l0.0073853,0.0138092l0.0256529,0.0349789v0.0187569
			H8.729558l0.0295506,0.0384827h0.0039768l0.0365343,0.0365257l0.006896,0.0137997l0.0330372,0.0177879l0.0138102,0.0172863
			l0.0296288,0.0364571h0.0088453l0.0399513,0.0276794l0.0103836,0.0034084h0.003417l0.0469179,0.0474167H9.00282
			l0.0384836,0.0206966h0.0034876l0.0503349,0.0296288l0.010313,0.0138016l0.0508242,0.0211945l0.0676146,0.0276108h0.0142899
			l0.0607357,0.019228h0.0033998l0.0365343,0.0311069h0.0034962l0.0749302,0.0103817v0.0123425
			c0.126811,0.015749,0.2003603,0.0660763,0.3098755,0.0784264v0.0069046
			c0.1968727,0.0276794,0.3305893,0.0923042,0.5412636,0.0784245c0.2036905,0.0241852,0.2767496-0.0019569,0.4646912,0v-0.0034161
			h0.0538301l0.0522842-0.0192375h0.006896l0.0488758-0.0104008h0.010313l0.0522747-0.0176907h0.0034962l0.0537348-0.0138798
			h0.0143776l0.0483074-0.0207043h0.0158195l0.0384836-0.0157509h0.0083647l0.0577202-0.0276794h0.0138006l0.0591888-0.0211868
			l0.0503349-0.0261517h0.0034876l0.0522833-0.0275917l0.0158195-0.0138969l0.0591888-0.019228h0.0034094l0.0365334-0.0276108
			h0.0069056v-0.0142899l0.0577202-0.0207062v-0.0158195h0.0034866c0.1026192-0.062685,0.1075659-0.0572395,0.1894007-0.137125
			h0.0034962l0.0034084-0.0123425c0.0419712-0.0330372,0.1396427-0.1253433,0.1673231-0.167244h0.0014591v-0.0103741
			l0.0404329-0.0365429l0.0276794-0.0384827v-0.0103054l0.0384836-0.0538311v-0.0137997l0.0414019-0.0473194l0.0142908-0.0414982
			h0.0049467v-0.0088367l0.0261507-0.052372l0.006896-0.015749l0.0281782-0.044899V25.978384l0.024106-0.0676155h0.0034876
			c0.3586712-1.0459843-0.33253-2.0918732-0.1253433-3.1610718c0.1426401,0.0296288,0.2003603,0.0700626,0.3187199,0.0977421
			l0.0557804,0.0276184c0.0641356,0.0177689,0.1790953,0.0508156,0.2382669,0.0750008h0.0242014
			c0.0907583,0.0503349,0.1795769,0.0384922,0.2890997,0.0922356l0.0453796,0.0069046
			c0.0745277,0.026125,0.1963835,0.0543118,0.2625475,0.0784168h0.0122538l0.0089321,0.0123405l0.0695724,0.0138798
			c0.050334,0.0157585,0.0957222,0.0418835,0.1494656,0.0418835l0.0158291,0.0104008h0.0034084l0.0764771,0.0049553
			l0.0207052,0.0142899l0.0557718,0.01721l0.0769567,0.0310898h0.0207062l0.0365343,0.0034962l0.0241928,0.0404148h0.006896
			c0.7139349,1.0632725,0.9541597,2.7130928,1.199419,3.9628372c0.2402248,1.2339172,0.3966656,2.4648438,0.6803207,3.6864891
			h0.0108814c0.0187473,0.1307201,0.048377,0.2299118,0.0799637,0.3532276l0.006896,0.0296478v0.0172081l0.0157585,0.0350742
			l0.0118437,0.0434303l0.0108814,0.0508156l0.0172091,0.0345078v0.0172882l0.0034962,0.0364552l0.0172882,0.0350647
			c0.0192375,0.1253529,0.0542336,0.1860008,0.0853214,0.3152504c0.0296383,0.1405945,0.0750179,0.2713928,0.1114655,0.4090004
			h0.0034943c0.041893,0.1179581,0.0868702,0.2175789,0.1164112,0.3355255h0.0035057l0.0330296,0.0922356l0.0261497,0.0750084
			h0.0034885l0.0349865,0.0942535l0.0345058,0.0675468l0.0108814,0.0138779l0.0310974,0.0784264h0.0054379l0.0172882,0.0542259
			l0.0241051,0.0517921h0.0034962l0.0370235,0.0750275l0.0034084,0.006897l0.0469265,0.0646248v0.0118523h0.0034084
			l0.0419693,0.081913h0.001461l0.0034161,0.0069046l0.0454578,0.0522728l0.0344982,0.0400314l0.0473366,0.0680237
			l0.0015392,0.006897h0.0019493l0.0522842,0.0607452h0.0118504v0.0142822l0.0508251,0.0330353l0.0483074,0.0557747v0.0118599
			l0.0543118,0.034977l0.0083542,0.0173073l0.0108814,0.0137978l0.051796,0.0365372l0.0591793,0.043911l0.0123405,0.0068932
			l0.0503349,0.0379944l0.0054379,0.0142899h0.0034962c0.2155418,0.1213837,0.3201885,0.208725,0.5727444,0.2852097h0.0104008
			V34.29813c0.4351406,0.1811218,0.8771858,0.2472076,1.3434334,0.2472076h0.1707306l0.0798855-0.0206985
			c0.1949158,0.006897,0.2526436-0.0246887,0.414444-0.0503349l0.0192356-0.0177841h0.0138016l0.0661716-0.0296288
			l0.0798779-0.0069046h0.0207844l0.0665741-0.0413933l0.0695705-0.0227432h0.0118523l0.0784264-0.04879l0.0557804-0.0192375
			h0.0103035v-0.0069046l0.0488758-0.0138779l0.0641365-0.0364571l0.0681038-0.0453758l0.0034161-0.0104027h0.0034885
			c0.0557709-0.0227165,0.2313709-0.163826,0.2836628-0.2106552h0.0103836l0.0019493-0.0138206
			c0.0937729-0.0730476,0.1199074-0.1341972,0.1859913-0.2210579l0.0296383-0.0192337v-0.0138016l0.0142899-0.0142822
			l0.0206966-0.043438l0.0331173-0.0557709l0.0048771-0.0152626l0.0336151-0.0522842l0.010313-0.0192451l0.0172787-0.0488739
			l0.0207157-0.0503349h0.0089226v-0.0172882l0.0206966-0.0507393v-0.0276871l0.0103149-0.0123405
			c0.0281773-0.1060295,0.0419693-0.1391449,0.0474148-0.252079c0.0118599-0.0488739-0.0034962-0.1534348,0.0034084-0.2037697
			c0.0034885-0.0695801-0.0034084-0.118454-0.0034084-0.1880264h-0.0069046
			c-0.0246735-0.1479912-0.043911-0.2974548-0.0804443-0.4420433h-0.003418l-0.0172977-0.0872726H21.068306
			c-0.4227982-1.4302998-0.6822605-2.5251522-0.8564892-4.028923c-0.2155418-1.6587429-0.4543858-3.1329632,0.327095-4.6944637
			c0.571373,1.6710148,0.6789398,3.4723206,1.2758865,5.2110462h0.0103931
			c0.043911,0.1864796,0.0577202,0.2161007,0.1327286,0.3778992v0.0103226
			c0.0572395,0.0612087,0.0779438,0.1307793,0.1337166,0.1968555v0.0104103h0.0069046l0.0364456,0.0399246l0.0296383,0.0384922
			l0.0419712,0.0538216h0.0033989c0.0468483,0.0502567,0.0923061,0.1010818,0.1534443,0.1356659
			c0.0483856,0.0453701,0.1075649,0.0764694,0.1598492,0.1130028l0.0538216,0.0330372l0.0453892,0.0211868l0.0468388,0.0434399
			h0.0123405l0.0626755,0.0349941c0.0646267,0.0138016,0.1149616,0.0552826,0.1795769,0.0676155l0.0468426,0.0296459h0.0118561
			l0.0665703,0.0314999l0.0711193,0.0207844h0.0034084c0.0695724,0.022646,0.2126198,0.064127,0.2837334,0.0715218
			l0.0468483,0.0206966H23.46665l0.0715218,0.0089226l0.0660839,0.01721h0.0138893
			c0.3097973,0.0365353,0.5116158,0.0538406,0.821413,0.027689h0.0315838l0.0538254-0.0138798
			c0.1079674-0.0123501,0.187933,0,0.2856007-0.0606384l0.0483856-0.0108814h0.0123444l0.0503273-0.0103149l0.0556965-0.0242004
			h0.0103874l0.0542374-0.026125l0.041481-0.0104008h0.0088463l0.0523701-0.0246735h0.0122547l0.006979-0.01721l0.044899-0.0158463
			l0.0453835-0.0275917l0.0138035-0.006897l0.0508213-0.0261497l0.0137959-0.0172882l0.0227375-0.0034885l0.0606403-0.0349941
			l0.0034962-0.0158215l0.0364513-0.0276184l0.0419693-0.0211868l0.006897-0.0207844h0.0088482l0.0419712-0.0330276v-0.0172272
			h0.0083637l0.0350742-0.0365257l0.024107-0.0211945l0.0103951-0.0172806h0.0034924l0.039938-0.0538387h0.0073948
			l0.0138016-0.0034008l0.0365334-0.0612164l0.0034046-0.01721l0.034584-0.0538216l0.0073853-0.0068951l0.0069065-0.0108833
			l0.0330372-0.0853291h0.0103912c0.0434361-0.0833645,0.0488758-0.1336994,0.0750179-0.2210674h0.0069008
			c0.0103092-0.1040688,0.0364513-0.2278748,0.0330429-0.3354397h0.0034084
			c-0.2856007-1.69034-0.8392048-3.1783695-1.0355892-5.0388546c-0.2594624-1.8087082-0.6961479-3.302166-1.2373199-5.0338974
			h-0.0039768l-0.0172939-0.0607357H23.651186c-0.1287651-0.4055119-0.2664528-0.8391838-0.4317474-1.2270031h-0.006897
			l-0.0261459-0.0660858l-0.0192375-0.0646248h-0.0103874v-0.0118599l-0.022646-0.045372l-0.0138054-0.0330467
			c0.4667282,0.3166943,1.0493813,0.6665287,1.5541019,0.9137192c0.2264271,0.1321697,0.5728416,0.3182487,0.8185024,0.4178619
			l0.058691,0.0448895h0.0039768l0.060648,0.0192451l0.0538273,0.0276814l0.0557709,0.0245953l0.0542278,0.026228
			l0.0660858,0.0206966l0.0483894,0.0280914c0.0700626,0.0503445,0.1761684,0.0572491,0.245657,0.111063l0.0750179,0.0246029
			h0.0034962v0.0172882l0.067543,0.0227242l0.0764732,0.0276108h0.0158329l0.0680294,0.0296288l0.0661583,0.0349884h0.003418
			l0.0592632,0.0069046l0.050251,0.0261497l0.0172939,0.013792h0.0034866
			c0.1499519,0.0419788,0.2140865,0.0681133,0.3537254,0.1203976h0.0068951l0.0538273,0.0222435
			c0.1045628,0.0068951,0.2644176,0.0769653,0.3793736,0.081913c0.1095142,0.0453796,0.2856865,0.0433598,0.3690643,0.078434
			h0.0503292l0.0769672,0.0138016h0.0483036l0.0453835,0.0172787c0.0488701,0.0034084,0.0977459-0.0084343,0.1426353,0.0108128
			c0.1356602-0.003418,0.2560577,0.0103817,0.390255,0.0049381c0.1164188-0.0102959,0.1509209,0.0035038,0.2693691-0.0157509
			l0.081913-0.0172787c0.1129284-0.0104008,0.2086411-0.0676327,0.3187294-0.0922356h0.0083599l0.0034084-0.0103931
			l0.0385609-0.0103817l0.0453835-0.022646l0.0448952-0.0138111l0.014286-0.017786h0.003418l0.0448895-0.0172787h0.0074673
			l0.0433559-0.0261517l0.0345802-0.0344963l0.0473328-0.0192471l0.044899-0.0241833l0.0434303-0.0281792l0.0488758-0.0330372
			l0.0034046-0.0069046l0.0439224-0.0276031h0.0034924l0.0034084-0.0108719l0.0310936-0.0118599l0.0399418-0.0280914
			l0.0453854-0.0310898l0.006979-0.0123405l0.0522823-0.0418911l0.034502-0.0434399l0.0404282-0.0206871v-0.0104008
			l0.0557709-0.0365353c0.069582-0.081913,0.1441097-0.1534348,0.2156315-0.2353382h0.0069046
			c0.0280819-0.0922356,0.15839-0.1914463,0.2279606-0.3201885h0.01721c0.047411-0.1026287,0.1569309-0.2175884,0.2250443-0.3394451
			l0.0399418-0.064127l0.0483036-0.0715199v-0.0104008l0.0336132-0.0646248l0.0483036-0.0572319v-0.0069046h0.0034924
			c0.0872707-0.163826,0.203764-0.3083363,0.2787037-0.4805183h0.0103874
			c0.1233234-0.2190399,0.2506161-0.4401054,0.3740158-0.6611633c0.0487919-0.1252728,0.1272964-0.2387733,0.1829891-0.3620892
			l0.041975-0.0730677l0.0330372-0.0784178l0.0468483-0.0681038l0.0345802-0.0695801l0.0364552-0.0764856v-0.0034094h0.0034866
			c0.0715237-0.1687822,0.1795788-0.3552628,0.2526493-0.5412464c0.1045609-0.2037773,0.1983299-0.4440022,0.2925034-0.6527271
			h0.0034943c0.0779305-0.1445808,0.20718-0.3863525,0.2575111-0.5466833h0.0034981l0.0157471-0.0414019l0.0187531-0.0681124
			l0.0158348-0.0330553l0.0246773-0.0453796h0.006897c0.0867882-0.3182306,0.2121353-0.630064,0.2363243-0.9675503
			c0.0315819-0.1795759,0.0108032-0.3344698-0.0153427-0.5100698h-0.006897l-0.0069084-0.0310974l-0.0108719-0.0108728v-0.0138006
			l-0.0034142-0.0227337l-0.0069008-0.0207052l-0.0123405-0.0384922l-0.0138016-0.0187473l-0.0138779-0.017787l-0.0138016-0.0206881
			c-0.0384827-0.0488749,0.0207787-0.0261421-0.055687-0.0784254v-0.0138006l-0.0158348-0.0261507H32.92313l-0.0211906-0.0069752
			l-0.0192451-0.0310192l-0.0221558-0.0227156l-0.0281754-0.0177946l-0.0123367-0.006896l-0.003418-0.0172882h-0.0118446
			l-0.0192375-0.0103054h-0.0034981l-0.0157509-0.0054445l-0.0103912-0.0172968l-0.0434303-0.0487881l-0.0088501-0.0158377
			h-0.0034904l-0.050251-0.0517941l-0.0315819-0.0330296v-0.017786h-0.0049515l-0.0123444-0.0138102l-0.0488739-0.0330286
			l-0.0453758-0.034585l-0.0069046-0.0177078h-0.0069008l-0.0537376-0.0331259l-0.0503349-0.0453787h-0.0034943
			l-0.0088501-0.0049562l-0.0522804-0.0314989l-0.0523682-0.0345764h-0.0137939l-0.0019531-0.0123329
			c-0.0676308-0.0242014-0.15839-0.0660849-0.2225227-0.1026278l-0.0715256-0.0275927h-0.0083599l-0.0647049-0.0227413
			l-0.067543-0.0280828l-0.008934-0.0104008l-0.0680332-0.0157499l-0.0695724-0.0241842h-0.0034962l-0.0695705-0.0276098
			l-0.0749302-0.0227251h-0.0049553c-0.1356583-0.0108814-0.3049297-0.0991316-0.473629-0.1134911
			c-0.6458187-0.1529627-1.3069801-0.2802467-1.939003-0.481988c-0.3078423-0.069581-0.6018887-0.1880369-0.8999176-0.2925959
			l-0.0641365-0.0172882l-0.0246811-0.0206966h-0.0048695l-0.0103912-0.0069056h-0.0211906l-0.0710354-0.0261507
			c-0.1431255-0.0695629-0.3587513-0.1460485-0.5170593-0.2175608l-0.0695801-0.0207148l-0.0206966-0.0108728L27.3638096,9.702939
			h-0.0034962l-0.050251-0.0572395l-0.0750122-0.0488749c-0.0819187-0.0591803-0.1618824-0.1287527-0.2595501-0.1686954
			c-0.1721916-0.1184473-0.4716778-0.3098755-0.6562061-0.3986931v-0.010313l-0.0364552-0.0172882h-0.0034885L26.237463,8.9614019
			l-0.06073-0.0207834c-0.083374-0.0487881-0.1445866-0.0729809-0.2279625-0.1218567l-0.0433521-0.0344973l-0.0750179-0.0330467
			l-0.0750122-0.0281696l-0.0468426-0.022646l-0.0503349-0.0661726c-0.1026192-0.0936775-0.1445904-0.1706438-0.2318611-0.2679043
			c-0.2659645-0.3601408-0.4159031-0.5954885-0.5673962-1.0197468c-0.1460533-0.4232974-0.2782974-0.8426962-0.4055939-1.2813416
			c-0.0695724-0.1983237-0.1164207-0.4400954-0.1928883-0.6389093l-0.0172977-0.0710316L24.22052,5.2906709l-0.0034866-0.0448895
			V5.2348909l-0.022646-0.0537348c-0.0626812-0.1234117-0.0488758-0.1707311-0.0977516-0.2891002h-0.0048676
			c-0.0488758-0.1949239-0.1500301-0.3932567-0.191433-0.5742927h-0.0034866
			c-0.0734787-0.1737471-0.1622925-0.3774288-0.2284603-0.5535965l-0.0330353-0.0517945l-0.0138035-0.0405107V3.6546521
			l-0.0241985-0.0296381l-0.0280819-0.0413938V3.5692339l-0.0227337-0.0330291l-0.0152683-0.0345151l-0.0088463-0.0177689
			l-0.022728-0.0434301l-0.0192375-0.0330555l-0.0261459-0.0344889h-0.006897l-0.0448971-0.0716171h-0.0034924l-0.0330429-0.0433428
			l-0.0473328-0.0646338l-0.0084381-0.0138795h-0.0068951l-0.0192509-0.0344887h-0.0103054L23.222929,3.1079519
			l-0.0034904-0.0172882h-0.006897l-0.0068951-0.0138006l-0.0350742-0.0241144l-0.0207062-0.0123413l-0.0295467-0.0281696
			l-0.0069046-0.0103047h-0.0103874L23.041811,2.9619117l-0.0261383-0.0207143h-0.01721
			c-0.1041603-0.0715213-0.0310917-0.0192285-0.1115513-0.0503349H22.876524l-0.0537434-0.028091h-0.0157585l-0.0626678-0.0103922
			h-0.0172958l-0.0172882-0.0138009h-0.0034084c-0.0923061-0.0157411-0.1692715-0.0054364-0.262949-0.0088363
			c-0.0261517,0-0.109602,0.0123413-0.1376934,0.0226371h-0.0103931l-0.0295582,0.0103922h-0.006897l-0.0522747,0.0103221
			l-0.0069828,0.0177689h-0.0069065l-0.0468388,0.0103922l-0.0108814,0.015269h-0.010313L22.1093349,2.930814l-0.0487957,0.0103834
			v0.0138009h-0.0177689l-0.0365353,0.0207143l-0.010313,0.0158198l-0.038002,0.0207055l-0.0158195,0.0177863h-0.0157509
			l-0.0172958,0.0227246l-0.0157509,0.0172095l-0.0123405,0.0069048h-0.0034885l-0.0152683,0.0310888h-0.0143604
			L21.842968,3.1202931v0.0034959l-0.0400219,0.0418832h-0.0034084l-0.0073929,0.0138006L21.761055,3.222903l-0.0138092,0.0069048
			l-0.0192375,0.0405109l-0.0138798,0.0138009l-0.0295506,0.0537436l-0.0211868,0.0207143l-0.0103912,0.0454578l-0.006897,0.0033998
			h-0.0158367V3.419785l-0.0295506,0.0522752l-0.0310974,0.0641446h-0.0068951v0.0142901l-0.03158,0.0607183l-0.0310974,0.0606484
			l-0.0350742,0.0854092L21.438839,3.8322706h-0.0034084l-0.0069046,0.0138094l-0.0241947,0.0542331l-0.0034866,0.0172882H21.39394
			l-0.0280819,0.0715299h-0.0014687c-0.0405102,0.1006696-0.0750179,0.1914279-0.1031075,0.2940471h-0.0103836
			c-0.0345078,0.1618862-0.1218567,0.3512864-0.1791058,0.5061717c-0.0764675-0.1928878-0.1864719-0.4297037-0.2451706-0.6280365
			c-0.0508251-0.1080465-0.0700626-0.2244663-0.106596-0.3290429l-0.0138016-0.0419705l-0.0192356-0.0537436l-0.0153484-0.0503261
			l-0.0192375-0.0488753l-0.0088444-0.0399427v-0.013792l-0.0296383-0.0331254l-0.0083656-0.0488052h-0.0073853
			l-0.0103912-0.0611989l-0.022646-0.0330555l-0.0069828-0.0033998l-0.0152607-0.0454578
			c-0.0211964-0.093704-0.0542336-0.114392-0.0907669-0.1997926C20.419075,3.0995874,20.3806,3.0473034,20.3509712,2.9915323
			l-0.0399513-0.0503349h-0.0034885L20.2972279,2.930814l-0.0419807-0.0399516l-0.0068951-0.0177689h-0.0069046
			l-0.0296307-0.0345151l-0.0172081-0.0088363H20.187624l-0.0433502-0.0419705h-0.0034885l-0.0439281-0.0276191
			l-0.0034084-0.0123324h-0.0118523l-0.0399418-0.0241928l-0.021265-0.0069048h-0.015749l-0.0069065-0.0211861l-0.0522823-0.022244
			H19.928154L19.9089165,2.662411l-0.064127-0.006896h-0.0034962l-0.0069046-0.0137923h-0.0177765l-0.0552044-0.0173056h-0.0108814
			l-0.0365334-0.0103133h-0.0833645c-0.1183777-0.043911-0.167244,0.0138183-0.2767677,0v0.0103133h-0.0537434L19.237442,2.6417227
			h-0.0054379L19.2147179,2.655515l-0.0680351,0.006896L19.117054,2.6732924h-0.0069046l-0.0206966,0.0104008l-0.0503349,0.0330293
			h-0.0073853l-0.0449867,0.0069048h-0.0033989l-0.069582,0.0365252h-0.0108814l-0.0034084,0.0172184l-0.0261326,0.0104008
			l-0.0518036,0.0419705l-0.0108738,0.0088363h-0.0137997l-0.0296383,0.024193l-0.0453796,0.0384831l-0.0172882,0.015269h-0.0034084
			l-0.0192451,0.0246737l-0.0522842,0.0503349h-0.0103931l-0.0014591,0.0104008l-0.024683,0.028091l-0.0399418,0.046839h-0.0034885
			c-0.0241928,0.0957053-0.0557709,0.0557799-0.092226,0.1529448l-0.0034962,0.0177863v0.0103922l-0.0379925,0.0433428
			L18.401659,3.3378632v0.006896l-0.0261421,0.062676h-0.0069046l-0.0276814,0.0764856l-0.015749,0.0700614l-0.0296383,0.0833728
			v0.0138097l-0.0049458,0.0034873l-0.0034103,0.0315783l-0.0142899,0.0503261v0.0207143
			c-0.027689,0.1099956-0.0503349,0.2126145-0.0779362,0.3221292c-0.0193253,0.2244835-0.0419712,0.4524369-0.0750084,0.6735034
			c-0.0330467,0.3793774-0.0785046,0.757278-0.1218643,1.1347151c-0.0922966,0.9314971-0.2279625,1.8625216-0.2891788,2.7989745
			h-0.0048695c-0.1307793,1.2324572,0.1109753,2.4766779-0.078495,3.698822l-0.0123501-0.0143604l0.0123501-0.0138006
			l-0.0123501,0.0138006v0.0143604l-0.0330372,0.0468473h-0.0103149l-0.0331154,0.0676317l-0.0069046,0.0107946
			l-0.0138016,0.0104008l-0.0142899,0.0296202l-0.0172882,0.0345068l-0.0261421,0.0508242l-0.0310974,0.0641356
			l-0.0211868,0.0488749c-0.0710316,0.1445026-0.1425533,0.2905598-0.2175789,0.435132
			c-0.0607185,0.148015-0.1544132,0.2782269-0.2101841,0.4282618l-0.0261326,0.0434294l-0.0158386,0.0310106l-0.0192356,0.0262289
			l-0.001461,0.0314999v0.003479l-0.0330372,0.0676317l-0.0192471,0.06112v0.0138102H16.852911
			c-0.006897,0.071599-0.006897,0.1342058-0.006897,0.2037687h-0.2471294l-0.0612068-0.0211859
			c-0.1460571,0.0108728-0.2348766-0.0152607-0.3690739-0.0118437c-0.2679043-0.0019484-0.5081291-0.0399599-0.7676697-0.0488749
			c-0.4593325-0.0364637-0.9186831-0.0646248-1.3764782-0.1149597c-0.4055977-0.0083733-0.8338337-0.0675449-1.2477961-0.0818348
			c-0.2284517-0.0276804-0.4647779-0.0242014-0.6892529-0.0538311c-0.2422523-0.0207052-0.4839373-0.0054359-0.7138567-0.0275927
			c-0.1963844,0.0068874-0.4021025-0.0315781-0.6093588-0.0330467c-0.203289-0.0089331-0.3947172-0.0488758-0.5984945-0.068121
			c-0.1095152-0.0206881-0.2209787-0.013792-0.3290339-0.0453796c-0.0868692,0.0034084-0.167244-0.0399342-0.2521639-0.0434217
			l-0.0211868-0.0138178h-0.006896l-0.0157499-0.006896H9.533762l-0.0118608-0.006896H9.5198822l-0.0192451-0.021265
			l-0.0192375-0.0117731l-0.0083647-0.0350742l-0.0207052-0.0206966l-0.0177774-0.0123501L9.417264,13.3666868l-0.0261421-0.0330286
			c-0.4400959-0.708499-0.8826303-1.4238853-1.2477179-2.1718378H8.136508
			c-0.0557709-0.1327467-0.167244-0.2945366-0.2215552-0.4129925H7.9115438l-0.0187478-0.010313l-0.0143776-0.0365171
			l-0.0103135-0.0173054l-0.0158286-0.01721l-0.0310888-0.0330372H7.81777v-0.0143776l-0.0138006-0.0103054l-0.0177774-0.0400209
			H7.7827044l-0.0207057-0.0241146L7.7378149,10.517457H7.7309098v-0.0083647l-0.0261416-0.0034866l-0.0315785-0.0349874H7.6697807
			v-0.0172968l-0.0158372-0.0069046H7.6470389l-0.0275931-0.0261335H7.6016684l-0.0069046-0.0104008H7.5863991L7.582912,10.3921919
			H7.5725198l-0.0211864-0.0172873H7.5410199l-0.0172968-0.0054369H7.520236l-0.0142903-0.0138006H7.4837894l-0.0177865-0.0104008
			H7.4363737L7.422564,10.3383617c-0.0660758,0-0.1302118,0-0.1968646,0
			c-0.0330377-0.0019493-0.0641356,0.0138006-0.0991225,0.0069046l-0.0207844,0.0104008H7.0693374l-0.0241933,0.0138006
			l-0.024682,0.0054369H7.0121064l-0.0158286,0.0172873H6.9598222l-0.017786,0.0176907H6.937089l-0.0172882,0.0104008
			l-0.0261416,0.0138006H6.8882227L6.862072,10.4464169l-0.022646,0.0069046l-0.0207758,0.0172968H6.8029003l-0.0138092,0.0138006
			l-0.008924,0.0211868H6.7767496l-0.0187473,0.0034866L6.7421737,10.517457l-0.0034175,0.0104008H6.7244658l-0.0153303,0.0315695
			H6.6953259L6.6810446,10.587038H6.6691842l-0.0108728,0.0227242l-0.0103135,0.0103054l-0.0084429,0.024682l-0.0192461,0.0227327
			H6.6149597c-0.0104008,0.0591803-0.04003,0.048316-0.0414896,0.1198378H6.5625882
			c-0.0048766,0.0384741-0.006896,0.0785046-0.0138006,0.1149511l-0.006896,0.027689v0.043911L6.528091,11.0014811v0.088809
			l0.0138006,0.0226555v0.0488749c-0.0054364,0.0586996,0.0123324,0.0607185,0.006896,0.1179495h0.0069046
			c0.0103922,0.198822,0.0419707,0.3936672,0.0838628,0.585104h0.0034871
			c0.1109834,0.7484331,0.3320408,1.5803175,0.3947167,2.3252726H7.0273666
			c-0.0296292,0.0227242-0.0241928,0.0419788-0.0572395,0.0538216l-0.028091,0.0280828
			c-0.1041484,0.1040783-0.0971651,0.0296383-0.20328,0.1652946H6.7244658l-0.0015383,0.0172968
			c-0.0502563,0.0364466-0.0941668,0.0646257-0.1425614,0.1026192H6.5769572L6.5418916,14.608077H6.528091L6.4881392,14.658412
			L6.44276,14.7072086H6.4392729l-0.0468478,0.0538216H6.388938l-0.0142903,0.0103054l-0.0330381,0.0538216L6.291275,14.8931913
			H6.2858386l-0.0468478,0.0612164h-0.006896l-0.034585,0.0606394H6.1941013l-0.0474157,0.0592766l-0.0399427,0.0715208H6.0998378
			L6.075654,15.1823788L6.0613637,15.216876H6.0509629c-0.0399342,0.0695724-0.0695724,0.1465387-0.1218562,0.2071781
			c-0.0365343,0.0419703-0.0522838,0.1115599-0.0936775,0.1722002H5.831933L5.8003545,15.63132l-0.019237,0.0503349
			l-0.0310979,0.0522833c-0.0365338,0.0522928-0.069572,0.181036-0.1149597,0.2403126H5.617763l-0.0102963,0.0487785H5.603971
			c-0.104568,0.2452679-0.2175789,0.4455414-0.313293,0.7030544H5.2872691
			c-0.1845317,0.4731503-0.3517671,0.9606628-0.4702144,1.4549828H4.8101497
			c-0.0522838,0.240303-0.1095147,0.4474983-0.1479979,0.6926613H4.6552472
			C4.2669458,21.131464,3.8495831,23.6826706,3.7503819,25.9630527L3.7503819,25.9630527z"/>
		<path class="st6" d="M22.9515381,17.7632141v0.0123329l0.0192356,0.0626068l0.0192432,0.0612068l0.034584,0.064127v0.0296383
			l0.0088501,0.0103226h0.0034904c1.0301399,2.8822594,1.3750114,5.1834259,1.8846836,8.1702709h0.0053616
			c0.0434399,0.1806335,0.0730648,0.3616695,0.1253471,0.5392971c0,0.0626831,0.0853233,0.2871494,0.1045647,0.3641167
			l0.0310936,0.0744495l0.0138035,0.0646935l0.0227299,0.0744495l0.0192375,0.0715218l0.0242004,0.0647125v0.0172176
			c0.1011467,0.2486515,0.147995,0.5136356,0.2071781,0.7746544c0.0350761,0.2437115,0.0695763,0.5026836-0.033041,0.7340546
			c-0.0745335,0.2037792-0.0434399,0.0888271-0.1322536,0.2210674c-0.1129265,0.1218643-0.055687,0.0750256-0.1928921,0.156929
			c-0.0418835,0.0660763-0.3848095,0.1983433-0.4701405,0.2002907c-0.39674,0.0853233-0.8718357,0.0537262-1.2635403-0.0473442
			c-0.1638355-0.048378-0.1218567-0.0626774-0.2802467-0.0849113l-0.0784264-0.0370159l-0.0419712-0.0138092l-0.0448971-0.0468388
			l-0.0542297-0.0138092l-0.0414944-0.0172787l-0.0384731-0.0315971c-0.0868702-0.0819035-0.1825829-0.0833645-0.2299118-0.1790867
			c-0.1026192-0.0819035-0.1253529-0.0942459-0.1859913-0.2175694c-0.2141609-0.4055119-0.3671074-1.1401443-0.4943295-1.6015224
			c-0.2610092-0.9778538-0.4070568-1.9842892-0.6246281-2.9745026H21.261282
			c-0.041481-0.2003517-0.0972538-0.3966656-0.1598511-0.5915813l-0.0296383-0.0750179v-0.0206966l-0.0172787-0.0577297
			l-0.010313-0.0330276c-0.0177784-0.0488758-0.0962048-0.2294407-0.0923061-0.2624702h-0.0038986l-0.0257397-0.0715294
			L20.88727,23.0926285l-0.0276012-0.0814247L20.826622,22.967268h0.0068951l0.0468483-0.0537453
			c0.0453873-0.0799541,0.0764771-0.0626755,0.144598-0.1130009l0.0468292-0.0295601l0.0606499-0.021265l0.0592747-0.0572395
			l0.038475-0.0068951l0.0138016-0.01721h0.0172882l0.0211945-0.0108814l0.022646-0.013792l0.0103912-0.0104008l0.0379944-0.0157509
			c0.1080551-0.0296192,0.0577202-0.05723,0.1603394-0.0711098l0.0054359-0.0176907h0.0118599l0.0695724-0.0173054
			l0.1326599-0.2748089l-0.2368164-0.1465302h-0.0315876L21.39394,22.1181641l-0.0591793,0.0192471h-0.0157509l-0.0034962,0.0172958
			h-0.0103912l-0.0192375,0.0103836l-0.0487976,0.0138092l-0.0034866,0.0142822h-0.0034084l-0.0681133,0.0222435
			l-0.0118504,0.0176983h-0.0034084l-0.0315876,0.0207939h-0.0138016l-0.0296383,0.019228H21.068306l-0.0241051,0.006897
			l-0.0192375,0.0172176l-0.0192547,0.017786l-0.0331173,0.006897c-0.0833721,0.0503349-0.1829853,0.0695801-0.2525654,0.139143
			l-0.0103836,0.0138016l-0.0226536,0.0069122v0.0158215l-0.0227337,0.0137997h-0.0118523l-0.0434303,0.034996l-0.003418,0.0118599
			l-0.0474052,0.0557632h-0.003418l-0.0488663,0.0543118H20.504406l-0.0626774,0.07444v0.0069046h-0.0068951l-0.0384922,0.0508251
			l-0.0330391,0.0345764l-0.0049458,0.0123405l-0.0034084,0.0138187l-0.0439281,0.0522652l-0.0345764,0.0681305
			l-0.0384846,0.0606403l-0.0048676,0.0069046l-0.0384827,0.0784168l-0.0503349,0.0681038v0.0104008l-0.0315781,0.0675449
			l-0.0310993,0.0577202v0.0103912h-0.0068951c-0.1534424,0.3601227-0.2876396,0.738121-0.372551,1.124403h-0.003418
			l-0.0211868,0.0784264l-0.0103912,0.0745182h-0.0172882l-0.0138016,0.0922356l-0.0019569,0.0715904h-0.003479
			c-0.2106819,1.510685,0.163826,3.5508327,0.411026,5.0684052c0.0414028,0.1149521,0.0517941,0.4035625,0.0991306,0.4820671
			c-0.0123405,0.1026268,0.0365353,0.0867901,0.0468388,0.2175789c0.0207767,0.0922165,0.0331268,0.1390743,0.0503349,0.234787
			c0.0942554,0.3236675,0.183073,0.6666069,0.2906399,0.9818401c0.1045589,0.4317398,0.2718029,0.8787346,0.1948357,1.3227272
			c-0.0517941,0.3236771-0.2940464,0.5970345-0.5826492,0.7415276v0.0173073
			c-0.1218548,0.0468292-0.1864796,0.1026077-0.3498268,0.1534233c-0.1149597,0.0138016-0.2333183,0.0902863-0.3655682,0.0745392
			c-0.3862724,0.066082-0.50667,0.0137901-0.8688374,0c-0.5673885-0.1041679-1.1540222-0.3325424-1.5279636-0.7884636
			c-0.4227982-0.5846062-0.6735039-1.7474937-0.8599854-2.464426h-0.0034084
			c-0.1268024-0.5555458-0.2368155-1.1332378-0.3270845-1.7040443h-0.0123501
			c-0.2087154-1.3331356-0.4386272-2.6647949-0.7588158-3.9771271H15.065485
			c-0.0942631-0.3809261-0.2092142-0.7588348-0.3345661-1.1327591h-0.006896v-0.0089397l-0.0399427-0.0749302l-0.0350742-0.0784969
			l-0.0310898-0.0744476c-0.0384827-0.0799656-0.0715208-0.1618862-0.1183681-0.2388535v-0.0138016l-0.0419703-0.0606384
			l-0.0364561-0.0785046v-0.0207062l-0.0503254-0.0543118l-0.0069056-0.029541l-0.0241928-0.0207062l-0.0211945-0.0503349
			l-0.0310888-0.0522842h-0.0054455v-0.0138798l-0.0158195-0.0295506l-0.0502567-0.0612068h-0.0069923v-0.0069046h-0.0088358
			l-0.0399513-0.0606403h-0.006896l-0.0104008-0.0143852v-0.01721h-0.0103836l-0.0069046-0.0172806h-0.0034094l-0.0158281-0.0104008
			l-0.022646-0.015749l-0.0138092-0.0172882l-0.0177774-0.0142822v-0.0137997h-0.0103836l-0.038003-0.0365353l-0.047328-0.0242004
			l-0.250617-0.0177689l-0.044898-0.0117912h-0.0143604l-0.067544-0.0068874l-0.0034962-0.0143776
			c-0.1169004,0.010891-0.1045589-0.0537338-0.249157-0.0641346c-0.0957146-0.038475-0.2155342-0.0591812-0.3063793-0.08881
			l-0.0483074-0.0138092l-0.0419703-0.0172806l-0.0192461-0.0073853h-0.0310888l-0.0556927-0.0295506h-0.0227337
			L12.76091,22.5183182l-0.0453787-0.0206966l-0.0469351-0.0158215l-0.038475-0.0069122l-0.0364466-0.0138016l-0.0454664-0.0137997
			h-0.0345058v-0.0177689c-0.3360176-0.0853233-0.6458149-0.227972-0.9536715-0.370533
			c-0.1934643-0.0572395-0.3606901-0.1687031-0.541255-0.2540951c-0.1514759-0.0833912-0.3014317-0.1898899-0.4647779-0.2525673
			v-0.0153465c-0.0942459-0.0749302-0.2161102-0.0976715-0.3028917-0.181036l-0.066164-0.0330467
			c-0.0957222-0.069582-0.1549025-0.0923138-0.2368155-0.1445808h-0.01721v-0.0157585l-0.0365334-0.0276814l-0.0577202-0.0211849
			l-0.0242023-0.0083656l-0.0434303-0.0246906l-0.0088444-0.0206871H9.7532816l-0.0261421-0.0069065h-0.006896l-0.0034876-0.0172958
			H9.6975098l-0.0261421-0.0088539l-0.0349865-0.0207748l-0.0331259-0.0069046l-0.2644176,0.1144791H9.33535l-0.0660839,0.0142899
			l-0.0557718,0.0068951H9.1735516c-0.0488749,0.0227261-0.0971823,0.0296211-0.1494579,0.0276814l-0.0626841,0.0261326
			l-0.0626678,0.0173054l-0.0591888,0.0211868h-0.012332l-0.0034876,0.0138016h-0.010313l-0.0695724,0.0296364l-0.0661716,0.0344906
			l-0.0646257,0.0261402L8.6115913,21.34165H8.5992584c-0.0611372,0.0439186-0.1321688,0.0942535-0.1879406,0.1430321
			L8.352129,21.5192757v0.0177002H8.3397884l-0.0034876,0.0153465H8.3328924l-0.0069838,0.0108738H8.3170547
			c-0.095705,0.0867805-0.1948366,0.2905598-0.2728605,0.3877335v0.0172958l-0.0107946,0.0073853L8.0299129,21.987463
			l-0.0261421,0.0522842L7.9707236,22.097477l-0.0241838,0.0676136v0.0138092
			c-0.069581,0.1307011-0.1218562,0.2629585-0.1603479,0.4040432H7.7827044
			c-0.4351487,1.4391632-0.5234776,2.8127823-0.1164107,4.2657471c0.1687737,0.9383926,0.152936,1.5023022-0.8737941,1.8121777
			c-0.4770317,0.1164207-0.7133584,0.1149597-1.1885285,0.0207138c-0.1726804,0.0019417-0.4316616-0.119915-0.598897-0.1790943
			c-0.1288395-0.0557804-0.1652946-0.1253529-0.2699413-0.1672363c-0.0729809-0.1357441-0.069572-0.0261497-0.1721821-0.2175865
			c-0.7084904-1.3819942-0.2155423-4.0693378-0.0330467-5.5593872c0.1391439-1.0493927,0.2871509-2.1180229,0.4751701-3.157095
			c0.0887308-0.5066605,0.1967859-1.0059547,0.3373985-1.5018215c0.1445894-0.5052109,0.3153291-0.9315052,0.5225072-1.408144
			h0.0118432c0.0750256-0.1879406,0.17414-0.3724651,0.2698627-0.5500917l0.0138006-0.0557013l0.0336151-0.0365343
			l0.0221562-0.0365334l0.0158372-0.0487795l0.0295506-0.0400219l0.0241933-0.0418997
			c0.0488749-0.1080561,0.1203961-0.1790962,0.1569214-0.2576008c0.1390657-0.1845322,0.256062-0.3917007,0.4454627-0.5308628
			c0.0785046-0.106019,0.0715995-0.0798855,0.1673136-0.1529446l0.0138011-0.0157499
			c0.0364552-0.0399427,0.1114635-0.07306,0.1529536-0.1164198h0.0034084l0.0158372-0.024683h0.0138011l0.0211864-0.0261326
			h0.006896l0.0158281-0.0138006v-0.0104008h0.0048771l0.0158286-0.013792l0.012341-0.0123415l0.0152607-0.0172968h0.0108814
			l0.0034089-0.0211954l0.0153475-0.0068874l0.0034089-0.0069046l0.021265-0.0296383l0.0034084-0.013792H7.415668
			l0.006896-0.0207052l0.0104008-0.0296297l0.006896-0.024682h0.0073943l0.0083556-0.0276098l0.0103922-0.0261335V14.243968
			l0.0103135-0.0296288v-0.0104008c0.0212736-0.0660849-0.0048771-0.1114645,0-0.17414H7.4660029
			c-0.0084429-0.2575045-0.0902691-0.5866261-0.133708-0.8456154c-0.0281696-0.1253347-0.0557709-0.252636-0.0660844-0.3813877
			C7.2276487,12.6498413,7.206943,12.496398,7.1719561,12.340045c-0.0522842-0.3063974-0.1218562-0.6196814-0.1633372-0.9276075
			c-0.0246825-0.1203966-0.033536-0.2126322-0.0384917-0.3325386v-0.0542336l0.0034962-0.0241842v-0.0419788l0.005445-0.0152521
			v-0.0142899l0.0103045-0.0104008v-0.0172882h0.0069051v-0.01721l0.0084343-0.0089235h0.0039067l0.0034876-0.010313H7.020462
			l0.0069046-0.0138102h0.0281696l0.0138011-0.0143595l0.0138092-0.0138016h0.0088363l0.0207143-0.0192451l0.021265-0.0069056
			h0.0172968l0.0157499-0.0103827H7.200047l0.0049558-0.0138016h0.0681124l0.0103049-0.010313h0.0365338l0.012341,0.010313
			h0.0261421l0.0103922,0.0138016h0.0083642v0.0103827h0.0142903l0.013792,0.0069056l0.0172882,0.0192451l0.0104008,0.0138016
			l0.006896,0.0143595c0.0591888,0.0379944,0.0473285,0.0833817,0.0838623,0.1074877
			c0.0922356,0.1604176,0.1776276,0.3236933,0.2624688,0.4875202l0.028091,0.0330286l0.0069046,0.0453882l0.0310888,0.0537519
			l0.0296383,0.0331173l0.0157499,0.0487881c0.0419703,0.0384912,0.0873494,0.1756868,0.1307797,0.2313709
			c0.0888271,0.14118,0.1859913,0.3256426,0.257513,0.4785872h0.0104008l0.0295506,0.0508242l0.0262203,0.034585l0.0241146,0.054225
			l0.0246735,0.0469255h0.0049553l0.0226555,0.0345068l0.0281696,0.0543032l0.0221643,0.0414104l0.0336065,0.0473194
			l0.044898,0.0676413l0.0034008,0.024682h0.0034952l0.0280914,0.0365257l0.0206966,0.0537434l0.0296383,0.0315781
			c0.0468473,0.0572309,0.0764685,0.1510048,0.1164198,0.1859913c0.0996904,0.1617994,0.2141609,0.3429317,0.3029795,0.5066795
			h0.0088453l0.0241928,0.0448895l0.0280905,0.0474157h0.0034876l0.0172091,0.013792l0.0089331,0.0138006l0.0241928,0.0261507
			v0.0103836h0.0034084l0.0261507,0.0280905h0.006896l0.006896,0.0138102l0.0177774,0.0103922l0.0138016,0.0088444h0.0034952
			l0.0276022,0.0172796l0.0158367,0.0138102l0.0241842,0.0207834h0.0157499l0.0296383,0.0073862l0.0088453,0.0221739
			l0.0310888,0.006896H9.42416l0.0281696,0.0143595h0.0172176l0.0400219,0.01721h0.010313l0.0400219,0.0104008
			c0.0976629-0.0049562-0.0069046,0.0138092,0.1045675,0.0069046l0.0522842,0.0157499h0.0522747l0.0331259,0.0172796h0.0345068
			c0.2525568,0.0296469,0.4978247,0.0853214,0.7484322,0.0957317c0.2959967,0.0227156,0.6196814,0.0474062,0.9137287,0.0474062
			c0.0557709,0.0295506,0.3655672,0.0206966,0.4420443,0.0241146c0.0942545,0.0068874,0.2245541,0.0015383,0.3084164,0.0172882
			h0.142561l0.0626764,0.0192461h0.0729809c0.3414621,0.0206881,0.6789398,0.0557709,1.0183744,0.0749998
			c0.1149511,0.0226545,0.300952,0.031106,0.4213476,0.0276098c0.1494579-0.0104008,0.0882416,0.0227251,0.1859922,0.0211868
			h0.0434294l0.0433521,0.0034952h0.1238918l0.0572309,0.0187569c0.8426876,0.0660763,1.6799393,0.1322393,2.5290413,0.1534262
			l0.0019588,0.0104008l0.0261326,0.0571432l0.0242023,0.0454664l0.0206966,0.0537434l0.0296288,0.0508242l0.0295506,0.0414028
			h0.0123405c0.4035625,0.729764,1.5092945,1.5457506,2.2488041,1.9059515v0.0108814
			c0.9414082,0.4731522,2.0485134,0.9185963,3.1171436,0.7410564v-0.0207844h0.0488682l0.0384827-0.0103054l0.0103912-0.0123405
			l0.0364475-0.0104008l0.044899-0.0069046h0.0039749l0.083374-0.0419712l0.0419712-0.0261326l0.0152683,0.0439205
			l0.0261421,0.0538292L22.9515381,17.7632141L22.9515381,17.7632141z M8.6930237,21.8221684
			c0.1968641-0.177618,0.4163923-0.245163,0.6754522-0.2589722c0.4770317,0.0034084,0.2994833-0.0370235,0.7118988,0.2032013
			v0.0103912l0.0384836,0.0108814l0.0365248,0.0241146l0.0330467,0.0227242h0.0206966v0.0104008
			c0.1130199,0.0572319,0.2175789,0.1376076,0.3414631,0.1948376l0.0483074,0.0192375l0.0296373,0.0310974l0.0729809,0.037014
			l0.0735493,0.0379944l0.0365343,0.0280914l0.0379934,0.0014591l0.0646248,0.0419712h0.010314l0.0330372,0.0365334
			l0.0384836,0.006897h0.0034876l0.0764771,0.0419006l0.0681124,0.0296288l0.044898,0.0241928l0.0384741,0.0206966
			l0.010314,0.015749l0.0764771,0.0173073l0.0626755,0.0453701h0.0088453l0.0400209,0.0227337l0.0399523,0.0137997h0.0054359
			l0.0745192,0.034996l0.085331,0.0192451c-0.1495457,1.2162189,0.1760883,1.7297764,0.2209787,2.8053894
			c-0.0468473,0.9487152-1.0005093,1.3488693-1.8358116,1.1628761c-0.2126236-0.0557613-0.4721642-0.1011581-0.6739054-0.2018185
			L9.2989035,26.319767l-0.0400295-0.0206966l-0.034996-0.0280914l-0.0275927-0.0192451l-0.0400219-0.0276814l-0.0157499-0.0207043
			c-0.0537519-0.0735493-0.0384912,0.0049458-0.1164198-0.1500263c-0.15693-0.3774204-0.2023182-1.0059452-0.2506952-1.4237976
			C8.6757269,23.6984997,8.729558,22.7586384,8.6930237,21.8221684L8.6930237,21.8221684z M23.0733929,16.4700298
			l-0.0577202-0.0399418c-0.1040859-0.0750179-0.194849-0.1529446-0.3024158-0.2210674l-0.0439186-0.0434303
			c-0.1997929-0.1514053-0.3389454-0.2752895-0.526886-0.4420357c-0.1934566-0.1721992-0.3779888-0.3497477-0.5604935-0.5342712
			L21.55233,15.1680012l-0.017786-0.0118427l-0.0556831-0.0694942l-0.0400219-0.0365419l-0.044899-0.0439196l-0.0073853-0.0138016
			l-0.0468483-0.0538216l-0.0538216-0.0280828l-0.0487976-0.0434389l-0.0206966-0.0345058l-0.0365334-0.0405111h-0.3132935
			l0.0069046,0.3187208l0.0487881,0.0453968l0.0153484,0.0262203l0.0315781,0.0344973l0.0414028,0.0365429h0.0039768
			c0.0729809,0.0680256,0.1460571,0.1356478,0.2156296,0.2106657h0.0034084l0.0103931,0.0069046l0.0246811,0.0280914
			l0.0503349,0.0434294l0.0468483,0.0537443l0.0503254,0.0488749c0.0976639,0.1045589,0.205719,0.2002821,0.3118248,0.2959957
			c-1.2585907-0.3517761-2.8754597-1.2324572-3.683073-2.2852507h-0.0069046l-0.0276012-0.0434294l-0.0405102-0.0419712
			l-0.0295506-0.0468559l-0.0310898-0.0399342v-0.007473h-0.0034866l-0.0295601-0.0482979l-0.0192375-0.0474157
			l-0.0192375-0.0310192l0.0034103-0.0158195l0.0281601-0.0606575v-0.0177689l0.0241146-0.0710487l0.0158367-0.0681038v-0.0138006
			l0.0295506-0.0750179l0.0227337-0.0606394v-0.0172968c0.0330372-0.2002735,0.0937653-0.3868418,0.1080551-0.5920706h0.0049477
			c0.174139-1.5994844-0.1149616-3.0371714,0.1756077-4.7358661c0.1811142-0.9818487,0.2175694-3.6184559,0.6788521-4.3200588
			h0.0212746l0.0330467-0.0433428l0.0187473-0.0103922l0.0439281-0.0419705l0.013792-0.0122712l0.0503349-0.0276802
			c0.0784264-0.0646253,0.1795845-0.0867729,0.2733498-0.1129236c0.1287518-0.0158286,0.1603394-0.0192459,0.2871418,0
			l0.0433521,0.0172095c0.1026192,0.0034959,0.052372,0.0227332,0.1431293,0.0538309l0.0310974,0.0211952
			c0.0798855,0.0868602,0.1149521,0.1006608,0.1741409,0.2135932l0.0310879,0.0612075
			c0.0261421,0.086869,0.085331,0.1411021,0.0941753,0.2313797l0.0241928,0.0350657
			c0.0557728,0.2086463,0.1287537,0.4139626,0.2003613,0.6176531h0.006897l0.0069046,0.0572224l0.015749,0.0523624h0.0103931
			c0.015749,0.0660934,0.0503426,0.123805,0.0729885,0.186481c0.0103836,0.0819221,0.0661545,0.1480069,0.0838623,0.2278838
			h0.0049477c0.0503349,0.1268115,0.1149502,0.2403121,0.163826,0.3671236h0.0069046
			c0.069582,0.1652775,0.1598492,0.2940383,0.2486687,0.4489498h0.0108814v0.0192285l0.0206966,0.0246825h0.0034084
			l0.0138874,0.0241928h0.006897l0.0123405,0.0261421h0.0034084l0.0103931,0.0138092l0.0315876,0.03157l0.0261326,0.0261507
			V5.823483h0.0069046l0.0049553,0.0207753l0.0192375,0.0034089l0.0034084,0.0104008h0.0089321l0.0345078,0.0508156
			c0.0729809,0.0448899,0.156929,0.1026187,0.2525654,0.0957141l0.1791649-0.1287608l-0.0227318-0.2319303L21.534544,5.5624743
			h-0.0034008l-0.0172958-0.0280824l-0.0138016-0.0138011L21.4684677,5.490953l-0.0172958-0.0034175V5.4702473l-0.022646-0.0296292
			l-0.0241947-0.0315871l-0.0280895-0.0468302L21.3643894,5.330605l-0.024683-0.0241842
			c0.1568527-0.3758817,0.2925873-0.7676787,0.4301929-1.1520123c0.0923061-0.1830635,0.1253529-0.3325212,0.2432327-0.5170534
			l0.0073929-0.0261419l0.0222454-0.0275929l0.0177689-0.0296381l0.0226536-0.0315783l0.0261421-0.0384831l0.0256519-0.0434301
			l0.0177784-0.0207057h0.0118599l0.0177689-0.0157497l0.0172195-0.0207844l0.0069828-0.0103047h0.0033989l0.0296383-0.028187
			l0.0261345-0.006896l0.0330467-0.0192285l0.0137997-0.0173056h0.0365353l0.0384827-0.0172095h0.0207062l0.0350742-0.0138009
			h0.0833626c0.1307106,0.0034175,0.2822056,0.0172095,0.3636246,0.1337166
			c0.2506218,0.1706438,0.4198093,0.6423266,0.5328121,0.913728c0.3517666,0.8998485,0.6023884,1.8678703,0.8841019,2.7919989
			h0.0103893c0.0261364,0.1198196,0.0681114,0.2106657,0.1026134,0.3256254h0.0073853l0.0256577,0.0710406l0.0246773,0.0680251
			l0.0296383,0.0642142l0.024189,0.0715213h0.0088539l0.0049458,0.0384917l0.0192413,0.0710316l0.0384789,0.0542331
			l0.027607,0.0641356h0.0089283v0.0138884l0.0137997,0.0330291l0.0246792,0.028091l0.0433502,0.0784349v0.0172882h0.0049515
			v0.006896l0.0453892,0.075017l0.0453835,0.0798855l0.04002,0.0488758l0.034502,0.0468388l0.0296307,0.0538311h0.0053616
			l0.0350704,0.0453787l0.0256519,0.0606394l0.0439243,0.0474072h0.0068951l0.034502,0.060648l0.0331268,0.0384836
			l0.022646,0.027689l0.0158405,0.022646h0.0088463c0.1302204,0.1721992,0.224474,0.2471991,0.3601303,0.4021111h0.0069008
			c0.0192375,0.046917,0.1983376,0.1790867,0.2486725,0.2175608c0.0942497,0.0854092,0.2437115,0.1652946,0.3448715,0.243721
			c0.3113384,0.1618776,0.5846806,0.325634,0.9172096,0.459342v0.006896c0.15839,0.0612078,0.3374863,0.1411715,0.4888935,0.2141609
			l0.064703,0.0330553c0.1095161,0.0384665,0.2347851,0.0681038,0.3359394,0.120388h0.0049515l0.0108814,0.0138006h0.0118523
			l0.0192413,0.0123329h0.0207005l0.0611286,0.0242014l0.0710373,0.0349874l0.0785084,0.0118513
			c0.1845322,0.0804625,0.2940464,0.1046553,0.4667282,0.1672354c0.4021015,0.1268206,0.8076115,0.2438078,1.2181625,0.3305807
			c0.2870674,0.0888271,0.621624,0.144598,0.9156761,0.2175875c0.225935,0.0419712,0.4470005,0.1115341,0.6700077,0.161869
			l0.075016,0.0314999c0.1218567,0.0331249,0.2870693,0.0780153,0.3912258,0.1529617h0.0399418l0.007391,0.0172796h-0.007391
			l-0.0221596,0.0158377H31.946722l-0.0245895,0.010313h-0.010397l-0.0330391,0.028161l-0.0315819,0.010314v0.0172968
			l-0.034586,0.0054445l-0.033041,0.0275936l-0.0069008,0.006896l-0.0315838,0.0281696
			c-0.0379925,0.0364552-0.1075687,0.1060362-0.1391468,0.1459703h-0.0053577l-0.0310936,0.0365334l-0.0384789,0.0434303
			l-0.0227337,0.0384922h-0.0103092c-0.0730686,0.111455-0.1337128,0.2279615-0.1929741,0.3463306
			c-0.0384789,0.0942459-0.0749359,0.1776276-0.0888138,0.2787867c-0.0577221,0.3320408-0.0103149,0.6700153,0.0503349,0.9970922
			h0.0034866l0.017292,0.068121v0.0118599l0.0177002,0.0625887h0.0069046
			c0.0049515,0.1273012,0.0923004,0.3710136,0.1357346,0.5067492h0.0034084
			c0.0089283,0.0433426,0.0469265,0.0957136,0.0612164,0.1425524l0.0137978,0.0296383l0.0118504,0.013792l0.0142899,0.0211954
			l0.0172939,0.0172968l0.0137997,0.0123415l0.0069008,0.0241928h0.0103931l0.0088482,0.0138006l0.017292,0.0172091v0.0089235
			h0.0157471l0.017292,0.024683h0.015749v0.0172091h0.0172939l0.0054398,0.0104008h0.0138054v0.0103836h0.0192375L31.7514,14.658412
			h0.0073814l0.0207062,0.0138092h0.0607262v0.01721h0.0473289c-0.2767544,0.5673962-0.5535088,1.1333256-0.8688297,1.6799383
			c-0.1514893,0.2644863-0.2871513,0.5378456-0.4696503,0.7849674c-0.0626717,0.1041565-0.1534348,0.2955933-0.2353535,0.3740196
			l-0.0310917,0.0577202c-0.0992107,0.0991135-0.1287575,0.2135849-0.208725,0.2886105l-0.3275757,0.0503349
			c-0.2713966-0.0365334-0.4627552-0.0779457-0.6596241-0.1756954l-0.3429222-0.0641365l0.4963627,0.3464279
			c0.2175732,0.071022,0.4750862,0.071022,0.6995621,0.0068951c-0.3394318,0.424757-0.9591084,0.8180046-1.5230141,0.7533798
			c-0.226017-0.0049458-0.5047207-0.0434303-0.7272453-0.0799637c-0.1534386-0.0310898-0.287632-0.0646248-0.4386406-0.1060181
			l-0.0660801-0.0173054c-0.1218605-0.026125-0.2526455-0.0923061-0.3814068-0.1292419H26.782608l-0.0034866-0.0103836
			c-0.6719608-0.2363262-1.2724056-0.5550652-1.9044189-0.8771935c-0.3112564-0.1737289-0.6299896-0.3429317-0.9329643-0.53582
			c-0.1233196-0.0646248-0.2555637-0.15839-0.3759689-0.2175789C23.4212666,16.6807137,23.2263432,16.5987911,23.0733929,16.4700298
			L23.0733929,16.4700298z"/>
		<path class="st5" d="M23.1134148,9.260807V9.250494l0.0069046-0.0538139h0.0034084V9.1789722l0.0192375-0.0379934
			l0.0069008-0.0158195l0.017292-0.010314l0.0315838-0.0350742l0.0034122-0.0118513l0.0384789-0.0281h0.0034924l0.0103874-0.0103836
			l0.0433502-0.010313V9.0018349h0.0276852l0.0473289-0.0227337h0.0745354
			c0.1617947-0.003417,0.1899605-0.0019493,0.3498192,0.0400219c0.2126179,0.0625973,0.3936634,0.1618071,0.588583,0.266366
			c0.0991268,0.059268,0.191433,0.1218567,0.2886066,0.1756868l0.0384789,0.0206976l0.0503349,0.0434294l0.0439243,0.0177784
			h0.0034084l0.034584,0.0433598l0.0468426,0.0241842h0.0073872c0.1391468,0.1376934,0.3320389,0.2313881,0.4194031,0.4075556
			h0.0068951l0.0138054,0.0276022l0.0350704,0.0612078h0.0069008c0.0379982,0.0814323,0.0556965,0.1859999,0.0103092,0.2679138
			H25.388361l-0.0069046,0.0172873l-0.0261383,0.0418921l-0.0158329,0.0192375h-0.0069046l-0.0330429,0.0522842h-0.0068989
			l-0.0557728,0.0222521l-0.015749,0.0177689h-0.0084381l-0.0557804,0.0241146l-0.0034084,0.0172968
			c-0.1287613,0.0177774-0.1954098,0.0626755-0.3394356,0.0474072c-0.0977421,0.0083637-0.1899681-0.0227337-0.2890873-0.024683
			c-0.1011581-0.0158281-0.3291206-0.1115513-0.4248428-0.1564407l-0.1026154-0.0434389
			c-0.1115475-0.0611286-0.198328-0.1465206-0.3028927-0.2106562h-0.0118561l-0.0108757-0.0315962
			c-0.0922279-0.0625887-0.1598511-0.1528578-0.2417679-0.2278833h-0.0069046
			C23.292511,9.7310305,23.0926304,9.5272608,23.1134148,9.260807L23.1134148,9.260807z"/>
		<polygon class="st5" points="21.4965591,19.8363304 21.353508,19.3661861 21.9090538,17.9634876 22.2657681,17.8993607 
			23.1341248,18.6265984 23.2263432,19.0617561 22.9199543,19.1367645 22.3057194,18.6059113 22.2065964,18.833786 
			22.7097702,19.2551327 22.8104401,19.6463623 22.5163937,19.7213707 22.020525,19.3054676 21.9263496,19.5472317 
			22.5425262,20.0573883 22.6505909,20.4643688 22.3491497,20.5393848 21.4965591,19.8363304 		"/>
		<path class="st5" d="M22.0323696,16.7364845c-0.1548958,0-0.3235989,0.2891006-0.3235989,0.7134457
			c0,0.4143562,0.1687031,0.7104397,0.3235989,0.7104397c0.1603374,0,0.3310699-0.2960835,0.3310699-0.7104397
			C22.3634396,17.0255852,22.1927071,16.7364845,22.0323696,16.7364845L22.0323696,16.7364845z M22.0323696,18.3271236
			c-0.2851238,0-0.5012264-0.3878193-0.5012264-0.8771935c0-0.4958668,0.2161026-0.8806896,0.5012264-0.8806896
			c0.290638,0,0.5101566,0.3848228,0.5101566,0.8806896C22.5425262,17.9393044,22.3230076,18.3271236,22.0323696,18.3271236
			L22.0323696,18.3271236z"/>
	</g>
</g>
<g id="Слой_2" class="st52">
</g>
</svg>
