<?xml version="1.0" encoding="utf-8"?>
<!-- Generator: Adobe Illustrator 19.1.1, SVG Export Plug-In . SVG Version: 6.00 Build 0)  -->
<svg version="1.1" xmlns="http://www.w3.org/2000/svg" xmlns:xlink="http://www.w3.org/1999/xlink" x="0px" y="0px" width="37px"
	 height="37px" viewBox="0 0 37 37" style="enable-background:new 0 0 37 37;" xml:space="preserve">
<style type="text/css">
	.st0{fill:#BE2B25;}
	.st1{fill-rule:evenodd;clip-rule:evenodd;fill:#FCC200;}
	.st2{fill-rule:evenodd;clip-rule:evenodd;fill:#A7D4E9;}
	.st3{fill-rule:evenodd;clip-rule:evenodd;fill:#184E9B;}
	.st4{fill-rule:evenodd;clip-rule:evenodd;fill:#575756;}
	.st5{fill:#211F1F;}
	.st6{fill:#FFE512;}
	.st7{fill:#FF0014;}
	.st8{fill:#ED1A2E;}
	.st9{fill-rule:evenodd;clip-rule:evenodd;fill:#FFFFFF;}
	.st10{fill-rule:evenodd;clip-rule:evenodd;fill:#1D1D1B;}
	.st11{fill-rule:evenodd;clip-rule:evenodd;fill:#62B12F;}
	.st12{fill:#FF9900;}
	.st13{fill-rule:evenodd;clip-rule:evenodd;fill:#003671;}
	.st14{fill:#005098;}
	.st15{fill:#F6A500;}
	.st16{fill:#12100B;}
	.st17{fill:#B8182B;}
	.st18{fill:#AE1F31;}
	.st19{fill:#88BF52;}
	.st20{fill:#FEFEFE;}
	.st21{opacity:0.35;}
	.st22{fill:none;}
	.st23{fill:#2A408A;}
	.st24{fill:#F8AC18;}
	.st25{fill:#37A2B8;}
	.st26{fill:#EF3E36;}
	.st27{fill:#073986;}
	.st28{fill:#FF590D;}
	.st29{fill:#005DA7;}
	.st30{fill:#3D1061;}
	.st31{fill:#FFFFFF;}
	.st32{fill:#FFAA1C;}
	.st33{fill:#CEBFAA;}
	.st34{fill:#FE0000;}
	.st35{fill:#2051A8;}
	.st36{fill:#526BAA;}
	.st37{fill:#034F90;}
	.st38{fill:#144C9B;}
	.st39{fill:#F39722;}
	.st40{fill:#147D41;}
	.st41{fill-rule:evenodd;clip-rule:evenodd;fill:#F9B41D;}
	.st42{fill-rule:evenodd;clip-rule:evenodd;fill:#E30520;}
	.st43{fill:#EFA55A;}
	.st44{fill:#737373;}
	.st45{fill:#84ACDD;}
	.st46{fill:#94CE84;}
	.st47{fill:#A583B5;}
	.st48{fill:#FFDE63;}
	.st49{fill:#FF6D00;}
	.st50{fill:#0038A5;}
	.st51{fill:#222222;}
	.st52{display:none;}
</style>
<g id="Слой_1">
	<path class="st7" d="M34.4105186,22.8332863c-0.2135124-0.0552807-0.4356842-0.0785561-0.6555443-0.0550213
		c-0.4145622,0.0380325-0.7717667,0.267828-1.1223145,0.4722614c-0.2770233,0.1701984-0.6015663,0.2326317-0.916296,0.2934971
		c-0.6491241,0.1172733-1.3353024,0.0684624-1.9444981-0.1933575c-0.5495853-0.2332554-1.0246849-0.6148605-1.4240437-1.054163
		c-0.7166214-0.7790527-1.2132931-1.7213535-1.8180294-2.5828266c-0.3194828-0.4735165-0.6098175-0.9682789-0.9723969-1.4110584
		c-0.3591137-0.4507065-0.6326275-0.9879284-1.1099663-1.3305511c-0.5093307-0.3438873-1.1311817-0.4399261-1.7219868-0.5543575
		c-0.7125053-0.1185265-1.4085121-0.319479-2.1222916-0.432622c-0.7096424-0.1283607-1.4310322-0.1648121-2.1435204-0.2738543
		c-1.6012325-0.2319984-3.203104-0.5771685-4.8303242-0.5026665c-0.002532-0.2396259-0.0706787-0.4798679-0.2098207-0.676383
		c-0.2941189-0.4202614-0.8056898-0.6063147-1.133091-0.9939518c-0.0462646-0.054204-0.0462646-0.1302528-0.0637054-0.1958752
		c-0.0957193-0.4836712-0.3267689-0.9257975-0.5815954-1.3429079c-0.2532454-0.4126835-0.4725714-0.8468904-0.7578249-1.2392778
		c-0.1305981-0.1733675-0.2748003-0.3489561-0.4754257-0.4434166c-0.2836866-0.1369162-0.596818-0.2050562-0.8716183-0.3622732
		C9.2921762,9.8131237,9.0966139,9.602993,8.8528738,9.4609957C8.6278477,9.3297758,8.4094715,9.1871414,8.1838093,9.0575218
		c-0.2687907-0.159749-0.5987272-0.0909615-0.8865099-0.1892262c-0.052309-0.0180597-0.0931869-0.056406-0.1353517-0.0903254
		H7.0763736C6.8335972,8.8423128,6.5714841,8.8359766,6.3426394,8.9488058
		C6.2095103,9.0121889,6.1077857,9.1640177,6.1356773,9.3136034C6.1778278,9.3998213,6.2545338,9.466692,6.2805161,9.5608282
		C6.313489,9.6752577,6.3236127,9.7975883,6.3046064,9.9154987c-0.0285316,0.1553106-0.1340785,0.2846212-0.2554669,0.3806639
		c-0.2196527,0.1746264-0.4795432,0.2865095-0.7261248,0.4171038c-0.2770224,0.1419868-0.5546632,0.2855673-0.8459444,0.3965044
		c-0.0836649,0.2304134-0.2202897,0.4415035-0.4041071,0.6044273c-0.4313345,0.3937864-0.9920743,0.5952282-1.4561036,0.9441881
		c-0.1265643,0.0951777-0.168961,0.2522144-0.0202014,0.3645201c0.1912019,0.1443539,0.2842729,0.3865604,0.3435202,0.6161222
		c0.0228317,0.0744696,0.0294812,0.1635389,0.0982647,0.2126627c0.1974576,0.1708384,0.4399247,0.2912807,0.598073,0.5052166
		c-0.1153612,0.2516727-0.2358036,0.51124-0.2510223,0.7920666c-0.0145824,0.1676531,0.0348682,0.3340683,0.1286881,0.4725704
		c0.1445293,0.0393057,0.2960317,0.0700388,0.4450023,0.0386696c0.3308825-0.0564232,0.5812683-0.3109274,0.9014049-0.3968277
		c0.1305799-0.0358114,0.2674999-0.0196428,0.3977566,0.0076122c0.0234647,0.0954065,0.0462823,0.1949263,0.021246,0.2922239
		c-0.053565,0.247221-0.2174306,0.4484825-0.3156781,0.6776409c-0.1106105,0.2427769-0.1014328,0.515995-0.1099739,0.7768478
		c0.0107636,0.4931622,0.0364366,0.9920578,0.1619387,1.4712734c0.0513601,0.2374039,0.2671909,0.3717747,0.4320202,0.5274086
		c0.1828752,0.156889,0.3140955,0.3654366,0.4028378,0.5879307c0.1600575,0.3778152,0.2228174,0.7876263,0.3749566,1.1682835
		c0.0766916,0.1825657,0.1800165,0.3670235,0.3505459,0.4773254c0.2342176,0.153101,0.4953809,0.2583218,0.7384844,0.3958778
		c0.2636991,0.1423073,0.5242262,0.3071232,0.8221674,0.3667145c0.2123528,0.0446777,0.431366,0.0253429,0.6434059-0.0123634
		c0.5264626,1.6658859,1.1407032,3.3187618,1.3739748,5.0594654c-0.2820854,0.0139446-0.5537176-0.0995235-0.836113-0.0630741
		c-0.2066526,0.2579956-0.3296232,0.5685959-0.4567118,0.8703442c-0.37432-0.001585-0.7486429-0.00033-1.1226397-0.0006351
		c-0.0003271,0.1188564-0.0003271,0.237709,0,0.3565521c6.2993793,0,12.5987406,0.0003262,18.8981171,0
		c0-0.1191673,0-0.2380238-0.000309-0.3568649c-0.4690895,0.000618-0.9381828-0.0006371-1.407259,0.000618
		c0.1857166-0.5175762,0.3778057-1.0326214,0.5774822-1.5451164c0.1667061-0.4345512,0.4380283-0.8285065,0.5388069-1.2877827
		c0.0484886-0.2285175,0.053257-0.4855518-0.0782909-0.6887245c-0.2636948-0.4161472-0.72328-0.6567154-0.9983921-1.0633583
		c-0.1134529-0.1626053-0.137867-0.3651276-0.1432571-0.5581398c-0.0028591-0.2960491,0.0529289-0.5895329,0.0450096-0.8858948
		c-0.0513458-1.2110519-0.2259903-2.4173565-0.5318356-3.5903931c0.3394547,0.2719421,0.622797,0.6066284,0.8750954,0.9594116
		c0.6611595,0.9359417,1.1407032,1.9926567,1.8725414,2.8801117c0.5866566,0.7220116,1.3815861,1.265583,2.2528763,1.5847569
		c0.7156696,0.2589455,1.4915562,0.3441925,2.2471752,0.2583084c0.3736839-0.0446815,0.6972847-0.2817726,1.0769958-0.297617
		c0.2573586-0.0095062,0.5293007,0.0415306,0.7724037-0.0697308c0.282917-0.1115913,0.4704399-0.3578625,0.6775551-0.5679436
		C34.5069733,22.8996677,34.4740944,22.8497143,34.4105186,22.8332863z M5.0494876,11.867589
		c-0.0503964,0.0240936-0.0649819,0.0827217-0.0922375,0.1261454c-0.152761-0.0399313-0.1717849-0.2066565-0.2094941-0.3343773
		c0.3058496-0.0633793,0.626914-0.0326462,0.9166093,0.0836649C5.4818029,11.8669558,5.2399726,11.7639542,5.0494876,11.867589z
		 M11.8864164,27.070713c-0.1115742-0.0399284-0.2126942-0.1210785-0.2351818-0.243412
		c-0.0576963-0.2935009,0.0548239-0.5828686,0.0747938-0.8744736c0.0890551,0.2773323,0.2421398,0.5410442,0.2557764,0.8373871
		C11.9884682,26.8929062,11.9485226,26.99053,11.8864164,27.070713z M18.115736,27.2684975
		c-0.2031765,0.0671844-0.4003067-0.0408916-0.5888958-0.102705c-0.2557774-0.0944386-0.5657539-0.0003128-0.7270851,0.2183762
		c-0.1064816,0.1480255-0.1705151,0.3207588-0.251339,0.483036c-1.2189913-0.0009422-2.4382925-0.0028553-3.6575937,0.000639
		c0.2266216-1.2475185,0.1334381-2.5216484,0.1255026-3.7815304c-0.0167913-0.5071125-0.0088692-1.0145473,0.0168047-1.5210381
		c0.6709909,0.0091953,1.342598-0.0773411,1.990449-0.2513313c0.3822279-0.1007957,0.7559261-0.2291565,1.1302357-0.3549862
		c0.3670235-0.1315441,0.7435665-0.2342358,1.1131172-0.3581562c0.2019024-0.0678368,0.3876324-0.2034836,0.6076088-0.2015896
		c0.0846119-0.0037899,0.1606979,0.0380554,0.2323093,0.0782928c0.1020699,0.6817513,0.3762321,1.320097,0.6507092,1.9470291
		c0.2313595,0.5080547,0.5350132,0.9942741,0.6373787,1.5505104c0.0805111,0.4180527,0.0133095,0.8617859-0.187006,1.2373791
		c-0.133749,0.2278843-0.3118744,0.4259758-0.4928532,0.6174088C18.5356827,27.0000305,18.3508987,27.178793,18.115736,27.2684975z
		 M24.6642246,25.3595047c0.076704,0.6272411,0.0079212,1.2772942-0.2196369,1.8681011
		c-0.320446-0.0323391-0.6497593-0.1328049-0.9689178-0.0424767c-0.291914,0.0871563-0.4294701,0.4050732-0.4624405,0.6843014
		c-1.3495617-0.005394-2.6997738-0.0050812-4.0493298-0.00033c0.1486435-0.1689262,0.2491131-0.3771629,0.4174023-0.5289783
		c0.5996723-0.5197945,1.2608318-0.9762135,1.780941-1.5812607c0.0107956-0.7299423-0.0465927-1.4624043,0.0336094-2.1901112
		c0.050705-0.4149017,0.1518116-0.8513317,0.4408703-1.1692314c0.6148777,0.8709621,1.4972725,1.5032825,2.3983688,2.0503349
		c0.1527615,0.0963554,0.3131275,0.1809807,0.4636841,0.2811375C24.5941811,24.9262295,24.6306286,25.1458797,24.6642246,25.3595047
		z"/>
</g>
<g id="Слой_2" class="st52">
</g>
</svg>
