<?xml version="1.0" encoding="utf-8"?>
<!-- Generator: Adobe Illustrator 19.1.1, SVG Export Plug-In . SVG Version: 6.00 Build 0)  -->
<svg version="1.1" xmlns="http://www.w3.org/2000/svg" xmlns:xlink="http://www.w3.org/1999/xlink" x="0px" y="0px" width="37px"
	 height="37px" viewBox="0 0 37 37" style="enable-background:new 0 0 37 37;" xml:space="preserve">
<style type="text/css">
	.st0{fill:#BE2B25;}
	.st1{fill-rule:evenodd;clip-rule:evenodd;fill:#FCC200;}
	.st2{fill-rule:evenodd;clip-rule:evenodd;fill:#A7D4E9;}
	.st3{fill-rule:evenodd;clip-rule:evenodd;fill:#184E9B;}
	.st4{fill-rule:evenodd;clip-rule:evenodd;fill:#575756;}
	.st5{fill:#211F1F;}
	.st6{fill:#FFE512;}
	.st7{fill:#FF0014;}
	.st8{fill:#ED1A2E;}
	.st9{fill-rule:evenodd;clip-rule:evenodd;fill:#FFFFFF;}
	.st10{fill-rule:evenodd;clip-rule:evenodd;fill:#1D1D1B;}
	.st11{fill-rule:evenodd;clip-rule:evenodd;fill:#62B12F;}
	.st12{fill:#FF9900;}
	.st13{fill-rule:evenodd;clip-rule:evenodd;fill:#003671;}
	.st14{fill:#005098;}
	.st15{fill:#F6A500;}
	.st16{fill:#12100B;}
	.st17{fill:#B8182B;}
	.st18{fill:#AE1F31;}
	.st19{fill:#88BF52;}
	.st20{fill:#FEFEFE;}
	.st21{opacity:0.35;}
	.st22{fill:none;}
	.st23{fill:#2A408A;}
	.st24{fill:#F8AC18;}
	.st25{fill:#37A2B8;}
	.st26{fill:#EF3E36;}
	.st27{fill:#073986;}
	.st28{fill:#FF590D;}
	.st29{fill:#005DA7;}
	.st30{fill:#3D1061;}
	.st31{fill:#FFFFFF;}
	.st32{fill:#FFAA1C;}
	.st33{fill:#CEBFAA;}
	.st34{fill:#FE0000;}
	.st35{fill:#2051A8;}
	.st36{fill:#526BAA;}
	.st37{fill:#034F90;}
	.st38{fill:#144C9B;}
	.st39{fill:#F39722;}
	.st40{fill:#147D41;}
	.st41{fill-rule:evenodd;clip-rule:evenodd;fill:#F9B41D;}
	.st42{fill-rule:evenodd;clip-rule:evenodd;fill:#E30520;}
	.st43{fill:#EFA55A;}
	.st44{fill:#737373;}
	.st45{fill:#84ACDD;}
	.st46{fill:#94CE84;}
	.st47{fill:#A583B5;}
	.st48{fill:#FFDE63;}
	.st49{fill:#FF6D00;}
	.st50{fill:#0038A5;}
	.st51{fill:#222222;}
	.st52{display:none;}
</style>
<g id="Слой_1">
	<g>
		<polygon class="st41" points="24.9057808,27.9844475 25.4000359,27.9714985 25.8877926,27.9360085 26.3659515,27.8747272 
			26.8408623,27.790657 27.3027287,27.6840839 27.7582417,27.5547771 28.2039642,27.4030209 28.6401215,27.231863 
			29.066452,27.0379772 29.4799786,26.8280411 29.8805103,26.5954094 30.2714443,26.3467312 30.646183,26.0785561 
			31.0079327,25.7942905 31.3568268,25.4938774 31.6895752,25.1740742 32.0093307,24.8413258 32.3097954,24.4924793 
			32.5940132,24.1307335 32.8621788,23.7559452 33.1109085,23.3651047 33.3435402,22.964529 33.5534706,22.5510044 
			33.7472649,22.1245747 33.9184761,21.6885052 34.0703735,21.2427425 34.199585,20.7872696 34.3061104,20.3253555 
			34.3901787,19.8504448 34.4515533,19.372345 34.4870567,18.8845825 34.5,18.3903751 34.4870567,17.8993301 34.4515533,17.4147148 
			34.3901787,16.9367142 34.3061104,16.4683018 34.199585,16.0063362 34.0703735,15.5540686 33.9184761,15.1083002 
			33.7472649,14.6753836 33.5534706,14.2522478 33.3435402,13.8387794 33.1109085,13.4414406 32.8621788,13.050559 
			32.5940132,12.6758223 32.3097954,12.3172245 32.0093307,11.9683828 31.6895752,11.6356764 31.3568268,11.3190203 
			31.0079327,11.0186081 30.646183,10.7343473 30.2714443,10.4662666 29.8805103,10.217495 29.4799786,9.9881096 
			29.066452,9.7781782 28.6401215,9.5843868 28.2039642,9.4131861 27.7582417,9.2612791 27.3027287,9.1320667 26.8408623,9.0255508 
			26.3659515,8.9414749 25.8877926,8.8800955 25.4000359,8.8446522 24.9057808,8.8316555 24.4147778,8.8446522 
			23.9270153,8.8800955 23.4489155,8.9414749 22.9772568,9.0255508 22.5152855,9.1320667 22.059824,9.2612791 21.6172962,9.4131861 
			21.181179,9.5843868 20.7580032,9.7781782 20.3477287,9.9881096 19.9471493,10.217495 19.5595074,10.4662666 
			19.1847763,10.7343473 18.8230305,11.0186081 18.4773788,11.3190203 18.1446247,11.6356764 17.8280277,11.9683828 
			17.5276146,12.3172245 17.2433491,12.6758223 16.9784775,13.050559 16.7297001,13.4414406 16.5004139,13.8387794 
			16.2871742,14.2522478 16.0965881,14.6753836 15.9253349,15.1083002 15.7767792,15.5540686 15.6475153,16.0063362 
			15.5409985,16.4683018 15.4569702,16.9367142 15.3955898,17.4147148 15.3600531,17.8993301 15.3471031,18.3903751 
			15.3600531,18.8845825 15.3955898,19.372345 15.4569702,19.8504448 15.5409985,20.3253555 15.6475153,20.7872696 
			15.7767792,21.2427425 15.9253349,21.6885052 16.0965881,22.1245747 16.2871742,22.5510044 16.5004139,22.964529 
			16.7297001,23.3651047 16.9784775,23.7559452 17.2433491,24.1307335 17.5276146,24.4924793 17.8280277,24.8413258 
			18.1446247,25.1740742 18.4773788,25.4938774 18.8230305,25.7942905 19.1847763,26.0785561 19.5595074,26.3467312 
			19.9471493,26.5954094 20.3477287,26.8280411 20.7580032,27.0379772 21.181179,27.231863 21.6172962,27.4030209 
			22.059824,27.5547771 22.5152855,27.6840839 22.9772568,27.790657 23.4489155,27.8747272 23.9270153,27.9360085 
			24.4147778,27.9714985 24.9057808,27.9844475 		"/>
		<polygon class="st42" points="12.0941191,27.9844475 12.5851746,27.9714985 13.0729265,27.9360085 13.5510426,27.8747272 
			14.0226536,27.790657 14.4846144,27.6840839 14.9400759,27.5547771 15.3826504,27.4030209 15.8187618,27.231863 
			16.2419395,27.0379772 16.6521759,26.8280411 17.0527573,26.5954094 17.4403915,26.3467312 17.8151283,26.0785561 
			18.1769676,25.7942905 18.5226192,25.4938774 18.8553162,25.1740742 19.1718731,24.8413258 19.4722843,24.4924793 
			19.7565517,24.1307335 20.0214272,23.7559452 20.2702503,23.3651047 20.4995785,22.964529 20.7127666,22.5510044 
			20.9033127,22.1245747 21.074564,21.6885052 21.2231255,21.2427425 21.3523331,20.7872696 21.4589996,20.3253555 
			21.5429306,19.8504448 21.6043091,19.372345 21.6398468,18.8845825 21.6527958,18.3903751 21.6398468,17.8993301 
			21.6043091,17.4147148 21.5429306,16.9367142 21.4589996,16.4683018 21.3523331,16.0063362 21.2231255,15.5540686 
			21.074564,15.1083002 20.9033127,14.6753836 20.7127666,14.2522478 20.4995785,13.8387794 20.2702503,13.4414406 
			20.0214272,13.050559 19.7565517,12.6758223 19.4722843,12.3172245 19.1718731,11.9683828 18.8553162,11.6356764 
			18.5226192,11.3190203 18.1769676,11.0186081 17.8151283,10.7343473 17.4403915,10.4662666 17.0527573,10.217495 
			16.6521759,9.9881096 16.2419395,9.7781782 15.8187618,9.5843868 15.3826504,9.4131861 14.9400759,9.2612791 
			14.4846144,9.1320667 14.0226536,9.0255508 13.5510426,8.9414749 13.0729265,8.8800955 12.5851746,8.8446522 
			12.0941191,8.8316555 11.5999155,8.8446522 11.1121092,8.8800955 10.6340008,8.9414749 10.1591396,9.0255508 9.6972218,9.1320667 
			9.2417622,9.2612791 8.7959414,9.4131861 8.3598242,9.5843868 7.9334478,9.7781782 7.5199223,9.9881096 7.1193886,10.217495 
			6.7285042,10.4662666 6.3537645,10.7343473 5.9919724,11.0186081 5.6430788,11.3190203 5.3103719,11.6356764 
			4.9905658,11.9683828 4.6901541,12.3172245 4.40589,12.6758223 4.1377678,13.050559 3.8889933,13.4414406 3.6564133,13.8387794 
			3.4464273,14.2522478 3.2526305,14.6753836 3.0814304,15.1083002 2.9296246,15.5540686 2.8003659,16.0063362 
			2.6937952,16.4683018 2.6097715,16.9367142 2.5483916,17.4147148 2.5128498,17.8993301 2.5000012,18.3903751 
			2.5128498,18.8845825 2.5483916,19.372345 2.6097715,19.8504448 2.6937952,20.3253555 2.8003659,20.7872696 2.9296246,21.2427425 
			3.0814304,21.6885052 3.2526305,22.1245747 3.4464273,22.5510044 3.6564133,22.964529 3.8889933,23.3651047 4.1377678,23.7559452 
			4.40589,24.1307335 4.6901541,24.4924793 4.9905658,24.8413258 5.3103719,25.1740742 5.6430788,25.4938774 5.9919724,25.7942905 
			6.3537645,26.0785561 6.7285042,26.3467312 7.1193886,26.5954094 7.5199223,26.8280411 7.9334478,27.0379772 8.3598242,27.231863 
			8.7959414,27.4030209 9.2417622,27.5547771 9.6972218,27.6840839 10.1591396,27.790657 10.6340008,27.8747272 
			11.1121092,27.9360085 11.5999155,27.9714985 12.0941191,27.9844475 		"/>
		<polygon class="st41" points="22.7547207,12.614459 22.6126919,11.7761412 17.9641323,11.7761412 17.3891811,12.4674864 
			17.3018398,12.614459 17.2995815,12.614459 16.9926357,13.1346006 22.8428555,13.1346006 22.8428555,12.614459 		"/>
		<polygon class="st41" points="22.5923462,14.0024996 16.3997803,14.0024996 16.173584,14.5226412 15.9442749,15.1589937 
			22.3972778,15.1728487 22.3977051,15.1589937 22.5923462,15.1589937 		"/>
		<polygon class="st41" points="22.5681763,21.5214005 15.8070068,21.5214005 15.9685059,22.041481 15.973999,22.041481 
			16.2080078,22.5438614 22.3198853,22.5438614 22.3198853,22.041481 22.5681763,22.041481 		"/>
		<polygon class="st41" points="22.5923462,23.6089859 16.8390503,23.6089859 17.1445923,24.0959244 17.1367798,24.0959244 
			17.1647339,24.1280899 17.1653442,24.1290054 17.1655884,24.1290054 17.5922241,24.6191788 22.0759277,24.6191788 
			22.0759277,24.1290054 22.5923462,24.1290054 		"/>
		<polygon class="st41" points="22.4723511,16.3439102 15.5335083,16.3439102 15.4333496,16.8639908 15.3704224,17.3517838 
			15.359436,17.8718643 22.3092651,17.8718643 22.3092651,17.6058731 22.4723511,17.6118546 		"/>
		<polygon class="st41" points="22.6970463,18.9931049 15.3600531,18.9998074 15.515625,20.297514 22.0494022,20.297514 
			22.0494022,20.0191975 22.3514042,20.0270615 		"/>
		<polygon class="st42" points="10.3077459,19.2528744 10.3044939,19.2366295 10.2916012,19.2204895 10.2722092,19.2108383 
			10.239912,19.2043877 10.2043753,19.1979446 10.1623869,19.1946411 10.113905,19.1946411 10.0654678,19.1946411 
			10.0137806,19.1979446 9.958847,19.2043877 9.9071655,19.2108383 9.8554811,19.2172852 9.8070879,19.223732 9.7618093,19.2334766 
			9.7230701,19.2431278 9.6875305,19.2528744 9.6648874,19.259325 9.6390438,19.2689724 9.603507,19.2819214 9.5680151,19.2980099 
			9.5259771,19.3174057 9.4839935,19.3400974 9.4388027,19.3626938 9.3967648,19.3885365 9.3515797,19.4207745 9.3095884,19.453064 
			9.2708025,19.4918995 9.235261,19.5306416 9.2029734,19.5726833 9.1803303,19.6178188 9.160985,19.6695518 9.1512871,19.7212391 
			9.1480379,19.8311062 9.1641827,19.9183292 9.1965246,19.9828148 9.2385159,20.0313435 9.2869473,20.0636387 
			9.3419304,20.0830784 9.3935652,20.0926819 9.4452991,20.0959759 9.5421743,20.0926819 9.6293478,20.0830784 9.713418,20.070137 
			9.787652,20.050642 9.8522787,20.0281487 9.9136639,19.999054 9.9685459,19.9699593 10.0170326,19.9344749 10.0590181,19.9021378 
			10.0977602,19.86339 10.1300993,19.8278065 10.1559429,19.7891178 10.1785316,19.75033 10.1979313,19.7115402 
			10.214076,19.6760464 10.223772,19.6405087 10.2496128,19.5467873 10.2722092,19.4401665 10.2916012,19.3367977 
			10.3077459,19.2528744 		"/>
		<polygon class="st9" points="14.1842203,18.0995674 14.1389847,18.0964203 14.0937548,18.089922 14.0517664,18.0834694 
			14.009778,18.0770226 13.9710312,18.0705757 13.9290485,18.0640774 13.8870134,18.0576267 13.8418303,18.0511799 
			13.7965899,18.0447273 13.7449036,18.0414391 13.6867704,18.038229 13.6253843,18.0349827 13.5575113,18.0349827 
			13.4832335,18.038229 13.3992567,18.0447273 13.3055868,18.0511799 13.2409544,18.0608311 13.179575,18.0705757 
			13.1246881,18.089922 13.0762062,18.1092606 13.0309658,18.1319046 12.9889774,18.1578007 12.9566879,18.1900368 
			12.9275923,18.2191277 12.9082527,18.2546635 12.8920612,18.2901592 12.8856096,18.3289948 12.8856096,18.3676834 
			12.8953075,18.4097252 12.9082527,18.4517136 12.9340906,18.4936962 12.9663858,18.5356846 13.0309658,18.597023 
			13.1084909,18.6455097 13.1989613,18.6875401 13.2958879,18.7230816 13.3992567,18.7553768 13.5058298,18.7909126 
			13.6124449,18.8296547 13.7158127,18.871685 13.8127346,18.9265709 13.9031582,18.9944038 13.9839296,19.0751801 
			14.0517664,19.1753025 14.1034479,19.2980099 14.1357908,19.4434662 14.1486883,19.6178188 14.1357908,19.8213596 
			14.1131935,19.9732113 14.0744104,20.1056213 14.0227232,20.2283878 13.9580965,20.3349609 13.8838081,20.4287243 
			13.7997847,20.5094547 13.7093668,20.5804863 13.6091928,20.6418705 13.5058298,20.6902542 13.3992567,20.7323418 
			13.2893896,20.7646255 13.1763744,20.7904739 13.0665073,20.8099194 12.9599342,20.8195171 12.8533144,20.8260059 
			12.7531509,20.829258 12.6142826,20.829258 12.4850292,20.8260059 12.3720093,20.8260059 12.2653885,20.8227596 
			12.1684723,20.8195171 12.0812435,20.8130608 12.0037241,20.8066196 11.9294453,20.7969151 11.8616085,20.7904739 
			11.8002234,20.7775249 11.738843,20.7678738 11.6839151,20.7516804 11.6289759,20.7387829 11.5772943,20.7194424 
			11.5256109,20.7000523 11.4707289,20.6806488 11.6160831,19.9667702 11.6451788,19.9732113 11.6807098,19.9828148 
			11.7259035,19.9958019 11.7808313,20.0087585 11.8389645,20.0216923 11.9035969,20.0345917 11.9746809,20.050642 
			12.0522051,20.0636387 12.1329355,20.0765781 12.2169065,20.089529 12.3041353,20.0991802 12.3946056,20.1089153 
			12.4882803,20.1120682 12.5819454,20.1153736 12.6756258,20.1153736 12.7693424,20.1120682 12.863018,20.0926819 
			12.9372959,20.066885 12.995429,20.0313435 13.0406647,19.9861565 13.0729542,19.9409218 13.0988445,19.8891869 
			13.1149893,19.8375473 13.1279402,19.7891178 13.1343393,19.6953907 13.1052961,19.614666 13.0503578,19.5499916 
			12.9695807,19.4951057 12.8727112,19.4466228 12.7596493,19.3981838 12.6336374,19.3529491 12.5076675,19.3013134 
			12.3784609,19.2431278 12.2556953,19.1753025 12.1426811,19.0912724 12.0392551,18.9911575 11.958478,18.868391 
			11.9003448,18.7230816 11.8712549,18.5485821 11.874507,18.3418922 11.8906565,18.2158813 11.9132957,18.0964203 
			11.94559,17.986496 11.9843264,17.8831272 12.0360079,17.7862568 12.0941935,17.7022858 12.1620207,17.6215515 
			12.2428026,17.5504303 12.3364725,17.4890499 12.4398403,17.4374104 12.5561075,17.3888817 12.6853142,17.3533878 
			12.8307276,17.3243484 12.9889774,17.3017006 13.1634293,17.2888012 13.3540163,17.2855091 13.4735298,17.2855091 
			13.5833549,17.2888012 13.6835184,17.2920074 13.7739468,17.2952595 13.854723,17.3017006 13.9290485,17.3081989 
			13.9936333,17.3145981 14.0517664,17.3210506 14.1066952,17.3275394 14.1519299,17.3372421 14.193924,17.3437405 
			14.2326651,17.3501816 14.2650023,17.3566399 14.2940874,17.3598328 14.3231354,17.3662853 14.3489733,17.369585 
			14.1842203,18.0995674 		"/>
		<polygon class="st9" points="14.9497976,16.5716171 15.8446283,16.5716171 15.7121744,17.3533878 16.2516594,17.3533878 
			16.1353512,18.0834694 15.5668182,18.0672722 15.2567081,19.8698483 15.2534561,19.9344749 15.2696009,19.9893131 
			15.3019953,20.0313435 15.3439312,20.066885 15.4020643,20.089529 15.466691,20.1089153 15.5377226,20.1218147 
			15.6152477,20.1282711 15.6863317,20.1250191 15.7510099,20.1185207 15.8090963,20.1089153 15.8607779,20.0959759 
			15.9027662,20.0830784 15.9318562,20.0733318 15.9512482,20.066885 15.9576998,20.0636387 15.8446283,20.664463 
			15.8220415,20.6806488 15.7993927,20.693594 15.7768536,20.7064934 15.7541628,20.7194424 15.7315712,20.7291355 
			15.7057753,20.7387829 15.6766329,20.7485332 15.6475897,20.7581787 15.6152477,20.7678738 15.5829582,20.7743721 
			15.5442209,20.7808285 15.5054846,20.7872696 15.4634447,20.7936687 15.4150152,20.8001671 15.3633232,20.8066196 
			15.3083944,20.8130608 15.0628691,20.8130608 14.9336519,20.8034153 14.820591,20.7904739 14.7172174,20.7710838 
			14.6300459,20.7485332 14.5557156,20.7194424 14.4943829,20.687149 14.4394436,20.6483135 14.3974133,20.6063709 
			14.3651705,20.5610943 14.3425322,20.5062084 14.3263874,20.4512691 14.3166885,20.3898888 14.3134375,20.3220634 
			14.3134375,20.2510319 14.3231354,20.1767521 14.3328285,20.0959759 14.9497976,16.5716171 		"/>
		<polygon class="st9" points="19.1427822,18.3838081 19.1169491,18.1899872 19.0718899,18.018816 19.0071201,17.8701744 
			18.9264317,17.7409992 18.8294601,17.6311722 18.7229366,17.5408115 18.6066189,17.4631844 18.480629,17.4051476 
			18.3514538,17.3566608 18.2189751,17.324337 18.0864944,17.3016853 17.9540157,17.2888298 17.8281479,17.2855244 
			17.56637,17.2983799 17.3338585,17.3371944 17.1238728,17.3953533 16.9365406,17.4760399 16.7749195,17.5730133 
			16.6328907,17.6828403 16.5067768,17.8056488 16.4034386,17.9348221 16.3130779,18.0704861 16.2387562,18.2126369 
			16.1805973,18.3514843 16.1321106,18.4904537 16.0966034,18.6261177 16.0707684,18.7521076 16.051424,18.8716087 
			16.0385666,18.975071 16.0222836,19.2399082 16.0319557,19.4789104 16.0674629,19.6953831 16.1224384,19.8860226 
			16.1999435,20.0571938 16.2936096,20.2057133 16.4034386,20.338192 16.5294285,20.4480209 16.6650925,20.541687 
			16.8105507,20.6223755 16.9623756,20.6838398 17.1205673,20.7323265 17.2821884,20.7710171 17.4436855,20.7936687 
			17.6051846,20.8098297 17.7634983,20.8130131 17.8701439,20.8130131 17.9701767,20.8098297 18.057476,20.8098297 
			18.1413479,20.8066463 18.2157917,20.8001575 18.2836227,20.7936687 18.3481483,20.787178 18.4064293,20.7775059 
			18.4612827,20.7678337 18.5129528,20.7549782 18.5646229,20.7386932 18.6131077,20.7226524 18.6614723,20.703186 
			18.7132645,20.6838398 18.7649345,20.6580048 18.8166027,20.6321697 18.9457779,19.8375359 18.8521118,19.8925114 
			18.7616272,19.9440594 18.6679611,19.9827499 18.5774784,20.0183792 18.4903011,20.0475197 18.3999405,20.0668659 
			18.3126411,20.0830269 18.2254639,20.0960064 18.1381645,20.1023731 18.0541706,20.1055565 17.9669933,20.1055565 
			17.8829994,20.1023731 17.7990074,20.0960064 17.7150135,20.0862122 17.634203,20.0765381 17.5503311,20.0635605 
			17.4856834,20.050581 17.4210358,20.0281754 17.3563862,19.9990349 17.2983494,19.9634037 17.2401905,19.9247131 
			17.1885223,19.8762264 17.1400356,19.8277416 17.0947323,19.7728882 17.0560417,19.7179127 17.0205345,19.6565704 
			16.9946995,19.5985336 16.9720478,19.5370693 16.9590702,19.4757271 16.9527035,19.4142609 16.9558868,19.356226 
			16.9627438,19.3174114 17.0853043,18.6810932 17.0947323,18.6324844 17.1077118,18.5646515 17.1270561,18.5001259 
			17.1497078,18.4354782 17.1788483,18.3774414 17.2078667,18.3224659 17.2433739,18.2707958 17.2821884,18.222311 
			17.3241844,18.1770077 17.3661823,18.1383171 17.4145451,18.1028099 17.4630318,18.0736694 17.5178852,18.0478344 
			17.5728607,18.0284882 17.6278362,18.0156326 17.6859951,18.0058365 17.7473373,18.0026531 17.8054962,18.0091438 
			17.8603497,18.018816 17.9120178,18.0317936 17.96381,18.0511398 18.0121746,18.0769749 18.0606594,18.1059933 
			18.1026573,18.1383171 18.1413479,18.1770077 18.1737938,18.222311 18.2059956,18.2707958 18.2286472,18.3256493 
			18.2512989,18.3869915 18.2641544,18.4516411 18.2706451,18.5226555 18.2738285,18.6002827 18.2674618,18.6810932 
			17.0853043,18.6810932 16.9627438,19.3174114 19.0589123,19.3174114 19.0749512,19.1202831 19.1234379,18.8489571 
			19.1460896,18.603466 		"/>
		<polygon class="st9" points="24.6700287,17.5472317 24.6279888,17.5245819 24.5860062,17.5052433 24.5408115,17.4825935 
			24.4923248,17.4600067 24.4438438,17.4405632 24.3889618,17.4212132 24.3340282,17.4018211 24.2759418,17.3824253 
			24.2145615,17.3662853 24.1531811,17.3533878 24.08535,17.3404427 24.017519,17.3307896 23.9431934,17.3243484 
			23.8689156,17.3178921 23.791338,17.3178921 23.7105618,17.3178921 23.6297836,17.3178921 23.5458126,17.3243484 
			23.4585896,17.3339958 23.3681602,17.3501816 23.2777386,17.3760262 23.1872673,17.4115677 23.0967922,17.4567604 
			23.0063686,17.5149364 22.9191933,17.585968 22.8351631,17.6699963 22.7544441,17.7733173 22.6768665,17.8928719 
			22.605835,18.0349827 22.5380039,18.1964893 22.4766178,18.3774357 22.4248848,18.5841293 22.4054928,18.7003918 
			22.3925533,18.8134518 22.3861065,18.9265709 22.3894005,19.036438 22.3990459,19.1462536 22.42169,19.2495804 
			22.4507332,19.3465481 22.4862709,19.4434662 22.5347099,19.5306416 22.592886,19.614666 22.6607227,19.6889496 
			22.7381954,19.7567749 22.8254185,19.8148575 22.9256382,19.86339 23.0354118,19.9053841 23.1581783,19.9344749 
			23.2001648,19.9441261 23.2485962,19.9538708 23.3067818,19.9603119 23.3713551,19.9667702 23.4424915,19.9732113 
			23.5167694,19.9732113 23.5975456,19.9732113 23.6783237,19.9667702 23.7622433,19.9570236 23.8462238,19.9409218 
			23.9269962,19.9183292 24.0077686,19.8924866 24.0885029,19.856945 24.1628704,19.8148575 24.2307072,19.7632694 
			24.2952404,19.7050419 24.1499252,20.5675888 24.1304913,20.5837841 24.1111355,20.6030827 24.08535,20.6257687 
			24.0562134,20.6451645 24.0206661,20.6709557 23.9754314,20.693594 23.9238014,20.7161388 23.8656158,20.7355881 
			23.791338,20.7581787 23.7073555,20.7743721 23.610487,20.7872696 23.4974251,20.8001671 23.3713551,20.8066196 
			23.2260036,20.8099194 23.0612965,20.8066196 22.8803577,20.7969151 22.7317543,20.7808285 22.5831394,20.7485332 
			22.4346409,20.7000523 22.2860317,20.6354141 22.1438751,20.5579414 22.0082073,20.4610195 21.8789997,20.3479481 
			21.7594337,20.2186947 21.6528664,20.0733318 21.5623493,19.9118309 21.4848709,19.7308903 21.4266815,19.5338478 
			21.387991,19.3174057 21.3750515,19.0880775 21.3814926,18.8360958 21.4170341,18.5680256 21.4428768,18.4355202 
			21.4719734,18.3063049 21.5042572,18.1803913 21.5365067,18.0608311 21.572094,17.9478111 21.6140823,17.8347397 
			21.6560669,17.7280827 21.7013016,17.6280079 21.7497826,17.5278339 21.7981758,17.4341125 21.8531513,17.3437405 
			21.9112949,17.2596645 21.9693718,17.1789875 22.03405,17.1014099 22.098587,17.0303783 22.1664619,16.962553 
			22.2407398,16.8978729 22.3150749,16.8364925 22.3925533,16.7816582 22.4733295,16.7299194 22.5605488,16.6814384 
			22.6477718,16.6394501 22.7381954,16.6007137 22.8319168,16.5651722 22.9320908,16.532835 23.0322132,16.5070381 
			23.1356335,16.4843941 23.2454433,16.4649982 23.3552113,16.4488106 23.4715347,16.435955 23.587801,16.4294605 
			23.7105618,16.4263077 23.8139763,16.4294605 23.9141026,16.435955 24.0110207,16.4456005 24.1079407,16.4585991 
			24.19837,16.4714966 24.285635,16.4908466 24.3695641,16.5070381 24.4471416,16.5263786 24.5214157,16.5457745 
			24.5860062,16.5651722 24.6473846,16.5845108 24.6991196,16.6039543 24.7443066,16.6200523 24.7830486,16.6329975 
			24.8121338,16.6458969 24.8314838,16.6524372 24.6700287,17.5472317 		"/>
		<polyline class="st31" points="32.6231804,20.8130608 31.728344,20.8130608 31.7930222,20.4545212 31.7930222,20.422226 
			31.7412415,20.4867592 31.6863556,20.5449905 31.6314163,20.5966263 31.5732899,20.6418705 31.5151501,20.6838589 
			31.4569759,20.7194424 31.3988895,20.7485332 31.3375092,20.7775249 31.276123,20.8001671 31.2147388,20.8163605 
			31.1533642,20.8324623 31.0887318,20.8422089 31.024147,20.8518543 30.9627666,20.8583012 30.89814,20.8615475 
			30.8335495,20.8615475 30.6656075,20.84865 30.5105,20.8130608 30.3683434,20.7581787 30.2391262,20.6838589 
			30.122818,20.5902271 30.0194912,20.48036 29.9290257,20.3608456 29.8514957,20.2251873 29.7869167,20.0797844 
			29.7351818,19.9279747 29.699688,19.7697258 29.6738434,19.6049728 29.6641979,19.4401665 29.667345,19.2722187 
			29.6835003,19.1074181 29.7126369,18.9426689 29.7610683,18.7521667 29.8192005,18.5711784 29.8870373,18.4064255 
			29.9677563,18.2514172 30.0518322,18.1060658 30.1487541,17.9768486 30.2488766,17.8605824 30.3554497,17.7539196 
			30.4685631,17.6602459 30.5880241,17.5794678 30.7108898,17.5084896 30.8335495,17.4535561 30.9627666,17.4082737 
			31.0919781,17.3792725 31.2211895,17.3598328 31.3536072,17.3533878 31.4473248,17.3566399 31.5377426,17.3662853 
			31.6217709,17.3824253 31.6993008,17.4051208 31.7736206,17.4309635 31.8381538,17.4600067 31.9028378,17.495491 
			31.9609718,17.5310383 32.0126114,17.5698223 32.0610924,17.6118164 32.103035,17.6537991 32.141819,17.6958351 
			32.1741562,17.7378178 32.2031975,17.7798119 32.2290916,17.818594 32.2484856,17.8572884 32.4745674,16.5878143 
			33.3532104,16.5878143 32.6231804,20.8130608 		"/>
		<polygon class="st41" points="31.1598568,20.0313435 31.2503281,20.0248451 31.3342094,20.0055065 31.411787,19.9828148 
			31.4861069,19.9473724 31.5539436,19.9085789 31.6185246,19.8600979 31.6798573,19.8052578 31.7347851,19.747036 
			31.7832298,19.682497 31.8284664,19.611372 31.8704548,19.5371399 31.9059906,19.459568 31.9383335,19.3787861 
			31.9641666,19.294857 31.9867668,19.207592 32.0029602,19.1203632 32.0190506,19.0299454 32.0287552,18.9362183 
			32.0287552,18.8489952 32.0255508,18.7585716 32.0158997,18.6745949 32.0029602,18.5938702 31.9803104,18.5162926 
			31.9545193,18.4419632 31.9222355,18.3774357 31.8833885,18.3160496 31.8414574,18.2643166 31.7930222,18.2191277 
			31.7380886,18.1803913 31.6798573,18.154501 31.6185246,18.1384087 31.5506401,18.1319046 31.4634228,18.1384087 
			31.3827438,18.1513004 31.3083611,18.1770973 31.2341347,18.2094345 31.1694622,18.2514172 31.1049194,18.3031101 
			31.0499439,18.357996 30.9950562,18.4193764 30.9465694,18.4905014 30.9013863,18.5647278 30.8593521,18.6423054 
			30.8238049,18.7262287 30.7915192,18.8134518 30.765728,18.9007282 30.7398853,18.9944038 30.7204876,19.0880775 
			30.7043438,19.2301884 30.7108898,19.3852386 30.733429,19.5435925 30.7753754,19.6953907 30.8400478,19.8278065 
			30.9240246,19.9344749 31.0306454,20.0055065 31.1598568,20.0313435 		"/>
		<polygon class="st9" points="11.3221235,20.0959759 11.1929064,20.8130608 10.37885,20.8130608 10.4014435,20.6806488 
			10.4176388,20.5610943 10.4305344,20.4707127 10.4434814,20.422226 10.398241,20.4738655 10.3465576,20.525547 
			10.2852268,20.5740337 10.2173977,20.6193218 10.139823,20.664463 10.0590439,20.7032452 9.97507,20.7420349 
			9.8878431,20.7743721 9.7941713,20.8034153 9.7004986,20.8260059 9.606782,20.8453617 9.5099068,20.8583012 9.4161844,20.8647938 
			9.3225622,20.868 9.2320862,20.8583012 9.1448631,20.8453617 9.0317965,20.8163605 8.9284801,20.7840748 8.8380022,20.7420349 
			8.7572279,20.693594 8.6861496,20.6418705 8.6215172,20.5837841 8.5698824,20.5223999 8.524601,20.4577255 8.4858589,20.3898888 
			8.4535694,20.3188152 8.4277258,20.2477837 8.4083338,20.1767521 8.3953867,20.1024227 8.3857374,20.0281487 8.379241,19.9570236 
			8.379241,19.8859921 8.388937,19.7599812 8.4083338,19.6405087 8.4406214,19.5273952 8.4826126,19.4176216 8.5342941,19.3142548 
			8.5924797,19.2204895 8.6603107,19.1301079 8.7378836,19.0493317 8.8186131,18.9750538 8.9090805,18.9072266 
			9.0027065,18.8458424 9.0996275,18.7941074 9.2029963,18.7489204 9.3096638,18.7133312 9.4194317,18.6842403 
			9.5324984,18.6649017 9.53895,18.6649017 9.5550947,18.6616955 9.5777855,18.6584034 9.6133251,18.6552544 9.6520138,18.648756 
			9.6972494,18.6455097 9.7456865,18.6390533 9.8006201,18.6325645 9.8555565,18.6261597 9.9104376,18.6197128 9.9686203,18.616415 
			10.0203047,18.6099625 10.0719891,18.6067677 10.1204233,18.6035213 10.1656637,18.600317 10.2012033,18.600317 
			10.2754812,18.600317 10.353056,18.6035213 10.4240818,18.6067677 10.4951658,18.6067677 10.553299,18.6099625 
			10.5985346,18.6132622 10.6308241,18.616415 10.6405249,18.616415 10.6469746,18.5938702 10.6663609,18.5356846 
			10.6825132,18.4678059 10.6890068,18.4064255 10.6760645,18.3354473 10.6469746,18.2707672 10.6082296,18.2126865 
			10.5565462,18.1642418 10.4951658,18.1222115 10.4272842,18.0931149 10.3497601,18.0737286 10.2657852,18.0672722 
			10.1753597,18.0640774 10.0784378,18.0608311 9.9782667,18.0608311 9.874898,18.0640774 9.7683306,18.0705757 
			9.6649618,18.0801697 9.5615911,18.089922 9.4614201,18.1028194 9.3645029,18.1157131 9.2708254,18.1319046 9.1868515,18.1480541 
			9.1093731,18.1642418 9.0382452,18.1835957 8.9801121,18.2029362 8.9348793,18.225626 8.8993378,18.2449245 9.1287184,17.4664478 
			9.1997499,17.4374104 9.2708254,17.4115677 9.3483534,17.3888817 9.4258833,17.3727779 9.5034084,17.3566399 
			9.5874348,17.3437405 9.6714087,17.3307896 9.7586317,17.3243484 9.8491049,17.3178921 9.9427271,17.3145981 
			10.0396519,17.3113461 10.139823,17.3113461 10.2431889,17.3113461 10.3497601,17.3113461 10.4628286,17.3145981 
			10.5758934,17.3178921 10.6663609,17.3243484 10.7632856,17.3404427 10.8634071,17.363081 10.966773,17.39217 
			11.0668993,17.4309635 11.1638184,17.4761009 11.2607384,17.5310383 11.3512106,17.5924187 11.4319382,17.6635399 
			11.5030165,17.7410278 11.5676479,17.8282452 11.6160831,17.9251156 11.6483727,18.0285416 11.6677704,18.1384087 
			11.6677704,18.2611675 11.6483727,18.3903751 11.3221235,20.0959759 		"/>
		<polygon class="st42" points="10.543601,19.2528744 10.540349,19.2366295 10.5274553,19.2204895 10.5080643,19.2108383 
			10.4757662,19.2043877 10.4402294,19.1979446 10.398241,19.1946411 10.3497601,19.1946411 10.301322,19.1946411 
			10.2496357,19.1979446 10.1947021,19.2043877 10.1430206,19.2108383 10.0913363,19.2172852 10.042943,19.223732 
			9.9976635,19.2334766 9.9589243,19.2431278 9.9233856,19.2528744 9.9007416,19.259325 9.874898,19.2689724 9.8393621,19.2819214 
			9.8038692,19.2980099 9.7618313,19.3174057 9.7198486,19.3400974 9.6746578,19.3626938 9.6326199,19.3885365 
			9.5874348,19.4207745 9.5454435,19.453064 9.5066576,19.4918995 9.4711161,19.5306416 9.4388285,19.5726833 9.4161844,19.6178188 
			9.3968401,19.6695518 9.3871412,19.7212391 9.3838921,19.8311062 9.4000368,19.9183292 9.4323797,19.9828148 9.47437,20.0313435 
			9.5228024,20.0636387 9.5777855,20.0830784 9.6294203,20.0926819 9.6811543,20.0959759 9.7780285,20.0926819 
			9.8652029,20.0830784 9.9492731,20.070137 10.0235071,20.050642 10.0881338,20.0281487 10.149519,19.999054 
			10.2044001,19.9699593 10.2528877,19.9344749 10.2948732,19.9021378 10.3336143,19.86339 10.3659544,19.8278065 
			10.391798,19.7891178 10.4143867,19.75033 10.4337854,19.7115402 10.4499311,19.6760464 10.4596272,19.6405087 
			10.4854679,19.5467873 10.5080643,19.4401665 10.5274553,19.3367977 10.543601,19.2528744 		"/>
		<polyline class="st31" points="4.5254283,20.8130608 3.6467898,20.8130608 4.3800745,16.5716171 5.9080215,16.5716171 
			6.0533805,19.0880775 7.1097183,16.5716171 8.7055902,16.5716171 7.9560642,20.8130608 7.0774255,20.8130608 
			7.6330585,17.6441002 7.5975194,17.6441002 6.2827611,20.8130608 5.2910032,20.8130608 5.2845564,20.6806488 5.26196,20.3285618 
			5.2328696,19.8278065 5.2005801,19.2528744 5.1682901,18.6745949 5.1391997,18.1674461 5.1166034,17.799202 5.1101098,17.6441002 
			5.1004114,17.6441002 5.0810666,17.6441002 5.0616698,17.6441002 4.5254283,20.8130608 		"/>
		<polygon class="st9" points="27.3545265,20.0959759 27.2220268,20.8130608 26.4112606,20.8130608 26.4177017,20.6806488 
			26.4209061,20.5643826 26.4209061,20.4771652 26.4273109,20.4383297 26.3853645,20.4867592 26.3368778,20.5352459 
			26.2787495,20.5804863 26.2141705,20.6257687 26.1463337,20.667757 26.0687141,20.7064934 25.9880371,20.7452393 
			25.907259,20.7775249 25.8200359,20.8034153 25.7296124,20.829258 25.6390915,20.8453617 25.5486622,20.8583012 
			25.4549408,20.8647938 25.3645744,20.868 25.2773457,20.8583012 25.1900749,20.8453617 25.0738087,20.8163605 
			24.9704399,20.7840748 24.8799648,20.7420349 24.7959843,20.693594 24.7249565,20.6418705 24.6635723,20.5837841 
			24.6118965,20.5223999 24.5666027,20.4577255 24.527914,20.3898888 24.4987774,20.3188152 24.4729862,20.2477837 
			24.4567928,20.1767521 24.4438438,20.1024227 24.4341908,20.0281487 24.4277496,19.9570236 24.4277496,19.8859921 
			24.4341908,19.7599812 24.4535885,19.6405087 24.4826317,19.5273952 24.5246201,19.4176216 24.573061,19.3142548 
			24.6344395,19.2204895 24.7022667,19.1301079 24.7765923,19.0493317 24.8606148,18.9750538 24.9477978,18.9072266 
			25.0414677,18.8458424 25.1416359,18.7941074 25.2418098,18.7489204 25.3483772,18.7133312 25.4549408,18.6842403 
			25.5648079,18.6649017 25.5712643,18.6649017 25.5874557,18.6616955 25.6100426,18.6584034 25.6423855,18.6552544 
			25.6843777,18.648756 25.7296124,18.6455097 25.7780476,18.6390533 25.8296871,18.6325645 25.8846626,18.6261597 
			25.9427967,18.6197128 25.997736,18.616415 26.0526161,18.6099625 26.1043034,18.6067677 26.149538,18.6035213 
			26.1947784,18.600317 26.2302685,18.600317 26.3078346,18.600317 26.3853645,18.6035213 26.4596481,18.6067677 
			26.5306797,18.6067677 26.5920544,18.6099625 26.6437473,18.6132622 26.6728783,18.616415 26.6857777,18.616415 
			26.6921768,18.5938702 26.7019215,18.5356846 26.7116261,18.4678059 26.7180729,18.4064255 26.7051277,18.3354473 
			26.6793365,18.2707672 26.637289,18.2126865 26.5888596,18.1642418 26.5306797,18.1222115 26.4628487,18.0931149 
			26.3918171,18.0737286 26.314291,18.0672722 26.2237644,18.0640774 26.1269417,18.0608311 26.02672,18.0608311 
			25.9234047,18.0640774 25.8167381,18.0705757 25.7133694,18.0801697 25.6100426,18.089922 25.5098782,18.1028194 
			25.4130039,18.1157131 25.3192825,18.1319046 25.2353573,18.1480541 25.1577797,18.1642418 25.0867481,18.1835957 
			25.028574,18.2029362 24.9833851,18.225626 24.9477978,18.2449245 25.1739731,17.4664478 25.2450047,17.4374104 
			25.3192825,17.4115677 25.3935604,17.3888817 25.4710846,17.3727779 25.5518665,17.3566399 25.6326447,17.3437405 
			25.7166634,17.3307896 25.8038387,17.3243484 25.8943672,17.3178921 25.9880371,17.3145981 26.0816593,17.3113461 
			26.181776,17.3113461 26.2820435,17.3113461 26.3853645,17.3113461 26.4951324,17.3145981 26.6049576,17.3178921 
			26.6954803,17.3243484 26.7923965,17.3404427 26.8925133,17.363081 26.9958916,17.39217 27.096056,17.4309635 
			27.1961308,17.4761009 27.2930984,17.5310383 27.3835278,17.5924187 27.4643002,17.6635399 27.5385818,17.7410278 
			27.603157,17.8282452 27.651598,17.9251156 27.6871853,18.0285416 27.7098293,18.1384087 27.7098293,18.2611675 
			27.6936283,18.3903751 27.3545265,20.0959759 		"/>
		<polygon class="st41" points="26.5727158,19.2528744 26.5662632,19.2334766 26.5533657,19.2172852 26.5306797,19.207592 
			26.4984379,19.1979446 26.4628487,19.1946411 26.4209061,19.1914883 26.3723774,19.1914883 26.3239841,19.1946411 
			26.2723026,19.2011395 26.2206116,19.207592 26.1688824,19.2140388 26.1204014,19.2204895 26.0720139,19.2301884 
			26.0300255,19.2366295 25.9880371,19.246376 25.9556942,19.2528744 25.9330559,19.2560215 25.907259,19.2657661 
			25.8750114,19.275465 25.8394279,19.2883625 25.7973976,19.3077545 25.7586555,19.3271523 25.7133694,19.3497009 
			25.6714268,19.3787861 25.6294441,19.4079285 25.5874557,19.4434662 25.5518665,19.47896 25.516325,19.5209484 
			25.4873352,19.5661793 25.4646912,19.614666 25.4452934,19.666357 25.4356003,19.7212391 25.4323959,19.8311062 
			25.4484997,19.9183292 25.4743843,19.9828148 25.5131779,20.0313435 25.5616131,20.0636387 25.6165409,20.0830784 
			25.6714268,20.0926819 25.726366,20.0959759 25.8232365,20.0926819 25.9137058,20.0830784 25.997736,20.066885 
			26.0720139,20.0442429 26.1430874,20.018404 26.2044239,19.9893131 26.2625999,19.9570236 26.314291,19.9183292 
			26.3594799,19.8826885 26.3982639,19.8407516 26.4337521,19.8020115 26.4628487,19.7599812 26.485487,19.7212391 
			26.5015907,19.682497 26.5145302,19.6436615 26.524229,19.6082191 26.5371742,19.5177441 26.5533657,19.4240799 
			26.5662632,19.3335991 26.5727158,19.2528744 		"/>
		<polygon class="st9" points="27.5967102,20.8130608 28.5076447,20.8130608 28.8339939,18.9750538 28.8468456,18.9039326 
			28.8662319,18.832901 28.8856812,18.761776 28.9115238,18.6907864 28.9437618,18.6197128 28.9824982,18.5518761 
			29.024538,18.4872017 29.0762253,18.4258175 29.1344051,18.3709888 29.1989326,18.3192539 29.2732639,18.2707672 
			29.3572464,18.2320251 29.4509163,18.199789 29.5542831,18.1739445 29.667345,18.154501 29.7934093,18.1480541 
			29.8385506,18.1480541 29.8643894,18.1480541 29.8740864,18.1480541 30.0194912,17.3178921 29.9290257,17.3243484 
			29.8418503,17.3339958 29.7610683,17.3501816 29.6835003,17.3727779 29.6125107,17.3986282 29.5446377,17.4309635 
			29.4800053,17.4664478 29.4186249,17.5052433 29.3605385,17.5504303 29.3056049,17.5957127 29.2538776,17.6473465 
			29.2022324,17.6990395 29.1537457,17.7539196 29.1053162,17.8153057 29.0568333,17.8734818 29.0115929,17.9380665 
			29.1086102,17.3533878 28.2007866,17.3533878 27.5967102,20.8130608 		"/>
		<polyline class="st31" points="19.0426884,20.8130608 19.9537163,20.8130608 19.969862,20.8130608 20.2799721,18.9750538 
			20.2928181,18.9039326 20.3090153,18.8360958 20.3251553,18.7682705 20.3477993,18.7036839 20.3736,18.6390533 
			20.4058895,18.577673 20.444725,18.5195389 20.4899139,18.464653 20.5415955,18.416172 20.599781,18.3676834 
			20.6708126,18.3289948 20.7483311,18.2934628 20.8388081,18.2643166 20.9389286,18.2384777 21.0487957,18.222332 
			21.1747131,18.2126865 21.1844597,18.2126865 21.1974049,18.2158813 21.2135487,18.2191277 21.2296429,18.2191277 
			21.2458401,18.222332 21.2587852,18.225626 21.268383,18.2288322 21.2716255,18.2288322 21.274929,18.2158813 
			21.2845802,18.1770973 21.2974739,18.1190052 21.3136711,18.0478802 21.3362579,17.9639034 21.35886,17.8734818 
			21.387991,17.7830048 21.4170341,17.6925411 21.4428768,17.6311607 21.4751682,17.5698223 21.5074635,17.5084896 
			21.5397987,17.4535561 21.5688419,17.4051208 21.591486,17.3662853 21.6076317,17.3437405 21.6140823,17.3339958 
			21.6108303,17.3339958 21.5978851,17.3307896 21.5817413,17.3275394 21.5591965,17.3243484 21.5365067,17.3243484 
			21.5107098,17.3210506 21.4880657,17.3178921 21.4654751,17.3178921 21.3653011,17.3243484 21.274929,17.3339958 
			21.1909065,17.3501816 21.1133289,17.369585 21.0390511,17.3953762 20.9712143,17.4276714 20.9098396,17.4600067 
			20.851757,17.4987907 20.7968197,17.5407848 20.7450848,17.5892143 20.6966972,17.6376534 20.6482105,17.6925411 
			20.599781,17.7474689 20.5545406,17.8088493 20.5061054,17.8734818 20.4576244,17.9380665 20.5739326,17.3533878 
			19.646759,17.3533878 19.0426884,20.8130608 		"/>
	</g>
</g>
<g id="Слой_2" class="st52">
</g>
</svg>
