<?xml version="1.0" encoding="utf-8"?>
<!-- Generator: Adobe Illustrator 19.1.1, SVG Export Plug-In . SVG Version: 6.00 Build 0)  -->
<svg version="1.1" xmlns="http://www.w3.org/2000/svg" xmlns:xlink="http://www.w3.org/1999/xlink" x="0px" y="0px" width="37px"
	 height="37px" viewBox="0 0 37 37" style="enable-background:new 0 0 37 37;" xml:space="preserve">
<style type="text/css">
	.st0{fill:#BE2B25;}
	.st1{fill-rule:evenodd;clip-rule:evenodd;fill:#FCC200;}
	.st2{fill-rule:evenodd;clip-rule:evenodd;fill:#A7D4E9;}
	.st3{fill-rule:evenodd;clip-rule:evenodd;fill:#184E9B;}
	.st4{fill-rule:evenodd;clip-rule:evenodd;fill:#575756;}
	.st5{fill:#211F1F;}
	.st6{fill:#FFE512;}
	.st7{fill:#FF0014;}
	.st8{fill:#ED1A2E;}
	.st9{fill-rule:evenodd;clip-rule:evenodd;fill:#FFFFFF;}
	.st10{fill-rule:evenodd;clip-rule:evenodd;fill:#1D1D1B;}
	.st11{fill-rule:evenodd;clip-rule:evenodd;fill:#62B12F;}
	.st12{fill:#FF9900;}
	.st13{fill-rule:evenodd;clip-rule:evenodd;fill:#003671;}
	.st14{fill:#005098;}
	.st15{fill:#F6A500;}
	.st16{fill:#12100B;}
	.st17{fill:#B8182B;}
	.st18{fill:#AE1F31;}
	.st19{fill:#88BF52;}
	.st20{fill:#FEFEFE;}
	.st21{opacity:0.35;}
	.st22{fill:none;}
	.st23{fill:#2A408A;}
	.st24{fill:#F8AC18;}
	.st25{fill:#37A2B8;}
	.st26{fill:#EF3E36;}
	.st27{fill:#073986;}
	.st28{fill:#FF590D;}
	.st29{fill:#005DA7;}
	.st30{fill:#3D1061;}
	.st31{fill:#FFFFFF;}
	.st32{fill:#FFAA1C;}
	.st33{fill:#CEBFAA;}
	.st34{fill:#FE0000;}
	.st35{fill:#2051A8;}
	.st36{fill:#526BAA;}
	.st37{fill:#034F90;}
	.st38{fill:#144C9B;}
	.st39{fill:#F39722;}
	.st40{fill:#147D41;}
	.st41{fill-rule:evenodd;clip-rule:evenodd;fill:#F9B41D;}
	.st42{fill-rule:evenodd;clip-rule:evenodd;fill:#E30520;}
	.st43{fill:#EFA55A;}
	.st44{fill:#737373;}
	.st45{fill:#84ACDD;}
	.st46{fill:#94CE84;}
	.st47{fill:#A583B5;}
	.st48{fill:#FFDE63;}
	.st49{fill:#FF6D00;}
	.st50{fill:#0038A5;}
	.st51{fill:#222222;}
	.st52{display:none;}
</style>
<g id="Слой_1">
	<path class="st12" d="M33.5008965,33.5507889c-0.8678207-1.7690277-2.4106407-3.0702057-4.0821743-4.0641747
		c-0.5797558-0.3461399-1.2342396-0.5906563-1.8040104-0.776474c-1.3120346-0.4246597-2.5824013-0.523428-4.0602417-0.77565
		c-1.2046127-0.2065086-2.1553593-0.7008705-3.1738319-1.3926697c-0.5322685-0.362566-0.9664097-0.8603096-1.3282909-1.390152
		c-0.067358-0.1052303-0.4076252-0.5183449-0.3725967-0.66012c0,0-0.2372856,0.946909,0.2315598,2.275053
		c-4.3048992-0.1946068-8.078681-2.5804291-9.8077726-5.4737949C5.9214144,15.9676933,7.0435119,9.5149393,11.2852688,6.664166
		c4.2413006-2.8509159,10.7085209-0.8410387,14.1713829,4.3065982c2.1723938,3.229414,2.7278309,6.9878063,1.7970924,10.0420418
		c-0.006773,0.0242157-0.0149708,0.0465164-0.0217438,0.0708313c-1.8397274-1.337492-3.5204239-0.6561775-3.5204239-0.6561775
		c1.8443031-0.1905746,3.3013153,1.2777424,3.3013153,1.2777424c0.2142086,0.1896191,0.4194374,0.3999271,0.6067219,0.6331902
		c0.0424004,0.0580578,0.0849857,0.115799,0.1266556,0.1768398c0.4818993,0.6567249,0.7840252,1.3852062,0.9115047,2.1237602
		c3.6610394-4.6429272,4.2658863-11.073926,1.0262566-16.0682068c-4.1254959-6.3667498-12.9217587-7.9921446-19.6411037-3.6359873
		C3.3190501,9.2949238,1.2158029,17.9831619,5.3425312,24.348959c3.3902845,5.2357769,11.3433628,6.8326778,15.9038239,5.3913307
		c1.7247429-0.5434933,7.626543-1.0591812,11.7339497,3.7932873c0,0,0.3553886,0.4063873,0.548027,0.8690529
		c0,0,0.0575562,0.1626472,0.2087059,0.0839386C33.7780685,34.4659119,33.8919487,34.3338547,33.5008965,33.5507889
		L33.5008965,33.5507889z M25.0427074,24.9567795L25.0427074,24.9567795
		c-0.0041199-0.0037994-0.0081978-0.0037994-0.0130978-0.0076408c-0.0094795,0-0.0173531-0.0042191-0.0217934-0.0049934
		c-0.0105305-0.004673-0.0195541-0.0084305-0.0285301-0.0104866c-0.0064545,0-0.0143738,0-0.0170326-0.0037556
		c-0.0146999-0.0039787-0.0293541-0.0082874-0.0454216-0.012413c-0.1913624-0.0353413-0.3797398-0.006773-0.5382729,0.0947399
		c-0.3549671,0.2430134-0.410141,0.7905769-0.1184597,1.2278728c0.136776,0.1970425,0.3191166,0.335146,0.5164757,0.4105606
		c0.0021935,0,0.0061321,0,0.0146503,0.004261c0.0048981,0.0016956,0.014698,0.0061817,0.0196018,0.0071468
		c0.0092926,0.00284,0.0192299,0.00284,0.0274239,0.005991c0.0086575,0,0.0111732,0.0036621,0.0176754,0.0069599
		c0.0149727,0.0020657,0.02775,0.0092087,0.0436859,0.0103035c0.1892986,0.0381947,0.3798771,0.0092487,0.5385876-0.095974
		c0.357439-0.2430115,0.4120235-0.7873173,0.1203346-1.2230606C25.4231777,25.1659508,25.2400627,25.0265217,25.0427074,24.9567795
		L25.0427074,24.9567795z M27.4258728,23.9500809L27.4258728,23.9500809
		c-0.3018055-0.1126938-0.3281345,0.2441082-0.2520733,0.4766312c0.1680012,0.5422993,0.3968639,0.9569263,0.5623531,1.0410938
		c0.1609077,0.0966129,0.3494263-0.1264305,0.2281246-0.6701927C27.913496,24.5622559,27.7334957,24.0700531,27.4258728,23.9500809
		L27.4258728,23.9500809z"/>
</g>
<g id="Слой_2" class="st52">
</g>
</svg>
