<?xml version="1.0" encoding="utf-8"?>
<!-- Generator: Adobe Illustrator 19.1.1, SVG Export Plug-In . SVG Version: 6.00 Build 0)  -->
<svg version="1.1" xmlns="http://www.w3.org/2000/svg" xmlns:xlink="http://www.w3.org/1999/xlink" x="0px" y="0px" width="37px"
	 height="37px" viewBox="0 0 37 37" style="enable-background:new 0 0 37 37;" xml:space="preserve">
<style type="text/css">
	.st0{fill:#BE2B25;}
	.st1{fill-rule:evenodd;clip-rule:evenodd;fill:#FCC200;}
	.st2{fill-rule:evenodd;clip-rule:evenodd;fill:#A7D4E9;}
	.st3{fill-rule:evenodd;clip-rule:evenodd;fill:#184E9B;}
	.st4{fill-rule:evenodd;clip-rule:evenodd;fill:#575756;}
	.st5{fill:#211F1F;}
	.st6{fill:#FFE512;}
	.st7{fill:#FF0014;}
	.st8{fill:#ED1A2E;}
	.st9{fill-rule:evenodd;clip-rule:evenodd;fill:#FFFFFF;}
	.st10{fill-rule:evenodd;clip-rule:evenodd;fill:#1D1D1B;}
	.st11{fill-rule:evenodd;clip-rule:evenodd;fill:#62B12F;}
	.st12{fill:#FF9900;}
	.st13{fill-rule:evenodd;clip-rule:evenodd;fill:#003671;}
	.st14{fill:#005098;}
	.st15{fill:#F6A500;}
	.st16{fill:#12100B;}
	.st17{fill:#B8182B;}
	.st18{fill:#AE1F31;}
	.st19{fill:#88BF52;}
	.st20{fill:#FEFEFE;}
	.st21{opacity:0.35;}
	.st22{fill:none;}
	.st23{fill:#2A408A;}
	.st24{fill:#F8AC18;}
	.st25{fill:#37A2B8;}
	.st26{fill:#EF3E36;}
	.st27{fill:#073986;}
	.st28{fill:#FF590D;}
	.st29{fill:#005DA7;}
	.st30{fill:#3D1061;}
	.st31{fill:#FFFFFF;}
	.st32{fill:#FFAA1C;}
	.st33{fill:#CEBFAA;}
	.st34{fill:#FE0000;}
	.st35{fill:#2051A8;}
	.st36{fill:#526BAA;}
	.st37{fill:#034F90;}
	.st38{fill:#144C9B;}
	.st39{fill:#F39722;}
	.st40{fill:#147D41;}
	.st41{fill-rule:evenodd;clip-rule:evenodd;fill:#F9B41D;}
	.st42{fill-rule:evenodd;clip-rule:evenodd;fill:#E30520;}
	.st43{fill:#EFA55A;}
	.st44{fill:#737373;}
	.st45{fill:#84ACDD;}
	.st46{fill:#94CE84;}
	.st47{fill:#A583B5;}
	.st48{fill:#FFDE63;}
	.st49{fill:#FF6D00;}
	.st50{fill:#0038A5;}
	.st51{fill:#222222;}
	.st52{display:none;}
</style>
<g id="Слой_1">
	<g>
		<g>
			<path class="st49" d="M21.5274982,10.3528099c0.4858513-0.013998,0.9868679-0.0478268,1.4569721,0.1032362
				c0.6631603,0.1883917,1.2539978,0.5902538,1.7036877,1.1087675c-0.3382893-0.1953897-0.686491-0.3872805-1.0755234-0.4584379
				c-0.7564812-0.1341486-1.5590401-0.0425777-2.2472801,0.3091249c-0.844553,0.4141111-1.538044,1.1285982-1.9253254,1.9859829
				c-0.2986259,0.6660776-0.3878651,1.4243088-0.2502155,2.1417122c0.0431595-0.2671299,0.0466595-0.5395107,0.1026516-0.8048916
				c0.3645344-1.6844406,1.9410725-3.0545063,3.6797562-3.086585c0.9174595-0.0320787,1.8547516,0.3931141,2.3779297,1.1577606
				c0.0775738,0.1778936,0.0950718,0.3744497,0.1236515,0.5645914c-0.2630482-0.5062656-0.7681484-0.862051-1.3199062-0.9839516
				c-0.8048916-0.161561-1.6535282,0.0344124-2.3446846,0.4654379c-1.1525135,0.6923237-2.0151463,1.9673185-1.9912338,3.3397169
				l0.0769901,0.0530777c0.1119843-0.9209604,0.6264153-1.7573481,1.3041573-2.3750153
				c0.688242-0.6176662,1.5940361-1.0446091,2.5336609-1.0037813c0.7150707,0.0110817,1.4313068,0.3966131,1.7660961,1.0399437
				c0.0040817,0.5785885-0.1714783,1.1560116-0.4537735,1.6593599c-0.495182,0.8673-1.3747311,1.5024643-2.3551826,1.6949387
				c-0.9542046,0.196558-1.9883156-0.0233288-2.7739601-0.6013355c-0.7319851-0.5266781-1.2493324-1.3473186-1.3951473-2.2385321
				c-0.1627274-0.8952971,0.0454941-1.8535843,0.5715904-2.5966511
				C19.6494179,11.0264692,20.5505466,10.4502134,21.5274982,10.3528099z"/>
		</g>
		<g>
			<path class="st50" d="M5.394083,15.5344477c0.0717406-0.1673946,0.0274129-0.4234438,0.1872249-0.5325117
				c0.4701037-0.0151653,0.9413733,0.0075817,1.4114771,0.001749c0.3499532-0.0081654,0.6999059-0.0134144,1.0492759,0.0081663
				c0.4846849-0.0186644,0.9711189-0.0239143,1.4558039,0c0.35112-0.0128317,0.702239-0.019248,1.053359-0.006999
				c0.5826712-0.008749,1.165926-0.010499,1.7485981,0.0005827c0.7605648-0.0215807,1.5217123-0.003499,2.2811098,0.0443277
				c0.7675638,0.0775728,1.5771227,0.2338848,2.1837072,0.7448168c0.509182,0.4275255,0.6958237,1.1420126,0.5931702,1.7818441
				c-0.1108189,0.9588699-0.540678,1.9084091-1.2971592,2.52841c-0.498683,0.3971958-1.0696898,0.7034054-1.6762743,0.9005451
				c-0.2321358,0.0822392-0.4736032,0.1335659-0.7063217,0.2158051c0.3429537,0.0898209,0.6981554,0.1790581,0.985117,0.3983631
				c0.4135284,0.3132076,0.7179871,0.7926426,0.7518158,1.3187389c0.0939045,0.5815048,0.0169144,1.1676769-0.005249,1.7509308
				c-0.022747,0.3132095-0.0787392,0.6281662-0.0390787,0.9419575c0.0519104,0.2537155,0.2601318,0.4409409,0.5015993,0.514431
				c-0.0443268,0.1691437-0.0869045,0.3394547-0.1294823,0.509182c-1.6861897,0.005249-3.372963-0.0005836-5.0597372,0.0034981
				c0.0326624-0.835804,0.2175541-1.6564426,0.2677145-2.4904976c0.024497-0.3674507,0.0472441-0.7640648-0.1277332-1.1006031
				c-0.1393976-0.2700462-0.4701033-0.3190403-0.7419004-0.3435364c-0.4275255-0.0338287-0.8632174-0.0495758-1.2889929,0.0040836
				c-0.0571594,0.3289547-0.1574793,0.647995-0.2344685,0.972868c-0.2618818,0.9827843-0.502183,1.9714031-0.7576485,2.9559364
				c-1.4972153,0.0011673-2.9938478,0-4.4910631,0.0005836c0.787394-3.1624088,1.6144495-6.315485,2.4123425-9.4755611
				c0.065908-0.2962933,0.182559-0.5861702,0.1901412-0.8929634C5.9201789,15.9608068,5.7072911,15.6394329,5.394083,15.5344477z
				 M9.471035,20.1001663c0.5931702,0.0017509,1.188674,0.0139999,1.7783451-0.0554085
				c0.5173464-0.0804882,1.0125303-0.4059448,1.2213354-0.8964634c0.1224833-0.2939606,0.2146378-0.625248,0.1353149-0.9425392
				c-0.1253996-0.3645344-0.528429-0.52318-0.8836308-0.5505924c-0.5325117-0.0734901-1.0702734-0.0268307-1.6057014-0.0454941
				C9.8968115,18.4384747,9.6868401,19.270195,9.471035,20.1001663z"/>
		</g>
		<g>
			<path class="st50" d="M27.701252,17.6551628c1.1052685-0.0804901,2.2233677-0.0699902,3.3204708,0.0968208
				c0.8404713,0.1533947,1.7485981,0.4438553,2.27178,1.1665096c0.4001122,0.5319271,0.4397736,1.2335835,0.3691978,1.8710804
				c-0.0519104,0.3779507-0.1568947,0.7454014-0.2414665,1.1169338c-0.2735481,1.0988522-0.5231781,2.203537-0.7914772,3.3035564
				c-0.1020699,0.3872814,0.1353149,0.7908936,0.4946022,0.9419575c-0.0355797,0.1673927-0.0781593,0.333622-0.1125717,0.5015984
				c-1.5753708,0.0075817-3.1513252,0.0011673-4.7272797,0.0035c0.1003189-0.4222775,0.2163868-0.8398876,0.3143749-1.2621632
				c-0.5809231,0.6748257-1.3735657,1.169426-2.245533,1.3619003c-0.4753513,0.1242332-0.9705353,0.0904045-1.4563866,0.0898209
				c-0.7069054-0.0256634-1.4581375-0.2542992-1.9305744-0.8083916c-0.356369-0.4158611-0.4374409-1.0002823-0.3470364-1.5263786
				c0.1533966-0.8748817,0.5780048-1.718853,1.2598305-2.2991905c0.675993-0.5896702,1.5444584-0.9011288,2.4146748-1.063858
				c0.9792862-0.1749763,1.9824848-0.1825581,2.9687691-0.0676575c0.1428967,0.0169144,0.2869606,0.0274143,0.4310246,0.0326633
				c0.0279961-0.2513828,0.0425777-0.5330963-0.1213169-0.7448177c-0.2344685-0.3085403-0.6380806-0.4024448-1.0014477-0.4572716
				c-1.3700676-0.180809-2.754715,0.1603947-4.0063801,0.7069054c0.1563129-0.6083355,0.3167076-1.2155037,0.4724369-1.8238392
				c0.0618248-0.2327175,0.1020699-0.472435,0.1924744-0.6969891C26.0442257,17.9065456,26.8607826,17.6889915,27.701252,17.6551628
				z M27.2084026,23.0986805c-0.356369,0.2204704-0.5616741,0.6514969-0.5208473,1.0661907
				c0.0198307,0.2012234,0.1883907,0.3499527,0.3750324,0.4030285c0.4321918,0.1265678,0.9197941,0.047245,1.2866611-0.2175541
				c0.51618-0.3569508,0.8048916-0.9547882,0.9168758-1.5584564C28.5767174,22.7971382,27.8243198,22.7294807,27.2084026,23.0986805
				z"/>
		</g>
		<path class="st50" d="M19.032917,17.9724522c0.4607716,0.4718533,1.0615234,0.8212242,1.7182693,0.9203777
			c0.6159172,0.1114006,1.2650795,0.0122471,1.8273373-0.2577991c0.2169724-0.1014862,0.4047794-0.2513828,0.6100845-0.3726997
			c-0.5330944,2.0886364-1.0708561,4.1755219-1.6022015,6.2641582c-0.0944862,0.3726997-0.2461319,0.7658138-0.1143169,1.1501789
			c0.0629921,0.2251358,0.2525482,0.3896141,0.4677696,0.4666042c-0.0548248,0.1679764-0.0991535,0.338871-0.1388149,0.510931
			c-1.664608,0.0046654-3.3298016,0.0046654-4.9949951,0C17.5578651,23.7630081,18.2857685,20.8653984,19.032917,17.9724522z"/>
	</g>
</g>
<g id="Слой_2" class="st52">
</g>
</svg>
