<?xml version="1.0" encoding="utf-8"?>
<!-- Generator: Adobe Illustrator 19.1.1, SVG Export Plug-In . SVG Version: 6.00 Build 0)  -->
<svg version="1.1" xmlns="http://www.w3.org/2000/svg" xmlns:xlink="http://www.w3.org/1999/xlink" x="0px" y="0px" width="37px"
	 height="37px" viewBox="0 0 37 37" style="enable-background:new 0 0 37 37;" xml:space="preserve">
<style type="text/css">
	.st0{fill:#BE2B25;}
	.st1{fill-rule:evenodd;clip-rule:evenodd;fill:#FCC200;}
	.st2{fill-rule:evenodd;clip-rule:evenodd;fill:#A7D4E9;}
	.st3{fill-rule:evenodd;clip-rule:evenodd;fill:#184E9B;}
	.st4{fill-rule:evenodd;clip-rule:evenodd;fill:#575756;}
	.st5{fill:#211F1F;}
	.st6{fill:#FFE512;}
	.st7{fill:#FF0014;}
	.st8{fill:#ED1A2E;}
	.st9{fill-rule:evenodd;clip-rule:evenodd;fill:#FFFFFF;}
	.st10{fill-rule:evenodd;clip-rule:evenodd;fill:#1D1D1B;}
	.st11{fill-rule:evenodd;clip-rule:evenodd;fill:#62B12F;}
	.st12{fill:#FF9900;}
	.st13{fill-rule:evenodd;clip-rule:evenodd;fill:#003671;}
	.st14{fill:#005098;}
	.st15{fill:#F6A500;}
	.st16{fill:#12100B;}
	.st17{fill:#B8182B;}
	.st18{fill:#AE1F31;}
	.st19{fill:#88BF52;}
	.st20{fill:#FEFEFE;}
	.st21{opacity:0.35;}
	.st22{fill:none;}
	.st23{fill:#2A408A;}
	.st24{fill:#F8AC18;}
	.st25{fill:#37A2B8;}
	.st26{fill:#EF3E36;}
	.st27{fill:#073986;}
	.st28{fill:#FF590D;}
	.st29{fill:#005DA7;}
	.st30{fill:#3D1061;}
	.st31{fill:#FFFFFF;}
	.st32{fill:#FFAA1C;}
	.st33{fill:#CEBFAA;}
	.st34{fill:#FE0000;}
	.st35{fill:#2051A8;}
	.st36{fill:#526BAA;}
	.st37{fill:#034F90;}
	.st38{fill:#144C9B;}
	.st39{fill:#F39722;}
	.st40{fill:#147D41;}
	.st41{fill-rule:evenodd;clip-rule:evenodd;fill:#F9B41D;}
	.st42{fill-rule:evenodd;clip-rule:evenodd;fill:#E30520;}
	.st43{fill:#EFA55A;}
	.st44{fill:#737373;}
	.st45{fill:#84ACDD;}
	.st46{fill:#94CE84;}
	.st47{fill:#A583B5;}
	.st48{fill:#FFDE63;}
	.st49{fill:#FF6D00;}
	.st50{fill:#0038A5;}
	.st51{fill:#222222;}
	.st52{display:none;}
</style>
<g id="Слой_1">
	<g>
		<path class="st51" d="M15.0150032,4.1576653l-0.0199776,7.0475492l-1.8908529,4.919795l0.0161676,16.8455181l8.2296276,1.1754227
			l0.0149899-18.4405003l1.624939-5.3093767l0.0149879-7.6286001L15.0150032,4.1576653z M14.0360384,21.5693359v-0.2847843
			l2.2359667,0.0266438l0.039957,0.2597256L14.0360384,21.5693359z M20.3510246,21.7740345l-2.3075562-0.0416241
			l0.0266342-0.6543064l2.2925777,0.0249786L20.3510246,21.7740345z M20.8621521,15.0095205l-6.6912565,0.2797031
			l1.3652248-3.4113903l6.4914656-0.6110182L20.8621521,15.0095205z M15.7125998,10.457674l0.0133219-5.669013l6.5896912-1.1471126
			l0.0034847,6.1568193L15.7125998,10.457674z"/>
		<polygon class="st51" points="21.4931488,34.2325287 23.6675148,33.2985191 23.6641884,3.0147114 23.114769,2.767473 
			23.0864639,10.6524649 21.5081367,15.9535294 		"/>
	</g>
</g>
<g id="Слой_2" class="st52">
</g>
</svg>
