<?xml version="1.0" encoding="utf-8"?>
<!-- Generator: Adobe Illustrator 19.1.1, SVG Export Plug-In . SVG Version: 6.00 Build 0)  -->
<svg version="1.1" xmlns="http://www.w3.org/2000/svg" xmlns:xlink="http://www.w3.org/1999/xlink" x="0px" y="0px" width="37px"
	 height="37px" viewBox="0 0 37 37" style="enable-background:new 0 0 37 37;" xml:space="preserve">
<style type="text/css">
	.st0{fill:#BE2B25;}
	.st1{fill-rule:evenodd;clip-rule:evenodd;fill:#FCC200;}
	.st2{fill-rule:evenodd;clip-rule:evenodd;fill:#A7D4E9;}
	.st3{fill-rule:evenodd;clip-rule:evenodd;fill:#184E9B;}
	.st4{fill-rule:evenodd;clip-rule:evenodd;fill:#575756;}
	.st5{fill:#211F1F;}
	.st6{fill:#FFE512;}
	.st7{fill:#FF0014;}
	.st8{fill:#ED1A2E;}
	.st9{fill-rule:evenodd;clip-rule:evenodd;fill:#FFFFFF;}
	.st10{fill-rule:evenodd;clip-rule:evenodd;fill:#1D1D1B;}
	.st11{fill-rule:evenodd;clip-rule:evenodd;fill:#62B12F;}
	.st12{fill:#FF9900;}
	.st13{fill-rule:evenodd;clip-rule:evenodd;fill:#003671;}
	.st14{fill:#005098;}
	.st15{fill:#F6A500;}
	.st16{fill:#12100B;}
	.st17{fill:#B8182B;}
	.st18{fill:#AE1F31;}
	.st19{fill:#88BF52;}
	.st20{fill:#FEFEFE;}
	.st21{opacity:0.35;}
	.st22{fill:none;}
	.st23{fill:#2A408A;}
	.st24{fill:#F8AC18;}
	.st25{fill:#37A2B8;}
	.st26{fill:#EF3E36;}
	.st27{fill:#073986;}
	.st28{fill:#FF590D;}
	.st29{fill:#005DA7;}
	.st30{fill:#3D1061;}
	.st31{fill:#FFFFFF;}
	.st32{fill:#FFAA1C;}
	.st33{fill:#CEBFAA;}
	.st34{fill:#FE0000;}
	.st35{fill:#2051A8;}
	.st36{fill:#526BAA;}
	.st37{fill:#034F90;}
	.st38{fill:#144C9B;}
	.st39{fill:#F39722;}
	.st40{fill:#147D41;}
	.st41{fill-rule:evenodd;clip-rule:evenodd;fill:#F9B41D;}
	.st42{fill-rule:evenodd;clip-rule:evenodd;fill:#E30520;}
	.st43{fill:#EFA55A;}
	.st44{fill:#737373;}
	.st45{fill:#84ACDD;}
	.st46{fill:#94CE84;}
	.st47{fill:#A583B5;}
	.st48{fill:#FFDE63;}
	.st49{fill:#FF6D00;}
	.st50{fill:#0038A5;}
	.st51{fill:#222222;}
	.st52{display:none;}
</style>
<g id="Слой_1">
	<g>
		<path class="st13" d="M14.5351152,12.2805243c5.2219725,0,9.0157976,0.9517107,10.6780691,3.3603001l-2.8407936,0.0232677
			c-2.1536407-1.903676-4.7045345-2.6924629-9.1745234-2.6924629c-5.887044,0-10.692009,2.4858065-10.692009,5.5313787
			c0,3.0472298,4.8049645,5.5284767,10.692009,5.5284767c4.4699888,0,7.5629759-1.1899567,9.160121-3.2085686H25.125
			c-1.6622715,2.4080315-5.3679123,3.9014931-10.5898848,3.9014931c-6.6253376,0-12.0292568-2.792366-12.0292568-6.2214012
			C2.5058589,15.0754852,7.9097776,12.2805243,14.5351152,12.2805243L14.5351152,12.2805243z M16.0637627,11.4895477
			c6.0690002,0,9.611948,0.9583683,12.299057,4.0662613l3.2029781,0.0145082
			c-2.2845478-3.289793-7.057312-4.8700819-13.9741154-4.8700819c-8.3103247,0-15.0858231,3.5050974-15.0858231,7.8027725
			c0,4.2988243,6.7754989,7.8028278,15.0858231,7.8028278c6.9168034,0,12.0467758-2.037281,13.8145676-5.3266697h-3.1169186
			c-1.7215405,2.8488884-6.1565685,4.5362129-12.2255688,4.5362129c-7.4683733,0-13.5579033-3.1500034-13.5579033-7.0123711
			C2.5058589,14.6414165,8.5953894,11.4895477,16.0637627,11.4895477L16.0637627,11.4895477z"/>
		<path class="st13" d="M7.705061,18.5273819c0,0.5311871-0.1493378,1.4524193-1.5347071,1.4524193
			c-0.4722872,0-1.5593934-0.0784512-1.5593934-1.4524193v-2.3003292h0.753015v2.3003292
			c0,0.2655926,0.0472951,0.8690701,0.7924833,0.8690701c0.7492299,0,0.7964191-0.6034775,0.7964191-0.8690701v-2.3003292h0.752183
			V18.5273819L7.705061,18.5273819z"/>
		<polygon class="st13" points="9.3582573,16.2270527 10.6423092,18.5661182 10.8368158,19.0682716 10.854702,19.0682716 
			10.8368158,18.4113884 10.8368158,16.2270527 11.5899868,16.2270527 11.5899868,19.9381123 10.6156588,19.9381123 
			9.3228922,17.5104809 9.1371059,17.0974121 9.1212902,17.0974121 9.1371059,17.7561054 9.1371059,19.9381123 
			8.3841915,19.9381123 8.3841915,16.2270527 9.3582573,16.2270527 		"/>
		<polygon class="st13" points="12.3213367,19.9381123 13.0744019,19.9381123 13.0744019,16.2268906 12.3213367,16.2268906 
			12.3213367,19.9381123 		"/>
		<path class="st13" d="M17.4098816,17.2455616c-0.4081383-0.1437435-0.7896271-0.1909771-1.0921383-0.1909771
			c-0.2272224,0-0.6362963,0.0205326-0.6362963,0.2740459c0,0.2125473,0.3617277,0.2242718,0.6739378,0.2877331
			c0.3498573,0.0685978,1.0080357,0.2277393,1.0080357,0.8963413c0,0.3911285-0.207674,0.7769299-0.4409122,0.9946098
			c-0.4781399,0.4465065-1.2568769,0.4933319-1.6383667,0.4933319c-0.6514349,0-1.1552963-0.0992966-1.5001736-0.196476
			l0.1975069-0.9446125c0.4557981,0.1942444,0.9012699,0.2524242,1.2285194,0.2524242
			c0.5771294,0,0.6888723-0.1595097,0.6888723-0.2915745c0-0.1556683-0.158206-0.1871376-0.3025141-0.2189865
			c-0.1372547-0.0316181-0.2766361-0.064188-0.413168-0.1007919c-0.4761724-0.1208725-0.9535389-0.2646618-0.9535389-0.9003429
			c0-0.6826973,0.5782204-1.4365501,2.0566225-1.4365501c0.3764553,0,0.8478546,0.032568,1.3192558,0.1278725L17.4098816,17.2455616
			L17.4098816,17.2455616z"/>
		<path class="st13" d="M18.114521,17.1592216l0.1314468-0.6779404l1.4202213-0.3962021l-0.217371,1.0741425h0.6037846
			l-0.1631336,0.7959576h-0.6049232l-0.1580009,0.7903996c-0.0120773,0.0415344-0.0167465,0.0850887-0.0167465,0.1256905
			c0,0.1598682,0.1015854,0.2407131,0.2430401,0.2407131c0.0740967,0,0.1649952-0.0177402,0.3133507-0.0534134l-0.1640148,0.7990589
			c-0.1700802,0.059433-0.4548054,0.1430187-0.8442287,0.1430187c-0.5275593,0-0.9466381-0.196476-0.9466381-0.6938515
			c0-0.1338844,0.0157642-0.2529926,0.0414829-0.3877621l0.1956978-0.9638538H17.478899l0.165205-0.7959576H18.114521
			L18.114521,17.1592216z"/>
		<path class="st13" d="M21.6268253,17.1592216l-0.1324844,0.6318359h0.0210514
			c0.1688347-0.328331,0.5143871-0.6936455,0.9810696-0.6936455c0.0832272,0,0.1582069,0.0144711,0.2116165,0.0252552
			l-0.2273808,1.1133003c-0.0631046-0.0157642-0.1649971-0.0424767-0.2925053-0.0424767
			c-0.4448509,0-0.7512531,0.3299999-0.8368664,0.7364788l-0.2065296,1.0081425h-1.334507l0.5644245-2.7788906H21.6268253
			L21.6268253,17.1592216z"/>
		<path class="st13" d="M23.9108238,18.3050804l0.0106258-0.0534096c0.0892906-0.4606133,0.3499603-0.4916801,0.4352093-0.4916801
			c0.1104469,0,0.2705193,0.053051,0.2705193,0.3222847c0,0.0532513-0.0060139,0.1112156-0.0157108,0.1644783l-0.0109921,0.0583267
			H23.9108238L23.9108238,18.3050804z M25.6490059,18.8712692l0.0376968-0.1629696
			c0.0422611-0.1809177,0.068037-0.3501644,0.068037-0.5257397c0-0.126997-0.0159245-0.2590675-0.0581341-0.3814373
			c-0.0792294-0.2213135-0.3598614-0.7037106-1.2867451-0.7037106c-1.431057,0-1.9033394,1.1444054-1.9033394,1.7835598
			c0,0.4004116,0.1679039,0.6524734,0.3645306,0.8134747c0.340992,0.2813129,0.813324,0.3062,1.1246548,0.3062
			c0.3775959,0,0.7977638-0.0369225,1.2572918-0.1587715l0.1472645-0.7203522
			c-0.3005943,0.1005974-0.7306175,0.1902523-1.0487404,0.1902523c-0.5625057,0-0.5722027-0.3005466-0.5564899-0.440506H25.6490059
			L25.6490059,18.8712692z"/>
		<path class="st13" d="M27.7380829,18.7276363l-0.0334988,0.1533356c-0.0631046,0.3096638-0.2361374,0.4344273-0.4584332,0.4344273
			c-0.1344566,0-0.2628498-0.0570374-0.2628498-0.2034168c0-0.1068211,0.0543461-0.2346935,0.2083473-0.3140774
			c0.1494446-0.0740967,0.3074951-0.0702686,0.4763298-0.0702686H27.7380829L27.7380829,18.7276363z M27.4931278,19.9381123
			h1.2195969l0.3598118-1.7698212c0.0177326-0.0812531,0.0274353-0.1545696,0.0274353-0.2297592
			c0-0.3221684-0.1807671-0.8411198-1.3408871-0.8411198c-0.1176052,0-0.6682358,0-1.3353863,0.1679058l-0.1499615,0.7264194
			c0.3080101-0.1197891,0.7479916-0.2163944,1.0346375-0.2163944c0.4507103,0,0.5614166,0.1414051,0.5614166,0.28022
			c0,0.0228653,0,0.0375481-0.0051327,0.0583878l-0.0155563,0.0845242h-0.1968365
			c-0.7205582,0-1.1659813,0.053196-1.5365772,0.31423c-0.3558197,0.2486458-0.4399776,0.5555668-0.4399776,0.8026943
			c0,0.6739388,0.6889267,0.6852474,0.8411179,0.6852474c0.4092293,0,0.7441502-0.0895996,1.0236912-0.4018688h0.0219364
			L27.4931278,19.9381123L27.4931278,19.9381123z"/>
		<path class="st13" d="M30.8582745,17.6416187h0.0208416c0.2291927-0.331646,0.5950737-0.5442066,1.0820293-0.5442066
			c0.2026997,0,0.5723629,0.0517502,0.7423344,0.4240093c0.3060455-0.3621998,0.6887207-0.4240093,0.9109688-0.4240093
			c0.5039673,0,0.7492867,0.2125607,0.8322983,0.4291458c0.0355225,0.0837994,0.0473938,0.1840229,0.0473938,0.2745647
			c0,0.1591358-0.0415306,0.3067608-0.0740967,0.4703102l-0.3382416,1.6666794h-1.3369942l0.3241386-1.6008224
			c0.0118713-0.0578175,0.0217781-0.1112366,0.0217781-0.1689987c0-0.1646347-0.1066589-0.2080326-0.1906128-0.2080326
			c-0.2087135,0-0.2718163,0.2165966-0.3025665,0.3770313l-0.3230476,1.6008224h-1.3351784l0.3230476-1.6008224
			c0.0100594-0.0578175,0.0219326-0.1112366,0.0219326-0.1689987c0-0.0700989-0.0179405-0.2080326-0.1759911-0.2080326
			c-0.2074146,0-0.2825985,0.1862545-0.3184853,0.3770313l-0.3239288,1.6008224h-1.3340912l0.5672283-2.7788906h1.2600422
			L30.8582745,17.6416187L30.8582745,17.6416187z"/>
	</g>
</g>
<g id="Слой_2" class="st52">
</g>
</svg>
