<?xml version="1.0" encoding="utf-8"?>
<!-- Generator: Adobe Illustrator 19.1.1, SVG Export Plug-In . SVG Version: 6.00 Build 0)  -->
<svg version="1.1" xmlns="http://www.w3.org/2000/svg" xmlns:xlink="http://www.w3.org/1999/xlink" x="0px" y="0px" width="37px"
	 height="37px" viewBox="0 0 37 37" style="enable-background:new 0 0 37 37;" xml:space="preserve">
<style type="text/css">
	.st0{fill:#BE2B25;}
	.st1{fill-rule:evenodd;clip-rule:evenodd;fill:#FCC200;}
	.st2{fill-rule:evenodd;clip-rule:evenodd;fill:#A7D4E9;}
	.st3{fill-rule:evenodd;clip-rule:evenodd;fill:#184E9B;}
	.st4{fill-rule:evenodd;clip-rule:evenodd;fill:#575756;}
	.st5{fill:#211F1F;}
	.st6{fill:#FFE512;}
	.st7{fill:#FF0014;}
	.st8{fill:#ED1A2E;}
	.st9{fill-rule:evenodd;clip-rule:evenodd;fill:#FFFFFF;}
	.st10{fill-rule:evenodd;clip-rule:evenodd;fill:#1D1D1B;}
	.st11{fill-rule:evenodd;clip-rule:evenodd;fill:#62B12F;}
	.st12{fill:#FF9900;}
	.st13{fill-rule:evenodd;clip-rule:evenodd;fill:#003671;}
	.st14{fill:#005098;}
	.st15{fill:#F6A500;}
	.st16{fill:#12100B;}
	.st17{fill:#B8182B;}
	.st18{fill:#AE1F31;}
	.st19{fill:#88BF52;}
	.st20{fill:#FEFEFE;}
	.st21{opacity:0.35;}
	.st22{fill:none;}
	.st23{fill:#2A408A;}
	.st24{fill:#F8AC18;}
	.st25{fill:#37A2B8;}
	.st26{fill:#EF3E36;}
	.st27{fill:#073986;}
	.st28{fill:#FF590D;}
	.st29{fill:#005DA7;}
	.st30{fill:#3D1061;}
	.st31{fill:#FFFFFF;}
	.st32{fill:#FFAA1C;}
	.st33{fill:#CEBFAA;}
	.st34{fill:#FE0000;}
	.st35{fill:#2051A8;}
	.st36{fill:#526BAA;}
	.st37{fill:#034F90;}
	.st38{fill:#144C9B;}
	.st39{fill:#F39722;}
	.st40{fill:#147D41;}
	.st41{fill-rule:evenodd;clip-rule:evenodd;fill:#F9B41D;}
	.st42{fill-rule:evenodd;clip-rule:evenodd;fill:#E30520;}
	.st43{fill:#EFA55A;}
	.st44{fill:#737373;}
	.st45{fill:#84ACDD;}
	.st46{fill:#94CE84;}
	.st47{fill:#A583B5;}
	.st48{fill:#FFDE63;}
	.st49{fill:#FF6D00;}
	.st50{fill:#0038A5;}
	.st51{fill:#222222;}
	.st52{display:none;}
</style>
<g id="Слой_1">
	<g>
		<polygon class="st14" points="13.7602882,23.3339806 15.3805761,13.3023329 17.9708958,13.3023329 16.3505344,23.3339806 
			13.7602882,23.3339806 		"/>
		<path class="st14" d="M25.7460232,13.5485859c-0.5121384-0.2014275-1.3176079-0.4210215-2.320982-0.4210215
			c-2.5607986,0-4.3634224,1.3613853-4.378521,3.3107309c-0.0161591,1.4418144,1.2864838,2.2462234,2.2686024,2.7252865
			c1.0091095,0.4914513,1.3482399,0.8058071,1.3442516,1.244875c-0.0069904,0.6720181-0.8054562,0.9798794-1.5503521,0.9798794
			c-1.0370274,0-1.5879822-0.1516953-2.4398899-0.5260582l-0.3331757-0.1596699l-0.3621941,2.2453194
			c0.6040459,0.2795315,1.7238674,0.5220718,2.8858662,0.5346622c2.7216492,0,4.4899216-1.3448792,4.5108395-3.4264069
			c0.0092316-1.1433926-0.6810417-2.0102539-2.1758671-2.725771c-0.9050484-0.4651604-1.460556-0.7732944-1.4541931-1.2440319
			c0.000555-0.4170427,0.4693394-0.863368,1.4838467-0.863368c0.8471375-0.0135698,1.4606285,0.1816139,1.9385719,0.3854113
			l0.2325363,0.1147747L25.7460232,13.5485859L25.7460232,13.5485859z"/>
		<path class="st14" d="M29.1950226,19.7774239c0.2148361-0.5767746,1.0319099-2.8041191,1.0319099-2.8041191
			c-0.0149651,0.0265083,0.2135944-0.5811024,0.3442993-0.9571533l0.1747704,0.8653316c0,0,0.4970417,2.3944168,0.5995731,2.8959408
			C30.9421711,19.7774239,29.7008018,19.7774239,29.1950226,19.7774239L29.1950226,19.7774239z M32.3907738,13.3124075h-2.0017967
			c-0.6210308,0-1.0856228,0.1775675-1.3576126,0.8316908l-3.8466549,9.1933041h2.720396
			c0,0,0.4438915-1.2367535,0.5446053-1.5081882c0.2969418,0,2.9404125,0.0051804,3.3177891,0.0051804
			c0.0774918,0.3502388,0.3152714,1.5030079,0.3152714,1.5030079h2.4041519L32.3907738,13.3124075L32.3907738,13.3124075z"/>
		<path class="st14" d="M11.5872164,13.3107309l-2.5353479,6.8391027L8.7803125,18.759697
			c-0.4724226-1.6019001-1.9431243-3.3379965-3.5881004-4.207943l2.3193059,8.7734776l2.7415214-0.0017471l4.0789757-10.0127535
			H11.5872164L11.5872164,13.3107309z"/>
		<path class="st15" d="M6.6984348,13.3039494H2.5213258l-0.0344024,0.2078485
			c3.2502992,0.8309126,5.4007902,2.8367014,6.2933893,5.2478991l-0.9075656-4.6093845
			C7.7161484,13.5145197,7.2608709,13.3261795,6.6984348,13.3039494L6.6984348,13.3039494z"/>
	</g>
</g>
<g id="Слой_2" class="st52">
</g>
</svg>
