<?xml version="1.0" encoding="utf-8"?>
<!-- Generator: Adobe Illustrator 19.1.1, SVG Export Plug-In . SVG Version: 6.00 Build 0)  -->
<svg version="1.1" xmlns="http://www.w3.org/2000/svg" xmlns:xlink="http://www.w3.org/1999/xlink" x="0px" y="0px" width="37px"
	 height="37px" viewBox="0 0 37 37" style="enable-background:new 0 0 37 37;" xml:space="preserve">
<style type="text/css">
	.st0{fill:#BE2B25;}
	.st1{fill-rule:evenodd;clip-rule:evenodd;fill:#FCC200;}
	.st2{fill-rule:evenodd;clip-rule:evenodd;fill:#A7D4E9;}
	.st3{fill-rule:evenodd;clip-rule:evenodd;fill:#184E9B;}
	.st4{fill-rule:evenodd;clip-rule:evenodd;fill:#575756;}
	.st5{fill:#211F1F;}
	.st6{fill:#FFE512;}
	.st7{fill:#FF0014;}
	.st8{fill:#ED1A2E;}
	.st9{fill-rule:evenodd;clip-rule:evenodd;fill:#FFFFFF;}
	.st10{fill-rule:evenodd;clip-rule:evenodd;fill:#1D1D1B;}
	.st11{fill-rule:evenodd;clip-rule:evenodd;fill:#62B12F;}
	.st12{fill:#FF9900;}
	.st13{fill-rule:evenodd;clip-rule:evenodd;fill:#003671;}
	.st14{fill:#005098;}
	.st15{fill:#F6A500;}
	.st16{fill:#12100B;}
	.st17{fill:#B8182B;}
	.st18{fill:#AE1F31;}
	.st19{fill:#88BF52;}
	.st20{fill:#FEFEFE;}
	.st21{opacity:0.35;}
	.st22{fill:none;}
	.st23{fill:#2A408A;}
	.st24{fill:#F8AC18;}
	.st25{fill:#37A2B8;}
	.st26{fill:#EF3E36;}
	.st27{fill:#073986;}
	.st28{fill:#FF590D;}
	.st29{fill:#005DA7;}
	.st30{fill:#3D1061;}
	.st31{fill:#FFFFFF;}
	.st32{fill:#FFAA1C;}
	.st33{fill:#CEBFAA;}
	.st34{fill:#FE0000;}
	.st35{fill:#2051A8;}
	.st36{fill:#526BAA;}
	.st37{fill:#034F90;}
	.st38{fill:#144C9B;}
	.st39{fill:#F39722;}
	.st40{fill:#147D41;}
	.st41{fill-rule:evenodd;clip-rule:evenodd;fill:#F9B41D;}
	.st42{fill-rule:evenodd;clip-rule:evenodd;fill:#E30520;}
	.st43{fill:#EFA55A;}
	.st44{fill:#737373;}
	.st45{fill:#84ACDD;}
	.st46{fill:#94CE84;}
	.st47{fill:#A583B5;}
	.st48{fill:#FFDE63;}
	.st49{fill:#FF6D00;}
	.st50{fill:#0038A5;}
	.st51{fill:#222222;}
	.st52{display:none;}
</style>
<g id="Слой_1">
	<g>
		<path class="st16" d="M28.3994884,15.4905691c-0.9577427-0.9585371-2.5804596-0.9016228-3.6064587,0.1229811l-3.7239895,3.7242794
			v-7.5062561c0-1.4510946-1.1082363-2.6373739-2.4651394-2.6373739c-0.577383,0-1.1037407,0.2263584-1.52565,0.5864496
			C16.928154,9.8808279,16.7871132,9.994441,16.65485,10.126318l-9.2255573,9.2291412v-7.5238857
			c0-1.4510946-1.1104255-2.6373739-2.4648504-2.6373739C3.6058333,9.1941996,2.5,10.3804789,2.5,11.8315735V25.018219
			c0,0.5505886,0.1613638,1.0618916,0.4363523,1.487278c0.0959835,0.1691532,0.2088137,0.329113,0.3515389,0.4733391
			c0.3024044,0.2999153,0.6719813,0.4897804,1.0640814,0.5931339l0.0087667,0.0020943
			c0.8568664,0.2190704,1.8354259-0.0175457,2.5323234-0.7180271l9.2484989-9.2453003v7.4074821
			c0,0.3927116,0.0860996,0.763382,0.2296295,1.0991688c0.1156216,0.3149605,0.2949257,0.6124706,0.5424976,0.8614483
			c0.9567356,0.958828,2.5815659,0.9022141,3.6061707-0.1227989l7.7587299-7.7590084
			C29.3038902,18.0738182,29.3584118,16.4514885,28.3994884,15.4905691L28.3994884,15.4905691z"/>
		<path class="st17" d="M34.4972076,11.8330545c0.0309029-0.6638908-0.194458-1.3235207-0.6803513-1.8112078
			c-0.5074196-0.5095015-1.2039108-0.7292709-1.9001102-0.6736546c-0.2950325,0.0147429-0.5776939,0.087903-0.8365326,0.2057123
			c-0.3178558,0.1342592-0.6131668,0.3315048-0.8713093,0.5903549l-4.9770317,4.9792109
			c-1.0282001,1.0284023-1.0830212,2.649725-0.127285,3.6078644c0.9595242,0.958828,2.5800629,0.9015045,3.6067696-0.1224003
			l0.8615456-0.8617496v7.4208527c0,1.4506969,1.1107254,2.6377602,2.463047,2.6377602
			c1.3547249,0,2.4612579-1.1870632,2.4612579-2.6377602V11.9842672
			C34.4972076,11.932128,34.4972076,11.8818989,34.4972076,11.8330545L34.4972076,11.8330545z"/>
	</g>
</g>
<g id="Слой_2" class="st52">
</g>
</svg>
