<?xml version="1.0" encoding="utf-8"?>
<!-- Generator: Adobe Illustrator 19.1.1, SVG Export Plug-In . SVG Version: 6.00 Build 0)  -->
<svg version="1.1" id="Слой_1" xmlns="http://www.w3.org/2000/svg" xmlns:xlink="http://www.w3.org/1999/xlink" x="0px" y="0px"
	 width="19px" height="24px" viewBox="0 0 19 24" style="enable-background:new 0 0 19 24;" xml:space="preserve">
<style type="text/css">
	.st0{fill:none;stroke:#222222;stroke-miterlimit:10;}
	.st1{fill:none;stroke:#231300;stroke-miterlimit:10;}
	.st2{fill:#222222;}
	.st3{fill:none;stroke:#222222;stroke-linejoin:round;stroke-miterlimit:10;}
</style>
<g>
	<g>
		<path class="st2" d="M6.5010743,2.1873488c0.139678-0.0980718,0.316009-0.1040156,0.4804525-0.1040156
			c1.5681577,0.0009906,3.1358199,0.0004954,4.7039781,0.0009906c0.1906948,0.0039625,0.3937731-0.0232797,0.5696087,0.0683532
			c0.205555,0.1055014,0.3174953,0.3407745,0.3194761,0.5656462c0.0104017,0.4650981-0.0237751,0.936635,0.0752878,1.3952942
			c0.1406679,0.7122583,0.517601,1.3943028,1.1015739,1.8366165c0.2214041,0.1015391,0.4532099,0.1892095,0.6414289,0.3501859
			c0.4462757,0.3482041,0.7167158,0.9059253,0.7191925,1.4715719c0,0.4259682-0.000495,0.8524323,0,1.2788954
			c0.2124891,0.0193176,0.4249783,0.1163988,0.5388994,0.304122c0.1263046,0.1921806,0.090642,0.4309216,0.0960913,0.6483631
			c-0.0004959,0.2288342,0.0321951,0.4839201-0.1104546,0.6810541c-0.1139221,0.1788073-0.3209629,0.2644968-0.5245361,0.2852993
			c0.0009909,0.6270657-0.0019808,1.2536345,0.0014858,1.8802042c0.1585007,0.0287285,0.320467,0.1441364,0.3130379,0.3219528
			c0.0064392,0.8425264,0.0019808,1.6855469,0.0019808,2.5280724c0.0148592,0.1857424-0.1461172,0.3189812-0.3160086,0.345232
			c-0.0143642,0.361084,0.0371485,0.7300911-0.0579519,1.083744c-0.1297712,0.5319653-0.5052185,0.9960728-0.9950819,1.2392693
			c-0.1218462,0.0599327-0.2585526,0.0941105-0.3660355,0.1812859c-0.5790195,0.4740124-0.9465408,1.175869-1.0649204,1.9099216
			c-0.0792503,0.4234924-0.0391302,0.8554039-0.0544844,1.2828579c-0.0049534,0.2149658-0.1040154,0.4403324-0.295701,0.550787
			c-0.1347256,0.0787544-0.2947111,0.082222-0.4457817,0.081728c-1.6667242-0.0039635-3.3334494,0.0044575-5.000174-0.0029736
			c-0.2263575,0.0044594-0.4467716-0.1347237-0.5309744-0.3467178c-0.0931187-0.1996098-0.061914-0.4239864-0.0643907-0.6364765
			c0.0084205-0.4730225-0.0183268-0.95397-0.168406-1.405695C5.882925,19.3999367,5.53373,18.8496437,5.0314837,18.4920292
			c-0.5121527-0.1788082-0.9594197-0.5562363-1.172899-1.0614529c-0.2050591-0.4329033-0.154042-0.9217758-0.1580045-1.3858833
			c0-2.7564116-0.0019813-5.5133181,0.0014861-8.2697296C3.6951318,7.0230799,4.1919298,6.2989335,4.8932915,6.0299792
			c0.1852465-0.0599327,0.3219528-0.2030778,0.4561825-0.336812c0.4314165-0.4423137,0.7132492-1.0218287,0.8207316-1.6285858
			c0.0871749-0.4264636,0.061914-0.8628335,0.0653815-1.2947457C6.2341008,2.5509079,6.3128557,2.3146441,6.5010743,2.1873488z
			 M5.4004908,6.5396552C4.9487662,6.607513,4.5515261,6.9423442,4.4044185,7.3747516
			C4.3281403,7.5798106,4.3335891,7.8017101,4.334084,8.0171709c0.0019813,2.8901453-0.0014858,5.7797956,0.0014863,8.669446
			c-0.0118876,0.6676807,0.5894213,1.2610645,1.2556157,1.2481861c2.5424361,0.0004959,5.0848727,0.0004959,7.6278043-0.0004959
			c0.7058201,0.0168419,1.3185205-0.6473713,1.2595787-1.3492298c-0.0014858-2.9367046,0.0004959-5.8734093-0.0009909-8.8101139
			c0.0089159-0.6513352-0.559207-1.2402611-1.2110376-1.2486815c-2.5082598-0.0059438-5.0170155,0-7.5257702-0.0029716
			C5.6273437,6.5233102,5.513422,6.5243006,5.4004908,6.5396552z"/>
	</g>
	<path class="st2" d="M9.4323301,11.8008595c0.8940382-0.8975058,1.7905531-1.7925339,2.6860771-2.6880579
		c0.1490889,0.1490889,0.2966919,0.2996635,0.4502392,0.4452848c-1.0460997,1.0490713-2.0917025,2.0986376-3.1437454,3.1412687
		c-0.7409868-0.7523785-1.4938612-1.4923744-2.2373242-2.2422771c0.1490889-0.1495838,0.2981777-0.2981777,0.447762-0.4467716
		C8.2366476,10.604681,8.8285456,11.2089615,9.4323301,11.8008595z"/>
</g>
</svg>
