<?xml version="1.0" encoding="utf-8"?>
<!-- Generator: Adobe Illustrator 19.1.1, SVG Export Plug-In . SVG Version: 6.00 Build 0)  -->
<svg version="1.1" id="Слой_1" xmlns="http://www.w3.org/2000/svg" xmlns:xlink="http://www.w3.org/1999/xlink" x="0px" y="0px"
	 width="19px" height="24px" viewBox="0 0 19 24" style="enable-background:new 0 0 19 24;" xml:space="preserve">
<style type="text/css">
	.st0{fill:none;stroke:#222222;stroke-miterlimit:10;}
	.st1{fill:none;stroke:#231300;stroke-miterlimit:10;}
	.st2{fill:#222222;}
	.st3{fill:none;stroke:#222222;stroke-linejoin:round;stroke-miterlimit:10;}
</style>
<path class="st3" d="M16.8670559,13.5210609l-1.7658978-1.0070229c0.0414906-0.27952,0.0699654-0.5632458,0.0699654-0.8543034
	c0-0.3299332-0.033988-0.6512852-0.0870724-0.966157c0.6203661-0.345109,1.5991402-0.8914175,1.8921299-1.0653934
	c0.437355-0.2597408,0.1457863-0.6958447,0.1457863-0.6958447s-0.8767548-1.4761472-1.3522453-2.2767978
	c-0.4755478-0.8006501-0.9387627-0.3838711-0.9387627-0.3838711l-1.7217932,0.9632587
	c-0.4995327-0.420815-1.0726109-0.7542725-1.6953077-0.987812c0.0007954-0.7319355,0.0017052-1.7425952,0.0017052-2.0556488
	c0-0.508683-0.5238018-0.4807196-0.5238018-0.4807196s-1.7169056,0-2.6481085,0S7.4341936,4.3218508,7.4341936,4.3218508
	L7.4323745,6.2198362C6.7697792,6.4578657,6.1627126,6.8099089,5.6373196,7.2577205L3.98049,6.2716708
	c0,0-0.4632144-0.416779-0.9387622,0.3838711c-0.475491,0.8006506-1.3522449,2.2767978-1.3522449,2.2767978
	S1.3979136,9.3684435,1.8352675,9.6281843c0.2891822,0.1717024,1.2342532,0.7342091,1.8470602,1.09904
	c-0.0494475,0.3043013-0.0819008,0.6142845-0.0819008,0.9325104c0,0.279747,0.0266562,0.552618,0.0650206,0.8217363
	l-1.8870729,1.0395899c0,0-0.5930281,0.1912537-0.1394758,1.0045786c0.4535521,0.8132677,1.2897819,2.3127756,1.2897819,2.3127756
	s0.2306979,0.4710579,0.6749859,0.2233086s1.9638016-1.0556736,1.9638016-1.0556736s0.0006251-0.0057411,0.0007954-0.0069914
	c0.5413642,0.4766836,1.1716766,0.8518591,1.8639975,1.1006308l0.0019326,1.9828987c0,0-0.1217432,0.6111031,0.8094597,0.6111031
	s2.6481085,0,2.6481085,0s0.5238018,0.0279617,0.5238018-0.4807205c0-0.3291378-0.0010233-1.4140835-0.0018187-2.1405621
	c0.6583328-0.2468395,1.2588062-0.6082592,1.7781181-1.0630054c0.5953579,0.3402214,1.550148,0.8851662,1.8499584,1.0523205
	c0.444231,0.2477493,0.6749287-0.2233086,0.6749287-0.2233086s0.8362303-1.4995079,1.2897825-2.3127756
	C17.4600849,13.7123146,16.8670559,13.5210609,16.8670559,13.5210609z M9.3857756,13.8566208
	c-1.2132807,0-2.196887-0.9835482-2.196887-2.1968861c0-1.2132807,0.9836063-2.1968298,2.196887-2.1968298
	s2.1968861,0.9835491,2.1968861,2.1968298C11.5826616,12.8730726,10.5990562,13.8566208,9.3857756,13.8566208z"/>
</svg>
