<?xml version="1.0" encoding="utf-8"?>
<!-- Generator: Adobe Illustrator 19.1.1, SVG Export Plug-In . SVG Version: 6.00 Build 0)  -->
<svg version="1.1" id="Layer_1" xmlns="http://www.w3.org/2000/svg" xmlns:xlink="http://www.w3.org/1999/xlink" x="0px" y="0px"
	 width="24.001px" height="24px" viewBox="0 0 24.001 24" style="enable-background:new 0 0 24.001 24;" xml:space="preserve">
<style type="text/css">
	.st0{fill:none;stroke:#231F20;stroke-width:0.75;stroke-linejoin:round;stroke-miterlimit:10;}
	.st1{fill:none;stroke:#231F20;stroke-width:0.75;stroke-linecap:round;stroke-miterlimit:10;}
	.st2{fill:none;stroke:#231F20;stroke-width:0.75;stroke-miterlimit:10;}
	
		.st3{fill:none;stroke:#231F20;stroke-width:0.75;stroke-linecap:round;stroke-linejoin:round;stroke-miterlimit:10;stroke-dasharray:1,2;}
	.st4{fill:none;stroke:#231F20;stroke-width:0.75;stroke-linecap:round;stroke-linejoin:round;stroke-miterlimit:10;}
	.st5{fill:none;stroke:#231F20;stroke-width:0.75;stroke-linecap:round;stroke-linejoin:round;}
	.st6{fill:none;stroke:#231F20;stroke-width:0.75;stroke-linecap:round;stroke-linejoin:round;stroke-dasharray:1.2288,2.4577;}
	.st7{fill:none;stroke:#231F20;stroke-width:0.75;stroke-linecap:round;stroke-linejoin:round;stroke-dasharray:1.2291,2.4581;}
	.st8{fill:none;stroke:#231F20;stroke-width:0.75;stroke-linecap:round;stroke-linejoin:round;stroke-dasharray:1.2282,2.4564;}
	.st9{fill:none;stroke:#231F20;stroke-width:0.75;stroke-linecap:round;stroke-linejoin:round;stroke-dasharray:1.2282,2.4563;}
	.st10{fill:none;stroke:#231F20;stroke-width:0.75;stroke-linecap:round;stroke-linejoin:round;stroke-dasharray:1.2287,2.4575;}
	.st11{fill:none;stroke:#231F20;stroke-width:0.75;stroke-linecap:round;stroke-linejoin:round;stroke-dasharray:1.2282,2.4565;}
	.st12{fill:none;stroke:#231F20;stroke-width:0.75;stroke-linecap:round;stroke-linejoin:round;stroke-dasharray:1.2283,2.4566;}
	.st13{fill:none;stroke:#231F20;stroke-width:0.75;stroke-linecap:round;stroke-linejoin:round;stroke-dasharray:1.2293,2.4586;}
	.st14{fill:none;stroke:#231F20;stroke-width:0.75;stroke-linecap:round;stroke-linejoin:round;stroke-dasharray:1.2289,2.4578;}
	.st15{stroke:#231F20;stroke-width:0.75;}
</style>
<g>
	<path class="st0" d="M8.139,9.491c0,0,0.469,1.291,1.674,3.76c0.003,0.006,0.003,0.009,0.006,0.014
		c1.206,2.471,2.001,3.585,2.001,3.585c0.791,0.84,2.137,1.228,3.544,0.541c0.785-0.385,0.636-1.27-0.081-2.736
		c-0.003,0-0.003-0.003-0.003-0.003c-0.003-0.003-0.003-0.007-0.003-0.012c-0.638-1.313-1.361-1.345-1.842-0.941
		c-0.095,0.077-0.396,0.363-0.428,0.441c0,0-0.277,0.463-1.362-1.761c-1.081-2.223-0.639-2.105-0.639-2.105
		c0.078,0.029,0.49,0.077,0.609,0.045c0.616-0.129,1.104-0.761,0.392-2.196c0-0.002-0.003-0.005-0.003-0.009
		c0,0,0-0.003-0.003-0.005c-0.712-1.466-1.322-2.129-2.107-1.746C8.729,6.935,7.962,8.35,8.139,9.491z"/>
	<circle class="st4" cx="12.003" cy="12" r="8.985"/>
</g>
</svg>
