<?xml version="1.0" encoding="utf-8"?>
<!-- Generator: Adobe Illustrator 19.1.1, SVG Export Plug-In . SVG Version: 6.00 Build 0)  -->
<svg version="1.1" id="Слой_1" xmlns="http://www.w3.org/2000/svg" xmlns:xlink="http://www.w3.org/1999/xlink" x="0px" y="0px"
	 width="57.1666679px" height="50px" viewBox="0 0 57.1666679 50" style="enable-background:new 0 0 57.1666679 50;"
	 xml:space="preserve">
<style type="text/css">
	.st0{fill:none;stroke:#878787;stroke-linejoin:round;stroke-miterlimit:10;}
	.st1{fill:none;stroke:#00A2B9;stroke-linejoin:round;stroke-miterlimit:10;}
	.st2{fill:none;stroke:#00A2B9;stroke-miterlimit:10;}
	.st3{fill:none;stroke:#878787;stroke-miterlimit:10;}
	.st4{fill:#878787;}
	.st5{fill:#00A2B9;}
</style>
<g>
	<path class="st2" d="M28.583334,2.6569061c-13.2867641,0-24.0577965,9.1813612-24.0577965,20.5071678
		c0,4.6662102,1.8242888,8.9200821,4.9035683,12.3661804c-0.0004063,0.0002556-2.825141,11.8128395-2.825141,11.8128395
		l11.5493279-5.6941071c3.155241,1.2959709,6.6931343,2.0222015,10.4300423,2.0222015
		c13.2867641,0,24.0577946-9.1813622,24.0577946-20.5071144C52.6411285,11.8382673,41.8700981,2.6569061,28.583334,2.6569061z"/>
	<path class="st2" d="M23.8029499,22.8176517c0,0,3.8450909-4.884304,5.5597935-3.9490128
		c1.7147026,0.9352932,0.05196,4.0529346-2.0264664,7.5862598s-3.7931309,9.5607681,3.5852871,2.3382435"/>
	<circle class="st5" cx="30.9215641" cy="14.4519939" r="1.6627419"/>
</g>
</svg>
