<?xml version="1.0" encoding="utf-8"?>
<!-- Generator: Adobe Illustrator 19.1.1, SVG Export Plug-In . SVG Version: 6.00 Build 0)  -->
<svg version="1.1" id="Слой_1" xmlns="http://www.w3.org/2000/svg" xmlns:xlink="http://www.w3.org/1999/xlink" x="0px" y="0px"
	 width="57.1666679px" height="50px" viewBox="0 0 57.1666679 50" style="enable-background:new 0 0 57.1666679 50;"
	 xml:space="preserve">
<style type="text/css">
	.st0{fill:none;stroke:#878787;stroke-linejoin:round;stroke-miterlimit:10;}
	.st1{fill:none;stroke:#00A2B9;stroke-linejoin:round;stroke-miterlimit:10;}
	.st2{fill:none;stroke:#00A2B9;stroke-miterlimit:10;}
	.st3{fill:none;stroke:#878787;stroke-miterlimit:10;}
	.st4{fill:#878787;}
	.st5{fill:#00A2B9;}
</style>
<g>
	<path class="st3" d="M40.6569328,34.922554c1.1102142-3.1224823-2.5673752-4.0245323-4.6490326-5.9674091
		c-2.0816536-1.9428787-3.4000359-0.9714394-4.5102501,0.4857197c-1.1102161,1.4571571-1.8308067,0.90205-1.8308067,0.90205
		C26.9339867,28.6775913,25.1139088,27.0122662,23.3098087,25c-1.8041019-2.0122662,0.5551071-3.5388126,0.5551071-3.5388126
		c1.9428787-1.7347126,1.0408287-2.7061501,1.0408287-2.7061501l-4.163311-5.967411
		c-0.9714375-1.6653242-5.8286324-1.3877697-5.6204672,3.7469788s4.510251,10.824604,11.7960443,16.7226276
		s10.2694969,3.955143,12.3511505,3.4000359c0.1322021-0.0352554,0.2585258-0.0671501,0.3791885-0.095974
		c1.6351852-0.3905869,3.3470764,0.2814331,4.2141876,1.7217484c1.2352562,2.051815-0.0439491,3.0602951-0.0439491,3.0602951
		c-3.9911766,3.7221947-9.3472404,5.9997559-15.2352543,5.9997559C16.2435837,47.3430939,6.2402396,37.3397522,6.2402396,25
		S16.2435837,2.6569066,28.583334,2.6569066S50.9264259,12.6602507,50.9264259,25
		c0,4.4074841-1.2761841,8.5168991-3.4791946,11.9788818"/>
</g>
</svg>
