<?xml version="1.0" encoding="utf-8"?>
<!-- Generator: Adobe Illustrator 19.1.1, SVG Export Plug-In . SVG Version: 6.00 Build 0)  -->
<svg version="1.1" id="Слой_1" xmlns="http://www.w3.org/2000/svg" xmlns:xlink="http://www.w3.org/1999/xlink" x="0px" y="0px"
	 width="64.5923386px" height="50px" viewBox="0 0 64.5923386 50" style="enable-background:new 0 0 64.5923386 50;"
	 xml:space="preserve">
<style type="text/css">
	.st0{fill:none;stroke:#878787;stroke-linejoin:round;stroke-miterlimit:10;}
	.st1{fill:none;stroke:#00A2B9;stroke-linejoin:round;stroke-miterlimit:10;}
	.st2{fill:none;stroke:#00A2B9;stroke-miterlimit:10;}
	.st3{fill:none;stroke:#878787;stroke-miterlimit:10;}
	.st4{fill:#878787;}
	.st5{fill:#00A2B9;}
</style>
<g>
	<circle class="st2" cx="34.6184883" cy="42.9140511" r="1.538776"/>
	<path class="st2" d="M54.6209679,25.0420494L37.6541595,35.8305969c-1.2616997,0.802269-2.9348755,0.4298248-3.7371445-0.8318748
		l-11.063406-17.3990726c-0.802269-1.2616997-0.4298248-2.9348764,0.8318768-3.7371435L40.6522942,3.073957
		c1.2616997-0.8022671,2.9348755-0.4298232,3.7371407,0.831877l11.0634117,17.3990707
		C56.2551117,22.5666046,55.8826675,24.2397804,54.6209679,25.0420494z"/>
	<line class="st2" x1="30.1408787" y1="9.7590256" x2="44.0832329" y2="31.7437477"/>
	<line class="st2" x1="33.7057114" y1="7.4982657" x2="47.6480675" y2="29.4829884"/>
	<line class="st2" x1="24.9187279" y1="20.8566685" x2="33.6622696" y2="15.3116579"/>
	<line class="st2" x1="37.2271042" y1="13.0508986" x2="46.4923401" y2="7.1750355"/>
	<circle class="st2" cx="34.6184845" cy="42.9140511" r="4.4239812"/>
	<line class="st2" x1="40.6768913" y1="38.2236557" x2="61.264473" y2="25.2638435"/>
	<path class="st2" d="M31.0618515,36.2683868L13.8029289,8.1052933c-0.5385714-0.8788409-1.2473288-1.6593804-2.135766-2.1819706
		C9.9751301,4.9280472,7.1047173,4.375104,3.3278584,7.8308616"/>
</g>
</svg>
