<?xml version="1.0" encoding="utf-8"?>
<!-- Generator: Adobe Illustrator 19.1.1, SVG Export Plug-In . SVG Version: 6.00 Build 0)  -->
<svg version="1.1" id="Слой_1" xmlns="http://www.w3.org/2000/svg" xmlns:xlink="http://www.w3.org/1999/xlink" x="0px" y="0px"
	 width="57.1666679px" height="50px" viewBox="0 0 57.1666679 50" style="enable-background:new 0 0 57.1666679 50;"
	 xml:space="preserve">
<style type="text/css">
	.st0{fill:none;stroke:#878787;stroke-linejoin:round;stroke-miterlimit:10;}
	.st1{fill:none;stroke:#00A2B9;stroke-linejoin:round;stroke-miterlimit:10;}
	.st2{fill:none;stroke:#00A2B9;stroke-miterlimit:10;}
	.st3{fill:none;stroke:#878787;stroke-miterlimit:10;}
	.st4{fill:#878787;}
	.st5{fill:#00A2B9;}
</style>
<g>
	<path class="st3" d="M50.0096664,23.7385883v-8.7721872c0-1.3593864-1.1043701-2.4613857-2.4666786-2.4613857H5.4197316
		c-1.362308,0-2.4666772,1.1019993-2.4666772,2.4613857v29.9153099c0,1.3593826,1.1043692,2.4613838,2.4666772,2.4613838h42.1232567
		c1.3623085,0,2.4666786-1.1020012,2.4666786-2.4613838v-8.8986092"/>
	<path class="st3" d="M52.2480392,35.9828529H40.1815147c-1.1390877,0-2.0625-0.9234161-2.0625-2.0625v-8.1188202
		c0-1.1390858,0.9234123-2.0625,2.0625-2.0625h12.0665245c1.1390839,0,2.0625,0.9234142,2.0625,2.0625v8.1188202
		C54.3105392,35.0594368,53.3871231,35.9828529,52.2480392,35.9828529z"/>
	<path class="st0" d="M41.7096443,12.5050154l-0.0487328-7.8259459c0,0,0.5059853-3.5342979-7.5897751-1.2622492
		C25.32304,5.8719444,4.8988342,12.5611153,4.8988342,12.5611153L41.7096443,12.5050154z"/>
	<circle class="st4" cx="45.0763092" cy="29.62953" r="1.5601206"/>
</g>
</svg>
