<?xml version="1.0" encoding="utf-8"?>
<!-- Generator: Adobe Illustrator 19.1.1, SVG Export Plug-In . SVG Version: 6.00 Build 0)  -->
<svg version="1.1" id="Слой_1" xmlns="http://www.w3.org/2000/svg" xmlns:xlink="http://www.w3.org/1999/xlink" x="0px" y="0px"
	 width="57.1666679px" height="50px" viewBox="0 0 57.1666679 50" style="enable-background:new 0 0 57.1666679 50;"
	 xml:space="preserve">
<style type="text/css">
	.st0{fill:none;stroke:#878787;stroke-linejoin:round;stroke-miterlimit:10;}
	.st1{fill:none;stroke:#00A2B9;stroke-linejoin:round;stroke-miterlimit:10;}
	.st2{fill:none;stroke:#00A2B9;stroke-miterlimit:10;}
	.st3{fill:none;stroke:#878787;stroke-miterlimit:10;}
	.st4{fill:#878787;}
	.st5{fill:#00A2B9;}
</style>
<g>
	<path class="st1" d="M36.0867043,26.1703987c0.117012-0.6326542,0.1971283-1.0381489,0.357151-1.6897621l0.0573349-0.2372799
		c1.1805267-4.8070717,0.9303856-7.2927227,0.9303856-7.2927227l2.0754814,0.8751259
		c0.5725479-2.7712336,4.2941017-9.6263924,4.2941017-9.6263924c-2.5700188-2.1998048-6.3951721-4.0986767-8.3469391-4.9941921
		c-0.7934418-0.364048-1.6509132-0.5482762-2.5210762-0.5482762h-1.8711472
		c-0.145443,6.0451608-4.7546139,6.5702872-6.262228,6.5702872c-1.4132061,0-6.116787-0.5251617-6.2622299-6.5702872h-2.1154308
		c-0.7091274,0-1.407856,0.153867-2.0557957,0.447499c-1.8705254,0.8476794-5.8970337,2.8088133-8.567935,5.0949697
		c0,0,3.7215528,6.8551588,4.2940998,9.6263924l2.0754814-0.8751259c0,0-0.2501402,2.485651,0.9303885,7.2927227
		c2.1194944,8.6305714,0.2791052,15.7111187-0.5630474,18.2479877c-0.1811972,0.5458298,0.1506443,1.1239433,0.7053337,1.2359543
		c1.4101553,0.2847519,4.0854492,0.7635231,7.2691154,1.0308418"/>
	<g>
		<path class="st1" d="M21.3100147,35.9709854c-0.3185768,0.1939621-0.5810299,0.4772377-0.7443314,0.8281059
			c-0.1858501,0.3993073-0.3213253,0.9293556-0.3213253,1.6261368c0,2.2185097,1.4261856,2.5618515,1.4261856,2.5618515
			s-1.2178917-0.0664368-1.4018555,2.7754517c-0.0478687,0.7394676,0.4144917,1.3462524,1.0634003,1.7040443
			c1.870285,1.0312347,5.148243,1.5907059,14.4119148,1.8326988c14.5763016,0.3807755,15.1034851-1.8054276,15.499649-3.2316132
			c0.2544708-0.9161072,0.2661552-3.1469879-1.4241409-3.1469879c0,0,1.3814926-1.4362679,1.4364662-2.7881584
			c0.0330009-0.8114967-0.3613243-1.535038-0.9747314-1.9825897"/>
		<path class="st1" d="M49.8195114,40.9206734c0,0-4.2911644,3.033226-23.9056244,0.6738548"/>
		<path class="st1" d="M21.4952793,40.9206734c0,0,0.7563038,0.08564,1.7070942,0.1860695"/>
	</g>
	<g>
		<path class="st1" d="M22.2996559,26.1702671c-0.7419472,0-1.4297009,0.4289875-1.742775,1.1205902
			c-0.1807594,0.3993092-0.3125229,0.9293556-0.3125229,1.6261368c0,2.2185116,1.3871231,2.5618534,1.3871231,2.5618534
			s-1.1845341-0.0664387-1.3634605,2.7754517c-0.0465565,0.7394676,0.3676682,1.4223442,1.0342751,1.7040443
			c1.5261707,0.6449471,5.2387829,1.3968315,14.2517891,1.4101219c15.1556015,0.0223503,15.232666-1.1092529,15.6179771-2.5354385
			c0.2475052-0.9161034-0.1027489-3.6445103-1.7467461-3.6445103c0,0,0.9277916-1.2123432,0.9812584-2.5642338
			c0.0533295-1.3484344-1.0409088-2.4540176-2.3534927-2.4540176L22.2996559,26.1702671z"/>
		<path class="st1" d="M49.4253159,31.1885166c0,0-3.253746,1.3555698-23.6667156,0.5808506"/>
		<path class="st1" d="M21.4610176,31.4124413c0,0,0.7355881,0.085638,1.6603355,0.1860676"/>
	</g>
</g>
</svg>
