<?xml version="1.0" encoding="utf-8"?>
<!-- Generator: Adobe Illustrator 19.1.1, SVG Export Plug-In . SVG Version: 6.00 Build 0)  -->
<svg version="1.1" id="Слой_1" xmlns="http://www.w3.org/2000/svg" xmlns:xlink="http://www.w3.org/1999/xlink" x="0px" y="0px"
	 width="57.1666679px" height="50px" viewBox="0 0 57.1666679 50" style="enable-background:new 0 0 57.1666679 50;"
	 xml:space="preserve">
<style type="text/css">
	.st0{fill:none;stroke:#878787;stroke-linejoin:round;stroke-miterlimit:10;}
	.st1{fill:none;stroke:#00A2B9;stroke-linejoin:round;stroke-miterlimit:10;}
	.st2{fill:none;stroke:#00A2B9;stroke-miterlimit:10;}
	.st3{fill:none;stroke:#878787;stroke-miterlimit:10;}
	.st4{fill:#878787;}
	.st5{fill:#00A2B9;}
</style>
<g>
	<circle class="st3" cx="28.3892365" cy="25" r="22.3430958"/>
	<g>
		<path class="st4" d="M27.7225838,28.1451149l-0.0432491-0.5602913c-0.1293583-1.1626644,0.2583256-2.4336452,1.3356609-3.7264481
			c0.969017-1.1416225,1.5074883-1.9816704,1.5074883-2.9502983c0-1.0987644-0.6892605-1.831274-2.0463505-1.852314
			c-0.7753696,0-1.6368465,0.2579384-2.1753197,0.6670513l-0.5170422-1.3567009
			c0.7110806-0.5166531,1.9388123-0.8618679,3.0804367-0.8618679c2.4768944,0,3.5970879,1.5296993,3.5970879,3.166935
			c0,1.4642391-0.8186188,2.5201435-1.8527031,3.747488c-0.9475861,1.1198044-1.2924118,2.0681686-1.2277317,3.1661549
			l0.0218182,0.5602913H27.7225838z M27.2484016,31.1608715c0-0.7971878,0.5388603-1.3574791,1.2924099-1.3574791
			c0.7539406,0,1.2709827,0.5602913,1.2709827,1.3574791c0,0.7535496-0.4956131,1.3348827-1.2924118,1.3348827
			C27.7654438,32.4957542,27.2484016,31.9144211,27.2484016,31.1608715z"/>
	</g>
</g>
</svg>
