<?xml version="1.0" encoding="utf-8"?>
<!-- Generator: Adobe Illustrator 19.1.1, SVG Export Plug-In . SVG Version: 6.00 Build 0)  -->
<svg version="1.1" id="Слой_1" xmlns="http://www.w3.org/2000/svg" xmlns:xlink="http://www.w3.org/1999/xlink" x="0px" y="0px"
	 width="50px" height="50px" viewBox="0 0 50 50" style="enable-background:new 0 0 50 50;" xml:space="preserve">
<style type="text/css">
	.st0{fill:none;stroke:#878787;stroke-linejoin:round;stroke-miterlimit:10;}
	.st1{fill:none;stroke:#00A2B9;stroke-linejoin:round;stroke-miterlimit:10;}
	.st2{fill:none;stroke:#00A2B9;stroke-miterlimit:10;}
	.st3{fill:none;stroke:#878787;stroke-miterlimit:10;}
	.st4{fill:#878787;}
	.st5{fill:#00A2B9;}
</style>
<g>
	<rect x="11.5117683" y="2.6569066" class="st1" width="4.7878056" height="44.6861877"/>
	<path class="st1" d="M11.5115891,4.3186421C9.4332571,5.3818836,6.8473458,6.8674817,4.9256711,8.5123377
		c0,0,3.9316955,7.2422447,4.536571,10.169961l2.0495262-1.0069809"/>
	<path class="st1" d="M16.2990131,46.6535378c2.3391743,0.3423347,5.3474731,0.6629524,8.5119629,0.6870346v0.0025215
		c0.0632057,0,0.1259308-0.0010529,0.189024-0.0012779c0.0630951,0.0002251,0.1258183,0.0012779,0.189024,0.0012779v-0.0025215
		c5.1702251-0.0393448,9.9235096-0.8702583,12.0228138-1.2941742c0.58601-0.1183357,0.9365883-0.7290916,0.7451591-1.3057404
		c-0.8897057-2.6801186-2.8340149-10.1604805-0.594841-19.2783871c1.2471886-5.0785084,0.9829254-7.7045155,0.9829254-7.7045155
		l2.1926765,0.9245434c0.6048775-2.9277163,4.5365715-10.169961,4.5365715-10.169961
		c-2.7151375-2.3240194-6.7562828-4.3301139-8.8182602-5.2761955c-0.8382416-0.3846045-1.744133-0.5792353-2.6634331-0.5792353
		h-1.9768028C31.4621773,9.0434151,26.5927448,9.5981932,25,9.5981932c-1.4930038,0-6.4621773-0.5548153-6.6158333-6.9412866
		h-2.0845928"/>
	<line class="st1" x1="13.24648" y1="6.4784093" x2="16.2995739" y2="6.4784093"/>
	<line class="st1" x1="13.24648" y1="24.2418633" x2="16.2995739" y2="24.2418633"/>
	<line class="st1" x1="14.7730274" y1="10.0311003" x2="16.2995739" y2="10.0311003"/>
	<line class="st1" x1="14.7730274" y1="13.5837908" x2="16.2995739" y2="13.5837908"/>
	<line class="st1" x1="14.7730274" y1="17.1364822" x2="16.2995739" y2="17.1364822"/>
	<line class="st1" x1="14.7730274" y1="20.6891727" x2="16.2995739" y2="20.6891727"/>
	<line class="st1" x1="13.24648" y1="41.7277641" x2="16.2995739" y2="41.7277641"/>
	<line class="st1" x1="14.7730274" y1="27.5170002" x2="16.2995739" y2="27.5170002"/>
	<line class="st1" x1="14.7730274" y1="31.0696907" x2="16.2995739" y2="31.0696907"/>
	<line class="st1" x1="14.7730274" y1="34.6223793" x2="16.2995739" y2="34.6223793"/>
	<line class="st1" x1="14.7730274" y1="38.1750717" x2="16.2995739" y2="38.1750717"/>
</g>
</svg>
