<?xml version="1.0" encoding="utf-8"?>
<!-- Generator: Adobe Illustrator 19.1.1, SVG Export Plug-In . SVG Version: 6.00 Build 0)  -->
<svg version="1.1" id="Слой_1" xmlns="http://www.w3.org/2000/svg" xmlns:xlink="http://www.w3.org/1999/xlink" x="0px" y="0px"
	 width="50px" height="50px" viewBox="0 0 50 50" style="enable-background:new 0 0 50 50;" xml:space="preserve">
<style type="text/css">
	.st0{fill:none;stroke:#878787;stroke-linejoin:round;stroke-miterlimit:10;}
	.st1{fill:none;stroke:#00A2B9;stroke-linejoin:round;stroke-miterlimit:10;}
	.st2{fill:none;stroke:#00A2B9;stroke-miterlimit:10;}
	.st3{fill:none;stroke:#878787;stroke-miterlimit:10;}
	.st4{fill:#878787;}
	.st5{fill:#00A2B9;}
</style>
<g>
	<rect x="11.5117683" y="2.6569061" class="st0" width="4.7878056" height="44.6861877"/>
	<path class="st0" d="M11.5115891,4.3186417c-2.0783319,1.063241-4.6642432,2.5488391-6.5859179,4.193696
		c0,0,3.9316955,7.2422438,4.536571,10.1699591l2.0495262-1.006979"/>
	<path class="st0" d="M16.2990131,46.6535378c2.3391743,0.3423347,5.3474731,0.6629524,8.5119629,0.6870346v0.0025215
		c0.0632057,0,0.1259308-0.0010529,0.189024-0.0012779c0.0630932,0.0002251,0.1258183,0.0012779,0.189024,0.0012779v-0.0025215
		c5.1702251-0.0393448,9.9235096-0.8702583,12.0228138-1.2941742c0.58601-0.1183357,0.9365883-0.7290916,0.7451591-1.3057442
		c-0.8897057-2.6801186-2.8340149-10.1604767-0.594841-19.2783833c1.2471886-5.0785103,0.9829254-7.7045155,0.9829254-7.7045155
		l2.1926765,0.9245415c0.6048775-2.9277153,4.5365715-10.1699591,4.5365715-10.1699591
		c-2.7151375-2.3240204-6.7562828-4.3301144-8.8182602-5.2761965c-0.8382416-0.3846047-1.744133-0.5792353-2.6634331-0.5792353
		h-1.9768028C31.4621773,9.0434151,26.5927448,9.5981922,25,9.5981922c-1.4930038,0-6.4621773-0.5548153-6.6158333-6.9412861
		h-2.0845928"/>
	<line class="st0" x1="13.24648" y1="6.4784088" x2="16.2995739" y2="6.4784088"/>
	<line class="st0" x1="13.24648" y1="24.2418633" x2="16.2995739" y2="24.2418633"/>
	<line class="st0" x1="14.7730274" y1="10.0310993" x2="16.2995739" y2="10.0310993"/>
	<line class="st0" x1="14.7730274" y1="13.5837898" x2="16.2995739" y2="13.5837898"/>
	<line class="st0" x1="14.7730274" y1="17.1364803" x2="16.2995739" y2="17.1364803"/>
	<line class="st0" x1="14.7730274" y1="20.6891708" x2="16.2995739" y2="20.6891708"/>
	<line class="st0" x1="13.24648" y1="41.7277603" x2="16.2995739" y2="41.7277603"/>
	<line class="st0" x1="14.7730274" y1="27.5169983" x2="16.2995739" y2="27.5169983"/>
	<line class="st0" x1="14.7730274" y1="31.0696888" x2="16.2995739" y2="31.0696888"/>
	<line class="st0" x1="14.7730274" y1="34.6223793" x2="16.2995739" y2="34.6223793"/>
	<line class="st0" x1="14.7730274" y1="38.1750717" x2="16.2995739" y2="38.1750717"/>
</g>
</svg>
