<?xml version="1.0" encoding="utf-8"?>
<!-- Generator: Adobe Illustrator 19.2.0, SVG Export Plug-In . SVG Version: 6.00 Build 0)  -->
<svg version="1.1" id="Layer_1" xmlns="http://www.w3.org/2000/svg" xmlns:xlink="http://www.w3.org/1999/xlink" x="0px" y="0px"
	 width="45px" height="45px" viewBox="0 0 45 45" style="enable-background:new 0 0 45 45;" xml:space="preserve">
<g id="hot">
	<path d="M16.6898441,28.2690449h-0.9738464v-5.4818172H9.1817989v5.4818172H8.2150917V16.8341961h0.9667072v5.1362572h6.5341988
		v-5.1362572h0.9738464V28.2690449z"/>
	<path d="M27.6434803,23.1713409c0,0.802496-0.1042385,1.5250282-0.3141441,2.1718788
		c-0.208477,0.6468506-0.5069141,1.1980324-0.8910275,1.6535397c-0.38554,0.4555092-0.8524723,0.8082085-1.4022255,1.0566673
		c-0.5497513,0.2484608-1.1623325,0.3726902-1.8377419,0.3726902c-0.6696987,0-1.2779961-0.1242294-1.8263206-0.3726902
		c-0.546896-0.2484589-1.0166855-0.6011581-1.4093647-1.0566673c-0.3926811-0.4555073-0.6954021-1.0066891-0.9110184-1.6535397
		c-0.2141895-0.6468506-0.3212833-1.3693829-0.3212833-2.1718788v-1.2251625c0-0.7996387,0.1070938-1.5250263,0.3212833-2.1747341
		c0.2156162-0.6497078,0.5154819-1.2023163,0.9038773-1.6606808c0.3869686-0.4583645,0.8539028-0.8124905,1.4007988-1.0609493
		c0.5483246-0.2484608,1.1566219-0.3726902,1.8263187-0.3726902c0.6754112,0,1.2879925,0.1242294,1.8377438,0.3726902
		c0.5497532,0.2484589,1.0195408,0.6025848,1.4093647,1.0609493c0.3912525,0.4583645,0.6911182,1.010973,0.8995953,1.6606808
		c0.2099056,0.6497078,0.3141441,1.3750954,0.3141441,2.1747341V23.1713409z M26.6782017,21.9319
		c0-0.6768379-0.078537-1.2865639-0.2356091-1.8306046s-0.38554-1.0066891-0.6839771-1.3865185
		c-0.2984371-0.3798275-0.6639862-0.672554-1.0995045-0.8796024c-0.4340897-0.2070503-0.9267254-0.3098602-1.4764786-0.3098602
		c-0.5383282,0-1.0252514,0.1028099-1.4564857,0.3098602c-0.432663,0.2070484-0.7982121,0.4997749-1.0995045,0.8796024
		c-0.3012924,0.3798294-0.531189,0.8424778-0.6911182,1.3865185c-0.1599274,0.5440407-0.2398911,1.1537666-0.2398911,1.8306046
		v1.2394409c0,0.6811218,0.0813923,1.2937031,0.244175,1.8391724c0.161356,0.5440388,0.3955364,1.0066891,0.6982574,1.3893738
		c0.3041496,0.3826847,0.6711254,0.6754093,1.1037884,0.8796024c0.4312344,0.204195,0.9181576,0.3070049,1.4564877,0.3070049
		c0.5554638,0,1.0480976-0.1028099,1.4807606-0.3070049c0.4312344-0.2041931,0.7953568-0.4969177,1.0909367-0.8796024
		c0.2970085-0.3826847,0.5211945-0.845335,0.6754093-1.3893738c0.1556454-0.5454693,0.2327538-1.1580505,0.2327538-1.8391724
		V21.9319z"/>
	<path d="M37.2234497,17.6595383h-3.9182358v10.6095066h-0.9667053V17.6595383h-3.9110947v-0.8253422h8.7960358V17.6595383z"/>
</g>
</svg>
