<?xml version="1.0" encoding="utf-8"?>
<!-- Generator: Adobe Illustrator 19.2.0, SVG Export Plug-In . SVG Version: 6.00 Build 0)  -->
<svg version="1.1" id="Layer_1" xmlns="http://www.w3.org/2000/svg" xmlns:xlink="http://www.w3.org/1999/xlink" x="0px" y="0px"
	 width="45px" height="45px" viewBox="0 0 45 45" style="enable-background:new 0 0 45 45;" xml:space="preserve">
<style type="text/css">
	.st0{display:none;fill:#F4DF21;}
</style>
<circle id="XMLID_1722_" class="st0" cx="16.333334" cy="30.1666222" r="16"/>
<g id="star">
	<path d="M11.9316597,25.3110638c0-0.3057442-0.0500307-0.576746-0.1487026-0.8143921
		c-0.1000624-0.2362576-0.2682219-0.4530582-0.5044785-0.6490135c-0.2376471-0.1959534-0.5496454-0.3766212-0.9366903-0.5392227
		c-0.3870449-0.1625996-0.8713722-0.3265896-1.4522867-0.4891911c-0.5607634-0.1584301-1.0652423-0.3293705-1.5134358-0.5155964
		c-0.448194-0.1862259-0.82968-0.404417-1.1423731-0.6545715c-0.3140831-0.248764-0.5558991-0.5364418-0.7268386-0.8630333
		c-0.1702437-0.3265915-0.2557135-0.7087708-0.2557135-1.1465416c0-0.4280434,0.0917234-0.817173,0.2751703-1.1701679
		c0.1834464-0.3502178,0.4405499-0.653183,0.7720051-0.904726c0.3314548-0.2529354,0.7261434-0.4488888,1.1847601-0.5892544
		c0.4586167-0.1403637,0.9603157-0.2098522,1.5057926-0.2098522c0.5857782,0,1.1145773,0.0861645,1.5863972,0.2598839
		c0.4711246,0.1737194,0.8720665,0.4099751,1.2035217,0.7101612c0.3314552,0.3015747,0.5857792,0.6531811,0.7643614,1.0562096
		c0.1785831,0.4016361,0.2675266,0.8352375,0.2675266,1.2980232h-0.9478083c0-0.3613338-0.0639286-0.6962624-0.1910906-1.0047874
		c-0.127162-0.3085232-0.3133879-0.5739651-0.5579834-0.7991047c-0.2445955-0.2237492-0.545476-0.3988571-0.901947-0.5267143
		c-0.3564701-0.1278572-0.7643614-0.1903954-1.2229776-0.1903954c-0.4586172,0-0.862339,0.0541992-1.2111659,0.16399
		c-0.3495216,0.1097889-0.6399789,0.257103-0.8713722,0.4433289c-0.2320881,0.1862259-0.4078908,0.4030266-0.5281043,0.6531811
		c-0.1195183,0.2501564-0.1792774,0.5142078-0.1792774,0.7949371c0,0.2654419,0.0500307,0.5100365,0.1487031,0.7337875
		c0.1000619,0.2237492,0.2668314,0.4322109,0.5010042,0.6226063c0.2341723,0.1917858,0.5426965,0.3696728,0.9248772,0.5350533
		s0.8533053,0.322422,1.4140687,0.4697342c0.5857792,0.16399,1.1083241,0.3418789,1.5669413,0.5364437
		c0.4586172,0.1931744,0.8456621,0.421093,1.1618299,0.6837559c0.3161669,0.2626629,0.5552044,0.5642376,0.7184992,0.9061165
		c0.1632957,0.3404884,0.2445955,0.7351761,0.2445955,1.1840649c0,0.4530582-0.095892,0.8602543-0.2862873,1.2188091
		c-0.1917858,0.3599453-0.4565325,0.664299-0.7949362,0.913065c-0.3390989,0.2501545-0.7428207,0.4419384-1.2118607,0.5739651
		s-0.9783831,0.1987343-1.5287228,0.1987343c-0.3314552,0-0.6636047-0.0277958-0.997839-0.0833855
		c-0.33354-0.0569782-0.654572-0.1417542-0.9630961-0.257103C6.788897,27.745903,6.500524,27.5985889,6.2336926,27.420702
		c-0.2682214-0.1778889-0.4996147-0.3905201-0.6962638-0.6378956c-0.1959548-0.2473755-0.3516064-0.5308838-0.4655657-0.8491364
		c-0.1153493-0.3182526-0.1723289-0.6740265-0.1723289-1.065937h0.9401646c0,0.4683456,0.0965877,0.8644238,0.2904577,1.1882362
		c0.1938696,0.3238106,0.4433293,0.585083,0.749074,0.7838173s0.6497073,0.3432674,1.031888,0.4322109
		c0.3821812,0.0889454,0.7643614,0.1334171,1.1465425,0.1334171c0.4329062,0,0.8268995-0.0500317,1.1812859-0.1487045
		c0.3536911-0.1000614,0.6573505-0.2404251,0.9088955-0.423872c0.2529335-0.1834469,0.4461088-0.404417,0.5809145-0.66152
		C11.8642569,25.9142132,11.9316597,25.6265354,11.9316597,25.3110638z"/>
	<path d="M22.0657043,17.7216492h-3.8141651v10.3258286h-0.9401646V17.7216492h-3.8065195V16.918375h8.5608492V17.7216492z"/>
	<path d="M28.8747749,24.9288826h-5.0524292l-1.1465435,3.1185951h-0.9860249l4.2116318-11.1291027h0.8943024l4.2116318,11.1291027
		h-0.9783821L28.8747749,24.9288826z M24.1128025,24.1256084h4.463871l-2.2319355-6.0606918L24.1128025,24.1256084z"/>
	<path d="M36.4092941,23.4154472h-3.2332497v4.6320305h-0.9478073V16.918375h3.6154289
		c0.5809174,0,1.1048508,0.0708771,1.5704155,0.2140198c0.4669571,0.1431446,0.8644257,0.3529968,1.1924057,0.6309471
		c0.3293686,0.2779484,0.5809135,0.6198273,0.757412,1.0284138c0.1751099,0.407196,0.2640533,0.8755398,0.2640533,1.4064236
		c0,0.3668938-0.0569801,0.7115517-0.1695518,1.0353622c-0.1111794,0.3238125-0.2696114,0.6156597-0.4732094,0.8741531
		c-0.203598,0.2612724-0.446804,0.4850216-0.7303123,0.6726379c-0.2821159,0.1890049-0.5948105,0.3349285-0.9359932,0.4363804
		l2.7815781,4.7307034v0.1000614h-1.000618L36.4092941,23.4154472z M33.1760445,22.6135616h2.8816452
		c0.4329033,0,0.8143921-0.0667076,1.1423721-0.2001228c0.3293686-0.1320267,0.6031494-0.3085251,0.8220367-0.5308838
		c0.2188835-0.2209702,0.3835678-0.4780731,0.4926643-0.7713108c0.1097908-0.2932358,0.1646843-0.5975914,0.1646843-0.913065
		c0-0.3835697-0.0611496-0.7268372-0.183445-1.0325813c-0.1222992-0.3057461-0.3043556-0.5656281-0.5468674-0.7796497
		c-0.2418137-0.2140217-0.5385284-0.3780117-0.8901329-0.4933605c-0.3516083-0.1139603-0.7567177-0.1709385-1.2153358-0.1709385
		h-2.6676216V22.6135616z"/>
</g>
</svg>
