<?xml version="1.0" encoding="utf-8"?>
<!-- Generator: Adobe Illustrator 19.2.0, SVG Export Plug-In . SVG Version: 6.00 Build 0)  -->
<svg version="1.1" id="Layer_1" xmlns="http://www.w3.org/2000/svg" xmlns:xlink="http://www.w3.org/1999/xlink" x="0px" y="0px"
	 width="45px" height="45px" viewBox="0 0 45 45" style="enable-background:new 0 0 45 45;" xml:space="preserve">
<g id="new">
	<path d="M15.1561966,27.9900284h-0.9268875l-6.3127098-9.3963947v9.3963947H6.9814849V17.0099716h0.9351144l6.3195648,9.4032497
		v-9.4032497h0.9200325V27.9900284z"/>
	<path d="M23.6243305,22.7262383h-5.1362743v4.4794998h5.9054832v0.7842903h-6.8323708V17.0099716h6.7939777v0.7925167h-5.8670902
		v4.1394596h5.1362743V22.7262383z"/>
	<path d="M27.988657,25.0256329l0.3400421,1.7056923l0.4140816-1.6289101l2.3830357-8.0924435h0.8377628l2.352869,8.0924435
		l0.4072266,1.642622l0.3619804-1.7194042l1.9826622-8.0156612h0.9501991l-2.8122025,10.9800568h-0.8898659l-2.4886112-8.5887947
		l-0.2797108-1.0859394l-0.2714863,1.0859394l-2.5489407,8.5887947h-0.8898678l-2.8053436-10.9800568h0.9501972
		L27.988657,25.0256329z"/>
</g>
</svg>
