<?xml version="1.0" encoding="utf-8"?>
<!-- Generator: Adobe Illustrator 19.2.0, SVG Export Plug-In . SVG Version: 6.00 Build 0)  -->
<svg version="1.1" id="Layer_1" xmlns="http://www.w3.org/2000/svg" xmlns:xlink="http://www.w3.org/1999/xlink" x="0px" y="0px"
	 width="45px" height="45px" viewBox="0 0 45 45" style="enable-background:new 0 0 45 45;" xml:space="preserve">
<g id="top">
	<path d="M17.3632717,17.7577343h-3.7797403v10.230772H12.65271v-10.230772H8.8812323v-0.7958794h8.4820395V17.7577343z"/>
	<path d="M26.6921387,23.0727787c0,0.7738495-0.1018963,1.4705868-0.3029308,2.094347
		c-0.2024117,0.6237621-0.4888191,1.1552658-0.8592205,1.5945148c-0.3717766,0.4392471-0.8220406,0.779356-1.352169,1.0189457
		c-0.5301266,0.2395897-1.1208401,0.3593845-1.7721405,0.3593845c-0.6471672,0-1.2337513-0.1197948-1.7611237-0.3593845
		c-0.5273743-0.2395897-0.9803925-0.5796986-1.3590546-1.0189457c-0.3786621-0.439249-0.6719532-0.9707527-0.8784962-1.5945148
		c-0.2079201-0.6237602-0.3111916-1.3204975-0.3111916-2.094347v-1.181427c0-0.7710934,0.1032715-1.4705868,0.3111916-2.0971012
		c0.206543-0.6265144,0.4970798-1.1593952,0.8702354-1.6013985c0.3745308-0.4420013,0.8247948-0.7834873,1.352169-1.023077
		c0.5273724-0.2395897,1.1139565-0.3593845,1.7611237-0.3593845c0.6513004,0,1.2420139,0.1197948,1.7721405,0.3593845
		c0.5301285,0.2395897,0.9831467,0.5810757,1.3590546,1.023077c0.3759079,0.4420033,0.6650696,0.974884,0.8674812,1.6013985
		c0.2010345,0.6265144,0.3029308,1.3260078,0.3029308,2.0971012V23.0727787z M25.7599392,21.8775826
		c0-0.6526756-0.0757313-1.2406368-0.2271976-1.765255c-0.1514645-0.5246201-0.3703995-0.9707527-0.6581841-1.3370228
		c-0.2877827-0.3662701-0.6416607-0.6485462-1.0602551-0.8482056c-0.4199715-0.1996574-0.8936424-0.2987976-1.4237709-0.2987976
		c-0.5204887,0-0.9886532,0.0991402-1.4044933,0.2987976c-0.4172173,0.1996593-0.7710934,0.4819355-1.0602551,0.8482056
		c-0.2905369,0.3662701-0.5136032,0.8124027-0.6664448,1.3370228c-0.1542187,0.5246181-0.231329,1.1125793-0.231329,1.765255
		v1.1951962c0,0.6568069,0.0784855,1.2475204,0.2340813,1.7735176c0.1569729,0.5246201,0.3814182,0.9707527,0.6747093,1.339777
		c0.291914,0.3690243,0.6471672,0.6512985,1.0643845,0.8482037c0.4158401,0.1969051,0.8840046,0.2960453,1.4044933,0.2960453
		c0.5342598,0,1.010685-0.0991402,1.4279022-0.2960453c0.4158401-0.1969051,0.766964-0.4791794,1.0519943-0.8482037
		c0.2850285-0.3690243,0.5025883-0.8151569,0.6512985-1.339777c0.1487122-0.5259972,0.2230663-1.1167107,0.2230663-1.7735176
		V21.8775826z"/>
	<path d="M29.5837421,23.4968815v4.4916248h-0.9321976V16.9618549h3.7563305c0.6058617,0,1.1401176,0.0812397,1.6013985,0.2423439
		c0.4626579,0.1611042,0.8495827,0.3869247,1.1635284,0.6774616c0.3125687,0.2905369,0.548027,0.6375294,0.7077522,1.0409775
		c0.1583519,0.4048252,0.2382126,0.8482037,0.2382126,1.3328915c0,0.5108509-0.0798607,0.9666233-0.2382126,1.3673172
		c-0.1597252,0.4020691-0.3938065,0.7408009-0.7050018,1.0189457c-0.3098145,0.2781448-0.6967354,0.4901962-1.1621475,0.6361523
		c-0.464035,0.1459579-0.9996681,0.2189369-1.6055298,0.2189369H29.5837421z M29.5837421,22.7092628h2.8241329
		c0.4901962,0,0.9115448-0.060585,1.2654228-0.1845112c0.3525009-0.1239262,0.6402817-0.2960453,0.8633499-0.5149822
		c0.2216873-0.2203121,0.3855476-0.4791794,0.4915733-0.7766018s0.1597252-0.6182518,0.1597252-0.9611149
		c0-0.3387299-0.0536995-0.6609383-0.1597252-0.9666214s-0.269886-0.572813-0.4915733-0.8027649
		c-0.2230682-0.22995-0.510849-0.4117088-0.8633499-0.5452728c-0.353878-0.1335659-0.7752266-0.1996593-1.2654228-0.1996593
		h-2.8241329V22.7092628z"/>
</g>
</svg>
