<?xml version="1.0" encoding="utf-8"?>
<!-- Generator: Adobe Illustrator 19.2.0, SVG Export Plug-In . SVG Version: 6.00 Build 0)  -->
<svg version="1.1" id="Слой_1" xmlns="http://www.w3.org/2000/svg" xmlns:xlink="http://www.w3.org/1999/xlink" x="0px" y="0px"
	 width="120px" height="56.1102219px" viewBox="0 0 120 56.1102219" style="enable-background:new 0 0 120 56.1102219;"
	 xml:space="preserve">
<style type="text/css">
	.st0{display:none;fill:#222223;}
	.st1{fill:#222223;}
	.st2{display:none;}
	.st3{display:inline;fill:#222223;}
	.st4{display:inline;}
</style>
<path class="st0" d="M-5756.1591797-3779.6489258c20.262207-93.2333984,103.9868164-204.6120605,338.7875977-194.5444336
	c82.4199219,3.5341797,345.8754883,74.2856445,422.8222656,97.3730469
	c28.2456055,8.4719238,55.9804688,16.9064941,83.6303711,25.3173828
	c-72.1547852,36.7836914-130.5898438,69.4370117-160.6757813,91.309082
	c-114.0820313,82.9545898-216.6416016,173.1791992-307.6928711,270.5244141
	c-45.875,49.0244141-88.206543,99.3115234-127.0644531,150.8564453
	c-38.2246094-31.690918-74.7832031-64.5556641-108.9199219-98.701416
	C-5699.597168-3521.8254395-5789.6948242-3625.347168-5756.1591797-3779.6489258L-5756.1591797-3779.6489258z
	 M-4334.3867188-3970.7246094c87.8920898-24.8151855,174.605957-36.380127,260.2268066-34.765625
	c63.2365723,1.2626953,124.5820313,9.1760254,184.1716309,23.8105469
	c59.6088867,14.6628418,110.7407227,37.0466309,153.4289551,67.217041
	c42.7351074,30.1652832,73.548584,68.9160156,92.604248,116.3024902
	c8.1152344,20.1635742,12.6870117,42.105957,14.109375,65.6162109
	c-273.7817383-58.1489258-551.7084961-126.375-814.9487305-188.6914063
	c-6.059082-1.4318848-12.2216797-2.9526367-18.4453125-4.5202637
	C-4420.6689453-3943.473877-4377.7509766-3958.4743652-4334.3867188-3970.7246094L-4334.3867188-3970.7246094z
	 M-3948.9675293-3298.0117188c-14.9680176,9.5844727-25.4489746,17.1879883-33.9914551,23.6276855
	c-9.654541,3.4919434-18.661377,7.3688965-26.4621582,11.4099121
	c-242.7385254,125.8728027-477.5119629,274.4812012-710.8493652,422.2260742
	c-130.425293-84.3625488-328.8046875-185.8286133-524.15625-310.2133789
	c7.9462891-16.8217773,16.0947266-33.5449219,24.6884766-50.104248
	c49.7895508-95.8195801,106.8818359-185.0351563,171.4379883-267.5578613
	c64.5273438-82.4943848,135.3491211-156.9863281,212.4086914-223.4523926
	c41.0776367-35.3662109,83.2875977-67.8173828,126.4873047-97.7580566
	c165.2797852,50.6345215,317.5634766,96.4533691,453.4189453,129.5854492
	c167.237793,40.777832,385.6022949,91.2995605,576.3498535,128.2570801
	c-17.1694336,32.3666992-38.0507813,61.9597168-62.8381348,88.6662598
	C-3790.1083984-3392.1462402-3895.2216797-3332.3686523-3948.9675293-3298.0117188L-3948.9675293-3298.0117188z
	 M-3242.5217285-3657.831543c-0.2456055,1.1618652,0.7790527-2.2856445,1.0749512-3.4309082
	c18.1499023-67.5549316,17.980957-131.1010742-0.6430664-190.5737305
	c-18.6286621-59.4865723-54.427002-111.5617676-107.2299805-156.3859863
	c-52.887207-44.7250977-121.5683594-80.5510254-206.1799316-107.2954102
	c-84.5268555-26.7529297-183.7446289-41.2470703-297.3996582-43.4389648
	c-150.2746582-2.9052734-297.230957,12.1894531-440.9018555,45.2416992
	c-64.2602539,14.7705078-203.7631836,70.4553223-348.5458984,134.8891602
	c-377.0874023-121.2729492-909.0209961-319.0141602-1235.1176758-53.4743652
	c-133.0776367,108.3608398-181.2148438,303.0510254-105.5117188,477.5583496
	c89.3422852,205.9267578,186.8139648,276.5322266,355.1870117,401.3300781
	c-54.7788086,97.5422363-95.5146484,195.5163574-122.0146484,293.954834
	c-37.0605469,137.9726563-45.3588867,258.1052246-24.8383789,360.4628906
	c20.421875,102.2966309,62.4814453,187.6027832,125.9946289,255.8381348
	c63.5185547,68.2680664,143.980957,119.5644531,241.2553711,154.0717773
	c97.2792969,34.4743652,204.9404297,52.8358154,322.9140625,55.1027832
	c75.7358398,1.4597168,150.7441406-4.5198975,225.0058594-18.013916
	c74.0976563-13.409668,145.7924805-33.3950195,215.1401367-60.0217285
	c69.2255859-26.5751953,134.7807617-59.111084,196.6098633-97.4438477l0,0
	c61.7768555-38.3134766,118.2548828-81.7150879,169.3212891-130.0639648l-5.1816406,19.4736328
	c-21.1782227,78.7165527-42.8574219,145.0322266-65.1425781,199.0786133
	c-22.2666016,54.0090332,164.4208984,59.4396973,219.8242188,5.6276855
	c55.3703613-53.8493652,109.2011719-12.7475586,139.6154785-62.8703613
	c30.4523926-50.1557617,51.1462402-93.3041992,62.260498-129.3508301
	c14.6018066-49.0622559,33.4609375-103.5874023,56.7739258-163.6748047
	c23.0827637-60.059082,47.3066406-118.4709473,72.4267578-175.2163086
	c25.1337891-56.7973633,48.9775391-108.6706543,71.4785156-155.6955566
	c22.4870605-47.0063477,39.590332-81.6120605,51.1835938-103.7001953c2.6330566-4.637207,4.6652832-8.5471191,6.3222656-11.7714844
	c1.5908203-3.2478027,2.7502441-6.2424316,3.496582-9.0119629c2.6801758-10.1989746,0.3945313-17.4833984-6.8571777-21.7875977
	c-7.3171387-4.3227539-17.2678223-6.6225586-29.9545898-6.8571777c-11.2553711-0.2158203-23.5947266,1.1779785-37.0888672,4.1586914
	c-13.5075684,2.9802246-26.940918,6.7541504-40.0217285,11.142334c-13.1940918,4.402832-25.0830078,9.2416992-35.7138672,14.5876465
	c-10.6635742,5.4118652-18.7932129,10.861084-24.505127,16.2915039
	c-5.9609375,6.4584961-11.4899902,11.4616699-16.7890625,15.0522461c-3.7595215,3.6564941-7.8005371,6.8244629-12.0061035,9.5703125
	c-4.3183594,2.6799316-7.8989258,4.0083008-10.6123047,3.9753418c-5.6132813-0.1359863-10.8466797-0.4316406-15.6484375-1.0090332
	c-4.782959-0.5490723-9.9360352-0.8962402-15.6154785-0.994873c-23.8571777-0.4504395-43.8942871,0.5444336-60.0358887,3.0319824
	c-16.2773438,2.4641113-29.6398926,5.0124512-40.1865234,7.5803223
	c-12.1843262,3.4777832-21.6748047,7.0402832-28.2316895,10.6306152
	c-6.885498,4.5341797-15.0993652,14.1418457-24.6694336,28.8469238
	c-9.6362305,14.7143555-20.4033203,32.4328613-32.3391113,53.1313477
	c-11.8374023,20.7316895-23.9091797,43.0498047-35.980957,67.0432129
	c-12.1376953,23.9233398-23.6601563,47.255127-34.6245117,69.8266602
	c-11.0908203,22.5996094-21.2900391,43.5939941-30.6635742,62.9365234
	c-9.4384766,19.3701172-17.8168945,34.5395508-24.9697266,45.5979004
	c-26.1621094,39.543457-61.6645508,76.9934082-106.4506836,112.4443359
	c-44.8237305,35.4035645-95.1435547,66.517334-151.0913086,93.3884277
	c-55.9145508,26.8425293-116.2695313,48.0341797-181.144043,63.5180664
	c-64.8422852,15.53125-130.2944336,22.6328125-196.2436523,21.3417969
	c-75.8530273-1.4550781-149.6503906-14.2543945-221.5141602-38.5153809
	c-71.8588867-24.1582031-132.2133789-62.354248-180.9282227-114.4814453
	c-48.8276367-52.0893555-81.8989258-119.5644531-99.1523438-202.2514648
	c-17.253418-82.7570801-10.0068359-183.331543,21.815918-301.8867188
	c4.7548828-17.7182617,9.940918-35.253418,15.3291016-52.7043457
	c156.2211914,89.2626953,337.7460938,182.951416,515.0180664,283.2250977
	c60.4677734,34.1882324,139.6625977,6.7543945,191.8881836-26.260498
	c234.7592773-148.378418,470.4619141-299.5683594,714.8710938-426.3327637
	c3.3984375-1.7553711,7.21875-3.9943848,11.1943359-6.4255371
	c75.2900391-29.9355469,225.7661133-103.9350586,282.1643066-132.4814453
	c62.8708496-31.8081055,119.0998535-69.1315918,168.7067871-111.9326172
	c0.3745117-0.3256836,0.7487793-0.6516113,1.1225586-0.9775391
	c54.3942871-47.4450684,100.6306152-103.4816895,137.2548828-165.6787109
	C-3274.9624023-3580.7424316-3248.375-3630.1335449-3242.5217285-3657.831543z"/>
<path class="st0" d="M-2965.2519531-1053.3758545c20.262207-93.2333984,103.9865723-204.6120605,338.7875977-194.5444336
	c82.4199219,3.5341797,345.8754883,74.2856445,422.8220215,97.3730469
	c28.2458496,8.4719238,55.9804688,16.9064941,83.6306152,25.3173828
	c-72.1547852,36.7836914-130.5898438,69.4370117-160.6757813,91.309082
	c-114.0822754,82.9545288-216.6418457,173.1791382-307.6931152,270.524353
	c-45.8747559,49.0244141-88.2062988,99.3115234-127.0644531,150.8564453
	c-38.2246094-31.690918-74.7832031-64.5556641-108.9196777-98.701416
	C-2908.6899414-795.5524292-2998.7878418-899.0741577-2965.2519531-1053.3758545L-2965.2519531-1053.3758545z
	 M-1543.4796143-1244.4515381c87.8918457-24.8151855,174.605957-36.380127,260.2264404-34.765625
	c63.2366943,1.2626953,124.5820313,9.1760254,184.1716309,23.8105469
	c59.6088867,14.6628418,110.7407227,37.0466309,153.4289551,67.217041
	c42.7351074,30.1652832,73.548584,68.9160156,92.604248,116.3024902
	c8.1152344,20.1635742,12.6870117,42.105957,14.109375,65.6161499
	c-273.7817383-58.1488647-551.7081299-126.374939-814.9482422-188.6913452
	c-6.059082-1.4318848-12.2218018-2.9526367-18.4454346-4.5202637
	C-1629.7619629-1217.2008057-1586.84375-1232.2012939-1543.4796143-1244.4515381L-1543.4796143-1244.4515381z
	 M-1158.060791-571.7387085c-14.9680176,9.5844727-25.4489746,17.1879883-33.9914551,23.6276855
	c-9.6544189,3.4919434-18.661377,7.3688965-26.4621582,11.4099121
	c-242.7382813,125.8728027-477.5115967,274.4810791-710.848877,422.2259521
	c-130.425293-84.3625488-328.8046875-185.828598-524.15625-310.2132568
	c7.9462891-16.8217773,16.0944824-33.5449219,24.6882324-50.104248
	c49.7895508-95.8195801,106.8820801-185.0351563,171.4379883-267.5578613
	c64.5273438-82.4943848,135.3491211-156.9863281,212.4086914-223.4523926
	c41.0778809-35.3662109,83.2875977-67.8173218,126.4875488-97.7579956
	c165.2797852,50.6344604,317.5632324,96.4533081,453.4189453,129.5853882
	c167.2373047,40.777832,385.6018066,91.2995605,576.3493652,128.2570801
	c-17.1694336,32.3666992-38.0507813,61.9597168-62.8381348,88.6662598
	C-999.2016602-665.87323-1104.3149414-606.0956421-1158.060791-571.7387085L-1158.060791-571.7387085z M-1656.8157959,516.8123169
	c61.7770996-38.3135681,118.2548828-81.7150574,169.3212891-130.0639343l-5.1816406,19.4736328
	c-21.1778564,78.7164307-42.8574219,145.032135-65.1424561,199.0786438
	c-22.2666016,54.0090332,164.4210205,59.4396362,219.8242188,5.6276245
	c55.3702393-53.8494873,109.2010498-12.7476807,139.6153564-62.8704224
	c30.4522705-50.1556702,51.1461182-93.3041077,62.260376-129.3508606
	c14.6018066-49.0621643,33.4609375-103.5873108,56.7739258-163.6747284
	c23.0827637-60.059082,47.3066406-118.4709473,72.4267578-175.2162933
	c25.1337891-56.7973595,48.9775391-108.6706543,71.4785156-155.6956787
	c22.4870605-47.0063477,39.590332-81.6120605,51.1835938-103.7001953c2.6330566-4.637207,4.6652832-8.5471191,6.3222656-11.7713623
	c1.5908203-3.2479248,2.7502441-6.2425537,3.496582-9.0119629c2.6801758-10.1990967,0.3945313-17.4835205-6.8571777-21.7875977
	c-7.3171387-4.3227539-17.2678223-6.6226807-29.9545898-6.8572998c-11.2553711-0.2156982-23.5947266,1.1779785-37.0888672,4.1586914
	c-13.5075684,2.9803467-26.940918,6.7541504-40.0217285,11.1424561c-13.1940918,4.40271-25.0830078,9.2416992-35.7138672,14.5876465
	c-10.6635742,5.4118652-18.7932129,10.8609619-24.505127,16.2915039
	c-5.9609375,6.4584961-11.4899902,11.4615479-16.7890625,15.0522461c-3.7595215,3.6564941-7.8005371,6.8243408-12.0061035,9.5703125
	c-4.3183594,2.6798096-7.8989258,4.0081787-10.6123047,3.9753418c-5.6132813-0.1361084-10.8466797-0.4317627-15.6484375-1.0091553
	c-4.782959-0.5490723-9.9360352-0.8962402-15.6154785-0.994873c-23.8571777-0.4504395-43.8942871,0.5444336-60.0358887,3.0319824
	c-16.2773438,2.4641113-29.6397705,5.0125732-40.1864014,7.5803223
	c-12.1844482,3.4777832-21.6749268,7.0404053-28.2318115,10.6306152
	c-6.885498,4.5341797-15.0992432,14.1418457-24.6694336,28.8469238
	c-9.6361084,14.7144775-20.4031982,32.4328613-32.3389893,53.1314735
	c-11.8371582,20.7316895-23.9091797,43.0498047-35.980957,67.0432129
	c-12.1376953,23.9233398-23.6602783,47.255127-34.6246338,69.8265381
	c-11.0908203,22.5997314-21.2900391,43.5939789-30.663208,62.9365082
	c-9.4388428,19.3702393-17.8170166,34.5396729-24.9698486,45.5980225
	c-26.1621094,39.543457-61.6643066,76.9934235-106.4505615,112.4442291
	c-44.8237305,35.4036865-95.1437988,66.5174866-151.0913086,93.3885803
	c-55.9146729,26.8424072-116.2696533,48.0341797-181.144165,63.5180664
	c-64.8422852,15.53125-130.2941895,22.6328125-196.2436523,21.3417969
	c-75.8530273-1.4550781-149.6503906-14.2543945-221.513916-38.5153809
	c-71.8588867-24.1582031-132.213623-62.3543701-180.9284668-114.4814758
	c-48.8276367-52.0894775-81.8986816-119.5645905-99.1520996-202.2514801
	c-17.2536621-82.7571869-10.0068359-183.3315277,21.8156738-301.8868408
	c4.7548828-17.7182617,9.940918-35.253418,15.3293457-52.7043457
	c156.2211914,89.2626953,337.7458496,182.951416,515.0180664,283.2252197
	c60.4675293,34.1882286,139.6623535,6.7542725,191.8879395-26.2606201
	c234.7591553-148.378418,470.4619141-299.5682373,714.8708496-426.3326416
	c3.3984375-1.7555237,7.21875-3.9944153,11.1943359-6.4256897
	c75.2900391-29.9355469,225.7661133-103.9349365,282.1643066-132.4813538
	c62.8708496-31.8081055,119.0998535-69.1315918,168.7067871-111.9326172
	c37.4731445-32.5829468,69.5961914-65.6349487,96.5327148-99.1329956
	c303.6938477,55.5390625,506.6257019,108.0603027,857.4855957,170.5649414
	c828.1462402,147.4820557,1734.7268066,308.7911377,2546.1306152-20.5627441
	c81.0537109-32.8549805,435.2133789-197.2055664,664.4902344-424.4130859
	c160.1826172-158.7416382,456.0529785-483.8099976,292.8945313-746.2240601
	c-57.3095703-92.2807617-318.2446289,14.456543-249.9106445,124.4365234
	c73.0229492,117.4899902-33.7797852,269.9233398-92.2807617,364.8654785
	c-175.8398438,285.4308472-515.4453125,449.059021-641.6835938,505.5370483
	c-172.2314453,77.0263672-350.8789063,119.0200195-534.1445313,144.0695801
	c-490.7900391,67.0759277-981.3544922,9.6030273-1468.9008789-65.7526855
	C384.6134644-761.4909058-13.8066893-856.6859741-451.6150513-931.5585327
	c0.3146973-1.1450195,0.7790527-2.2856445,1.0749512-3.4309082c18.1499023-67.5549316,17.980957-131.1010132-0.6430664-190.5736694
	c-18.6286621-59.4865723-54.427002-111.5617676-107.2299805-156.3859863
	c-52.887207-44.7250977-121.5683594-80.5510254-206.1799316-107.295166
	c-84.5268555-26.7531738-183.7446289-41.2473145-297.3995972-43.439209
	c-150.2746582-2.9052734-297.230957,12.1894531-440.9016113,45.2416992
	c-64.2600098,14.7705078-203.7629395,70.4553223-348.5458984,134.8891602
	c-377.0871582-121.2729492-909.0209961-319.0141602-1235.1174316-53.4743652
	c-133.0776367,108.3608398-181.2148438,303.0509644-105.5119629,477.5582886
	c89.3422852,205.9267578,186.814209,276.5322266,355.1870117,401.3300781
	c-54.7785645,97.5422363-95.5144043,195.5163574-122.0144043,293.954834
	c-37.0605469,137.9726563-45.3588867,258.1052246-24.8383789,360.4628906
	c20.4216309,102.2966461,62.4812012,187.602829,125.9946289,255.8381805
	c63.5183105,68.2680969,143.9807129,119.5644226,241.255127,154.0716858
	c97.2792969,34.4743652,204.9406738,52.8358154,322.9143066,55.1027222
	c75.7355957,1.4597778,150.7438965-4.5198364,225.0058594-18.013916
	c74.0974121-13.4095459,145.7922363-33.3949585,215.1398926-60.0216675
	C-1784.199707,587.6810303-1718.6446533,555.1449585-1656.8157959,516.8123169L-1656.8157959,516.8123169z
	 M-618.6503906,234.6151581c-1.4221191-41.9090576,5.1958008-90.1590576,19.848877-144.8157806
	c11.2463379-41.6415977,26.3781738-78.3830566,45.5048828-110.1118164
	c19.1074219-31.723999,39.7541504-58.5617714,61.8283386-80.5185547
	c22.1347656-21.9094238,43.5610352-38.4309082,64.2270508-49.690918
	c20.6660156-11.2458496,37.9992676-16.7091064,52.042511-16.4604492
	c23.8764648,0.4647217,44.9362793,11.12854,63.3964844,31.9260254
	c18.4174805,20.862915,22.6181641,49.8081055,12.6870117,86.8640137
	c-6.4916992,24.0876465-20.6335449,48.8930664-42.2753906,74.576416
	c-21.7219238,25.645874-47.5371399,50.7471886-77.4258118,75.256958
	c-29.8652344,24.5710297-62.387207,48.3814545-97.4760437,71.4459076
	C-551.4243164,196.1326141-585.5842285,216.634201-618.6503906,234.6151581L-618.6503906,234.6151581z M2513.8647461,950.0006714
	c196.3476563,63.1524658,389.4438477,138.6705933,576.3833008,230.3988647
	c55.2592773,27.1530762,126.0898438,103.8682861,81.4013672,176.6948242
	c-44.4233398,72.3990479-147.4951172,63.456665-210.0859375,32.7469482
	c-201.3203125-98.7905273-405.1484375-183.1954346-617.1083984-245.7799072
	c0.2143555-0.3328857,0.425293-0.6663818,0.6391602-0.9995117c-69.8491211-21.442627-146.0834961-40.9971924-215.109375-52.7596436
	c-188.4145508-45.5325928-371.5908203-74.0029907-562.7563477-100.512146
	c-364.855957-50.6158447-729.1582031-63.2039795-1096.2202148-41.0126953
	c-102.0429993,6.1580811-204.1054993,14.137085-306.0407715,24.0078125
	c-14.6860352,40.336792-28.2927246,77.0122681-40.7495117,109.7782593
	c-21.7548676,57.276001-40.351059,105.5587158-55.84935,144.848877
	c-15.4792519,39.2242432-29.4191933,71.3143311-41.7399902,96.1859131
	c-12.3535166,24.9368896-23.411377,45.1522217-33.314949,60.8005371
	c-9.2746582,13.8087158-22.4025879,24.4394531-39.2949219,32.0385742
	c-16.7890625,7.6032715-34.7043419,13.5643311-53.445797,17.8355713
	c-18.8444824,4.2521973-36.3095779,7.6784668-52.4743729,10.1474609
	c-16.2114258,2.4829102-29.1564941,5.9467773-38.7922363,10.4150391
	c-43.6977539,20.6003418-78.3220062,35.2866211-103.9680023,44.0776367
	c-25.5986328,8.7910156-44.7905273,13.0998535-57.4257813,12.8651123
	c-11.189209-0.2299805-20.1306152-3.8721924-26.6877441-10.9925537c-6.5241699-7.1201172-8.0827637-17.1362305-4.6230469-30.0716553
	c2.0554199-7.4675293,6.8242188-17.6010742,14.5549316-30.4990234
	c8.1806641-14.7520752,22.5009766-44.2088623,42.8520508-88.5163574c9.4204102-19.375,20.3000488-42.6555176,32.5029297-69.8782959
	c12.3540039-27.2037354,27.0917969-60.0025635,44.4247894-98.2836914
	c17.4370117-38.2668457,37.0419922-82.5601807,59.0129395-132.880249
	c5.2658691-12.0858154,10.762207-24.6363525,16.4416504-37.5534058
	c-203.5283356,28.8610229-406.0803223,66.1986694-606.730957,113.4581909
	c-365.1376343,85.9819336-730.7025757,195.4456787-1068.8146973,378.0498047
	c-53.1689453,28.7106934-142.1311035,39.9376221-183.0495605-21.2619629
	c-41.1628418-61.5610352,17.5869141-130.3927002,64.5270996-155.7755127
	c368.1181641-198.7967529,767.8242188-323.2941284,1166.1923828-413.6505737
	c239.6782227-54.3753052,481.369873-98.4574585,724.2253418-131.0917969
	c12.4709473-32.6018677,26.9929161-70.3851929,43.7304649-113.819519
	C-12.5344725,614.4859619,10.7504396,554.234436,36.297802,488.16745
	c25.4484863-66.0997314,51.6433144-133.2743225,78.5185547-201.6411438
	c12.2175293-31.2780914,24.3879395-62.1102448,36.4599609-92.6937408
	c-32.6015472,32.5546875-62.7062836,61.7770996-90.1733246,87.4933014
	c-33.4841309,30.0341797-65.7197342,58.2659912-96.8003006,84.6629639
	c-37.7365685,29.9824524-78.1672363,58.3319397-121.2871094,84.920929
	c-43.0825195,26.612793-88.5493164,49.9256592-136.2878571,69.9439392
	c-47.7194824,20.0179443-97.7907715,35.5822144-150.1291504,46.6775513
	c-52.4743652,11.0582275-106.0187988,16.0755615-160.7646484,15.0664063
	c-40.730957-0.7789307-83.9963379-6.3079224-130.0124512-16.493103
	c-45.9313965-10.1802979-86.3151855-28.1990356-120.9536133-54.0090332
	c-34.7375488-25.7677917-59.9228516-60.70224-75.5856934-104.7797546
	c-15.6811523-44.0445862-14.3391113-100.325592,4.0554199-168.9081268
	c8.4953613-31.4425049,21.6608887-63.3166504,39.4729004-95.538208
	c17.8168945-32.2071381,38.815918-62.9876556,62.9362793-92.3602142
	c24.1252441-29.2927246,49.7753906-56.7315674,77.130127-82.2458496
	c27.3164063-25.5469971,54.1450195-47.8182411,80.4384766-66.8741455
	c45.4667969-32.6204834,92.4589844-63.1569824,141.0048828-91.515625
	c48.5971375-28.4008789,96.5187683-53.0703125,143.7412109-74.0177002
	c47.2546387-20.928833,92.1960449-37.0748291,134.729248-48.3299561
	c42.5893555-11.2786865,80.720459-16.6435547,114.3498535-15.9443359
	c53.4179688,1.0421143,96.519043,15.3292236,129.317627,42.9841309
	c32.7189941,27.6170654,42.4912109,66.4610596,28.9921875,116.4147949
	C13.777524-125.4862671-15.1958723-80.6296997-61.4466057-34.5338707
	c-46.2926598,46.114624-100.6867065,90.9382324-163.1251831,134.3679199
	c-62.5424652,43.4626312-127.6613617,83.6491547-195.398941,120.4609222
	c-67.7897949,36.905777-128.9706726,67.3391266-183.3644714,91.4640045
	c14.057373,42.1063232,38.2009277,73.3043518,72.2436523,93.4868469
	c34.0566101,20.21521,71.4784851,30.7290039,112.2099304,31.5269775
	c63.2180481,1.2060547,123.290802-11.12854,180.3979645-37.0230713
	c57.0268555-25.8664551,110.791748-57.8860168,161.2575684-95.9884338
	c50.4558105-38.1308594,96.4719238-78.2048492,138.1931152-120.2122955
	c19.1264687-19.3048096,37.1730995-37.4173584,54.3938026-54.6052246
	c-13.6582031-2.7647705-26.0776367-8.1810303-35.9951172-17.4695892
	C36.5461235,71.3721313,136.7074738,18.47089,156.6222687,9.7923012
	c28.4150391-12.3675537,56.4829102-25.5332031,84.4470215-38.90979
	c8.7443848-20.9473877,17.3378754-41.345829,25.6457367-60.5706825
	c22.4399414-52.0894775,42.1108398-95.2424316,59.0830078-129.3508301
	c16.9204102-34.1269531,28.9406738-53.9291992,36.060791-59.3410645
	c20.3984375-18.2158203,43.8474121-35.9151611,70.3381348-53.1030273
	c26.5419922-17.1691895,58.1535645-33.7611084,94.9746094-49.8084717
	c11.2270508-5.3648682,23.5151367-11.6401367,36.8122559-18.8399658
	c13.1604004-7.1860352,26.7062988-14.1417236,40.5146484-20.8303223
	c13.7426758-6.6883545,26.6269531-12.3063965,38.3984375-16.7229004
	c11.7058105-4.4401855,23.2145996-6.5571289,34.4414063-6.3084717c11.2744141,0.2159424,23.8293457,3.2432861,37.8022461,9.0540771
	c10.0163574,4.8858643,13.1325684,14.2733154,9.3684082,28.1333008
	c-3.7409668,13.9260254-12.2502441,29.7713623-25.4812012,47.6726074
	c-13.2973633,17.9155273-23.0786133,33.3621826-29.3212891,46.2459717
	c-17.8496094,29.4241943-35.7651367,62.1572266-53.9150391,98.0866699
	c-3.4123535,6.7398682-6.7543945,13.8740234-10.1474609,20.7456055c9.3215332-3.243042,18.5256348-6.7728271,27.9311523-9.78125
	c17.5356445-5.6136475,64.7246094-18.0656738,101.5974121-14.3061523
	c21.4125977-10.6639404,42.5944824-19.8917236,63.5373535-27.3215332
	c75.6000977-26.940918,140.1601563-39.9046631,193.6103516-38.8626709
	c54.7227173,1.060791,100.9028931,8.9553223,138.6069946,23.6459961
	c37.7358398,14.6677246,66.597168,34.5544434,86.6806641,59.6087646
	c20.065918,25.0498047,32.1088867,54.821167,36.3427734,89.3284912
	c4.0737305,34.6055908,0.581543,72.6376953-10.6455078,114.3311768
	c-26.8754883,99.996582-69.4272461,184.8189545-127.5810547,254.4483643
	c-58.2988281,69.592041-121.6812134,126.9992981-190.2168579,172.2361145
	c69.6293945-12.6022949,144.2056274-38.1821289,223.7666626-76.6462708
	c34.1743164-17.0047607,77.8710938-45.5042725,130.9047852-85.4748535
	c53.1689453-39.8720856,112.0166016-96.4675446,176.8867188-169.6827393
	c11.4101563-12.0062256,23.1162109-20.7314453,35.1220703-26.2980957c1.8349609-4.7358398,3.4453125-9.2885704,5.3789063-14.0902061
	c12.8320313-31.8880615,26.546875-63.2366943,41.1630859-94.1815186
	c14.6577148-30.8790321,30.2685547-58.7308388,46.828125-83.5645752
	c7.1850586-11.0440674,16.328125-24.3079834,27.6494141-39.9376221
	c11.1943359-15.6158447,20.9990234-25.6834717,29.3115234-30.1705322
	c17.8823242-8.9223633,33.1459961-17.0377197,45.6499023-24.2563477
	c12.5834961-7.1719971,22.2895508-10.6968994,29.3393555-10.5982666c9.8007813,0.2160645,17.2021484,2.914917,22.1538086,8.1292725
	c4.9516602,5.2144775,10.9311523,7.899292,17.980957,7.9979248c4.1728516,0.1313477,12.902832-2.0369873,26.0961914-6.47229
	c13.0952148-4.355835,27.4907227-9.2418213,43.050293-14.5080566c15.4833984-5.2803955,30.5878906-10.100708,45.1054688-14.4844971
	c14.652832-4.3743896,24.7392578-6.4958496,30.3344727-6.3927002c16.8549805,0.2960205,22.5664063,10.6781006,17.0703125,31.0435791
	c-1.440918,5.5806885-3.9047852,12.0390625-7.3032227,19.4266357c-3.3935547,7.3642578-7.8618164,16.1223145-13.4423828,26.2608643
	c-28.5981445,59.0124512-52.6523438,116.0161133-72.3613281,171.0435791
	c-19.7832031,54.9711914-38.0458984,113.9836426-54.9711914,176.9531097
	c-9.5043945,35.2159424-17.3662109,67.1416016-23.6459961,95.8523102
	c-6.3554688,28.7623291-9.847168,53.5961914-10.4951172,74.5107422
	c-0.7792969,20.9287109,2.9619141,37.2906799,11.0771484,49.0948792
	c8.1621094,11.8043213,22.0078125,17.8826904,41.6933594,18.2814941
	c28.128418,0.5117188,57.3740234-11.2597656,87.8730469-35.3190918
	c30.4331055-24.1251526,61.0166016-55.3702698,91.8955078-93.9188538
	c30.7617188-38.4781647,61.6787109-81.1474762,92.6240234-128.0410309
	c30.8833008-46.8935394,60.8706055-92.5434418,89.7456055-137.1796722
	c28.9731445-44.5936279,57.2758789-85.6763916,85.0571289-123.3098145
	c27.7861328-37.6004639,53.3847656-65.9685059,76.8295898-85.057251
	c23.2939453-18.1640625,51.5961914-32.9677734,85.0239258-44.4576416
	c33.3476563-11.4243164,63.4526367-16.9061279,90.1074219-16.3945313
	c30.8793945,0.5959473,50.9677734,8.6595459,60.2705078,24.1763916c9.1899414,15.53125,7.9648438,45.086792-3.7080078,88.6011963
	c-8.4765625,31.4749756-17.8818359,61.1009521-28.1474609,88.7834473
	c-10.3496094,27.7536621-20.7783203,56.4782715-31.5917969,86.0009766
	c-10.7631836,29.5883751-22.121582,61.2465782-33.9628906,94.9793549
	c-11.9873047,33.7609863-23.4916992,71.460083-34.6533203,113.1202393
	c-10.1992188,38.0037994-16.0097656,68.7844391-17.4042969,92.5294342
	c-1.4545898,23.7072754,0.3525391,42.1719055,5.2011719,55.2997131
	c4.984375,13.0999756,11.7387695,22.0551758,20.3466797,26.8426514c8.5610352,4.8531494,17.7558594,7.3360596,27.5888672,7.5333252
	c23.8901367,0.4458008,48.25-6.0454102,73.0185547-19.5394287c24.8051758-13.4425049,51.5771484-33.1835938,80.4384766-59.1438293
	c28.9453125-25.9979248,60.0214844-57.6889648,93.3222656-95.2424469
	c33.4140625-37.5205078,70.6386719-80.1053467,111.6982422-127.7078857
	c6.9228516-7.6503906,14.2919922-13.9772797,21.9707031-19.1122894c2.6660156-3.3604736,5.1679688-6.5239258,8.1152344-10.3118896
	c9.668457-12.3863525,20.9804688-28.2319336,33.9580078-47.508297c12.96875-19.3048096,27.4902344-43.2468262,43.6171875-71.7602539
	c-25.8984375-8.8896484-44.8188477-29.0440674-56.8110352-60.4536171
	c-11.9731445-31.3953857-12.4467773-67.9395752-1.2104492-109.6279297
	c9.1894531-34.2445068,27.3066406-68.8175049,54.2763672-103.6533203
	c27.0913086-34.8544922,57.4072266-66.6444092,91.2524414-95.2891846
	c33.7939453-28.6824951,68.3012695-51.9768066,103.4560547-69.8920898
	c35.184082-17.9672852,64.7250977-26.692627,88.5820313-26.246582c30.847168,0.6147461,53.8823242,13.4095459,69.1132813,38.3651123
	c15.1323242,24.9703369,18.5302734,53.2021484,10.0161133,84.6633301
	c-4.4541016,16.6383057-11.8037109,33.4932861-22.0214844,50.5169678
	c-10.246582,17.0705566-20.4267578,32.6485596-30.5795898,46.8887939
	c-10.1987305,14.2403564-19.6381836,27.0915527-28.362793,38.5344238
	c-8.7963867,11.5039063-13.9726563,20.4969482-15.7148438,26.9364014
	c-2.2382813,8.3453369,1.5727539,12.602417,11.4057617,12.7994385c6.956543,0.1363525,20.2573242-1.9055176,39.7075195-6.2095947
	l111.4165039-28.5933838c40.7495117-9.4058838,74.3461914-13.9257813,101.0058594-13.3813477
	c45.0024414,0.9154053,72.3422852,10.6965332,82.1098633,29.522583c9.7202148,18.8309326,9.7255859,46.2459717,0.0517578,82.3770752
	c-4.2236328,15.7142334-14.4560547,43.2657471-30.6162109,82.461792
	c-16.2119141,39.2572021-33.8598633,82.6541748-52.9667969,130.2237549
	c-19.159668,47.5740814-37.5541992,94.9277191-55.140625,142.0373383
	c-17.6337891,47.1891022-30.3955078,85.5688629-38.3652344,115.1759186
	c-8.7255859,32.4372864-9.8330078,56.3935852-3.394043,71.8447571c6.3740234,15.498291,27.1381836,23.5478516,62.2563477,24.2236328
	c25.2841797,0.5303955,52.8076172-8.7253418,82.5927734-27.6828613
	c29.7519531-18.9758301,59.8901367-43.0682678,90.355957-72.2763977
	c30.4331055-29.1894531,60.5385742-61.1810303,90.3564453-95.9887848
	c29.8232422-34.7841797,57.5766602-68.2353516,83.0859375-100.3393555
	c18.8774414-22.8670654,40.2241211-34.127182,64.034668-33.6296234
	c22.5009766,0.4129639,31.4941406,8.9741058,27.0351563,25.6316986c-0.746582,2.7833252-1.8823242,5.5666504-3.2763672,8.3121338
	c-1.4736328,2.7506104-3.4257813,5.9938965-5.7451172,9.6362305
	c-51.746582,71.6147461-102.6064453,137.6486969-152.7802734,198.148941
	c-50.090332,60.4721985-100.0917969,112.5101624-149.984375,156.240509
	c-49.8364258,43.7486877-100.8979492,77.6740417-153.3251953,101.7333069
	c-52.3569336,24.1577759-107.3095703,35.6477661-164.8671875,34.5402222
	c-70.2060547-1.3237305-120.4746094-25.8334961-150.6777344-73.4031372
	c-30.3017578-47.5881958-35.0517578-109.8252258-14.390625-186.7062073
	c8.9599609-33.3149719,19.7929688-64.7433167,32.8032227-94.2661438
	c12.7993164-29.522583,26.1621094-58.148819,39.9379883-85.8361969
	c13.7753906-27.6828613,26.5795898-54.3895264,38.4453125-80.2039795
	c11.9731445-25.8287201,21.2148438-51.2822113,27.9179688-76.2848969
	c7.2041016-26.8381348,7.0068359-44.5234375-0.5634766-53.0656738
	c-7.5996094-8.5426025-19.1035156-12.9356689-34.5405273-13.2313232c-2.7788086-0.0656738-5.7124023,0.1312256-8.5942383,0.5162354
	c-3.0083008,0.427124-8.340332,0.807251-16.1738281,1.0749512c-7.8808594,0.347168-19.3046875,1.0561523-34.4414063,2.168457
	c-15.0996094,1.0606689-35.5966797,2.3184814-61.3125,3.6750488
	c-21.4780273,21.9423828-39.1259766,40.4351807-53.0375977,55.5344238
	c-13.9399414,15.104126-25.9272461,28.1004601-35.9296875,39.0600548
	c-10.0483398,10.9973145-18.5253906,20.3841553-25.5795898,28.1335449
	c-7.0219727,7.8005219-13.7104492,15.8266449-20.2197266,24.0732269
	c-12.8842773,14.0432129-23.5761719,23.4960938-32.3017578,28.8138428
	c-57.375,69.4746094-109.4492188,131.7679596-155.6162109,186.044693
	c-52.6196289,61.8612366-102.8359375,113.4532776-150.6728516,154.8835754
	c-47.8232422,41.4255066-96.0546875,72.4078674-144.5205078,92.8392029
	c-48.6118164,20.4970093-101.6445313,30.1376343-159.2207031,29.0440674
	c-49.1420898-0.9762573-88.0517578-11.2272339-116.6171875-30.8840332
	c-28.5791016-19.6378784-48.7944336-44.2088623-60.6035156-73.7642822
	c-11.8886719-29.5883484-17.2299805-61.9928894-16.1928711-97.3781433
	c1.027832-35.3144531,5.9467773-69.1786194,14.5883789-101.6489563
	c6.4248047-24.0592041,12.7329102-47.2033691,18.6611328-69.4603424
	c5.9746094-22.1865234,12.9355469-43.0166016,21.0791016-62.3873291
	c-53.1035156,81.8281403-102.8413086,150.1949615-149.4018555,205.1335907
	c-46.5463867,54.9382324-90.4594727,98.7669678-131.7021484,131.5190125
	c-41.2329102,32.6717529-81.6821289,55.8816528-121.3710938,69.5259399
	c-39.6049805,13.6303711-79.1953125,20.1213989-118.3911133,19.3424072
	c-29.5556641-0.5821533-58.0834961-6.0125122-85.6347656-16.2915039
	c-27.6220703-10.3493042-50.2495117-29.5931396-68.1035156-57.9234009
	c-17.784668-28.1945801-28.0117188-67.7520447-30.5322266-118.5179138
	c-2.5859375-50.784668,7.1201172-117.3631897,29.3066406-199.806076c1.2255859-4.6044922,2.581543-9.5045166,4.0083008-14.5546875
	c-28.2177734,28.5604248-56.3652344,54.3420563-84.3813477,77.2423248
	c-57.8862305,47.2736816-113.6030273,85.2729492-167.1665039,114.0166321
	c-53.6147461,28.795166-104.4135742,49.677002-152.3164063,62.7062988
	c-48.0523071,13.0482178-90.9712524,21.9707031-129.003479,26.8568115l-110.7260132,10.3631592
	c-74.3278809,34.9064636-142.9763184,59.1627502-205.9782715,72.8399353
	c-62.9038086,13.6442871-106.980957,20.2529907-132.2651367,19.755188
	c-21.0793457-0.3800659-38.5439453-2.5859985-52.2255859-6.5896606
	c-13.8088379-3.9755859-23.8720703-12.5506592-30.1516113-25.7161865
	c-4.3183899-10.2835693-8.242218-23.1818237-11.8374329-38.6141357
	c-3.6750488-15.4327087-3.9382324-28.7106628-0.9294434-39.8016052
	c6.4584961-24.0921631,26.6130676-40.0080566,60.4397278-47.7055664
	c33.793457-7.6975098,75.2893066-11.0957031,124.4829102-10.1853027
	c16.8034668,0.3193359,33.8598633,1.1595459,51.1601563,2.3846436c17.3056641,1.2625732,35.5021973,3.0133057,54.7741699,5.2849121
	c27.0070801-21.8392334,54.28125-48.5506592,81.8657227-80.11026
	c27.5185547-31.5736084,52.9716797-66.0151367,76.4118652-103.2354889
	c23.378418-37.2248535,44.6259766-76.7965088,63.6821289-118.8369141
	c19.008728-42.0263519,34.4135132-84.7427826,46.1473999-128.2430267
	c25.1201172-93.5523682,3.2338867-140.9907227-65.5507202-142.314209
	c-36.4782715-0.680542-72.2575684,7.4488525-107.1499023,24.4394531
	c-34.953125,17.0238037-68.7468262,39.1398926-101.4799805,66.4613037
	c-32.751709,27.2557373-63.1850586,57.8861084-91.3044434,91.815918
	c-28.2600098,33.8596153-53.8962402,67.7894287-77.1906738,101.8321381
	c-23.2145996,33.925293-42.8522949,66.1652832-58.6977539,96.565918
	c-16.0288086,30.3674469-27.2558594,55.3374176-33.9443359,74.7404938l-4.8857422,2.6849365
	c-4.9516602,12.9309082-9.2185364,24.9649658-12.9780579,36.0606689c-3.6469727,11.12854-6.8244629,21.7268372-9.5373535,31.9399719
	c-1.4597168-0.0469971-14.3574219,40.2052002-38.8300781,120.7426758
	c-17.6008301,57.9375305-44.5422363,138.2589417-80.6684418,240.7013245
	c92.3415375-8.4252319,184.8005524-15.197998,277.3254395-20.0841064
	c396.5136108-20.9615479,791.4375-8.4109497,1185.1870117,50.418457
	C1971.8369141,816.0126343,2252.2568359,858.6102295,2513.8647461,950.0006714L2513.8647461,950.0006714z"/>
<path class="st1" d="M4.448802,12.6734934c0.3431067-1.5787516,1.760839-3.4647627,5.7368021-3.2942839
	c1.3956432,0.059845,5.856823,1.2579031,7.1597843,1.6488495c0.4782963,0.1434574,0.9479351,0.2862835,1.4161434,0.4287071
	c-1.2218208,0.6228704-2.2113209,1.1758003-2.7207756,1.5461674c-1.9317923,1.4046965-3.6684666,2.9324999-5.210268,4.5808792
	c-0.7768126,0.8301468-1.4936266,1.681675-2.1516237,2.5545006c-0.6472702-0.5366325-1.2663288-1.0931416-1.8443727-1.6713428
	C5.4065852,17.0393047,3.880928,15.2863359,4.448802,12.6734934L4.448802,12.6734934z M28.5241394,9.4379463
	c1.4883022-0.4202032,2.9566612-0.6160364,4.4065018-0.5886974c1.0708046,0.0213814,2.1095886,0.1553802,3.1186371,0.4031916
	c1.0093765,0.248291,1.8752098,0.6273232,2.5980644,1.1382084c0.7236443,0.5107985,1.2454224,1.1669779,1.5680962,1.969388
	c0.1374168,0.3414364,0.2148323,0.7129946,0.2389183,1.1111012c-4.6360359-0.9846554-9.3422546-2.1399498-13.7997856-3.1951733
	c-0.1026001-0.0242472-0.206955-0.0499983-0.3123417-0.0765438C27.0630932,9.8993921,27.7898407,9.6453838,28.5241394,9.4379463
	L28.5241394,9.4379463z M35.0505638,20.829216c-0.2534599,0.1622963-0.4309349,0.29105-0.5755882,0.400095
	c-0.1634827,0.0591297-0.3160019,0.1247787-0.4480934,0.1932068c-4.1103668,2.1314468-8.0858612,4.6478786-12.0370369,7.1496906
	c-2.2085342-1.4285374-5.5677586-3.1466961-8.8757105-5.252943c0.1345577-0.2848473,0.2725334-0.5680256,0.4180546-0.8484306
	c0.8431025-1.6225452,1.8098688-3.1332607,2.9030161-4.5306454c1.0926628-1.396904,2.2919102-2.6583014,3.5967846-3.7837934
	c0.6955853-0.5988674,1.4103374-1.1483736,2.1418552-1.6553688c2.7987385,0.8574104,5.3774033,1.633276,7.6778927,2.194313
	c2.8318825,0.6905041,6.5295219,1.5460043,9.7595139,2.1718187c-0.2907372,0.5480766-0.6443291,1.0491848-1.0640602,1.5014153
	C37.7405777,19.2352047,35.960659,20.2474384,35.0505638,20.829216L35.0505638,20.829216z M26.6049805,39.2620049
	c1.046093-0.648777,2.002449-1.3837051,2.8671741-2.2024155l-0.0877438,0.3297539
	c-0.3586102,1.3329315-0.7257175,2.4558792-1.1030769,3.371067c-0.3770485,0.9145508,2.7841949,1.0065079,3.7223549,0.0952911
	c0.937603-0.91185,1.8491364-0.2158585,2.364151-1.0646057c0.5156593-0.8493004,0.8660736-1.5799484,1.0542755-2.1903381
	c0.2472572-0.8307877,0.5666046-1.7540779,0.9613724-2.7715569c0.3908691-1.0170021,0.8010597-2.0061073,1.2264252-2.9669952
	c0.425602-0.9617691,0.8293533-1.8401566,1.2103691-2.636446c0.3807831-0.7959747,0.6703987-1.3819656,0.8667107-1.755991
	c0.0445862-0.0785236,0.0789986-0.1447315,0.1070557-0.1993275c0.0269394-0.0549984,0.0465698-0.1057072,0.0592079-0.1526031
	c0.0453873-0.1727047,0.0066833-0.2960529-0.1161118-0.3689365c-0.1239052-0.0731983-0.2924042-0.1121445-0.5072327-0.1161175
	c-0.1905899-0.0036507-0.3995361,0.019949-0.6280365,0.0704212c-0.2287292,0.0504665-0.4561996,0.1143703-0.6777039,0.1886787
	c-0.2234192,0.0745525-0.424736,0.1564922-0.6047516,0.2470169c-0.1805725,0.0916424-0.3182335,0.1839123-0.4149551,0.2758694
	c-0.1009369,0.1093655-0.1945648,0.1940823-0.2842941,0.2548847c-0.0636597,0.0619183-0.1320877,0.1155586-0.2033043,0.1620579
	c-0.0731239,0.0453777-0.1337547,0.0678711-0.1797028,0.0673161c-0.0950508-0.0023041-0.18367-0.0073109-0.2649765-0.0170879
	c-0.0809937-0.0092983-0.168251-0.0151768-0.2644234-0.0168476c-0.4039803-0.0076275-0.7432785,0.0092201-1.0166092,0.051342
	c-0.2756271,0.0417252-0.5018997,0.0848789-0.6804886,0.1283607c-0.2063217,0.0588894-0.3670273,0.1192169-0.4780579,0.1800117
	c-0.1165962,0.0767784-0.2556801,0.2394676-0.4177361,0.4884739c-0.1631699,0.2491646-0.3454933,0.5491962-0.5476074,0.8996925
	c-0.2004433,0.3510571-0.4048615,0.7289772-0.6092758,1.1352654c-0.2055321,0.4051018-0.4006481,0.8001862-0.5863113,1.1823959
	c-0.1878033,0.3826885-0.3605099,0.7381916-0.5192299,1.0657253c-0.1598301,0.3280029-0.3017006,0.5848694-0.422823,0.7721252
	c-0.4430103,0.6696014-1.0441818,1.3037529-1.8025627,1.9040527c-0.7590141,0.5995026-1.6111012,1.1263618-2.5584774,1.5813789
	c-0.9468212,0.4545326-1.968832,0.8133812-3.0673733,1.075573c-1.0979958,0.2629967-2.206316,0.3832474-3.3230591,0.3613892
	c-1.2844448-0.0246391-2.5340786-0.241375-3.750968-0.652195c-1.2168102-0.4090767-2.2388163-1.0558662-3.0637207-1.9385529
	c-0.8268147-0.8820457-1.386817-2.0246239-1.6789751-3.4247894c-0.2921619-1.4013538-0.1694489-3.1044121,0.3694115-5.111948
	c0.0805168-0.3000298,0.1683331-0.5969582,0.2595768-0.8924599c2.6453447,1.5115147,5.719162,3.0979767,8.7209702,4.7959461
	c1.0239162,0.5789185,2.3649483,0.1143723,3.2493019-0.4446812c3.9752541-2.5125389,7.966486-5.0726871,12.1051407-7.2192307
	c0.0575485-0.029726,0.1222382-0.0676365,0.1895599-0.1088066c1.27491-0.5069084,3.8229713-1.759964,4.7779808-2.243351
	c1.0646133-0.5386162,2.016758-1.1706276,2.8567657-1.8953915c0.6345444-0.5517387,1.1784973-1.1114178,1.6346207-1.6786518
	c5.1425476,0.9404602,8.5788612,1.8298206,14.5200844,2.8882313c14.0232735,2.4973621,29.3746986,5.2288628,43.1144676-0.3481941
	c1.3725052-0.556345,7.369606-3.3393478,11.2520294-7.1867275c2.7124252-2.6880255,7.7224884-8.1925144,4.9596786-12.6360579
	c-0.9704437-1.5626204-5.3889389,0.2447974-4.2318192,2.1071243c1.2365265,1.9894967-0.5720062,4.5707006-1.5626221,6.1783867
	c-2.9775543,4.8332958-8.7282028,7.6040659-10.8658371,8.5604258c-2.9164505,1.3043137-5.9415436,2.0154057-9.0448456,2.439579
	c-8.3107071,1.1358185-16.6175919,0.162611-24.8733749-1.1134129c-7.4424057-1.1500435-14.1889839-2.7620144-21.6025352-4.0298557
	c0.0053291-0.0193882,0.0131912-0.038703,0.0182037-0.0580959c0.3073349-1.1439304,0.3044739-2.2199774-0.010891-3.2270479
	c-0.3154449-1.0073051-0.9216309-1.8891115-1.8157616-2.6481352c-0.8955536-0.7573442-2.0585556-1.363997-3.4913101-1.816864
	c-1.431324-0.4530206-3.1114082-0.6984544-5.0359688-0.7355704c-2.5446472-0.0491962-5.0331078,0.206408-7.4659309,0.7660923
	c-1.0881348,0.250114-3.4503841,1.1930432-5.9020405,2.2841229c-6.3853416-2.053555-15.3927517-5.4019718-20.91465-0.9054995
	c-2.2534473,1.8349094-3.0685706,5.1316624-1.7866688,8.0866528c1.5128622,3.4870262,3.1633863,4.6826115,6.0144982,6.7958546
	c-0.9275837,1.6517143-1.6173768,3.3107414-2.0661101,4.9776325c-0.6275585,2.3363361-0.7680769,4.3705826-0.4205966,6.1038361
	c0.3458061,1.7322235,1.0580149,3.1767387,2.1335087,4.3321915c1.0755763,1.1560059,2.4380722,2.0246239,4.0852518,2.6089478
	c1.6472626,0.5837631,3.4703283,0.8946838,5.4680147,0.9330711c1.2824554,0.0247192,2.5525951-0.0765343,3.8100967-0.3050346
	c1.2547169-0.2270699,2.4687481-0.5654869,3.6430359-1.0163651C24.4479465,40.4620514,25.558012,39.9111061,26.6049805,39.2620049
	L26.6049805,39.2620049z"/>
<path class="st1" d="M119.3283844,32.3441353c-0.4031982-0.0084229-0.7646484,0.182251-1.0842896,0.569458
	c-0.4320068,0.5436401-0.9019165,1.1101074-1.4069214,1.6990967c-0.5049438,0.5894165-1.0147095,1.1311646-1.5300903,1.6254272
	c-0.5158691,0.4945679-1.0261841,0.9025269-1.5299683,1.223877c-0.5043945,0.3209839-0.970459,0.4777222-1.3986206,0.46875
	c-0.5946655-0.0114136-0.946228-0.1477661-1.0541992-0.4101563c-0.1090088-0.2616577-0.090271-0.6672974,0.0574951-1.2166138
	c0.1349487-0.5013428,0.3510132-1.1512451,0.6496582-1.9503174c0.2977905-0.7976685,0.6092529-1.5995483,0.9337158-2.4051514
	c0.3235474-0.805481,0.6223755-1.5403442,0.8969116-2.2050781c0.2736206-0.6637573,0.4468994-1.1303101,0.5184326-1.3963623
	c0.1637573-0.6118164,0.1636963-1.0760498-0.0009155-1.3949585c-0.1654053-0.3187866-0.6283569-0.484375-1.3903809-0.4998779
	c-0.451416-0.0092163-1.0203247,0.0673218-1.7103882,0.2265625l-1.8865967,0.4841919
	c-0.3294067,0.072876-0.5546265,0.1074829-0.6724243,0.1051636c-0.1665039-0.0033569-0.2310181-0.0754395-0.1931152-0.2167358
	c0.02948-0.1090698,0.1171265-0.2613525,0.2661133-0.4561157c0.1477051-0.1937866,0.3075562-0.411377,0.4802856-0.6525269
	c0.171875-0.2411499,0.3442993-0.5049438,0.5177612-0.7940063c0.1730347-0.288269,0.2974854-0.5736694,0.3729248-0.8554077
	c0.144165-0.5327148,0.0866089-1.0108032-0.1696167-1.4336548c-0.2578735-0.4225464-0.6479492-0.6392212-1.1702881-0.6496582
	c-0.4039917-0.0075073-0.9042358,0.1401978-1.5,0.444458c-0.5952759,0.3034058-1.1796265,0.6978149-1.7518921,1.1835327
	c-0.5730591,0.4850464-1.0864258,1.0233765-1.545166,1.6135254c-0.4567261,0.5899048-0.7634888,1.175354-0.9190674,1.755249
	c-0.1903076,0.7058716-0.182251,1.324707,0.0204468,1.8563232c0.203064,0.5318604,0.5234985,0.8731689,0.9620361,1.0236816
	c-0.2730713,0.4828491-0.5189819,0.8882446-0.7385864,1.2151489c-0.2197876,0.326416-0.4113159,0.5947266-0.5750122,0.8045044
	c-0.0499268,0.0640869-0.0922852,0.1176758-0.1374512,0.1745605c-0.1300049,0.0869751-0.2548218,0.1940918-0.3720093,0.3236694
	c-0.6953125,0.8060913-1.3256226,1.5271606-1.8914185,2.1625366c-0.5639038,0.6358643-1.0901489,1.1724854-1.5802612,1.6127319
	c-0.4887085,0.4396362-0.9420776,0.7738647-1.3621216,1.0015259c-0.4193726,0.2285156-0.8319092,0.3383789-1.2364502,0.3308716
	c-0.1665039-0.0033569-0.3222046-0.0454102-0.4671631-0.1275635c-0.145752-0.0810547-0.2601318-0.2327271-0.3445435-0.4545288
	c-0.0820923-0.22229-0.1126709-0.5349731-0.0880737-0.9364014c0.0236206-0.4020996,0.1220093-0.9233398,0.2947388-1.5668335
	c0.1890259-0.7054443,0.3837891-1.343811,0.586792-1.9155273c0.2005005-0.571228,0.3928223-1.1072998,0.5750732-1.6083374
	c0.1831055-0.4998779,0.3597412-0.9863281,0.5349731-1.4562378c0.1738281-0.46875,0.3331299-0.970459,0.4766235-1.503418
	c0.1976929-0.7368774,0.2184448-1.2373047,0.0628052-1.5003052c-0.1575317-0.2627563-0.4976807-0.399292-1.0205688-0.4094238
	c-0.451355-0.008667-0.9611206,0.0841675-1.5258179,0.2776489c-0.56604,0.1945801-1.0452881,0.4452515-1.4397583,0.7528076
	c-0.3969727,0.3232422-0.8304443,0.8035889-1.3009644,1.4403076c-0.470459,0.6372681-0.949707,1.3329468-1.4403076,2.0880127
	c-0.4889526,0.7558594-0.9967651,1.5288696-1.5197144,2.322937c-0.5239868,0.7940674-1.0474854,1.5166016-1.5684204,2.1681519
	c-0.5228882,0.652771-1.0407715,1.1818237-1.5560913,1.5903931c-0.5164185,0.4073486-1.0116577,0.6066895-1.4879761,0.5980225
	c-0.333374-0.0067139-0.5678101-0.1096802-0.7059937-0.3095703c-0.1374512-0.1998901-0.2008057-0.4769287-0.187561-0.8312988
	c0.0109253-0.354187,0.0700684-0.7747192,0.1776733-1.2617188c0.1063232-0.4862061,0.239502-1.0267944,0.4003906-1.6231079
	c0.2866211-1.0662842,0.5958862-2.0655518,0.9308472-2.9963989c0.3337402-0.9318237,0.7410889-1.8970947,1.2253418-2.8963623
	c0.0944824-0.1716919,0.170166-0.3199463,0.2276001-0.4446411c0.0575562-0.1251221,0.0993042-0.2344971,0.1237183-0.3289795
	c0.0930176-0.3448486-0.0036621-0.5206909-0.2890625-0.5256958c-0.0947876-0.001709-0.265564,0.0341797-0.5136719,0.1082764
	c-0.2458496,0.0742188-0.5015869,0.1558228-0.7637939,0.2452393c-0.2634888,0.0891724-0.5072632,0.171936-0.7290039,0.2456665
	c-0.2233887,0.0751343-0.3712158,0.1118774-0.4418945,0.1096191c-0.1193848-0.0016479-0.2206421-0.0471191-0.3044434-0.135437
	c-0.0838623-0.0882568-0.2091675-0.1339722-0.3751831-0.1376343c-0.1193237-0.001709-0.2836914,0.0579834-0.4967651,0.1794434
	c-0.211731,0.1222534-0.4702148,0.2596436-0.7730103,0.4107666c-0.1407471,0.0759888-0.3068237,0.24646-0.4963379,0.5108643
	c-0.1917114,0.2646484-0.3465576,0.4892578-0.4682007,0.6762695c-0.2803955,0.4205322-0.5447388,0.8921509-0.7929688,1.4150391
	c-0.2474976,0.5239868-0.4797363,1.0548096-0.6970215,1.5947876c-0.0327759,0.0812988-0.0599976,0.1584473-0.0910645,0.2385864
	c-0.2033081,0.0942993-0.4015503,0.2420654-0.5947876,0.4453125c-1.0984497,1.2398071-2.0949097,2.1981812-2.9952393,2.8733521
	c-0.8980713,0.6768188-1.6380005,1.1594238-2.2166748,1.4473267c-1.347229,0.6513672-2.6100464,1.0844727-3.7891235,1.2979126
	c1.1605835-0.7660522,2.2338257-1.7380981,3.2210083-2.9165649c0.9847412-1.1790161,1.7053223-2.6153564,2.1604004-4.3086548
	c0.1901245-0.7059937,0.2492065-1.3500366,0.1802368-1.9359741c-0.0716553-0.5843506-0.2756348-1.088501-0.6154175-1.5126343
	c-0.3400269-0.4242554-0.8287964-0.7609863-1.4677734-1.0093994c-0.6384277-0.2487793-1.4204102-0.3824463-2.3470459-0.4003906
	c-0.9050903-0.0176392-1.9983521,0.2018433-3.2785034,0.6580811c-0.3546143,0.1257935-0.7133179,0.2820435-1.0758667,0.4626465
	c-0.6243896-0.0636597-1.4234619,0.1471558-1.7203979,0.2422485c-0.1593018,0.0509033-0.3151245,0.1107178-0.4729614,0.1655884
	c0.0574341-0.116333,0.1140137-0.2371216,0.171814-0.3512573c0.307373-0.6083984,0.6107178-1.1627197,0.9129639-1.6609497
	c0.1057129-0.2181396,0.2713623-0.4797363,0.496521-0.7830811c0.2240601-0.3031616,0.368103-0.5714722,0.4314575-0.807251
	c0.0637817-0.2346802,0.0109863-0.3936768-0.1586304-0.4763794c-0.2366333-0.0983887-0.4492188-0.1496582-0.6401367-0.1533203
	c-0.1900635-0.0042114-0.3849487,0.0316162-0.5831909,0.1068115c-0.1993408,0.0747681-0.4174805,0.1699219-0.6502075,0.2831421
	c-0.2338257,0.1132813-0.4631958,0.2310791-0.6860352,0.3527832c-0.2251625,0.1218872-0.4332314,0.2281494-0.6233559,0.3189697
	c-0.6235352,0.2717285-1.1588135,0.5527344-1.6082764,0.8434448c-0.4485474,0.2910767-0.8456421,0.5907593-1.19104,0.899231
	c-0.1205444,0.0916138-0.3240967,0.4269409-0.6105957,1.0048218c-0.2874146,0.5775757-0.6205444,1.3082886-1.0004883,2.1903687
	c-0.140686,0.3255005-0.2861938,0.6708984-0.4342651,1.0256348c-0.4735107,0.2265015-0.9487915,0.4494629-1.4299927,0.6588745
	c-0.3372192,0.1469727-2.0332642,1.0427246-1.3082275,1.7218018c0.1679688,0.1572876,0.3782959,0.2490234,0.6095581,0.2958374
	c-0.291626,0.2910156-0.597229,0.5977173-0.9210815,0.9246216c-0.7064819,0.7113647-1.4856567,1.3899536-2.3400879,2.0355835
	c-0.8545532,0.6452026-1.7649536,1.187439-2.7305908,1.6254272c-0.967041,0.4384766-1.9842529,0.6473389-3.0547485,0.6269531
	c-0.6896973-0.0135498-1.3234253-0.1915894-1.9000854-0.5338745c-0.5764771-0.3417358-0.9852905-0.8700562-1.2233276-1.5830688
	c0.9210815-0.4085083,1.9570313-0.9238281,3.1049805-1.5487671c1.1470337-0.6233521,2.2496948-1.303833,3.3087158-2.0397949
	c1.057312-0.7354126,1.9783936-1.4944458,2.7622681-2.2753296c0.7832031-0.7805176,1.2738037-1.5401001,1.4714355-2.2772827
	c0.2286377-0.8458862,0.0631104-1.5036011-0.4909058-1.9712524c-0.5554199-0.4683228-1.2852173-0.7102661-2.1897583-0.7279053
	c-0.569458-0.0118408-1.2151489,0.0790405-1.9363403,0.2700195c-0.7202148,0.1905518-1.4812622,0.4639893-2.2814331,0.8183594
	c-0.7996216,0.3547363-1.611084,0.7724609-2.434021,1.2533569c-0.8220215,0.4802246-1.6177368,0.9973145-2.3876343,1.5496826
	c-0.4452515,0.3226929-0.8995361,0.6998291-1.3621216,1.1323853c-0.4631958,0.4320679-0.897522,0.8966675-1.3060913,1.3927002
	c-0.4083862,0.4973755-0.7639771,1.0186157-1.0656738,1.5639648c-0.3016357,0.5456543-0.5245972,1.0853882-0.668457,1.6177979
	c-0.3114624,1.1613159-0.3341675,2.1143799-0.0686646,2.8601685c0.2652588,0.7463989,0.6917114,1.3379517,1.2799072,1.774292
	c0.5865479,0.4370117,1.2703857,0.7421265,2.0481567,0.9145508c0.7792358,0.1724854,1.5118408,0.2661133,2.2015381,0.2792969
	c0.927063,0.0170898,1.8337402-0.0678711,2.72229-0.255127c0.8862915-0.1879272,1.7341309-0.4514771,2.5421753-0.7904053
	c0.8084106-0.3389893,1.5783081-0.7337646,2.3078613-1.1843872c0.7301025-0.4502563,1.4147339-0.9302979,2.053772-1.4379883
	c0.5263062-0.4470215,1.0721436-0.9250488,1.6391602-1.4336548c0.4650879-0.4354858,0.9748535-0.9302979,1.5269165-1.4815674
	c-0.2044067,0.5178833-0.4105225,1.039978-0.6173706,1.5696411c-0.4550781,1.1576538-0.8986816,2.295166-1.3295898,3.4144287
	c-0.4326172,1.1187744-0.8269043,2.1390381-1.1824341,3.0623169c-0.2833862,0.7354736-0.5292969,1.3753052-0.7404785,1.9273682
	l-1.6315308,3.899231c-0.0961304,0.21875-0.189209,0.4312744-0.2783813,0.6359253
	c-0.3720703,0.8520508-0.7040405,1.6021118-0.9993286,2.250061c-0.293457,0.6482544-0.5430298,1.2036743-0.7522583,1.6643066
	c-0.206604,0.4609375-0.3908081,0.8551636-0.550354,1.1832886c-0.3446045,0.7502441-0.5870972,1.2490234-0.725647,1.4988403
	c-0.1308594,0.2184448-0.2116699,0.3900146-0.24646,0.5164795c-0.0585938,0.2189941-0.0321655,0.3886108,0.0783081,0.5092163
	c0.1110229,0.1205444,0.2624512,0.182251,0.4519043,0.1860962c0.2139282,0.0040283,0.5389404-0.0689697,0.9724121-0.2178345
	c0.4342651-0.1488647,1.0205688-0.397522,1.760498-0.7463989c0.163208-0.0756226,0.3823853-0.1342773,0.6569214-0.1763306
	c0.2736816-0.0418091,0.569458-0.0998535,0.8885498-0.171814c0.3173828-0.0723267,0.6207275-0.1732788,0.9050293-0.302063
	c0.2860107-0.1286621,0.5083008-0.3086548,0.6654053-0.5424805c0.1676636-0.2650146,0.3549194-0.6072998,0.5640869-1.029541
	c0.2086792-0.4212036,0.4447021-0.9645996,0.7067871-1.6287842c0.2624512-0.6652832,0.5773315-1.4829102,0.9457397-2.4527588
	c0.2109375-0.5548706,0.4413452-1.1759033,0.6900024-1.8588867l1.3756104-3.8339844
	c0.6117554-1.7346802,1.0679932-3.0947876,1.3660278-4.0758667c0.4143677-1.3637695,0.6328125-2.0453491,0.6575317-2.0445557
	c0.0458984-0.1729736,0.0997314-0.352417,0.161499-0.5408325c0.0636597-0.1879272,0.1358643-0.3916626,0.2197266-0.6106567
	l0.0827637-0.0454712c0.1132202-0.3285522,0.3033447-0.7514038,0.5747681-1.265625
	c0.2683105-0.5147705,0.6008301-1.0606689,0.9939575-1.6351318c0.3944702-0.5764771,0.8285522-1.151001,1.3070717-1.7243652
	c0.4761963-0.574585,0.9915161-1.0932617,1.5460815-1.5547485c0.5543213-0.4626465,1.1265259-0.8371582,1.7184448-1.1254272
	c0.5908203-0.2877197,1.1966553-0.425354,1.8143921-0.4138184c1.1647339,0.0223999,1.5353394,0.8256836,1.1099854,2.4098511
	c-0.1987305,0.7365723-0.4595337,1.4598999-0.7814331,2.1715698c-0.3226929,0.711853-0.6824951,1.381958-1.0783691,2.0122681
	c-0.3969116,0.6303101-0.8278809,1.213501-1.2938843,1.7481689c-0.4671021,0.5343628-0.9289551,0.9866943-1.3862915,1.3565063
	c-0.3262939-0.0384521-0.6344604-0.0681152-0.9274902-0.0894775c-0.2929688-0.020752-0.5817871-0.0349731-0.866333-0.0404053
	c-0.8330116-0.0153809-1.5356483,0.0421143-2.107914,0.1724854c-0.5727539,0.1303711-0.9140625,0.3998413-1.0234375,0.8078003
	c-0.0509033,0.1878052-0.0464478,0.4126587,0.0157471,0.6740112c0.0609131,0.2612915,0.1273193,0.4797363,0.2004395,0.6538696
	c0.1063232,0.2229004,0.2767334,0.368103,0.5105591,0.4354248c0.2316895,0.0678101,0.5274658,0.1051636,0.8843994,0.1115723
	c0.4281006,0.0084229,1.1744995-0.1034546,2.2396889-0.3344727c1.0668335-0.2316284,2.229248-0.642395,3.487854-1.2334595
	l1.875-0.1754761c0.6439819-0.0827637,1.3707886-0.2338257,2.1844482-0.4547729
	c0.8111572-0.2206421,1.6713257-0.5742188,2.5792236-1.0618286c0.9069824-0.4866943,1.8504639-1.130188,2.8306885-1.9306641
	c0.4744263-0.3878174,0.9510498-0.8243408,1.428833-1.3079834c-0.0241699,0.0855103-0.0471191,0.1685181-0.0678711,0.24646
	c-0.3756714,1.3960571-0.5400391,2.5234375-0.4962158,3.3833618c0.0426636,0.8596802,0.2158203,1.52948,0.5169678,2.006897
	c0.3023682,0.4797363,0.6854858,0.805603,1.1532593,0.980835c0.4664917,0.1740723,0.949585,0.2660522,1.4500732,0.2758789
	c0.6636963,0.0131836,1.3341064-0.0966797,2.0047607-0.3275146c0.6720581-0.2310181,1.3569946-0.6240845,2.0551758-1.1773071
	c0.6984253-0.5546265,1.4420166-1.2967529,2.2301636-2.2270508c0.7884521-0.9302979,1.6306763-2.0879517,2.5299072-3.4735718
	c-0.1379395,0.3280029-0.2557983,0.6807251-0.3569336,1.0563965c-0.1004028,0.3768921-0.2072144,0.7687988-0.31604,1.1762085
	c-0.1463013,0.5498047-0.2296143,1.12323-0.2470093,1.7212524c-0.0175781,0.5991821,0.072876,1.1478882,0.2741699,1.6489258
	c0.2000122,0.5004883,0.5422974,0.9165649,1.0262451,1.2490845c0.4837036,0.3328247,1.1425781,0.5064087,1.9747314,0.5229492
	c0.9749146,0.0185547,1.8729858-0.1447144,2.696106-0.4918213c0.8206787-0.3459473,1.6374512-0.8706055,2.4472046-1.5720825
	c0.8100586-0.7015381,1.6604004-1.5751343,2.5513916-2.6226807c0.7817993-0.9190674,1.6635742-1.973877,2.6351318-3.1503296
	c0.1477661-0.0900269,0.3287964-0.2501221,0.5469971-0.487915c0.1101685-0.1396484,0.2234497-0.2755737,0.3423462-0.4076538
	c0.1194458-0.1312256,0.2630005-0.2901611,0.4331665-0.4763794c0.1693726-0.1856079,0.3723755-0.4056396,0.6083984-0.661438
	c0.2355957-0.2556763,0.5344238-0.5687866,0.8981323-0.9403687c0.4354248-0.0229492,0.7825317-0.0442505,1.038208-0.0622559
	c0.2562866-0.0187988,0.4497681-0.0308228,0.5831909-0.0366821c0.1326294-0.0045776,0.2229614-0.0109863,0.2738647-0.0181885
	c0.0488281-0.0065308,0.0985107-0.0098877,0.1455688-0.0087891c0.2613525,0.0050049,0.4561768,0.0794067,0.5848389,0.2240601
	c0.1282349,0.1446533,0.1315308,0.4441528,0.0095825,0.8985596c-0.1135254,0.4234009-0.2700195,0.8544312-0.4727783,1.2918091
	c-0.2009277,0.4370728-0.4177246,0.8893433-0.651001,1.3580933c-0.2332764,0.4688721-0.4595337,0.9535522-0.6762695,1.4534912
	c-0.2202759,0.499939-0.4037476,1.0321045-0.555481,1.5962524c-0.3498535,1.3018188-0.2694092,2.3557129,0.2437134,3.1615601
	c0.5114136,0.805481,1.3626099,1.22052,2.5514526,1.2429199c0.9746704,0.0187988,1.9051514-0.1757813,2.791748-0.5848389
	c0.8877563-0.4074097,1.7524414-0.9818726,2.5963135-1.7227173c0.8448486-0.7404785,1.6915283-1.6216431,2.5397339-2.6456299
	c0.8496094-1.0244751,1.7108154-2.1426392,2.5870972-3.3553467c0.0392456-0.0616455,0.0723267-0.1165771,0.09729-0.163147
	c0.0235596-0.0465088,0.0427856-0.0936279,0.055481-0.1407471
	C119.8617096,32.4961128,119.7094269,32.3511543,119.3283844,32.3441353z M44.1845818,34.4834785
	c-0.0241089-0.7096558,0.0879517-1.5266724,0.3361206-2.4522095c0.1904297-0.7051392,0.4466553-1.3272705,0.7705078-1.864563
	c0.3235474-0.5372314,0.6732178-0.9916382,1.0469971-1.3634644c0.3748169-0.3709717,0.7376099-0.6507568,1.0875854-0.8414307
	c0.3499146-0.1904297,0.6434326-0.282959,0.8812256-0.2787476c0.4042969,0.0078735,0.7609253,0.1884766,1.0735474,0.5406494
	c0.3118286,0.3532715,0.3829956,0.8433838,0.2147827,1.4708862c-0.1099243,0.4078979-0.3493652,0.8279419-0.7158203,1.2628174
	c-0.3678589,0.4342651-0.8049927,0.859314-1.3110962,1.274353c-0.5057373,0.4160767-1.0563965,0.8192749-1.6505737,1.2098389
	C45.3229485,33.8318062,44.7445183,34.1789742,44.1845818,34.4834785z"/>
<g class="st2">
	<path class="st3" d="M-1660.2528076,2310.4023438c170.2838135-51.0737305,351.1462402-70.9799805,528.0274658-49.5949707
		c112.7262573,16.0385742,232.0499878,54.8273926,306.2149658,146.0549316
		c63.4725342,77.3500977,61.5387573,190.53125,15.4700317,275.84375
		c-67.2069092,123.6391602-139.2485352,171.9829102-155.6099854,184.5024414
		c-130.812439,92.3649902-286.3086548,148.1025391-444.5349731,169.2600098
		c-84.1398926,10.6418457-173.0626221,8.152832-252.6260986-23.0532227
		c-16.3114014-6.3974609-21.5953369-26.7780762-10.307251-40.1784668
		c23.3218994-27.6862793,41.1561279-59.0395508,50.1343994-94.4067383
		c2.994873-11.7973633,13.6607666-19.8527832,25.8289795-19.5627441
		c71.3924561,1.7009277,136.1176758,45.708252,208.8099365,40.1325684
		c100.8963623,1.1374512,176.9949951-77.6914063,235.1212158-150.9462891
		c48.116333-60.6289063,95.6638184-140.5949707,68.3637695-220.2199707
		c-19.5649414-68.8188477-85.3123779-111.9301758-150.1499023-132.7463379
		c-140.3675537-45.1586914-296.7738037-35.0349121-432.7050781,20.5888672
		c-100.7824707,39.1298828-189.1662598,103.2849121-271.5212402,172.2172852
		c-171.1938477,153.9038086-310.8786621,344.4350586-397.3286133,558.2851563
		c-31.7363281,94.4123535-51.6425781,198.3798828-24.7976074,296.432373
		c24.1149902,94.7539063,97.9387207,174.7199707,189.9624023,207.2526855
		c174.8338623,66.9985352,377.1950684,30.7124023,532.2363281-68.9326172
		c50.7325439-34.5800781,100.5550537-75.0749512,130.1300049-130.1298828
		c40.0400391-73.5964355,68.8187256-154.3588867,120.8024902-221.0163574
		c36.4000244-31.9638672,89.4075928-17.0625,133.0875244-28.0961914
		c26.5037842-12.7399902,48.6850586-34.2387695,77.4637451-42.201416c24.7974854-5.6875,50.5050049-4.8911133,75.7574463-5.8010254
		c-5.1187744,22.6362305-11.4887695,45.1586914-22.5224609,65.7473145
		c-47.7750244,91.9101563-87.9287109,187.5737305-127.0587158,283.3513184
		c-31.0537109,75.8713379-46.5238037,158.7949219-92.0238037,228.1826172
		c-10.5787354,20.0197754-36.2862549,18.4274902-54.7137451,26.276123
		c-33.6699219,7.7351074-59.3774414,32.8737793-91.9099121,43.3388672
		c-40.6087646,10.6923828-83.7200928,6.2561035-123.7600098-5.1188965
		c11.9437256-57.7849121,37.3099365-111.8161621,47.6612549-170.0561523
		c-41.1774902,24.6835938-77.6912842,56.0786133-117.9587402,82.1274414
		c-180.2938232,112.7263184-402.5612793,157.5437012-612.2026367,119.5512695
		c-114.0910645-18.3137207-227.0449219-69.2736816-301.6647949-159.9326172
		c-71.3212891-85.8811035-97.1425781-202.7023926-85.7675781-312.2436523
		c15.9250488-167.5537109,88.0424805-325.6662598,186.5500488-460.6875
		c123.4187012-179.0424805,296.6599121-318.5,484.8023682-424.8562012
		C-1901.5164795,2404.4736328-1783.4440918,2349.9873047-1660.2528076,2310.4023438z"/>
	<g class="st4">
		<path class="st1" d="M1865.4284668,2981.7548828c33.4425049-19.90625,77.6911621-33.2150879,114.3188477-14.1049805
			c29.3474121,29.119873,28.2099609,78.4873047,7.8486328,112.6123047
			c-19.7924805,32.8737793-44.1350098,63.1313477-58.6950684,98.9626465
			c78.0324707-5.005127,152.9938965-48.1162109,232.0500488-31.0537109
			c43.6799316,10.4648438,30.598877,61.8798828,20.9299316,92.9335938
			c-38.3337402,107.607666-87.5874023,211.2338867-122.6223145,320.2062988
			c-9.5551758,26.8449707-7.6213379,55.5100098-6.4838867,83.4924316
			c33.442627,2.6164551,70.5251465,9.5551758,100.4414063-10.4648438
			c85.5397949-53.576416,145.9411621-136.8413086,211.6887207-211.6887207
			c13.3085938-18.4274902,38.3337402-15.3564453,58.1262207-19.90625
			c-3.7539063,20.588623-6.7111816,42.5424805-21.3850098,58.8085938
			c-80.0800781,103.5124512-160.3874512,211.6887207-270.15625,285.8537598
			c-66.3161621,43.3388672-149.9226074,71.8901367-228.5238037,48.0024414
			c-54.9412842-16.7211914-86.6774902-77.236084-79.5112305-132.5185547
			c4.5500488-125.9213867,103.6263428-222.2675781,118.6412354-345.3449707
			c-41.5186768-15.3564453-85.4262695-6.8251953-127.8549805-0.9101563
			c-57.3299561,64.0412598-118.3000488,125.0112305-173.0137939,191.4414063
			c-68.3636475,82.8098145-137.0687256,168.3498535-226.7037354,229.3198242
			c-62.9036865,43.4526367-143.4387207,64.6101074-218.96875,48.2299805
			c-44.7037354-8.53125-83.6062012-43.4523926-94.5262451-88.0424805
			c-18.0861816-65.7473145,6.1425781-132.1774902,13.7637939-197.5837402
			c-77.9188232,99.7587891-153.107605,213.7363281-273.5688477,265.6062012
			c-68.25,26.9587402-167.2124634,29.8024902-212.1437378-38.5610352
			c-39.6987305-73.255127-15.2424927-158.1125488-5.0050049-235.576416
			c-112.3850098,98.5075684-244.5625,186.5500488-398.125,197.0151367
			c-58.9224854,0.454834-112.8399963,23.8874512-166.4162445,45.3862305
			c-64.6100006,19.1098633-133.65625,38.6750488-201.1100006,25.59375
			c-38.7887573-16.2663574-33.6699982-68.1362305-23.6600037-101.3513184
			c60.5149994-21.6125488,125.125-20.4750977,188.1424866-15.0148926
			c25.9349957,5.2324219,44.1350098-16.607666,60.8562469-32.5327148
			c79.0562286-84.1748047,136.8412628-188.7111816,164.7100372-300.8686523
			c9.0999603-32.1911621,7.2799988-82.0136719-33.6700134-89.5212402
			c-70.2975159-14.4462891-133.4287567,33.2150879-185.6399994,74.0512695
			c-88.6112518,82.1274414-157.7712555,186.4362793-200.3137512,299.6174316
			c-44.0212555,137.6374512-85.198761,276.6401367-139.0025024,411.0925293c0,0-28.7025146,81.5708008-33.2149963,97.7114258
			c-36.741272,84.9711914-61.6525269,175.8574219-111.2475281,254.7998047
			c-24.9112244,36.7412109-74.8475037,35.1489258-113.0674744,47.8886719
			c-58.3537598,12.0576172-110.7925415,58.9228516-173.0137939,41.1777344
			c15.4700317-55.737793,47.2062988-104.7636719,69.0462646-157.9990234
			c89.2937622-192.2373047,169.9425049-388.3422852,244.2212524-586.7224121
			c27.7550049-76.6674805,64.8375244-150.1499023,84.6300049-229.5473633
			c-98.3937378,104.8774414-213.28125,199.2900391-349.78125,249.4536133
			c-114.6599731,43.1113281-247.5200195,54.03125-361.8386841,4.2087402
			c-62.4487305-27.0725098-105.7874756-95.4362793-97.9387207-163.9135742
			c10.2374268-124.442627,96.1186523-227.7275391,191.0999146-301.6650391
			c100.2137451-73.9375,210.664978-136.7275391,330.6712646-171.6486816
			c59.1500244-15.5839844,131.2674866-19.90625,180.5212402,22.8635254
			c32.9874878,27.3000488,29.0062561,77.5776367,10.1237488,111.8164063
			c-35.9450073,67.3398438-97.7112122,115.3425293-157.6575012,160.2736816
			c-94.4124756,66.9987793-195.6500244,124.6699219-301.664978,171.4213867
			c15.5837402,54.9411621,70.1837158,91.9099121,126.2624512,93.5024414
			c108.4037476,7.5073242,208.7312622-50.2775879,289.835022-116.7075195
			c40.4949951-31.8500977,78.3737488-66.7712402,112.4987488-105.3325195
			c-7.7349854-14.1049805-25.2525024-25.9350586-23.0912476-43.5661621
			c24.1150208-59.8325195,116.9349976-49.0263672,137.978775-111.0200195
			c18.313736-41.973877,35.2624969-84.630127,56.6474915-125.2387695
			c24.1150055-47.5476074,74.5062561-72.6862793,119.5512543-96.8012695
			c41.177494-19.223877,79.9662628-45.3862305,124.4424896-56.6474609
			c20.7025032-7.2800293,38.4475136,7.9624023,53.6900063,19.4511719
			c-32.3049927,52.5524902-65.5200043,104.6499023-94.8674927,159.0224609
			c52.3249969-5.6875,104.9912415-13.6499023,153.7900085-34.4663086
			c82.9237366-33.4423828,181.3174591-37.9924316,262.7625122,2.2751465
			c50.3912354,24.2287598,74.5062256,83.8337402,68.25,137.5236816
			c-8.8724976,76.2124023-40.3812866,148.4438477-83.2650146,211.4611816
			c-40.0400085,58.4675293-97.0287476,101.4650879-146.6237488,151.0600586
			c125.5799866-24.6838379,238.988739-94.0712891,326.6899719-186.2087402
			c32.6462402-36.0588379,75.4162598-65.0649414,94.8674927-111.2475586
			c23.7737427-53.1210938,48.0025024-107.6074219,87.2462769-151.401123
			c27.5274658-29.3476563,69.9562378-40.6088867,108.0625-26.6176758
			c37.196228-13.0810547,74.8474731-26.7312012,115.0012817-25.59375
			c-18.5412598,55.3964844-46.6375732,106.8112793-67.2263184,161.411377
			c-29.8024902,77.3500977-51.7562256,157.5437012-68.5912476,238.6474609
			c-7.3937378,28.8925781-3.7537231,58.5812988,2.5025024,87.3601074
			c89.2938232,20.588623,145.9412842-68.3637695,193.6026001-128.3100586
			c69.8425293-91.3413086,121.5987549-195.1950684,195.1949463-283.692627
			c39.8125-48.4572754,101.1237793-79.8522949,164.3687744-79.0561523
			c19.1099854,0.2275391,44.7037354,3.6398926,49.7087402,26.2763672
			c1.4787598,31.3947754-7.7349854,61.9936523-16.6074219,91.682373
			c-31.7363281,96.4599609-73.710083,190.0761719-94.2988281,289.8349609
			c-2.9575195,29.8024902-11.2612305,66.2026367,10.9200439,90.7724609
			c25.8212891,9.6689453,56.5336914,7.848877,80.0799561-7.2797852
			c84.0612793-50.6188965,140.3675537-133.201416,207.0250244-202.9301758
			c32.1912842-33.2148438,58.9224854-71.09375,81.1037598-111.4748535
			c-47.3199463-41.4050293-55.1687012-111.8164063-27.0725098-166.3024902
			C1737.8010254,3076.0534668,1798.2022705,3021.1123047,1865.4284668,2981.7548828z M-778.2353516,3216.307373
			c-89.8624878,61.5385742-131.6087646,173.8100586-132.9737549,279.5974121
			c78.1462402-39.4711914,152.8800049-90.0900879,210.4375-156.8613281
			c25.4799805-29.6887207,43.9075317-76.0986328,21.9537354-112.4985352
			C-698.269104,3190.8273926-749.5703735,3194.4672852-778.2353516,3216.307373z"/>
	</g>
</g>
</svg>
