<?xml version="1.0" encoding="utf-8"?>
<!-- Generator: Adobe Illustrator 19.2.0, SVG Export Plug-In . SVG Version: 6.00 Build 0)  -->
<svg version="1.1" id="Layer_1" xmlns="http://www.w3.org/2000/svg" xmlns:xlink="http://www.w3.org/1999/xlink" x="0px" y="0px"
	 width="48px" height="48px" viewBox="0 0 48 48" style="enable-background:new 0 0 48 48;" xml:space="preserve">
<style type="text/css">
	.st0{fill:#FFFFFF;stroke:#222222;stroke-miterlimit:10;}
	.st1{fill:none;stroke:#222222;stroke-miterlimit:10;}
	.st2{fill:#222222;}
	.st3{fill:none;}
</style>
<g>
	<path class="st1" d="M23.6167336,1h0.6625023c1.4435558,0.1302099,2.6930103,1.4992394,2.6662769,3.0325527
		c0.0058117,3.7773046,0.0011616,7.5533924,0.0034866,11.3306971c0.0244083,0.8250685-0.2928944,1.6452684-0.8484669,2.2306051
		c-0.8903084,0.9625797-2.3943024,1.1889267-3.5135803,0.5451794c-0.9612083-0.5281429-1.577219-1.6440525-1.5574589-2.7782183
		c0.0034866-3.7724371-0.0011635-7.5436573,0.0023232-11.3160944C21.0260048,2.5381808,22.2057228,1.2020079,23.6167336,1z"/>
	<path class="st1" d="M3.2256413,16.2978401c0.5695186-0.1788864,1.1715813-0.1058712,1.7294769,0.0778828
		c3.3985157,1.1597214,6.7993555,2.3060551,10.1978712,3.4621239c0.7554836,0.2470341,1.4052,0.818985,1.7620211,1.5588684
		c0.5358124,1.0903568,0.3719311,2.5056286-0.4067993,3.4231834c-0.7403736,0.9139023-2.0107489,1.294796-3.1009712,0.9297218
		c-3.4194365-1.1524181-6.8330612-2.318222-10.2501736-3.4742928c-0.7275894-0.2239113-1.3738186-0.7325821-1.7562097-1.4213562
		c-0.5311633-0.9321575-0.5346502-2.167326-0.0092982-3.1031342C1.775112,17.0292072,2.4620214,16.4961987,3.2256413,16.2978401z"/>
	<path class="st1" d="M43.4231987,16.2710686c1.0902214-0.2689381,2.2966728,0.2190456,2.9661484,1.1512012
		c0.3649559,0.4855499,0.5497589,1.0927906,0.6055489,1.7024651c0.0801964,1.358078-0.7926788,2.706419-2.0409698,3.1080017
		c-3.422924,1.1682377-6.8516579,2.3230896-10.2745819,3.4913292c-0.7031822,0.2433834-1.4946976,0.21661-2.1699829-0.108305
		c-1.0437298-0.4745979-1.7771301-1.6331005-1.7469101-2.8305454c-0.0162735-0.9589291,0.4509659-1.9032555,1.1843662-2.4715538
		c0.5962505-0.4685135,1.3482494-0.60359,2.0363178-0.8615761C37.1306,18.3970184,40.2641144,17.2859764,43.4231987,16.2710686z"/>
	<path class="st1" d="M17.4845295,31.6918182c1.5225906-0.3139648,3.1381645,0.8530579,3.3973522,2.4545174
		c0.1278515,0.829937-0.0092983,1.7207184-0.4997807,2.4009743c-2.1048946,3.0325508-4.2132759,6.0602379-6.3193331,9.0915718
		c-0.4753733,0.711895-1.2238836,1.2242165-2.0525913,1.3300896c-1.1285772,0.1752357-2.3280535-0.4040146-2.9196558-1.4274406
		c-0.638093-1.0526314-0.5718431-2.510498,0.1510973-3.4998512c1.9886665-2.8682671,3.9854679-5.7316704,5.9764595-8.5999374
		C15.7283192,32.5874672,16.4942646,31.8329792,17.4845295,31.6918182z"/>
	<path class="st1" d="M29.3618984,31.7294865c1.1262531-0.2920589,2.3803558,0.2190437,3.0498333,1.2047443
		c2.1095428,3.0264702,4.2121124,6.0578041,6.3181686,9.0854912c0.5451126,0.7508354,0.7705956,1.7706108,0.5160522,2.68573
		c-0.3138161,1.3118362-1.542347,2.3255272-2.8417816,2.2853661c-0.962368,0.0389442-1.9084663-0.4891968-2.4524155-1.3130493
		c-2.1188431-3.0495911-4.2423344-6.0943108-6.3565273-9.1451187c-0.622982-0.8980827-0.721777-2.157589-0.240591-3.148159
		C27.7358646,32.5509033,28.4983234,31.9229755,29.3618984,31.7294865z"/>
</g>
</svg>
