<?xml version="1.0" encoding="utf-8"?>
<!-- Generator: Adobe Illustrator 19.2.0, SVG Export Plug-In . SVG Version: 6.00 Build 0)  -->
<svg version="1.1" id="Layer_1" xmlns="http://www.w3.org/2000/svg" xmlns:xlink="http://www.w3.org/1999/xlink" x="0px" y="0px"
	 width="48px" height="48px" viewBox="0 0 48 48" style="enable-background:new 0 0 48 48;" xml:space="preserve">
<style type="text/css">
	.st0{fill:#FFFFFF;stroke:#222222;stroke-miterlimit:10;}
	.st1{fill:none;stroke:#222222;stroke-miterlimit:10;}
	.st2{fill:#222222;}
	.st3{fill:none;}
</style>
<path class="st0" d="M23.5496635,5.7397594c-1.4313354,0.1159954-2.767313,0.7569184-3.9204407,1.5846138
	c-1.4126568,1.0223312-2.604126,2.3208885-3.639287,3.7157812c-1.7498455,2.3828192-3.0681286,5.0664396-4.0128489,7.8621225
	c-1.1590271,3.4867401-1.7734385,7.2123508-1.3635035,10.8848801c0.3715973,3.2675304,1.6594048,6.515398,4.0177641,8.8588963
	c1.9621868,1.9827309,4.6400414,3.1741409,7.3965397,3.4955864c3.0995865,0.3715782,6.3780899-0.0953522,9.0765877-1.7281342
	c2.2384281-1.3349266,3.965662-3.4366035,5.004755-5.8135262c1.3330307-3.0158768,1.6338463-6.4033337,1.2671623-9.6561165
	c-0.4325447-3.8366928-1.6564522-7.5731182-3.4967422-10.9625397c-1.3330269-2.4123087-2.9924316-4.6987925-5.1767902-6.4092312
	C27.2430172,6.4426122,25.4371376,5.5844436,23.5496635,5.7397594z"/>
<path class="st2" d="M1.0000222,1.0000113v46h46v-46H1.0000222z M45.9901962,45.981823H2.0098488V2.001476h43.9803467V45.981823z"/>
</svg>
