<?xml version="1.0" encoding="utf-8"?>
<!-- Generator: Adobe Illustrator 19.2.0, SVG Export Plug-In . SVG Version: 6.00 Build 0)  -->
<svg version="1.1" id="Layer_1" xmlns="http://www.w3.org/2000/svg" xmlns:xlink="http://www.w3.org/1999/xlink" x="0px" y="0px"
	 width="17px" height="17px" viewBox="0 0 17 17" style="enable-background:new 0 0 17 17;" xml:space="preserve">
<style type="text/css">
	.Arched_x0020_Green{fill:url(#SVGID_1_);stroke:#FFFFFF;stroke-width:0.25;stroke-miterlimit:1;}
	.st0{fill:#64BC4A;}
	.st1{fill:#F04E57;}
	.st2{fill:none;stroke:#487BAC;stroke-linejoin:round;stroke-miterlimit:10;}
</style>
<linearGradient id="SVGID_1_" gradientUnits="userSpaceOnUse" x1="-203.9791718" y1="242.5553589" x2="-203.2720642" y2="241.8482513">
	<stop  offset="0" style="stop-color:#20AC4B"/>
	<stop  offset="0.983146" style="stop-color:#19361A"/>
</linearGradient>
<path class="st1" d="M15.41113,5.1515837c0.3861685-1.0974102,0.204052-1.7777224-0.6823263-2.3830547
	c0.1982021-0.7732164-0.0976686-1.9356357-1.2435999-2.1096134C11.3942566,0.3632833,9.2168369,0.5710173,7.096859,0.6963503
	C5.4729619,0.779113,4.0004406,1.3435024,2.49949,1.8087323c-0.3145516,0.0974876-0.6223965,0.208395-0.922526,0.3319099
	C1.249331,2.2755389,1.0416973,2.544961,1.0400194,2.8329186L1.0028241,8.7503538
	C1.0014614,8.98487,1.2064476,9.1779966,1.4936441,9.2287979c0.7565461,0.1339531,1.4441634,1.0652895,1.9507948,1.5273018
	c0.5479212,0.4995861,1.0389981,1.0662613,1.5680451,1.5595551c1.2102423,1.1244841,0.3783641,2.6759081,0.7766457,3.9745693
	c0.1228247,0.4004631,0.6452436,0.6164131,1.1501884,0.487339c0.9247627-0.2363701,2.039001-0.859726,2.3809714-1.6033726
	c0.7726879-1.2650099,0.5650959-2.6538935,0.5643682-3.9843674c-0.0001125-0.1471596,0.1228027-0.2846012,0.3019915-0.3294029
	c1.7922592-0.4481936,3.4495716-0.0787153,5.0341816-1.0714521c0.7629538-0.5884666,0.5825138-1.3382053,0.3128424-2.2019296
	C16.1535664,6.7918153,16.1893024,6.0337067,15.41113,5.1515837z M14.3211384,5.2947769
	c0.7787619,0.6226158,0.9274797,1.4771442,0.2347288,2.1774011c0.1673231,0.3058324,0.2735491,0.6257682,0.2865925,0.9503751
	c0.0178328,0.4418697-0.332283,0.7736902-0.8960285,0.9094477c-1.4504957,0.3493767-2.8471355,0.3508892-4.3268223,0.5777922
	c-1.1000872,0.3369122-0.7316713,1.4584322-0.7435417,2.1142673c0.1735287,1.2132368-0.0672665,2.9162149-1.6803603,3.4965105
	c-0.2104526,0.0757532-0.4428682-0.0472164-0.4352803-0.2210178c0.0538144-1.2340345-0.012547-2.6013699-0.9781928-3.6467485
	c-0.5311332-0.5653057-1.0236163-1.167902-1.6173229-1.6962271C3.6902242,9.5341616,3.0635669,8.827733,2.4456749,8.5240908
	c-0.17922-0.0880718-0.3429563-0.1683884-0.3425462-0.326354l0.0122552-4.8201756
	C2.1158674,3.1738608,2.2757945,2.9857159,2.5230854,2.897758c1.6010821-0.5697763,3.2955701-1.177096,5.0733967-1.2845718
	c1.7058063-0.097281,3.4262757-0.2004515,5.1270862-0.1011947c0.2568655-0.0083976,0.459219,0.0585676,0.6293869,0.1638753
	c0.4959898,0.306929,0.5966587,0.8566868,0.281332,1.297905l-0.1524134,0.2132473
	C14.5381927,3.3845561,14.9893112,4.4512682,14.3211384,5.2947769z"/>
</svg>
