<?xml version="1.0" encoding="utf-8"?>
<!-- Generator: Adobe Illustrator 19.2.0, SVG Export Plug-In . SVG Version: 6.00 Build 0)  -->
<svg version="1.1" id="Layer_1" xmlns="http://www.w3.org/2000/svg" xmlns:xlink="http://www.w3.org/1999/xlink" x="0px" y="0px"
	 width="17px" height="17px" viewBox="0 0 17 17" style="enable-background:new 0 0 17 17;" xml:space="preserve">
<style type="text/css">
	.Arched_x0020_Green{fill:url(#SVGID_1_);stroke:#FFFFFF;stroke-width:0.25;stroke-miterlimit:1;}
	.st0{fill:#64BC4A;}
	.st1{fill:#F04E57;}
	.st2{fill:none;stroke:#487BAC;stroke-linejoin:round;stroke-miterlimit:10;}
</style>
<linearGradient id="SVGID_1_" gradientUnits="userSpaceOnUse" x1="-182.6666718" y1="242.5553589" x2="-181.9595642" y2="241.8482513">
	<stop  offset="0" style="stop-color:#20AC4B"/>
	<stop  offset="0.983146" style="stop-color:#19361A"/>
</linearGradient>
<path class="st0" d="M15.5228081,8.5954342c0.1607857-0.8904428,0.2471228-1.6567416-0.5827484-2.1463375
	c-1.6952152-0.7891521-3.2941132-0.2175541-5.1280413-0.4406633C9.628664,5.9861355,9.4896965,5.8649497,9.4716082,5.7189059
	C9.3077946,4.3985548,9.3420334,2.9946604,8.4188356,1.8349178C7.9875259,1.1392699,6.8047514,0.6584946,5.8578563,0.5383021
	C5.3408251,0.4726631,4.8491225,0.7515616,4.7767649,1.1641403C4.5421433,2.5020878,5.5594959,3.9387259,4.4976063,5.2042456
	C4.0336251,5.7591786,3.6163967,6.3822341,3.134464,6.9457455C2.6888576,7.4668655,2.1216948,8.4760876,1.3875216,8.7025728
	c-0.2787094,0.085928-0.4582386,0.3029222-0.4278843,0.53547l0.7687042,5.8674116
	c0.037276,0.2855396,0.2766346,0.527216,0.618435,0.6205597c0.3131003,0.0854502,0.6322978,0.1574364,0.956491,0.2152758
	c1.5469627,0.2760391,3.0779767,0.6539936,4.6996431,0.5352974c2.1192045-0.1378002,4.3055992-0.2009373,6.343936-0.752883
	c1.1156187-0.3143568,1.2654657-1.5044422,0.9731627-2.2472124c0.8047142-0.7103014,0.9013004-1.4079132,0.3823824-2.4491425
	C16.3655014,10.0557632,16.2362862,9.3078928,15.5228081,8.5954342z M14.0308981,13.2154188l0.1776152,0.1927624
	c0.3674698,0.3988352,0.3355608,0.9568224-0.1186638,1.3227329c-0.155839,0.1255436-0.3483582,0.21702-0.60429,0.2404528
	c-1.6754799,0.3088293-3.3955011,0.4192171-5.1002436,0.5336361c-1.7774706,0.1132078-3.5340571-0.2798967-5.1933117-0.6472969
	c-0.2562702-0.0567007-0.438237-0.2236242-0.463908-0.4257011L2.1198363,9.6503468
	c-0.019942-0.156703,0.1326048-0.2566519,0.2995574-0.3662109C2.994992,8.9064112,3.5294766,8.1279078,3.9482803,7.6500316
	C4.4720926,7.0523396,4.8862743,6.393465,5.34342,5.7668147c0.8289537-1.1567726,0.7257109-2.5218184,0.5197001-3.7397256
	C5.8340964,1.8555601,6.049521,1.7047926,6.2677259,1.7539378c1.6724753,0.3763539,2.1220255,2.0364809,2.0998659,3.2618647
	c0.092885,0.649333-0.1340075,1.8078046,0.9993,2.0060859c1.4963894,0.0421715,2.8824949-0.129046,4.3650627,0.0382695
	c0.5762062,0.0649981,0.9646711,0.3509741,1.0016203,0.791657c0.0271997,0.3237281-0.0386457,0.6543441-0.1668625,0.9785218
	c0.7740316,0.60921,0.7321329,1.4755707,0.0363464,2.1897144C15.3704176,11.7744541,15.0546799,12.8887663,14.0308981,13.2154188z"
	/>
</svg>
