<?xml version="1.0" encoding="utf-8"?>
<!-- Generator: Adobe Illustrator 19.2.0, SVG Export Plug-In . SVG Version: 6.00 Build 0)  -->
<svg version="1.1" id="Layer_1" xmlns="http://www.w3.org/2000/svg" xmlns:xlink="http://www.w3.org/1999/xlink" x="0px" y="0px"
	 width="20px" height="17px" viewBox="0 0 20 17" style="enable-background:new 0 0 20 17;" xml:space="preserve">
<style type="text/css">
	.Arched_x0020_Green{fill:url(#SVGID_1_);stroke:#FFFFFF;stroke-width:0.25;stroke-miterlimit:1;}
	.st0{fill:#64BC4A;}
	.st1{fill:#F04E57;}
	.st2{fill:none;stroke:#487BAC;stroke-linejoin:round;stroke-miterlimit:10;}
</style>
<linearGradient id="SVGID_1_" gradientUnits="userSpaceOnUse" x1="-225.1615295" y1="242.5553589" x2="-224.454422" y2="241.8482513">
	<stop  offset="0" style="stop-color:#20AC4B"/>
	<stop  offset="0.983146" style="stop-color:#19361A"/>
</linearGradient>
<g>
	<g>
		<path class="st2" d="M0.5027639,8.5234985c1.8467953-1.8479958,3.69013-3.6994576,5.5379639-5.5455275
			c0.0020766,1.0272205,0,1.7493613,0.0010386,2.7765815c5.1221361,0.1666579,6.5388851,0.9816532,7.9763031,1.6041579
			c0.998848,0.5022483,4.333333,2.3125005,5.2687368,6.0084949c0.0799503,0.3065872,0.1550541,0.6154852,0.2104301,0.9290056
			c-0.3561382-0.694828-0.7769966-1.3542213-1.2909565-1.9161692c-0.0055218-0.0060549-0.0110531-0.0120964-0.0165958-0.0181255
			c-0.862772-0.938509-2.1047115-1.4453993-3.3760557-1.5395117c-1.040472-0.0770216-1.9827042-0.0726833-1.9827042-0.0726833
			L6.04142,10.6503773c-0.0003462,1.1835957,0.0003462,1.8622179-0.0003462,3.0458136
			C4.1946244,11.9726019,2.3505976,10.2459316,0.5027639,8.5234985z"/>
	</g>
</g>
</svg>
