<?xml version="1.0" encoding="utf-8"?>
<!-- Generator: Adobe Illustrator 19.0.0, SVG Export Plug-In . SVG Version: 6.00 Build 0)  -->
<svg version="1.1" id="Layer_1" xmlns="http://www.w3.org/2000/svg" xmlns:xlink="http://www.w3.org/1999/xlink" x="0px" y="0px"
	 width="65px" height="65px" viewBox="0 0 65 65" style="enable-background:new 0 0 65 65;" xml:space="preserve">
<style type="text/css">
	.st0{display:none;opacity:0.6;fill:#FFFFFF;}
	.st1{opacity:0.5;fill:#FFFFFF;}
	.st2{fill:none;stroke:#231F20;stroke-linecap:round;stroke-linejoin:round;stroke-miterlimit:10;}
	.st3{fill:none;stroke:#000000;stroke-miterlimit:10;}
</style>
<path id="XMLID_1_" class="st0" d="M32.8240013,3.0408001c16.4161873,0,29.7097855,13.3040009,29.7097855,29.6993999
	c0,16.412899-13.2935982,29.7098007-29.7097855,29.7098007c-16.3999138,0-29.702713-13.2969017-29.702713-29.7098007
	C3.1212881,16.3448009,16.4240875,3.0408001,32.8240013,3.0408001z"/>
<path id="XMLID_2_" class="st1" d="M32.8240013,3.0408001c16.4161873,0,29.7097855,13.3040009,29.7097855,29.6993999
	c0,16.412899-13.2935982,29.7098007-29.7097855,29.7098007c-16.3999138,0-29.702713-13.2969017-29.702713-29.7098007
	C3.1212881,16.3448009,16.4240875,3.0408001,32.8240013,3.0408001z"/>
<path id="XMLID_3_" class="st2" d="M32.8240013,3.0408001c16.4161873,0,29.7097855,13.3040009,29.7097855,29.6993999
	c0,16.412899-13.2935982,29.7098007-29.7097855,29.7098007c-16.3999138,0-29.702713-13.2969017-29.702713-29.7098007
	C3.1212881,16.3448009,16.4240875,3.0408001,32.8240013,3.0408001z"/>
<path id="XMLID_4_" class="st3" d="M23.862587,47.2873993c0,0.5471001,0.4315014,0.9914017,0.9668007,0.9914017
	l20.8173981-13.4990005c0.5471001-0.3613014,0.9831009-1.4505005,0.9831009-1.8508987c0,0-0.3551979-1.6779022-0.9831009-2.0114021
	L24.8293877,17.2119999c-0.5352993,0-0.9668007,0.4475994-0.9668007,0.9911995V47.2873993z"/>
</svg>
