<?xml version="1.0" encoding="utf-8"?>
<!-- Generator: Adobe Illustrator 19.1.1, SVG Export Plug-In . SVG Version: 6.00 Build 0)  -->
<svg version="1.1" id="Layer_1" xmlns="http://www.w3.org/2000/svg" xmlns:xlink="http://www.w3.org/1999/xlink" x="0px" y="0px"
	 width="80px" height="80px" viewBox="0 0 80 80" style="enable-background:new 0 0 80 80;" xml:space="preserve">
<style type="text/css">
	.st0{display:none;}
	.st1{display:inline;fill:#424242;}
	.st2{display:inline;fill:#707070;}
	.st3{display:inline;fill:#323232;}
	.st4{display:inline;fill:#6E6E6E;}
	.st5{display:inline;}
	.st6{fill:#6E6E6E;}
	.st7{fill:#313131;}
	.st8{display:inline;fill:#313131;}
	.st9{display:inline;fill:#303030;}
	.st10{display:inline;fill:#595959;}
	.st11{display:inline;fill:#414141;}
	.st12{display:inline;fill:#333333;}
	.st13{display:inline;fill:#6B6B6B;}
	.st14{display:inline;fill:#3E3E3E;}
	.st15{fill:#DFDFE1;}
	.st16{fill:#878787;}
</style>
<g class="st0">
	<path class="st1" d="M-28.99,70.83c13.01-8.05,29.67-9.9,44.08-4.68C32.3,72,45.71,87.65,48.75,105.59
		c-1.66,2.07-2.5,4.73-4.73,6.32c-2.91,2.44-5.05,5.83-8.62,7.4c0.07,0.25,0.21,0.75,0.28,0.99c4.39-4.42,8.88-8.75,13.46-12.99
		c1.34,11.5-0.4,23.74-6.85,33.55c-0.7,1.04-1.37,2.1-2.03,3.16c-0.72,1.12-1.47,2.24-2.23,3.35c-5.04,1.51-9.98-1.82-15.03-0.53
		c-3.19,0.36-5.61,2.58-7.67,4.86c-0.48-1.58,0.06-3.83-1.33-4.91c-4.33-0.67-9.61,0.17-12.15,4.14c-2.86,4.5-1.75,10.12-1.74,15.16
		c-2.11,0.07-4.21,0.14-6.31,0.11c-0.83-0.08-2.51-0.25-3.35-0.33c2.81-0.6,5.65-0.99,8.52-1.07c-0.01-4.81,1-10.39-2.38-14.39
		c-3.45-4.04-9.53-4.43-14.31-2.94c-2.75,0.88-4.41,3.39-6.14,5.52c-0.17-1.85-0.35-3.71-0.54-5.56c-2.01-0.05-4.01-0.1-6.02-0.15
		c-0.15-3.08,0.09-6.21-0.62-9.23c-2.08-0.58-3.98,1.25-5.67,2.27c-2.25,1.44-1.89,4.45-2.38,6.74c-0.72,0.1-2.17,0.32-2.9,0.43
		c-9.01-11.31-13.29-26.16-11.06-40.52c2.52,0.4,3.67,3.05,5.53,4.53c3.14,2.72,5.48,6.4,9.19,8.44c-1.8-1.35-3.56-2.76-5.03-4.46
		c-2.55-2.96-5.86-5.25-7.93-8.61c-0.42,0.02-1.27,0.07-1.69,0.1C-50.8,92.16-41.75,78.62-28.99,70.83z"/>
	<path class="st1" d="M8.63,155.64c1.69-1.34,3.91-1.47,5.94-1.91c0.24,3.14,0.94,6.23,2.37,9.05c-2.69,1.13-5.52,1.9-8.36,2.54
		C8.12,162.13,7.61,158.78,8.63,155.64z"/>
	<path class="st1" d="M-29.62,155.25c1.81-0.08,3.63-0.14,5.45-0.19c0.07,2.15,0.15,4.3,0.22,6.46c-2.69-1.28-5.19-2.89-7.7-4.47
		C-31.14,156.6-30.13,155.7-29.62,155.25z"/>
	<path class="st1" d="M-44.5,167.11c2.14-0.98,4.26-1.96,6.4-2.93c0.52,0.35,1.58,1.03,2.1,1.38l0.12,0.07
		c0.52,2.21,0.67,5,2.85,6.31c1.71,0.85,3.61,1.23,5.43,1.77c0.3-0.73,0.89-2.21,1.19-2.95c2.59,1.06,5.22,2.02,7.82,3.07
		c1.57,0.56,3.19,0.98,4.85,1.16c9.32,1.19,18.88,1.18,27.98-1.38c4.84,3.28,11.29,3.06,16.65,1.31c4-1.41,5.35-5.65,6.09-9.41
		c1.37,0.64,2.73,1.32,4.08,2.01l0.17,0.09c0.93,1.66,1.48,3.9,3.47,4.64c1.5,0.67,3.18,0.17,4.75,0.09h0.01
		c24.03,15.68,40.22,42.8,42.05,71.5c-0.13,1.49-0.28,2.98-0.45,4.47c-3.28-2.47-6.01-5.55-8.86-8.48
		c-12.7-12.66-25.4-25.32-38.09-37.99c-2.71-2.67-5.05-6.12-8.99-7.01c15.94,16.08,32.14,31.9,48.19,47.87
		c2.46,2.32,4.79,4.78,6.96,7.38c-4.43,0.36-8.88,0.38-13.32,0.32c-51.29-0.03-102.58-0.05-153.87-0.03
		c-5.45,0-10.92,0.17-16.36-0.26c6.22-6.94,13-13.37,19.74-19.8c11.53-12.11,23.8-23.48,35.41-35.51c-1.65,0.62-3.35,1.27-4.56,2.6
		c-12.41,12.55-24.97,24.94-37.41,37.45c-4.99,4.76-9.54,9.98-14.87,14.37c-0.18-0.6-0.54-1.82-0.72-2.42
		c0.98-30.51,18.2-59.67,44.11-75.69c2.44,3.86,7.11,3.48,11.08,3.37c-0.04-1.97-0.06-3.93-0.08-5.89
		c-1.42,0.04-2.84,0.08-4.26,0.12L-44.5,167.11z"/>
</g>
<g class="st0">
	<path class="st2" d="M-36.71,140.32c1.69-1.02,3.59-2.85,5.67-2.27c0.71,3.02,0.47,6.15,0.62,9.23c2.01,0.05,4.01,0.1,6.02,0.15
		c0.19,1.85,0.37,3.71,0.54,5.56c1.73-2.13,3.39-4.64,6.14-5.52c4.78-1.49,10.86-1.1,14.31,2.94c3.38,4,2.37,9.58,2.38,14.39
		c-2.87,0.08-5.71,0.47-8.52,1.07c-3.02-0.3-5.95-1.16-8.83-2.08c-0.41-0.15-1.22-0.45-1.63-0.59c5.67-0.05,11.34-0.33,17-0.2
		c-0.06-3.71,0.63-7.98-2.03-11.01c-2.93-3.97-8.84-3.71-12.91-1.88c-4.48,2.36-4.19,7.91-4.2,12.25c-0.45-0.21-1.35-0.63-1.8-0.84
		c-0.07-2.16-0.15-4.31-0.22-6.46c-1.82,0.05-3.64,0.11-5.45,0.19c-0.51,0.45-1.52,1.35-2.03,1.8l-0.64,0.37
		c-0.02-0.22-0.06-0.65-0.08-0.87c0.12-1.22,0.28-2.44,0.48-3.65c1.92-0.06,3.83-0.13,5.75-0.21c-0.11-1.06-0.22-2.11-0.33-3.16
		c-1.93-0.1-3.87-0.2-5.81-0.31c-0.07-2.79-0.11-5.58-0.17-8.37c-1.05,0.48-2.12,0.95-3.11,1.54c-0.73,1.99-0.63,4.16-0.82,6.24
		c-1.02,0.56-2.05,1.11-3.07,1.67c-0.24-0.25-0.71-0.76-0.95-1.02c-0.4-0.45-1.19-1.34-1.59-1.79c0.73-0.11,2.18-0.33,2.9-0.43
		C-38.6,144.77-38.96,141.76-36.71,140.32z"/>
	<path class="st2" d="M-42.69,197.4c1.21-1.33,2.91-1.98,4.56-2.6c-11.61,12.03-23.88,23.4-35.41,35.51
		c-6.74,6.43-13.52,12.86-19.74,19.8c5.44,0.43,10.91,0.26,16.36,0.26c51.29-0.02,102.58,0,153.87,0.03
		c4.44,0.06,8.89,0.04,13.32-0.32c-2.17-2.6-4.5-5.06-6.96-7.38c-16.05-15.97-32.25-31.79-48.19-47.87
		c3.94,0.89,6.28,4.34,8.99,7.01c12.69,12.67,25.39,25.33,38.09,37.99c2.85,2.93,5.58,6.01,8.86,8.48c0.17-1.49,0.32-2.98,0.45-4.47
		c0.41,2.33,0.47,4.71,0.39,7.08c-48.61,0.11-97.22,0.01-145.83,0.06c-14.03-0.11-28.06,0.19-42.09-0.16
		c0.09-1.35,0.19-2.69,0.33-4.02c0.18,0.6,0.54,1.82,0.72,2.42c5.33-4.39,9.88-9.61,14.87-14.37
		C-67.66,222.34-55.1,209.95-42.69,197.4z"/>
</g>
<g class="st0">
	<path class="st3" d="M-35.56,142.39c0.99-0.59,2.06-1.06,3.11-1.54c0.06,2.79,0.1,5.58,0.17,8.37c1.94,0.11,3.88,0.21,5.81,0.31
		c0.11,1.05,0.22,2.1,0.33,3.16c-1.92,0.08-3.83,0.15-5.75,0.21c-0.2,1.21-0.36,2.43-0.48,3.65c-1.19-0.96-2.4-1.88-3.58-2.85
		c-0.25-0.23-0.76-0.68-1.02-0.91c-0.85-0.81-1.68-1.64-2.48-2.49c1.02-0.56,2.05-1.11,3.07-1.67
		C-36.19,146.55-36.29,144.38-35.56,142.39z"/>
</g>
<g class="st0">
	<path class="st4" d="M1.85,150.93c2.54-3.97,7.82-4.81,12.15-4.14c1.39,1.08,0.85,3.33,1.33,4.91c2.06-2.28,4.48-4.5,7.67-4.86
		c5.05-1.29,9.99,2.04,15.03,0.53c-1.32,1.55-2.74,3.03-4.2,4.45c-2.64-3.3-7.14-2.98-10.91-2.55c-3.21,0.43-6.19,3.41-5.93,6.79
		c-0.22,2.2,1.51,3.81,2.59,5.52l-0.68,0.32c-0.49,0.22-1.47,0.66-1.96,0.88c-1.43-2.82-2.13-5.91-2.37-9.05
		c-2.03,0.44-4.25,0.57-5.94,1.91c-1.02,3.14-0.51,6.49-0.05,9.68c-0.9,0.2-1.81,0.4-2.71,0.6c0.08-3.58-0.21-7.21,0.46-10.74
		c1.12-2.63,4.56-2.53,6.89-3.38c0.02-0.73,0.06-2.19,0.08-2.92c-3.1,0.15-6.77-0.21-9,2.43c-3.73,3.98-1.66,9.84-1.97,14.7
		c-0.55,0.02-1.67,0.06-2.22,0.08C0.1,161.05-1.01,155.43,1.85,150.93z"/>
	<g class="st5">
		<path class="st6" d="M-17.07,153.89c2.33-2.08,6.02-2.34,8.44-0.25c2.17,1.36,1.55,4.14,1.75,6.3c-3.73,0.19-7.47,0.31-11.2,0.2
			C-17.9,158.06-18.45,155.65-17.07,153.89z M-15.69,155.32c-0.04,0.68-0.11,2.04-0.15,2.73c2.23,0.28,4.47,0.23,6.71,0.02
			c-0.06-0.72-0.17-2.15-0.23-2.86C-11.46,154.45-13.67,154.11-15.69,155.32z"/>
	</g>
</g>
<g class="st0">
	<g class="st5">
		<path class="st7" d="M-17.95,150.11c4.07-1.83,9.98-2.09,12.91,1.88c2.66,3.03,1.97,7.3,2.03,11.01c-5.66-0.13-11.33,0.15-17,0.2
			c-0.43-0.17-1.28-0.5-1.71-0.66l-0.43-0.18C-22.14,158.02-22.43,152.47-17.95,150.11z M-17.07,153.89
			c-1.38,1.76-0.83,4.17-1.01,6.25c3.73,0.11,7.47-0.01,11.2-0.2c-0.2-2.16,0.42-4.94-1.75-6.3
			C-11.05,151.55-14.74,151.81-17.07,153.89z"/>
	</g>
	<path class="st8" d="M4.3,151.31c2.23-2.64,5.9-2.28,9-2.43c-0.02,0.73-0.06,2.19-0.08,2.92c-2.33,0.85-5.77,0.75-6.89,3.38
		c-0.67,3.53-0.38,7.16-0.46,10.74c-1.18,0.03-2.36,0.06-3.54,0.09C2.64,161.15,0.57,155.29,4.3,151.31z"/>
	<path class="st8" d="M-35.88,165.63c1.23,0.72,2.48,1.43,3.72,2.15c1.87,1.09,3.77,2.11,5.75,2.98c-0.3,0.74-0.89,2.22-1.19,2.95
		c-1.82-0.54-3.72-0.92-5.43-1.77C-35.21,170.63-35.36,167.84-35.88,165.63z"/>
</g>
<g class="st0">
	<path class="st9" d="M16.99,156.06c-0.26-3.38,2.72-6.36,5.93-6.79c3.77-0.43,8.27-0.75,10.91,2.55c-0.38,0.34-1.14,1.03-1.51,1.37
		c-3.35-0.78-7.26-2.75-10.4-0.35c-1.67,1.07-0.86,3.33-1.1,4.96c0.79,0.66,1.57,1.33,2.37,2c-1.2,0.61-2.41,1.19-3.61,1.78
		C18.5,159.87,16.77,158.26,16.99,156.06z"/>
</g>
<g class="st0">
	<path class="st10" d="M21.92,152.84c3.14-2.4,7.05-0.43,10.4,0.35c-2.42,2.26-5.04,4.28-7.9,5.94c-0.31,0.17-0.93,0.51-1.23,0.67
		c-0.8-0.67-1.58-1.34-2.37-2C21.06,156.17,20.25,153.91,21.92,152.84z"/>
</g>
<g class="st0">
	<path class="st11" d="M-15.69,155.32c2.02-1.21,4.23-0.87,6.33-0.11c0.06,0.71,0.17,2.14,0.23,2.86c-2.24,0.21-4.48,0.26-6.71-0.02
		C-15.8,157.36-15.73,156-15.69,155.32z"/>
</g>
<g class="st0">
	<path class="st12" d="M33.91,163.83c0.12,0.12,0.37,0.36,0.49,0.49c-0.37,2.57-0.24,5.86-2.85,7.35c-4.08,2.6-9.74,3.12-13.96,0.55
		c4.61-1.74,9.6-2.85,13.44-6.16C32,165.33,32.94,164.57,33.91,163.83z"/>
</g>
<g class="st0">
	<path class="st13" d="M34.4,164.32c0.85,0.4,1.71,0.8,2.58,1.19c-0.74,3.76-2.09,8-6.09,9.41c-5.36,1.75-11.81,1.97-16.65-1.31
		c1.12-0.45,2.22-0.94,3.35-1.39c4.22,2.57,9.88,2.05,13.96-0.55C34.16,170.18,34.03,166.89,34.4,164.32z"/>
</g>
<g class="st0">
	<path class="st14" d="M41.23,167.61c2.86,1.36,5.56,3.02,8.22,4.73c-1.57,0.08-3.25,0.58-4.75-0.09
		C42.71,171.51,42.16,169.27,41.23,167.61z"/>
</g>
<rect class="st15" width="80" height="80"/>
<circle class="st15" cx="40" cy="40" r="35"/>
<circle class="st16" cx="40.165" cy="29.157" r="15.74"/>
<path class="st16" d="M65.397,58.211c-2.892-5.619-7.579-10.163-13.32-12.844c-3.352,2.535-7.526,4.04-12.053,4.04
	c-4.532,0-8.711-1.509-12.065-4.049c-5.672,2.644-10.319,7.104-13.224,12.624C20.335,66,29.626,71.25,40.148,71.25
	C50.569,71.25,59.781,66.1,65.397,58.211z"/>
</svg>
