<?xml version="1.0" encoding="utf-8"?>
<!-- Generator: Adobe Illustrator 19.1.1, SVG Export Plug-In . SVG Version: 6.00 Build 0)  -->
<svg version="1.1" id="Layer_1" xmlns="http://www.w3.org/2000/svg" xmlns:xlink="http://www.w3.org/1999/xlink" x="0px" y="0px"
	 width="28px" height="22px" viewBox="0 0 28 22" style="enable-background:new 0 0 28 22;" xml:space="preserve">
<style type="text/css">
	.st0{fill:#222222;}
</style>
<g>
	<g>
		<path class="st0" d="M5.6293836,4.0664749c1.0027466-0.828424,2.3698425-1.1919882,3.6521335-0.978404
			c1.1158199,0.1515505,2.1334858,0.7679608,2.8543329,1.6222978c0.6760883-0.0023556,1.3521757-0.0078526,2.028264-0.0007854
			c0.4216719-0.0039263,0.727129,0.4216719,0.7004309,0.8205719c-0.0031404,3.378871,0.0015707,6.7585268-0.0023556,10.1381826
			c0.0227718,0.3651342-0.2410679,0.7491159-0.6234779,0.7726717c-0.6242619,0.0180607-1.2493105-0.0015697-1.8743582,0.005497
			c-0.0424023,0.6556721-0.2685509,1.317627-0.749115,1.782486c-0.8810349,0.9375725-2.5096149,0.9941082-3.4613209,0.1334896
			c-0.5575175-0.4711418-0.8778934-1.186491-0.8778934-1.9144058c-0.6407528-0.0117779-1.2822905,0.0149212-1.9222579-0.0102081
			c-0.3761282-0.0314083-0.6038465-0.4303093-0.5818601-0.7813091c0.0039263-1.5696869-0.0007854-3.1393738,0.0031409-4.7090607
			C4.7664094,10.664814,4.8339396,10.347578,4.639986,10.1096516C4.2481537,9.5293627,4.0549855,8.8430662,3.9489784,8.1575546
			V7.1226139C4.1075964,5.9424038,4.6910267,4.8124495,5.6293836,4.0664749z M7.7558031,4.4818649
			c-1.5288548,0.3588529-2.6423197,1.9379625-2.4562187,3.499012c0.1020808,0.9493504,0.6321154,1.8515863,1.4322705,2.3776941
			c0.7593236,0.5347462,1.7573581,0.6870823,2.6517425,0.4554377c0.9273634-0.2442083,1.7259483-0.9163704,2.1366272-1.7817011
			c0.2559872-0.5787191,0.3792686-1.2320352,0.2669802-1.8602242c-0.1405573-1.0396523-0.8362761-1.976439-1.7730627-2.4389429
			C9.3278456,4.3727169,8.5049181,4.2973342,7.7558031,4.4818649z M9.3278456,15.3157663
			c-0.4381618,0.1939535-0.7506857,0.650176-0.7506857,1.1323099c-0.0023556,0.6580296,0.5967798,1.2689419,1.2650156,1.2210426
			c0.7750273,0.0235577,1.4094982-0.8472691,1.142518-1.5767536C10.8048744,15.4068537,9.9693832,15.0213032,9.3278456,15.3157663z"
			/>
	</g>
	<path class="st0" d="M8.1908236,4.9427986c0.1672554,0,0.3337259,0,0.5009804,0
		C8.7577639,5.7672963,8.7860327,6.5949349,8.8464956,7.420218C8.8433552,7.6204534,8.9949055,7.7641516,9.1213284,7.8992124
		c0.3510008,0.363564,0.6753035,0.7499003,1.0263033,1.112679C10.069108,9.1689386,9.9042091,9.2780867,9.7911348,9.4139328
		C9.2029934,8.9420061,8.6289854,8.4520187,8.0691118,7.947897C8.0345621,6.944365,8.1892529,5.9455447,8.1908236,4.9427986z"/>
	<g>
		<path class="st0" d="M15.6497812,7.0213184c-0.021987-0.3054571,0.2049465-0.6627393,0.5441675-0.6258335
			c1.4165668,0.0007854,2.8331318-0.0023556,4.2496986,0.0015707c0.2818985-0.0251274,0.4436588,0.2332153,0.5787182,0.4365911
			c1.0011768,1.5304251,2.0439701,3.0333672,3.028656,4.5740004v4.6540937
			c-0.0738125,0.1711807-0.197094,0.3478603-0.3981152,0.3714161c-0.4106789,0.0369072-0.8252831,0.0023556-1.2375317,0.0133495
			c-0.0424023,0.6737328-0.2834702,1.3521767-0.7860222,1.8193913c-0.9014492,0.9187279-2.5339565,0.9430695-3.4668159,0.0581074
			c-0.5347462-0.4695702-0.8331356-1.1684303-0.8370628-1.8767128c-0.4043961-0.0086384-0.8103619,0.0133476-1.2147598-0.005497
			c-0.3023157-0.0117779-0.4750671-0.3478603-0.4609327-0.6203365C15.6482105,12.8886023,15.6482105,9.9549599,15.6497812,7.0213184
			z M18.2010136,8.0837431c-0.0031414,1.110323,0.0054951,2.2206469-0.0047131,3.3309708
			c1.4354134,0.0149193,2.8708248,0.0023556,4.3062363,0.0062819c-0.6972904-1.0632095-1.4110699-2.1146402-2.10993-3.1754942
			c-0.054966-0.0612488-0.0950127-0.1774635-0.197094-0.1609735C19.5304184,8.0806017,18.8661079,8.0853128,18.2010136,8.0837431z
			 M19.3780823,15.3165522c-0.4373779,0.1931677-0.7483311,0.6486044-0.7499008,1.1291685
			c-0.0039272,0.6556721,0.5912819,1.2673721,1.2579479,1.2233982c0.7781696,0.0290546,1.4173508-0.8449135,1.1495857-1.5767536
			C20.855896,15.4068537,20.019619,15.0205183,19.3780823,15.3165522z"/>
	</g>
</g>
</svg>
