<?xml version="1.0" encoding="utf-8"?>
<!-- Generator: Adobe Illustrator 19.1.1, SVG Export Plug-In . SVG Version: 6.00 Build 0)  -->
<svg version="1.1" id="Layer_1" xmlns="http://www.w3.org/2000/svg" xmlns:xlink="http://www.w3.org/1999/xlink" x="0px" y="0px"
	 width="28px" height="22px" viewBox="0 0 28 22" style="enable-background:new 0 0 28 22;" xml:space="preserve">
<style type="text/css">
	.st0{fill:#222222;}
</style>
<g>
	<path class="st0" d="M14.5615082,3.5448377c0.248414-0.2160885,0.5923986-0.3102539,0.9174099-0.2635226
		c0.1900873,0.0196764,0.3597956,0.1145446,0.5351257,0.182709c1.3850746,0.5846686,2.7687435,1.1721482,4.154871,1.7543569
		c0.2357655,0.1117334,0.4957733,0.1813035,0.7023754,0.3474984c0.3879051,0.3018212,0.5414505,0.8629484,0.3622551,1.3207746
		c-0.2944412,0.6675906-0.6011829,1.3299103-0.8924618,1.9985542c-0.4068794,0.0182714-0.8137569-0.0038643-1.2202854,0.010541
		c0.1145439-0.2691441,0.228035-0.538991,0.341877-0.8084869c-0.4160137-0.1827087-0.7663231-0.5228281-0.9335728-0.947978
		c-0.1802483-0.4244466-0.1753292-0.9198689,0.0042171-1.3439646c-0.5358295-0.2287374-1.0727119-0.4539614-1.6088924-0.6819963
		c-0.1897373,0.4458804-0.5678043,0.8074331-1.0263329,0.9662495c-0.4054737,0.150032-0.8661108,0.1314096-1.2635021-0.0358391
		c-0.4012575,0.947978-0.8007574,1.8970103-1.2037706,2.8449888c-0.4226904,0.0028105-0.8453808,0.0010538-1.2680702-0.0007029
		c0.6524811-1.520349,1.2884493-3.0473742,1.9360113-4.5698314C14.210145,4.0388546,14.3194189,3.7401958,14.5615082,3.5448377z"/>
	<path class="st0" d="M11.9473648,4.7422838c0.1057606-0.4701242,0.5256395-0.8425691,1.0045481-0.8935168
		c0.1999254-0.0252984,0.3984461,0.0231898,0.5899391,0.0751917c-0.4311228,0.9746819-0.8306227,1.9630666-1.2522593,2.9419646
		c-0.2807388,0.6753206-0.5723705,1.3464246-0.8513527,2.022799c-0.1964121-0.0007029-0.3928242,0-0.5892363-0.0007029
		C11.2193403,7.5071616,11.5794878,6.1238441,11.9473648,4.7422838z"/>
	<path class="st0" d="M10.4909639,4.6442533c0.2326031-0.1728706,0.5291538-0.2526302,0.8176231-0.2203045
		c-0.0505962,0.1152472-0.1015444,0.2308455-0.1349239,0.3524175c-0.3559313,1.3467755-0.7122135,2.693902-1.0677929,4.040678
		c-0.0070276,0.02073-0.020731,0.062191-0.0277576,0.082921C9.9080524,8.8838034,9.7372904,8.8887224,9.5668793,8.8883705
		c0.1496801-1.1594987,0.3088484-2.3175921,0.4595823-3.4770908C10.0742474,5.1087556,10.2386856,4.8220434,10.4909639,4.6442533z"
		/>
	<path class="st0" d="M14.733325,7.9396896c0.4054728-0.4831243,1.07728-0.6784825,1.6904078-0.6001282
		c0.8538132,0.0990844,1.6633549,0.704483,1.8910389,1.5509176c-1.3112888,0.0017567-2.6229277,0.0021076-3.9342155,0
		C14.3925028,8.5457916,14.505641,8.202158,14.733325,7.9396896z"/>
	<path class="st0" d="M7.3620744,7.8304157c0.2726579-0.0846786,0.5607758-0.0593801,0.8415151-0.0642996
		c0.2463055-0.00527,0.49226,0.0031624,0.7385654,0.0003514C8.9386415,8.1410208,8.9446144,8.5155745,8.9396954,8.8901272
		c-0.2687931,0.0112438-0.53864-0.0115948-0.8070812,0.0091362c-0.1531944,0.01546-0.3376603,0.1307068-0.3137679,0.3060369
		c0.0358391,0.1872768,0.2533336,0.2463055,0.4184737,0.2463055c3.6425838,0.0014057,7.2855186-0.000351,10.9281025,0.0010548
		c0.223114-0.0028114,0.4472847-0.0056219,0.6700497,0.0147572c0.4929619,0.0579748,0.9528961,0.3506603,1.212553,0.7740526
		c0.1732235,0.2645769,0.2564964,0.5825605,0.2596588,0.8970308c0.0031624,0.3752565,0.0010529,0.7501612,0.0007019,1.1254168
		c-0.9964657,0.0024595-1.9929314-0.0007029-2.989399,0.0014057c-0.5983715,0.0151081-1.186203,0.2817936-1.5878105,0.7262678
		c-0.4286633,0.4595833-0.6496696,1.1067944-0.5825596,1.7325726c0.0305672,0.3836889,0.1718159,0.7571878,0.3931751,1.0713062
		c0.4047699,0.585372,1.1001186,0.9648447,1.8147907,0.9627352c0.9838181,0.0052719,1.9676342,0.0017567,2.9518032,0.0014057
		c-0.0031624,0.2459545,0.0056229,0.4915581,0.000351,0.7375126c-0.0045662,0.2712517,0.0189743,0.5488281-0.0565681,0.813406
		c-0.1486263,0.5938034-0.6493206,1.0811443-1.2462864,1.2143116c-0.2628193,0.0713253-0.5375862,0.0397034-0.8060265,0.0481358
		c-3.6193943,0.000351-7.2387877,0-10.858181,0c-0.2824955-0.0119457-0.5688567,0.0284615-0.8474879-0.0347843
		c-0.4940171-0.0903015-0.9353294-0.4216366-1.168283-0.8657589c-0.1324639-0.2403336-0.1918445-0.5140457-0.1971149-0.7870541
		c-0.0003514-2.6584148,0.0007029-5.3168297-0.0007029-7.9752445C6.1372218,9.6055031,6.102788,9.2924385,6.1937914,8.9962397
		C6.3448772,8.4393282,6.8044605,7.979394,7.3620744,7.8304157z"/>
	<g>
		<path class="st0" d="M18.2687416,12.8510456c0.1570606-0.0263519,0.3172817-0.0242434,0.47645-0.0274057
			c0.855217,0.0056219,1.7107868-0.0028114,2.5660057,0.0038652c0.2979565-0.0119467,0.5653439,0.2631702,0.5583153,0.5583162
			c0.0024605,0.7505112,0.0038662,1.5013752,0,2.2518873c0.0073795,0.2990103-0.2638721,0.5695591-0.5625324,0.5604248
			c-0.9135437,0.0035133-1.8274403,0.0024586-2.740984,0.000351c-0.543911,0.0087833-1.08255-0.2701988-1.3906956-0.7178354
			c-0.2687931-0.3706884-0.3647156-0.8555698-0.274065-1.3028555
			C17.0256195,13.5105553,17.5976391,12.9546986,18.2687416,12.8510456z M18.8600864,13.8974056
			c-0.3084965,0.0934629-0.5091248,0.4388533-0.4311218,0.7533236c0.0685158,0.378418,0.5214233,0.6194534,0.8734894,0.4588804
			c0.3408222-0.129302,0.5112324-0.5741282,0.3299294-0.8938684C19.4967575,13.9388666,19.1510162,13.7997265,18.8600864,13.8974056
			z"/>
	</g>
</g>
</svg>
