<?xml version="1.0" encoding="utf-8"?>
<!-- Generator: Adobe Illustrator 19.1.1, SVG Export Plug-In . SVG Version: 6.00 Build 0)  -->
<svg version="1.1" id="Layer_1" xmlns="http://www.w3.org/2000/svg" xmlns:xlink="http://www.w3.org/1999/xlink" x="0px" y="0px"
	 width="28.5px" height="31.25px" viewBox="0 0 28.5 31.25" style="enable-background:new 0 0 28.5 31.25;" xml:space="preserve">
<style type="text/css">
	.st0{fill:#222222;}
</style>
<g>
	<g>
		<path class="st0" d="M3.8037994,0.5930493h14.4076967c0.1579304,0.0829798,0.3158588,0.1753283,0.4322987,0.3145201
			c1.8576756,2.1186609,3.7086601,4.2413373,5.5676746,6.3586597c0.1324997,0.1565909,0.2757072,0.3265653,0.2542934,0.5473986
			c0.0120449,1.1684089,0.004015,2.3381562,0,3.5079036c0.501894,0.0080299,1.0426006-0.0575504,1.501667,0.1900501
			c0.5647964,0.2797222,0.9221458,0.906086,0.908762,1.5311108c0.002676,2.8976002,0.004015,5.7952003,0,8.6914616
			c0.006691,0.7361107-0.5353546,1.4401016-1.2487125,1.6194439c-0.3814392,0.0695953-0.7722473,0.0508595-1.1577015,0.0535355
			c0,1.9888382,0.001339,3.9763374,0,5.9651756c0.0388126,0.610302-0.4791412,1.1242409-1.0626755,1.2005291H3.7997844
			c-0.5835352-0.0789642-1.0988128-0.5915642-1.0599997-1.2005291c-0.0013385-1.9874992,0-3.9763374,0-5.9651756
			c-0.5206313-0.0173988-1.0907825,0.0695953-1.55654-0.2154789c-0.551414-0.3171978-0.8927017-0.9515915-0.8525502-1.5873241
			c0.0026768-2.8534336-0.0013384-5.7082043,0.0026768-8.5616379c-0.0147222-0.6290407,0.3466413-1.2580805,0.9167926-1.5337877
			c0.4577272-0.2449236,0.9930805-0.1793432,1.493636-0.1873732C2.734431,8.1428699,2.741123,4.965548,2.7397847,1.7868873
			C2.7036483,1.1792612,3.2202644,0.6693372,3.8037994,0.5930493z M3.896148,11.3228693c6.4724226,0,12.9448442,0,19.4172668,0
			c0.0013371-0.9850502,0.0013371-1.9714384,0-2.9564886c-1.8014641-0.001339-3.6029282,0.0080299-5.4030552-0.0053539
			c-0.1659584-0.1472225-0.3921452-0.2944441-0.3653774-0.5500755C17.539629,5.7966843,17.539629,3.7824171,17.54632,1.76815
			C12.9984941,1.7654731,8.4520054,1.7735034,3.9041784,1.7641348C3.8841026,4.9508257,3.9001632,8.137517,3.896148,11.3228693z
			 M3.9603903,13.5526161c-1.6247973,1.3357067-1.9513631,3.8090401-1.1202269,5.6707306
			c0.551414,1.2406807,1.8148477,2.0477276,3.1344941,2.2364388c1.102828,0.1539135,2.2725749,0.1191158,3.3124986-0.3078289
			c-0.1151009-0.5125999-0.2275248-1.0252018-0.303813-1.5444946c-0.9984336,0.3091679-2.1266909,0.4389896-3.0970192-0.0294437
			c-0.8057065-0.3801003-1.2848477-1.2460346-1.3531055-2.111969c-0.1298232-1.0519695,0.1713133-2.2792673,1.1121969-2.8802013
			c0.9930801-0.6384087,2.2712364-0.5326767,3.3339128-0.1338377c0.1177778-0.5366926,0.2770452-1.0626764,0.401515-1.5966921
			C7.6195307,12.1968336,5.4540262,12.3387022,3.9603903,13.5526161z M11.0350847,13.4161005
			c-0.81106,0.7856312-0.9502516,2.2056561-0.2194948,3.0889902c0.5795202,0.7387867,1.4963131,1.0626755,2.3461866,1.3785343
			c0.4590654,0.1860352,1.0492926,0.4644184,1.0519695,1.0412617c0.0508585,0.5112629-0.4296217,0.8552284-0.8806562,0.9328537
			c-0.9261618,0.1311607-1.8764143-0.101717-2.7035351-0.5166168c-0.1391916,0.5554295-0.2783833,1.1108589-0.406868,1.6689644
			c0.7602015,0.3693943,1.611413,0.5126019,2.4519186,0.5353546c0.9890652-0.001339,2.0490646-0.203434,2.8025742-0.8886871
			c0.900733-0.805706,1.0680304-2.312727,0.3345957-3.2803783c-0.400176-0.5152779-0.9877262-0.8498726-1.5819683-1.0934582
			c-0.6424246-0.2703533-1.3691664-0.4456825-1.8402777-0.9970961c-0.101717-0.4068689,0.0481815-0.8579044,0.4577274-1.0185099
			c0.8525496-0.3426266,1.805479-0.0722733,2.6205549,0.2569695c0.1646204-0.5286617,0.2904291-1.0680304,0.4577265-1.5953531
			c-0.7602015-0.3573484-1.61409-0.4711113-2.4479027-0.4510355C12.5943022,12.5073385,11.6694794,12.7696619,11.0350847,13.4161005
			z M16.8436699,12.6291313c0.9582825,2.9257059,1.8790894,5.8634586,2.8280029,8.7918415
			c0.7722473-0.001339,1.5458336-0.0026779,2.3194199,0.0013371c0.9970951-2.9297199,1.9674225-5.8688107,2.9752254-8.7958555
			c-0.7146969,0.0107079-1.4280548,0.002677-2.1427517,0.0053539c-0.6517925,2.2859592-1.4334087,4.5397959-1.911211,6.8725996
			c-0.4925251-2.3220959-1.2339897-4.5799484-1.8603535-6.8672457
			C18.3158913,12.6251163,17.5797806,12.6358232,16.8436699,12.6291313z M3.8948095,23.4057941
			c0.002677,1.8938141-0.0013382,3.7889652,0.0013385,5.6841145c6.4724226-0.002676,12.9448442-0.002676,19.4172668,0
			c0.002676-1.8951492-0.001339-3.7903004,0.0013371-5.6841145C16.840992,23.4071331,10.3685703,23.4071331,3.8948095,23.4057941z"
			/>
	</g>
</g>
</svg>
