<?xml version="1.0" encoding="utf-8"?>
<!-- Generator: Adobe Illustrator 19.1.1, SVG Export Plug-In . SVG Version: 6.00 Build 0)  -->
<svg version="1.1" id="Layer_1" xmlns="http://www.w3.org/2000/svg" xmlns:xlink="http://www.w3.org/1999/xlink" x="0px" y="0px"
	 width="28.5px" height="31.25px" viewBox="0 0 28.5 31.25" style="enable-background:new 0 0 28.5 31.25;" xml:space="preserve">
<style type="text/css">
	.st0{fill:#222222;}
</style>
<g>
	<g>
		<path class="st0" d="M3.606782,1.7812866C3.5710559,1.0806595,4.2558045,0.5130127,4.9385686,0.6023278
			c4.7098813,0.0059544,9.4197617-0.0059543,14.1296425,0.0059544c0.3155804-0.0416804,0.5299377,0.2103866,0.7184906,0.4168035
			c1.8001957,2.0463073,3.6063442,4.088645,5.4144783,6.1270132c0.134964,0.1806149,0.3433666,0.3493209,0.3413811,0.5974183
			c0.0436649,1.1849136,0.0019855,2.3718109,0.0158787,3.5587091c0.9804802-0.1329803,2.2169991,0.250082,2.3837204,1.3655281
			c0.0813751,2.9235792,0.0059528,5.8531141,0.0377102,8.7786779c0.0456505,0.6232204-0.1627522,1.2960606-0.7006264,1.6572914
			c-0.4942112,0.3751221-1.1432343,0.3036709-1.7247734,0.3413811c0,1.9827938,0.0138931,3.9655895-0.0039692,5.9483833
			c0.0357246,0.7085667-0.6569633,1.2662888-1.341711,1.1749897c-6.4247303,0-12.847476,0-19.2702217,0
			c-0.6787944,0.0873299-1.3655281-0.466423-1.3317866-1.1670513c-0.0198479-1.9847794-0.0059545-3.9715424-0.0039697-5.9563217
			c-0.5358903-0.0396957-1.1214001,0.0277863-1.6017168-0.2639751c-0.5458143-0.2997017-0.8514702-0.9249077-0.8197138-1.5382042
			c-0.0019847-2.8501434-0.0019847-5.7002859,0-8.5504284c-0.0337412-0.6212358,0.287793-1.250411,0.835592-1.5520973
			c0.476347-0.2858086,1.0539176-0.2103863,1.5838537-0.2381735C3.6028123,8.1325798,3.5889189,4.956933,3.606782,1.7812866z
			 M4.7916951,1.7832714c0,3.1796165,0.0019846,6.3592324,0,9.5388479c6.5239692,0,13.0499229,0,19.5738926,0
			c0-0.9804802-0.0039692-1.9589767,0.0019836-2.9394579C22.6566925,8.376708,20.941843,8.3965559,19.2309628,8.376708
			c-0.3910007,0.0575581-0.7482605-0.2441282-0.7006264-0.6430688c-0.0238171-1.9827943,0-3.9655888-0.0079384-5.9483833
			C13.9454966,1.7832714,9.3685961,1.7852561,4.7916951,1.7832714z M3.829077,13.9698153
			c-0.0019846,0.3632145-0.0019846,0.7284136,0,1.091629c0.44856,0.0059538,0.8971202,0.0059538,1.3476651,0.0039692
			c-0.0297718,1.1888819,0.0674825,2.3876886-0.0476346,3.5726023c-0.396956,0.8018513-1.4191172,0.4465752-2.0879877,0.2659607
			c-0.0059543,0.4207726-0.0059543,0.8395615,0.0019848,1.260334c0.9566634,0.0635128,2.0522614,0.297718,2.8997622-0.2917614
			c0.5299363-0.3473377,0.7303987-0.9963589,0.7264295-1.6037025c0.0099235-1.4310246,0.0059543-2.862051-0.0039697-4.2910919
			C5.7185869,13.9618759,4.7738318,13.9717999,3.829077,13.9698153z M8.4377346,14.4024973
			c-1.0836897,0.6827641-0.9149837,2.5841818,0.3096256,3.0148802c0.7681093,0.4009247,1.79424,0.2203102,2.4392929,0.8455143
			c0.2361889,0.7462769-0.6529922,0.9189529-1.1829281,0.9963608c-0.8336077-0.1230564-1.6076708-0.4545155-2.2944045-0.9388008
			c-0.0635133,0.4922256-0.0754218,0.9904041-0.0635133,1.4885845c1.0360546,0.4445896,2.1812725,0.5458145,3.2927485,0.3969555
			c0.7303991-0.148859,1.4607973-0.6113129,1.6969862-1.3536205c0.1270266-0.5894794,0.1190872-1.3059845-0.3572598-1.7466049
			c-0.7581863-0.7006264-1.8756161-0.611311-2.7767067-1.0003281c-0.4247427-0.1766462-0.3592443-0.8435316,0.0635138-0.9904051
			c0.9963589-0.3910017,2.0562305,0.0516043,2.8858681,0.6212358c0.0158787-0.4862709,0.0178633-0.9725418,0.0178633-1.4588127
			C11.1866531,13.8626375,9.6226473,13.5986614,8.4377346,14.4024973z M15.3546896,14.0015717
			c-1.97684,0.5696316-2.4154758,3.1399212-1.6334734,4.8031654c0.9904051,2.0879879,4.5808697,2.0224895,5.4343262-0.1528282
			c0.4743614-1.3039989,0.4168034-2.997016-0.6152821-4.031086C17.7026825,13.8090487,16.4284554,13.783246,15.3546896,14.0015717z
			 M20.4674816,13.9737844c-0.013895,2.0701246-0.0079403,4.1402502-0.0039711,6.2103739
			c0.4525299,0.0019855,0.9070454,0.0039692,1.3615589,0.0039692c0-1.4290409-0.0099239-2.8580818,0.0059547-4.2871218
			c0.8733025,1.42904,1.7406502,2.862052,2.6238785,4.2851381c0.4445896,0.0019836,0.8891811,0.0019836,1.3357563,0.0019836
			c0.0059528-2.0721092-0.0019855-4.1442184,0.0039692-6.2183123c-0.442606,0-0.8832264-0.0019846-1.3238487,0
			c0.0019855,1.2623196-0.0099239,2.5246401,0.0079403,3.7889433c-0.7462769-1.2762127-1.5282803-2.5286083-2.3003597-3.7869587
			C21.6067448,13.9658461,21.0371132,13.9698153,20.4674816,13.9737844z M4.7916951,23.4312572
			c0.0059543,1.8815708-0.0138936,3.7631416,0.0119085,5.6447124c6.52-0.0079403,13.0419827,0,19.5619831-0.0039692
			c0.0019836-1.8795872-0.0059547-3.7591724,0.0059547-5.6387577C17.8436031,23.4253025,11.3176489,23.4292736,4.7916951,23.4312572
			z"/>
	</g>
	<path class="st0" d="M15.1621656,15.77001c0.3731384-0.9566631,1.8895102-1.1114759,2.3797503-0.1786299
		c0.7165051,1.2126989,0.5140591,3.3840475-1.1154461,3.7095518C14.8247538,19.0568047,14.568717,16.996603,15.1621656,15.77001z"/>
</g>
</svg>
