<?xml version="1.0" encoding="utf-8"?>
<!-- Generator: Adobe Illustrator 19.1.1, SVG Export Plug-In . SVG Version: 6.00 Build 0)  -->
<svg version="1.1" id="Layer_1" xmlns="http://www.w3.org/2000/svg" xmlns:xlink="http://www.w3.org/1999/xlink" x="0px" y="0px"
	 width="28.5px" height="31.25px" viewBox="0 0 28.5 31.25" style="enable-background:new 0 0 28.5 31.25;" xml:space="preserve">
<style type="text/css">
	.st0{fill:#222222;}
</style>
<g>
	<g>
		<path class="st0" d="M3.7187643,0.9618676c0.2948389-0.3280808,0.7616677-0.3728848,1.176466-0.3685489
			c4.5801229,0.0072265,9.1602459,0,13.7418146,0.0043359c0.258707-0.0274605,0.4870625,0.1156232,0.6402626,0.3136278
			c1.8673153,2.1346929,3.7404099,4.2664952,5.6062794,6.4026332c0.2456989,0.2312465,0.2139015,0.5838971,0.2196827,0.8902984
			c-0.0043354,1.0333824-0.0014439,2.0667648-0.0014439,3.1001463c0.6026859,0,1.2834167-0.0173435,1.7704792,0.4017906
			c0.4740543,0.3685493,0.637373,0.9900236,0.6272564,1.5666943c-0.0028915,2.7431593,0.0014439,5.4863195-0.0014458,8.2294798
			c0.0086708,0.5795612-0.1922245,1.1952534-0.6807308,1.5435696c-0.4812813,0.385891-1.1331081,0.3555412-1.715559,0.3584309
			c-0.0115623,2.0017262,0.0187874,4.0048981-0.0144539,6.00807c-0.0115623,0.6590519-0.6272545,1.1721287-1.2733002,1.134552
			c-6.3072433,0.0101166-12.6159334-0.0014458-18.9231777,0.0057812c-0.4090171,0.0043354-0.8686194-0.0361328-1.1634583-0.3555412
			c-0.2847221-0.2601528-0.3555412-0.6604977-0.3569865-1.0276012c0-1.9222355,0.0028906-3.8430252,0-5.7652607
			c-0.653271,0.0158978-1.3975952,0-1.8861032-0.5029602c-0.419134-0.391674-0.5217496-0.9842434-0.5130778-1.5320072
			c0.0043359-2.7012463,0.0014453-5.4010477,0.0014453-8.1008492c-0.0130076-0.5766706,0.1517554-1.1952543,0.6272557-1.5609121
			c0.4870627-0.4176893,1.1649034-0.4075718,1.7704799-0.3989c0.0028906-3.1073732,0-6.214746,0-9.3221188
			C3.3704495,1.6209197,3.4369328,1.2220198,3.7187643,0.9618676z M4.5469151,1.7697846
			c-0.0014453,3.1796374,0,6.3592744-0.0014453,9.5389118c6.4604449,0.0028906,12.919445-0.0014458,19.3784447,0.0028906
			c0.0043354-0.979907,0.0014458-1.9612579,0.0028915-2.941165c-1.7213402-0.007226-3.4426804,0.0101175-5.1625748-0.007226
			c-0.3179646,0.0216789-0.622921-0.2558165-0.6041317-0.5795612c-0.0260162-2.0031719-0.0014458-4.0077887-0.0115623-6.0124054
			C13.6146631,1.7697846,9.0807886,1.7726752,4.5469151,1.7697846z M3.4036911,12.6051216
			c0.8108075,1.4857578,1.6620834,2.9498358,2.4873435,4.4283676c-0.8671737,1.5117722-1.7271209,3.0278816-2.5986307,4.5367641
			c0.7717845,0.0014458,1.5450146,0,2.3182447,0.0014458c0.5058513-1.0767422,0.9827967-2.1664906,1.4525161-3.2605743
			c0.5362024,1.0883026,1.0825214,2.170826,1.6216145,3.2576828c0.7804565,0.0043354,1.5623589,0.0028915,2.3442602,0.0014458
			c-0.8787355-1.5450153-1.8051662-3.0640144-2.6593332-4.6234818c0.8498306-1.4366179,1.6982155-2.8775721,2.5003519-4.34165
			c-0.763113-0.0072269-1.5276718-0.0028906-2.2907848-0.0014458c-0.5058508,1.0247107-0.9307661,2.0841084-1.3947043,3.1276073
			c-0.4682736-1.0521708-0.9596725-2.0942249-1.4655237-3.1304979C4.9472604,12.6036758,4.1754756,12.5978947,3.4036911,12.6051216z
			 M12.1231241,12.6007853c-0.0057812,2.9903049-0.0014458,5.9806089-0.0014458,8.9694681
			c1.8687601-0.0028915,3.738965,0.0086708,5.60917-0.0057812c-0.0086727-0.5622177-0.0086727-1.1258812,0-1.6880989
			c-1.1923637-0.0158978-2.3832836-0.0028896-3.5742016-0.0072269c-0.0028906-2.4223042,0.0057812-4.8446102-0.0043364-7.2683611
			C13.475915,12.602231,12.7995195,12.602231,12.1231241,12.6007853z M20.7833004,12.6340275
			c-0.7529964,0.2110119-1.4669704,0.686512-1.8196201,1.4019308c-0.4885082,0.9481096-0.2905045,2.2560968,0.6070213,2.8934698
			c0.7660027,0.686512,1.8282909,0.8483849,2.6737862,1.3990402c0.5549908,0.3338623,0.5289764,1.253067-0.0823822,1.5132179
			c-1.0377178,0.4379234-2.1910591,0.0520306-3.172411-0.3613224c-0.1387482,0.5622177-0.2832756,1.1244354-0.4147968,1.6895447
			c1.008812,0.4437027,2.1346912,0.6041298,3.2287769,0.4885082c0.7804565-0.0809364,1.5710297-0.3439789,2.1505909-0.8888531
			c0.868618-0.8021374,1.0391636-2.2517624,0.3728848-3.2273331c-0.4769459-0.6229191-1.1894741-0.9929142-1.9005566-1.281971
			c-0.539093-0.2529259-1.1793556-0.398901-1.5638027-0.8859634c-0.2717152-0.4306965,0.0086708-0.9900236,0.4711647-1.1287708
			c0.8527203-0.2774963,1.7820415-0.0534763,2.5798416,0.2991743c0.1705437-0.5405378,0.3078461-1.092639,0.4653835-1.6375132
			C23.2460728,12.4504757,21.969883,12.3088369,20.7833004,12.6340275z M4.5440245,23.4014359
			c0.0043359,1.8846569,0,3.7678699,0.0028906,5.6525269c6.4618902-0.0043354,12.9237804,0.0130081,19.3842258-0.0086708
			c-0.0115623-1.8803215-0.0014458-3.7620888-0.0057812-5.643856C17.4649143,23.3999901,11.0044699,23.3999901,4.5440245,23.4014359
			z"/>
	</g>
</g>
</svg>
