<?xml version="1.0" encoding="utf-8"?>
<!-- Generator: Adobe Illustrator 19.1.1, SVG Export Plug-In . SVG Version: 6.00 Build 0)  -->
<svg version="1.1" id="Layer_1" xmlns="http://www.w3.org/2000/svg" xmlns:xlink="http://www.w3.org/1999/xlink" x="0px" y="0px"
	 width="28.5px" height="31.25px" viewBox="0 0 28.5 31.25" style="enable-background:new 0 0 28.5 31.25;" xml:space="preserve">
<style type="text/css">
	.st0{fill:#222222;}
</style>
<g>
	<path class="st0" d="M3.2666519,1.7738516C3.230917,1.0710646,3.9198072,0.5032762,4.6027412,0.5926135
		c4.5701008,0,9.1402016,0.0059558,13.7083168-0.0019853c0.3216152,0.0317644,0.7345524-0.0774257,0.9529324,0.2302918
		c1.8224812,2.0269649,3.6072426,4.0876794,5.4257545,6.1166296c0.2382317,0.2918353,0.5876408,0.5757294,0.532053,0.9966073
		c0.0158825,1.1216798-0.0019855,2.2453446,0.0039711,3.3690104c0.5300674,0.0258083,1.1117535-0.0516176,1.5862331,0.2422028
		c0.549921,0.3017616,0.8695507,0.9330797,0.8318291,1.5564556c0.0019855,2.850853,0.0039711,5.7017059,0,8.5525608
		c0.031765,0.6154346-0.2898483,1.2368259-0.8338146,1.5346165c-0.4744797,0.2918358-1.0561657,0.2163944-1.5842476,0.2521305
		c-0.0059566,1.9832878,0.0119114,3.9665775-0.0079422,5.9498653c0.0397053,0.708744-0.6571255,1.2725601-1.3420448,1.1832237
		c-6.4203758-0.0019855-12.8407526-0.0019855-19.2591438,0c-0.68889,0.0933075-1.3837359-0.4744797-1.3499863-1.1812382
		c-0.0178673-1.9852734,0.0019853-3.9685631-0.0059557-5.9538364c-0.5300682-0.0277939-1.1038125,0.0337486-1.5802782-0.2461739
		c-0.5499209-0.3017616-0.8735206-0.9291096-0.8377857-1.5524845c0-2.8488693-0.0019853-5.6997223,0.0019853-8.5505762
		c-0.035735-0.6134491,0.2799237-1.2388105,0.8199182-1.5425577c0.478451-0.2918348,1.0621216-0.2203655,1.5961604-0.2441883
		C3.2646668,8.126729,3.2507699,4.9502902,3.2666519,1.7738516z M4.453846,1.7758368c0,3.180409,0,6.3588324-0.0019855,9.5392418
		c6.5275812,0,13.0551624,0,19.580759,0c0-0.9787397,0-1.9574804,0-2.9362202
		c-1.7152767-0.0138969-3.432539,0.0138969-5.1478157-0.0099268c-0.3851433,0.0456619-0.7405071-0.2461739-0.6869049-0.6471992
		c-0.0258083-1.9813032-0.0019855-3.9645922-0.0099277-5.9458957C13.60993,1.7758368,9.031888,1.7738516,4.453846,1.7758368z
		 M4.6702409,13.9793167c0.6809487,1.0482244,1.4174857,2.0567436,2.1202726,3.0910721
		c-0.72264,1.0303574-1.4552059,2.0547581-2.1659341,3.0950413c0.5360241-0.0059547,1.0938859,0.0833817,1.6160131-0.0357342
		c0.5042596-0.6511707,0.9191818-1.363884,1.3738098-2.0488033c0.4883771,0.6829338,0.8556533,1.4631481,1.4214559,2.0865231
		c0.5519066,0.0416908,1.1057978,0.0099258,1.6596889,0.0138969c-0.6670513-1.0938854-1.4512348-2.1103458-2.1421099-3.1883507
		c0.736536-0.9946213,1.4651318-1.9971848,2.1500511-3.0295277c-0.5419798-0.0039701-1.081974,0-1.6219683,0.0039711
		c-0.4506578,0.6789637-0.8973446,1.3618975-1.3698397,2.0249796c-0.4447012-0.673008-0.8536677-1.3738098-1.3499861-2.0110826
		C5.7978764,13.9336548,5.2320733,13.9634342,4.6702409,13.9793167z M11.4320841,13.9674053
		c0,2.0726261-0.0059557,4.1432667,0.0039711,6.2139072c0.4665394,0,0.9330788,0,1.3996181-0.0039711
		c0.0019846-1.3202057,0.0039701-2.6404133-0.0039711-3.9606209c0.3930845,0.8377857,0.7802124,1.6795425,1.1653557,2.523283
		c0.3295555,0.0019855,0.659111,0.0039711,0.9906521,0.0059566c0.4030104-0.8933735,0.8358002-1.7748356,1.2169733-2.6801205
		c-0.0158825,1.3718243-0.0119114,2.7456341-0.0039711,4.1174583c0.4685249-0.0019855,0.9350643-0.0039711,1.4035892-0.0099258
		c-0.0059566-2.0706406-0.0019855-4.1392975-0.0039711-6.2079525c-0.5241127-0.0039711-1.0482235-0.0039711-1.5743217,0.0019855
		c-0.5022745,1.0382977-0.9707994,2.0924778-1.4929266,3.1208496c-0.500289-1.0402832-0.9985924-2.0805664-1.4869699-3.1268063
		C12.5081024,13.9614487,11.9700937,13.9634342,11.4320841,13.9674053z M18.9781113,13.9614487
		c-0.0059566,2.0726261-0.0019855,4.1452522-0.0019855,6.2178783c1.4333687,0.0059566,2.8667355,0.0039711,4.3001041,0.0019855
		c0-0.3752174,0.0019855-0.750433,0.0019855-1.1256504c-0.9489613,0.0039711-1.8999081,0.0019855-2.8488693,0.0019855
		c0.0019855-1.6974087,0.0019855-3.3928337,0-5.0902424C19.9449387,13.9634342,19.4605331,13.9614487,18.9781113,13.9614487z
		 M4.4558311,23.4272366c-0.0079412,1.8800545,0.0019855,3.7601089-0.0039706,5.6381779
		c6.5275812,0.0099258,13.0551624,0.0039711,19.5827427,0.0039711c-0.0039692-1.88204,0-3.7620945-0.0019836-5.6441345
		C17.5070229,23.4272366,10.9814272,23.4232655,4.4558311,23.4272366z"/>
</g>
</svg>
